<svg xmlns="http://www.w3.org/2000/svg" style="display:block" viewBox="0 0 500 500"><path d="M0 0q28 12 51 31 14 15 24 33l6 10 3 2 3 3 2 4 2 5 6 5 7 10 1 11v3l-2 10-1 5-1 6-5 7-3 7-3 3-2 10 5 5q10 6 16 15 5 7 6 14 1 10-1 19l-8 16-5 8v8l3 6 3 2 2 3v7l-3 3h-8l-3-2-3-1-4 7-3 6-3 1-6-1-2-2-1-2-2 2-2 3h-7l-3-3v-2h-2l-1 2-3 5-6 3h-3l-2-1-2-3v-8l2-6v-6l-5-6-3-3-6-4-6-1-5 3-4 4-10 5h-32q-21 4-43 1a130 130 0 0 1-66-34l-2-2q-17-16-26-37-11-24-13-50-2-33 9-64 9-24 26-44l16-14 3-2q18-13 40-19 43-11 85 4m89 205v10l1 6 2-1v-12zm-15 47-1 6h2v-6z" style="fill:#0c0a08" transform="translate(282 111)"/><path d="M0 0h6L3 2Q0 5-1 9l1-2 2-2 2-2 5-3 13 1h3q27 4 51 17 15 9 28 21v1l-9 1-24 3-1 2 2-1a85 85 0 0 1 35-3l5 4 4 6 15 25v2l-12-1h-3v2h7l12 2 6 5 1 4h-21c-18 0-18 0-35 3l-10-1-4-1-12-1-9 3q-7 4-11 11l-2 6-1 3-6 5-4 2-2 2h-2l-3-6-7-15-2-6a92 92 0 0 1 22-29q9-9 21-15l3-1 3-1v-2l-8 4-3 1-17 13-3 2Q19 78 13 90l-2 4-1 2-6-4q-8-6-17-9h-4l-3-2-1-10v-4A88 88 0 0 1-7 17l-9 13q-4 12-6 26v25l-3 2h-7l-8 1-6 3-2 1-10-7q-6-7-10-18-5-15-5-30l1-5 5-5 7-4 3-2Q-37 5-16 2l4-1 3-1z" style="fill:#ad8d3e" transform="translate(225 107)"/><path d="m0 0-3 3-7 11-1 12v6q2 12 8 23 2 5 5 6l9 5h3l-2-2 9-1 2 1v14l2 3 3 2q11 8 18 18l4 9c1 10 1 10-1 14q-4 11-11 21l-3 6v10l4 8 4 4v3h-6l-6-5-1-5v-3l-2-11 1-5 5-11 5-12-1-9q-1-6-6-10l-7-5-2-2-2-7-7-11 1 3 2 4 2 3q4 7 4 14 0 13-4 24l-1 3-4 5-5-1-5-4 2-9q2-5 1-11-1-13-7-24l-4-6-3-2 3 3 6 12 1 13v2l-1 12-2 3-3-3-2-7q-3-10-10-19l-11-8q-5-3-12-3l2 1q9 1 15 7 7 5 10 12l7 16q1 6 5 10l4 3 3 2 2 1 12 9 6 11v15l-5 13-3 3-3-1 1-6q1-11-1-22l-3-5-10-7-3-1q-8-2-15-8l-4-8-2-4-2-4-9-13-12-5h-8 2q9 2 16 6l5 4 4 7 2 4 1 3-3 1-4-1-1-4-6-3-3-1-3-2-4-3-2-5 1 5q3 5 7 6l5 3 2 1 2 3h-13l-8-5-4-10q0 6 3 10l5 5q9 3 17 2l11 2 3 6 4 4 3 1 5 3 3 7v12q-8-8-14-19l-4-2-15-7h-14l-9-2q-5-1-9-6l-4-8v-4h-2l5 12 8 7q8 3 15 2 10 1 19 4l12 10 6 9 9 9 5 2 4 1 1 4-4 2-13-1-13-10-5-6-9-6h-21c-10 1-10 1-15-1l-7-4-3-2a57 57 0 0 1-16-28l1-5 6-8 1-7 2-4-3 4-1 4-1 3-3 2V94l5-7q-4 3-6 7l-1 12v8l-2 2-2-7-1-2-1-24v-3q0-11 4-22l2-13 1-11 11-10h1l1 10 1 3 3 20 4 5 14 5h3v1l-5 1h7q8-2 14-8l7-11q5-12 6-27l-2-9-4-7-2-4c10-5 23-3 34-3" style="fill:#bba6c4" transform="translate(343 201)"/><path d="M0 0h1v5l1 4v7q1 22 11 43 5 9 12 16l12 7 11 2h8q-3 5-7 6-7 2-15 1a38 38 0 0 1-20-11l5 6 3 2 2 1q-5 3-11 3l-5-1Q1 85-4 76l-5-11v-3h-2A72 72 0 0 0 7 93H-6l-5-6-2-4v-3h-2l6 13-2 1q-17-1-34-6l-3-2-2-6-1-4v-3l-1-4q-2-19 4-36 2-7 6-13h5l-2 4-4 16h2v-4l4-13 1-2 7-2q13-4 22-11l6-6z" style="fill:#aa8a3e" transform="translate(238 276)"/><path d="m0 0 5 1 4 3q6 6 13 7l6 1 2 1-4 12q-6 16-5 32l2 15 1 7h-3l-6-3-3-2q-17-9-32-23l-3-3-2-3v-7l11-19q-6 6-10 14l-1 3-3 5-2-1-1-3 2-9q6-10 15-19z" style="fill:#ac8c3f" transform="translate(164 282)"/><path d="M0 0h2v7q1 15 8 30 3 10 10 16l2 2 3 3-5 5-4 4-2 3-4 6-2 3-10-2q-13-7-23-17l-7-10 3-9Q-19 18 0 0" style="fill:#ac8d3f" transform="translate(149 138)"/><path d="m0 0 5 1 22 2 14-1 3-1 1 2 1 3q1 8 5 16l1 2 5 8-6 4q-9 5-17 13-6 9-9 17l-1 2q-8-10-14-23Q2 26 0 6z" style="fill:#ac8c3f" transform="translate(108 248)"/><path d="M0 0h2l4 5q5 9 13 14l19 9 2 1-1 7-1 8v2l-1 5-1 6-8 3H14Q4 60-6 57l-1-1q-2-24 4-46l1-3z" style="fill:#ac8c3e" transform="translate(115 190)"/><path d="m0 0 9 2 8 7 4 8v16a26 26 0 0 1-11 11l-2 2q-7 3-14 2l-8-3-7-6-2-3-2-2-1-13 2-9 10-9q7-4 14-3" style="fill:#fafaf9" transform="translate(292 201)"/><path d="m0 0 12 1 9 6 6 8v14l-4 9-9 8q-7 3-13 2l-9-3-7-6-5-10V17l5-9q6-5 15-8" style="fill:#fafafa" transform="translate(355 201)"/><path d="m0 0 3 1a56 56 0 0 1 10 25v2q0 13-4 25L1 67l-2 2-6-1-11-9-3-5 1-5 2-4 2-8V25l-4-7 1-5 7-8q6-4 12-5" style="fill:#ab8c3e" transform="translate(233 210)"/><path d="M0 0h10l6 4 5 7 1 12-3 9-9 7H-1l-6-4-5-9V13l5-8 2-1v8l3 5 2 1-2-2-2-3V6z" style="fill:#a98a3f" transform="translate(193 224)"/><path d="m0 0 6-1q11 3 20 8l4 3 2 2 4 5-8 3-6 3-6 6-2 3-7-2-7-1-3-1-2-8v-2q-1-5 1-11z" style="fill:#ab8b3e" transform="translate(198 192)"/><path d="M0 0h3l2 1-2 6q-2 7-1 13v2l1 6h7l8 4h2l2-5q6-6 14-9l2-1 4 1-3 1-4 2-3 2-7 5-3 5v3l2 3 2 4v16l-4 8-1 3v2l8 10 9 5-4 1-9-6-5-6-3-4-3 1-3 2H2l-1 2-1 3-1 4-1 3-2-3 4-10-5-1-3-4-4-4h-5l-10 5 1-4 7-3h6l-2-6V45l2-4-7-2-7-6-4-8 2-3 3 7 5 6 6 3 4-1 4-5 5-3h3l-1-6-1-13 2-4 1-4zm1 32-3 3-1 6v4l4 5-4-3-1-9-1-2-6 9v13l4 8 7 5h11l8-6 4-10v-8l-5-10-7-5z" style="fill:#150f08" transform="translate(192 192)"/><path d="m0 0 6 7a26 26 0 0 0 14 10v2q-8 7-17 10H-9l-3 1-6-1-2-4 1-11 4-10 6-1 6-1z" style="fill:#aa8b3f" transform="translate(209 263)"/><path d="m0 0 2 1-2 6-1 10 1 5v7l-5 3-3 1-2 3-3 3h-2l-10-6-5-7v-5l8-10Q-12 3 0 0" style="fill:#ac8c3f" transform="translate(193 192)"/><path d="M0 0h2l3 4 6 7 6 3 2 1-1 4v9l1 7v2l-7 2-5 2-3 2H2l-1 3h-2q-4-11-5-22 1-11 5-21z" style="fill:#a98a3f" transform="translate(160 218)"/><path d="m0 0 2 3 2 3 3 6 4 2 4 2a30 30 0 0 0 21 1l8-4-1 3-11 8q-8 3-17 2c9 1 9 1 17-1l10-7 2-2 4-4-4 10-7 8-4 3-3 2-3 1-14-2q-5-2-8-6l-4-8z" style="fill:#60436e" transform="translate(263 233)"/><path d="m0 0 3 1 6 7 3 1 2 1-3 8q-2 7-1 13v3H8l-14-8-8-9-2-2-1-3 2-5 5-3 2-2z" style="fill:#ab8c3f" transform="translate(178 256)"/><path d="M0 0q8-1 16 1l6 3 3 2 9 11 10 19 10 5c12 5 12 5 15 8l1 2-3 5-4 8-1 2h-2l-3-2-2-8-1-4-1-7-1-2-6-2-7-6-1-3-1-3-11-1-17-2-5-4-4-7V8l2 2 1 4 4 6 6 4h12l-4-2-2-2-5-3-5-4-1-6V5l2 2 1 3 2 3 8 5 7 5v2h6q-2-8-7-14l-7-5Q12 2 2 1H0z" style="fill:#161418" transform="translate(287 303)"/><path d="M0 0h2L0 6l-3 3-2 2-1 6-4 4-13 1-6-4-2-2-2-2-7-11 1-2 2 3 6 6 10 3h6l-4-1-9-2-6-5-1-2 7 3q6 2 13 1A25 25 0 0 0 0 0" style="fill:#5f426d" transform="translate(377 244)"/><path d="m0 0 7 5 7 14q4 10 3 20 0 7-4 13v2l5 2-3 2-6-4Q3 43-1 31q-2-6-6-11l-12-9-10-3-2-1V6h7q9 3 15 8A44 44 0 0 1 4 35l4 11a30 30 0 0 0 4-16l-1-3q1-7-2-14z" style="fill:#1c191e" transform="translate(334 278)"/><path d="M0 0q8-1 16 1l6 3 3 2q6 5 9 11l3 7v4H23L9 26l-5-4-4-7V8l2 2 1 4 4 6 6 4h12l-4-2-2-2-5-3-5-4-1-6V5l2 2 1 3 2 3 8 5 7 5v2h6q-2-8-7-14l-7-5Q12 2 2 1H0z" style="fill:#1b171c" transform="translate(287 303)"/><path d="M0 0h2l2 5 2 6q3 4 8 6l9 1q12 1 23 4l13 10 11 15v-2l1-3h1l1 4 1 4 4 2 1-2v3l-5 1-8-7-4-6q-4-7-11-12-4-4-10-5l-15-2q-7 1-13-2l-7-5L0 5z" style="fill:#1b181c" transform="translate(271 317)"/><path d="m0 0 6 4 5 8 2 10q-2 8-7 15l-4 9H1v-7l4-7 4-10-1-8-5-7-3-2z" style="fill:#9a7d9f" transform="translate(368 303)"/><path d="m0 0 3 1 2 2 1 4-3 6-1 4-2 2h-3l-2-2V8z" style="fill:#b6a2bd" transform="translate(349 350)"/><path d="m0 0 2 2v12l-1 8-2 3-7-4 2-5 2-5 1-3 2-6z" style="fill:#b4a0bb" transform="translate(367 318)"/><path d="m0 0 2 1-2 3-3 4v14l3-6 1-4 3-3 2 1-1 2-2 2v3l-1 4-5 6-3 4q-2-7-1-16l1-7z" style="fill:#221e24" transform="translate(255 287)"/><path d="m0 0 5 2 3 1-4 9-1 2-2 2-4 1 1-9V6z" style="fill:#b6a1bd" transform="translate(330 376)"/><path d="m0 0 3-1 7 2 5 4 1 2-2 2-2-3-3-2-3 4H2z" style="fill:#453d48" transform="translate(341 347)"/><path d="m0 0 4 1-2 2-10 1h-18l8-2 6-1z" style="fill:#271f10" transform="translate(146 248)"/><path d="m0 0 4 1 3 3v6l-4 5h-6v-2l3-1 3-1V4L0 2z" style="fill:#241a0a" transform="translate(197 237)"/><path d="M0 0q11 0 21 3l-3 2-5-1L1 3h-7V2l6-1z" style="fill:#3d3640" transform="translate(296 336)"/><path d="M0 0h1l1 10-2 5-4 1 1-5 1-3 1-3V2z" style="fill:#574e59" transform="translate(348 313)"/><path d="M0 0q6 5 9 12l1 2-1 6H8l-1-4L0 2z" style="fill:#231f25" transform="translate(356 280)"/><path d="m0 0 3-1 3 1v7L2 6z" style="fill:#b6a2bd" transform="translate(343 381)"/><path d="M0 0h2l3 5 1 3 1 2 1 2-1 2H2l3-2-2-4-3-5z" style="fill:#271d0f" transform="translate(223 356)"/></svg>