<svg xmlns="http://www.w3.org/2000/svg" style="display:block" viewBox="0 0 500 500"><path d="m0 0 2 2q15 15 20 36 3 10 9 19 12 17 2 35-8 9-20 3C-1 85 4 69 9 55 13 35-10 9-26 1c-24-11-50-3-70 14l-2 1-5 5-3 2-5 8q3 4 9 6l9 8h7q12-2 22 4l4 2c11 10 13 26 7 39l-2 9-1 9q-2 7 3 10 3 14-8 22-6 7-9 15l2-1h5l12 1h3q3-1 4-6l-1-3 2-8q7-2 10 5 3 5 3 12-1 5 3 5h3q11 7 8 20-3 10-13 10c-5 0-4 3-5 6l-6 14q-9 16-23 29l-2 2c-20 22-52 29-80 29h-3q-18 1-36-4l-2-1q-39-11-62-45l-13-17c-4-7-4-7-11-10l-8 5q-6 3-13 2h-4c-10-1-13-10-15-19q-2-12 9-16l-6-3-3-1q-10-2-18 4c-35 18-35 18-49 3-17-24-21-61-2-84 17-18 40-1 57 9l5 3q9 4 17-2l-5-6c-4-15 10-32 22-39q12-5 26 1 8 4 12-3 23-23 55-28h3l7-1h4q20-1 40 4 8 3 12-4l3-3 1-2C-91-22-35-34 0 0" style="fill:#585468" transform="translate(420 125)"/><path d="M0 0h3c36 1 59 27 68 61q2 7 7 11c7 9 10 22 3 31q-4 7-12 3c-10-7-8-18-4-29 8-21-12-50-29-62C6-2-25 6-51 29l-2 2c-6 6-18 17-18 26l2-3c4-4 4-4 8-3l10 7q2 3 5-1 4 1 7 4l5-1q13-1 22 4l4 2C3 76 6 92-1 105l-1 10-2 8q-2 7 3 10 4 14-8 23-6 6-9 14l2-1 5 1H4q3-1 4-6v-3q-1-4 1-8 8-2 10 5 6 11 5 21l4 2q6 7 2 16-5 6-12 2l-3-1-3-1c-21-8-46-7-65 7l2-1c21-8 38-12 60-5l4 2q4 1 3 4l-2 3-1 4C1 234 1 234-8 238l-4 3a137 137 0 0 1-78 19c-13 0-29-1-39-11l-6-3c-36-22-32-69-22-105l6-15 2-4 1-4 1-3 2-11q0-17 11-32l2-2q17-15 38-15 12-3 20-13l7-9q20-21 49-31l4-1z" style="fill:#806b5e" transform="translate(368 110)"/><path d="m0 0 2 2q15 15 20 36 3 10 9 19 12 17 2 35-8 9-20 3C-1 85 4 69 9 55 13 35-10 9-26 1c-24-11-50-3-70 14l-2 1-5 5-3 2-5 8 9 6 5 5-4 3-7-4-10-6-2 5-4 3c2-25 42-49 64-53 34-3 61 16 73 49 3 9 3 14 0 24-3 9-5 20 3 27q8 3 13-3 7-18-6-31-5-6-6-13Q12 21-4 4l-2-2a68 68 0 0 0-70-12l-3 1q-31 14-52 41l-6 4 1-2 1-5c-53-16-96 5-130 45a92 92 0 0 1-45 29q-22 8-21 30 3 18 21 23l5 1 2 1c27 10 43 36 60 58 35 46 95 62 149 38a117 117 0 0 0 55-62l3-6-10-3-3-1q-27-6-52 7h-5c15-15 43-16 62-9h3l5 2c7 3 7 3 13-1q3-7-1-15l-3-1q-2 0-2-4 1-2 4-2 11 8 9 21-3 10-13 10c-5 0-4 3-5 6l-6 14q-9 16-23 29l-2 2c-20 22-52 29-80 29h-3q-18 1-36-4l-2-1q-39-11-62-45l-13-17c-4-7-4-7-11-10l-8 5q-6 3-13 2h-4c-10-1-13-10-15-19q-2-12 9-16l-6-3-3-1q-10-2-18 4c-35 18-35 18-49 3-17-24-21-61-2-84 17-18 40-1 57 9l5 3q9 4 17-2l-5-6c-4-15 10-32 22-39q12-5 26 1 8 4 12-3 23-23 55-28h3l7-1h4q20-1 40 4 8 3 12-4l3-3 1-2C-91-22-35-34 0 0" style="fill:#070607" transform="translate(420 125)"/><path d="M0 0q4 1 7 4l5-1q12-2 22 4l4 2c11 10 13 26 7 39l-2 9-1 9q-2 7 3 10 3 14-8 22-6 7-9 15l2-1h5l12 1h3q3-1 4-6l-1-3 2-8q8-1 11 6l1 6-4 2-4-8-2 7-1 4v3l4 1v2h-9l3 3-1 3-3-3q-9-7-19-4h-4c-31 3-81 18-96 48h-3c2-39 41-79 77-86 20-3 20-3 26 3q1 8-4 14-8 8-8 19l4-1v-3q2-12 12-20 6-5 4-14-4-6-12-5C8 73-3 56-8 40c-2-10 0-25 11-30L0 6q-3-1 0-6" style="fill:#070706" transform="translate(322 167)"/><path d="M0 0q-1 5-6 6l-11-5-3-2-3-2-4-3-6-3-3-2-3-2-2-1q0 4 5 4l21 14 4 2q3 1 0 6c-4 5-11 1-16-1l-3-1-22-7 2 1 10 4 3 1 14 5 3 2 3 1q3 1 2 4-4 5-10 2h-3l5 2 7 2c1 7 1 7-3 8l-3 1-4 1h-3l-11 3-5 1q-6 1-7 3l5-1 4-1h4l3-1 17-4q7-1 7 6l-4 3-3 2h4q6-4 10 2l2 3-8 5-3 1-10 5c-15 6-24 8-34-5-16-24-16-57 4-78C-40-28-12-8 0 0" style="fill:#654b58" transform="translate(101 227)"/><path d="m0 0 2 2q15 15 20 36 3 10 9 19 12 17 2 35-8 9-20 3C-1 85 4 69 9 55 13 35-10 9-26 1c-24-11-50-3-70 14l-2 1-5 5-3 2-5 8 9 6 5 5-4 3-7-4-10-6-2 5-4 3c2-25 42-49 64-53 34-3 61 16 73 49 3 9 3 14 0 24-3 9-5 20 3 27q8 3 13-3 7-18-6-31-5-6-6-13Q12 21-4 4l-2-2a68 68 0 0 0-70-12l-3 1q-31 14-52 41l-6 4 1-2 1-5q-67-19-117 31-2 3-5 2l1-2 1-3-6-1-5-2q-9-3-18 1h-3v-3l-2-1q14-7 30-1 8 4 12-3 23-23 55-28h3l7-1h4q20-1 40 4 8 3 12-4l3-3 1-2C-91-22-35-34 0 0" style="fill:#050505" transform="translate(420 125)"/><path d="M0 0v3l3-1q15-5 29 3l-2 5 2 1-7 7-2 3Q6 40-18 50l-2 1q-12 3-21-5c-22-14-22-14-45-14-19 21-18 54-3 77q9 13 24 7l5-2 3-1 11-5q4 0 4 2c-2 9-25 14-33 15-19-1-27-25-30-40-4-22 0-49 20-61 17-4 40 11 53 20q9 4 17-2l-5-6C-23 26-13 0 0 0" style="fill:#060505" transform="translate(133 177)"/><path d="M0 0q10 21-7 38-18 11-35 0-18-15-9-37c11-20 38-21 51-1" style="fill:#fcfcfb" transform="translate(297 191)"/><path d="m0 0 6 2q6 5 4 14-3 9-11 12l-8 7q-7 9-17 8c-15-9-19-31-14-47 7-16 29-2 40 4" style="fill:#776356" transform="translate(190 249)"/><path d="M0 0q9 17-4 32c-8 7-21 9-31 2q-13-12-9-31c9-18 33-19 44-3" style="fill:#fbfbfb" transform="translate(362 186)"/><path d="M0 0h3c36 1 59 27 68 61q2 7 7 11c7 9 10 22 3 31q-4 7-12 3c-10-7-8-18-4-29 8-21-12-50-29-62C6-2-25 6-51 29l-2 2q-12 12-20 27l1-2q1-4-4-3l-4 1h-8l3-3 11-9 10-11q19-21 46-29l4-1z" style="fill:#625363" transform="translate(368 110)"/><path d="M0 0h3q4 0 6 3-1 7-5 12-6 8-6 17-2 4-8 4l-4 1-4 1-4 2q-7 1-14-2-15-5-31 1C-54 15-27 0 0 0" style="fill:#47333e" transform="translate(341 249)"/><path d="M0 0q1 8-4 14-8 8-8 19l4-1q1 4-2 4h-3l-4 1-4 1c-26 6-66 19-79 45h-3c2-39 41-79 77-86C-6-6-6-6 0 0m-79 36 1 2 3-1q16-5 30 1h12l8-2 3-1c7-1 7-1 8-7q2-11 10-20 2-3 0-7c-23-15-63 17-75 35" style="fill:#0c0909" transform="translate(353 250)"/><path d="m0 0 1 2c7 21-3 47-21 59q-15 9-30 2v-1h6q25 2 37-21l-1 2c-10 9-24 16-37 9l-5-5 4 2q23 6 38-12v-2l-5 4q-23 12-41-6l-3-4-1-2c-8-14-3-30 8-40 18-14 40-7 50 13m-58 7q-1 23 18 32 25 6 36-14Q5 2-15-13c-17-10-41 0-43 20" style="fill:#100e0e" transform="translate(302 194)"/><path d="m0 0 2 1 5 2-5 7-13-5-5-1 3 1 4 2 4 2q4 2 3 5l-4 5-3 3q-6 3-13-2l-3-2-3-1 2 1 7 5 3 2q2 2-2 5-4 4-9 2l-2-1-3-1 3 2q4 2 2 5-4 4-9-1-8-8-2-17C-29 3-19-5 0 0" style="fill:#654c59" transform="translate(158 179)"/><path d="M0 0q15 15 11 35-5 9-14 6c-13-9-6-27-1-40z" style="fill:#e7e58f" transform="translate(440 175)"/><path d="M0 0q0 4-4 7-9 18 5 33 8 5 17 5v1h-6v2q14 1 24-8c-2 16-2 16-7 19l2 2C9 62-4 48-11 28c-1-5 1-33 11-28" style="fill:#141211" transform="translate(325 179)"/><path d="m0 0-4 2q-24 10-44 27l-2 1q-2-5 1-8l1-3 1-2 1-3 4-7 1-3 7-5 3-1q16-6 31 2" style="fill:#704958" transform="translate(308 291)"/><path d="m0 0-5 2-4 1-2 1 4-1L5 2q2 3-2 5L0 9l-4 2-3 2L5 7q2-2 6 1l2 3-5 4-4 2-2 2 2-1 3-1 2-2 7-2 2 3c-8 6-20 12-30 6-4-6-10-15-4-21 5-3 12-7 16-1" style="fill:#644b58" transform="translate(131 296)"/><path d="M0 0h1v5q3 22 23 29 16 3 29-7l3-2q-9 20-31 18-10 1-18-8l-2-2q-6-11-5-23z" style="fill:#554051" transform="translate(240 202)"/><path d="m0 0 1 2q-8-1-14-5c-16-8-16-8-31-4-6 16-2 35 9 48 11 5 17-4 24-11 7-6 7-6 12-6q-2 5-7 8-8 5-14 12-7 5-15 1C-49 33-56 9-48-8c10-16 37 1 48 8" style="fill:#0b090a" transform="translate(196 249)"/><path d="M0 0v10l-1 3-1 3C-9 43-9 74 9 97l1 2q10 9 21 14-5 1-10-2l-3-2C-15 90-14 44-4 12z" style="fill:#0c0b0c" transform="translate(211 247)"/><path d="M0 0c-2 18-2 18-7 18-6 0-17 0-20-6l4 1h12-2q-10 0-19-6h6C-15 8-8 0 0 0" style="fill:#554252" transform="translate(361 219)"/><path d="m0 0 4 6q2 4 6 1c3 10 3 10 1 14l-4-1H4l-3-4-3-1 1-13z" style="fill:#11100d" transform="translate(380 268)"/><path d="M0 0c9 2 15 22 15 31l-5 1-2-8L0 5z" style="fill:#958769" transform="translate(425 144)"/><path d="m0 0-6 5q-22 17-36 42C-47 32-16 8-5 0z" style="fill:#181311" transform="translate(296 253)"/><path d="M0 0q10 8 15 18l-4 3-4-5-9-9-4-7q3-2 6 0" style="fill:#7f6d60" transform="translate(413 125)"/><path d="M0 0c0 11-20 20-30 23l-12 1 10-4q19-5 32-20" style="fill:#16100e" transform="translate(335 334)"/><path d="M0 0h2l1 6c0 6 0 6 4 11q7 1 13-4l3 1q-7 9-18 6C-2 15-1 8 0 0" style="fill:#0e0a09" transform="translate(240 324)"/><path d="M0 0q4 5 3 11 1 11 8 21l1 6C1 27 0 15 0 0" style="fill:#100f14" transform="translate(194 309)"/><path d="M0 0c0 6 0 6-2 8-6 1-19 1-22-6l4 1c7 1 14-3 20-3" style="fill:#7b695d" transform="translate(358 229)"/><path d="m0 0 5 7v3l1 6-8-1 1-9V2z" style="fill:#c6c086" transform="translate(380 268)"/><path d="m0 0 2 6 1 4 1 5-5 1-2-5-1-3C-5-3-5-3 0 0" style="fill:#a79b72" transform="translate(436 160)"/><path d="M0 0c3 8-4 17-9 23l-4 1 4-6q5-6 6-13z" style="fill:#110e0c" transform="translate(350 330)"/><path d="m0 0 12 4 4 1 3 1-2 1v2l-7-2-14-3-2-2h6z" style="fill:#14100e" transform="translate(367 302)"/><path d="M0 0q1 2-3 4-8 8-5 18v2q-2 1-4-4c-1-8 2-20 12-20" style="fill:#0f0e13" transform="translate(200 179)"/></svg>