<svg xmlns="http://www.w3.org/2000/svg" style="display:block" viewBox="0 0 500 500"><path d="M0 0q16 7 21 23 2 23-12 39 12-1 20-11 15-14 33-14 13 2 22 12 16 21 14 47-4 22-21 37-10 9-24 8-17-5-29-18-5-6-12-6l1 2q7 9 8 20-4 14-15 24l-2 2a73 73 0 0 1-44 22c-11 0-22-8-30-15q-3-3-7-3l-6 1 2 3q6 6 8 13l6 7-2 5q-21 1-37-8l-3-1-10-7q-3-3-7-4 10 22 34 30 4 2 4 5v2c-21 7-49-3-68-12l-18-11q-5-6-13-5h-30l-4 1h-22l-18-1q8 17 24 27l-1 4q-11 1-20-5-15-12-19-30h-2l-12-5-2-1-5-3-2-1q0 19 10 34l3 6-5 1q-16-10-21-28l-3-16q-2-13-10-24c-8-13-8-13-8-18h-3q-5-1-8-6-3-4-1-10 2-5 6-9 5-5 5-12l-5-7q-4-13 0-27l8-8 2-2q11-6 24-4l2 1q3 1 5-2l3-2c50-40 130-36 190-30 18 2 18 2 34-5l5-5q7-7 16-8l5 1C-6-3-6-3 0 0" style="fill:#a89459" transform="translate(374 145)"/><path d="M0 0q16 7 21 23 2 23-12 39 12-1 20-11 15-14 33-14 13 2 22 12 16 21 14 47-4 22-21 37-10 9-24 8-17-5-29-18-5-6-12-6l1 2q7 9 8 20-4 14-15 24l-2 2a73 73 0 0 1-44 22c-11 0-22-8-30-15q-3-3-7-3l-6 1 2 3q6 6 8 13l6 7-2 5q-21 1-37-8l-3-1-10-7q-3-3-7-4 10 22 34 30 4 2 4 5v2c-21 7-49-3-68-12l-18-11q-5-6-13-5h-30l-4 1h-22l-18-1q8 17 24 27l-1 4q-11 1-20-5-15-12-19-30h-2l-12-5-2-1-5-3-2-1q0 19 10 34l3 6-5 1q-16-10-21-28l-3-16q-2-13-10-24c-8-13-8-13-8-18h-3q-5-1-8-6-3-4-1-10 2-5 6-9 5-5 5-12l-5-7q-4-13 0-27l8-8 2-2q11-6 24-4l2 1q3 1 5-2l3-2c50-40 130-36 190-30 18 2 18 2 34-5l5-5q7-7 16-8l5 1C-6-3-6-3 0 0m-296 49 1 2 2 3 2 3q4 7 3 15v7q0 6 2 11h-3l-1-4h-2l-2 2q-6 8-16 8-8 1-15-2h-3l-1 6h3q42-2 72 28l1 2c7 6 16 15 17 24q-6-1-9-7a94 94 0 0 0-58-41l-15-1-3-1q-11 1-18 8v7q2 4 5 3l7-1q20-6 39 3l13 10-3-2q-19-11-42-10l-8 4c5 20 21 35 38 45q4 4 11 4-2-10-7-19l-2-6q11 13 14 31 4 17 18 27l2-1-2-1c-9-11-11-24-15-38l-5-16c7 7 8 18 11 28q28 5 52-9l10-10 2-2 8-9q16-16 16-38-2-37-29-63l-3-3a73 73 0 0 1 34 44l1 3 1 15v3a62 62 0 0 1-25 49l-4 6q-6 7-13 11l-2 2v1h30v-2l-3-2q-4-3-6-9l4-1 2 4c21 22 51 39 82 40h3q-10-7-22-10-29-7-52-28v-1l2 2q27 21 60 29l-3-3-14-20q-5-9-14-13l-12-1c-14-1-14-1-18-6l-1-2 3 1q10 4 22 4 10 1 18 7l1 2 2 2 8-1h3c41-7 81-18 109-51q8-10 21-12 13 2 22 11 13 14 29 14 14-3 22-15 13-18 10-41-4-19-19-31-8-4-16-3-15 4-27 16l-3 2-3 2q-6 5-14 4l-4 1q-11-2-18-11l-2-2-7-9a93 93 0 0 0-64-29c-63-7-160-17-210 31" style="fill:#080605" transform="translate(374 145)"/><path d="M0 0q15 13 18 31 3 23-11 42-7 12-20 14c-13 0-22-9-31-16q-9-9-21-10-17 5-28 21a107 107 0 0 1-54 31l-38 10h-3l-9 2h-2l-7 1-5-6q-5-4-11-4v-1l4-1q38-2 75-16h4v-2l4-2q9-2 15-8l2-2v-7q-1-7 4-12l3-3 7 9 1-2 7-9 4 4-2-4V45l6-8 7 8q5-6 4-14l-1-9 4 4v4q1 7 5 13l2 1q4-9 1-19h-2v-3h2l3-1h3q12-2 20-11C-29 1-15-9 0 0" style="fill:#8e7941" transform="translate(447 192)"/><path d="M0 0h5q3 10-3 19 5-4 6-10 8 0 14 6 7 9 6 21-1 6-5 11l-3 1-3-3Q10 34-2 28l3 3c16 15 30 36 31 59q0 13-5 25l-1 3q-5 11-14 18h-2q1-10 7-17 7-10 7-22l1-2q0-20-10-38l-1-3-7-10-5 6-6-2v-2h-2l-7-3-2-1q-5-1-8-6-6-6-13-6-13-2-23 6-5 6-8 14l-3 3-3 1v2h-2v2h-3v-4q-2-12-10-22A143 143 0 0 1-15 2z" style="fill:#b1ab90" transform="translate(166 162)"/><path d="M0 0q15 13 18 31 3 23-11 42-7 12-20 14c-13 0-22-9-32-16l-4-6 3-2 3 2 4 3 2 2 13 9-3-3-7-5-10-9v-3q7 2 13 6l8 3-3-1-15-10 1-3 31 10 3 1 6 2-3-2-25-9-2-1q-5-1-9-5l1-2q14 0 26 2h4l-2-1-16-2-4-1-8-1v-4l36-5 3-1h3l4-1H5l-43 4v-4l26-10 2-1 12-4-41 13-1-4 7-6-3 2-2 1h-5q9-13 22-20-10 5-19 14-3 3-6 1h-2v-4l8-6 2-2C-27 0-14-9 0 0" style="fill:#a46254" transform="translate(447 192)"/><path d="M0 0c40 0 82 3 112 31l9 10q8 10 19 13v3h2q3 7 2 14l-3 5q-5-1-7-7l-2-9q1 8-4 15h-2q-5-7-5-15t-6-14l-4-4-3 7q-3 1-5-2l-2-2-1-2-2-2-1-1V30q-1-5-5-8l2 2q3 9 0 17-1 5-5 6l-2-3-4-4q-2-2-2-5v-4q-1-9-6-16l-1 1 2 2q5 9 3 17-1 6-6 8l-2-3-6-5v-6q1-10-6-17l-5-3v2l4 2c5 6 5 9 5 17q0 6-4 11-5-2-9-7V24q0-5-4-11v-2l-4-2-3-2v2l4 2q7 8 6 18-1 6-6 11l-3-3-2-2-3-2v-7q-1-12-9-19l-1 1 2 2q8 8 6 17 0 6-4 11h-4l-5-6-2-1-1-8q0-9-7-16L6 6l3 2q7 7 8 16-1 9-6 16H9l-2-3q-3-5-9-8l-1-6-1-9 3-9z" style="fill:#c0b897" transform="translate(239 160)"/><path d="M0 0h21q0 7-3 12l-4-3-8-6v2l2 1q6 4 10 11l1 10v6h4q7 6 11 16 2 13-6 25l-1 2h-2l-3-6-4-4q-2-4-2-9v-6h-1v4q0 12-7 21H6l-1-2-7-10q-5-8-3-17l2-4h-2v2h-2l-2-2q-3-5-8-7-4-2-5-7-2-6 1-14l-2 5-4-2v-2l-15-7-1-7q22-3 43-2" style="fill:#ada078" transform="translate(217 159)"/><path d="M0 0q12 6 19 16 4 16-5 30L7 56l-4 1-13-13c-16-19-35-27-58-33l11-11 3-2q3-3 8-3l1 1 9-1c12-5 25 0 36 5" style="fill:#8a6b58" transform="translate(369 149)"/><path d="M0 0q5 3 7 8l2 2q4 6 4 14C8 40-8 51-22 59q-12 7-24 5-13-6-24-15l8-5q18-6 33-18l2-2L-4 2z" style="fill:#886856" transform="translate(375 261)"/><path d="M0 0q10 5 13 16 2 9-4 18-5 7-13 10-11 1-19-4-9-9-10-19 1-10 7-15Q-15-5 0 0" style="fill:#f9f9f9" transform="translate(70 195)"/><path d="M0 0q10 5 13 15 2 12-6 23-7 7-17 6t-16-7q-7-10-5-21 3-10 12-15Q-9-3 0 0" style="fill:#fafafa" transform="translate(134 196)"/><path d="M0 0q11 7 14 19 2 12-5 21-6 9-16 11-11 2-20-3 8 7 18 7h4q6 0 10-3l2 1q-8 9-20 7-7-1-13-5 6 9 17 10h7q6 0 10-3l2 1q-9 8-20 6-14-2-22-13-11-17-8-38 3-11 14-18c7-4 19-4 26 0m-30 9q-7 10-5 21 3 9 10 14 9 6 19 2T8 32q3-9-1-18Q2 6-7 2q-14-2-23 7" style="fill:#0f0d0b" transform="translate(138 193)"/><path d="m0 0 2 1-3 2c-10 7-10 7-19 16v2l15-7 17-9 3-2h6l-3 1Q2 12-13 22l-5 2 2 3 27-9 3-1q6-3 14-3l-11 5-24 8-9 3v4l51-5c-9 6-23 5-33 7h-3l-15 1v4h3l29 4 4 1h7l7 3-18-1h-3l-29-4v3l14 6 4 1 26 10q-6 2-10-1l-4-1-4-2-4-1-20-7-4-1v2l9 6 2 1 22 13q-3 2-7-1l-4-2-2-1-17-10-7-4q8 12 21 20-5 0-8-4l-3-2-6-4-2-2-2-2h-5l-2 1v-3l2-2q8-9 8-19t-7-18l-4-3 1-3 2 1h7l6-5z" style="fill:#5d5037" transform="translate(425 196)"/><path d="m0 0-2 1-5-2q-11-4-24-3h-10q12 21 32 32l4 1 2 5v3l1 5q-23-6-37-26l-8-13-1-2-3-6q1-3 4-5c15-6 34 2 47 10" style="fill:#7e7864" transform="translate(97 278)"/><path d="M0 0h7Q6 5 2 7l4 2-3 2-8 6-2 2-4 4-6 2-3-1-4-1-4-1-14-5 11-10 3-3q3-3 8-3l1 1 9-1z" style="fill:#a79c84" transform="translate(343 143)"/><path d="M0 0h19c-1 8-1 8-4 11l-2-2-9-7v2l2 1q9 4 11 14 2 11-4 20h-3l-4-5-4-2q-5-5-6-14l-1-3 2-7z" style="fill:#c7be9c" transform="translate(218 160)"/><path d="M0 0q9 6 11 17 2 12-6 23l-7-3-4-1c1-11 1-11 3-15q4-6 2-12l-1-1 1 4q1 6-3 11-5-2-7-6l-2-14c9-4 9-4 13-3" style="fill:#b9a25f" transform="translate(396 213)"/><path d="M0 0h2q20 26 18 57l-4 14-1 3Q10 85 1 92h-2q1-10 6-18 8-9 8-21v-3C14 34 7 19 0 5z" style="fill:#ceb976" transform="translate(177 206)"/><path d="M0 0q5 2 7 6l1 2q4 12 1 23-3 8-9 12h-2l-1-3-4-6-2-8-1-4q-1-6 4-11l2-2z" style="fill:#baa056" transform="translate(211 223)"/><path d="M0 0q8 7 9 17 1 15-8 25l-4 2-1-2-1-3-2-3-3-4 1-10v-2q0-8 6-14z" style="fill:#bba056" transform="translate(232 225)"/><path d="M0 0q5 2 6 6l2 3q3 9 2 17Q7 36 0 42l-4-1c-6-8-4-16-3-25v-3q0-4 3-6z" style="fill:#bba156" transform="translate(250 226)"/><path d="M0 0q8 3 12 11 3 11 0 21-2 6-8 10l-1-2Q0 30-6 22v-4l1-3 2-6 1-2z" style="fill:#b9a058" transform="translate(196 194)"/><path d="M0 0q10 2 15 10t3 17l-4 10h-2l-1-3-8-6q-4-2-6-7l2-13z" style="fill:#c2b896" transform="translate(197 167)"/><path d="M0 0q5 2 7 6l2 3q4 9 2 20L6 39q-4 1-7-3-4-7-3-16l-1-8q0-7 5-12" style="fill:#c3b689" transform="translate(256 193)"/><path d="m0 0 3 5 2 3q4 8 2 18-3 9-10 14l-3-4-2-2V21q-2-11 4-20z" style="fill:#bba056" transform="translate(269 227)"/><path d="m0 0 2 1 3 2 3 2q10 6 21 5h3q12 1 24-5l3 1Q37 22 11 19l-7-1-2-8-1-2z" style="fill:#7c7762" transform="translate(105 307)"/><path d="M0 0q8 4 10 13 3 12-3 22l-2 3q-2 1-5-3-4-8-3-17l-1-9-1-3z" style="fill:#bba158" transform="translate(272 195)"/><path d="M0 0q8 7 9 16 1 12-7 21l-4 1-4-5 1-8-1-14 2-6 2-2z" style="fill:#c0a75e" transform="translate(283 227)"/><path d="M0 0q7 7 9 17-19-2-35-13l-2-3 9-2 2-1q9-4 17 2" style="fill:#968f74" transform="translate(287 319)"/><path d="M0 0q7 2 10 9 3 11-1 22-1 3-6 5-6-8-6-17L-4 8l2-5z" style="fill:#bfb389" transform="translate(302 197)"/><path d="M0 0q9 4 11 13 2 12-5 23l-3 1q-5-5-5-11v-7L-4 9q0-5 4-9" style="fill:#c3b68a" transform="translate(287 196)"/><path d="m0 0 8 2h11l7-2c14 1 26 10 36 18l3 3 14 15 3 3-1 2-3-3A99 99 0 0 0 30 8l-2-1Q14 5-1 6z" style="fill:#a35f50" transform="translate(46 239)"/><path d="m0 0 3 2Q1 8-6 9l-2 1-12 4-5 2h-3l-16 8h-6q2-5 9-8l2-2C-28 8-13-2 0 0" style="fill:#dcd9ca" transform="translate(131 175)"/><path d="M0 0q7 3 10 11 3 9-1 17-2 5-6 7l-2-3-4-5v-8L-4 8l2-5z" style="fill:#baa258" transform="translate(318 199)"/><path d="M0 0c17 9 17 9 20 15L5 8Q-23-7-53 2l-1-4c15-11 38-5 54 2" style="fill:#dbca93" transform="translate(91 257)"/><path d="M0 0q7 4 10 11 2 10-4 19l-4 2-2-3-4-5V13q0-8 4-13" style="fill:#bcac7a" transform="translate(334 202)"/><path d="m0 0-2 1h9l1 4-11 3 13 1v1q-21 4-42 4v-4l14-6 4-1 3-2 4-1z" style="fill:#a89d83" transform="translate(441 216)"/><path d="M0 0v4l-19 2v2h2l16 2v4l-24-2h-4l-13-3V5z" style="fill:#a89c83" transform="translate(451 228)"/><path d="M0 0q6 2 8 9 2 11-4 20l-3 3q-5-1-7-6l1-4V11q0-6 4-9z" style="fill:#bea55b" transform="translate(328 228)"/><path d="m0 0 26 2 15 2v1L27 6l12 3-1 3H28l8 4q-5 1-10-1l-4-2-2-1-7-2C2 5 2 5-1 2z" style="fill:#a79a80" transform="translate(409 240)"/><path d="M0 0q5 3 7 8 2 10-3 18l-4 4q-4-1-6-5-3-12 3-22z" style="fill:#bda45a" transform="translate(344 228)"/><path d="M0 0q4 6 2 14-3 10-10 15-12 6-25 2-5-2-9-8l2 1q12 4 23 1 11-5 15-15z" style="fill:#6b5d3e" transform="translate(152 217)"/><path d="M0 0q5 1 6 4 5 7 3 15l-5 8-3 1-2-3-3-4V10q0-6 4-10" style="fill:#bbad7e" transform="translate(350 206)"/><path d="M0 0h1q0 11-7 19-11 7-24 4-9-4-16-11l1-2 2 1 2 1 2 2q10 5 22 2 9-3 14-10z" style="fill:#6c5e3c" transform="translate(156 236)"/><path d="M0 0q-3 4-7 5l-3 2-3 1 2-1 4-1H4q0 2-5 3l-4 2-3 1-26 8-1-4 24-14 3-2 2-1q2-2 6 1" style="fill:#a99e85" transform="translate(442 204)"/><path d="M0 0h7q3 5 2 10v3l-1 6-4-2v-2l-15-7-1-7z" style="fill:#cdc4a3" transform="translate(185 160)"/><path d="M0 0h6v1L4 2Q-6 4-15 8l-6 1-4 3-3 2-5 5-8-1v-3l11-9 2-2 5-3 4 1 9-1z" style="fill:#c5bcac" transform="translate(343 143)"/><path d="m0 0 4 9v4q7 27-5 53-7 11-20 12l7-5q12-7 14-20Q5 27 0 0" style="fill:#211a11" transform="translate(172 231)"/><path d="M0 0q5 4 6 10 1 9-5 15l-1 4h-2q-6-7-4-18V8z" style="fill:#bca259" transform="translate(359 229)"/><path d="M0 0q6 5 8 13 0 4-4 7l-4 2-2 1-5 3-1-2 1-2v-7Q-8 8-3 3z" style="fill:#b99f56" transform="translate(336 254)"/><path d="m0 0 2 1-3 2-3 3-2 1-10 10-4 3q-7 0-12-5l5-4 2-3q5-4 11-4l3-1 5 1z" style="fill:#8d866d" transform="translate(342 146)"/><path d="M0 0a23 23 0 0 1-3 33l-5 2v-2l1-3v-2l1-6 3-11 1-4z" style="fill:#b49c57" transform="translate(203 258)"/><path d="m0 0-2 6 2-2 3-1 3 1-2 2-4 3-2 1-13 11-5 1-4-4C-7 0-7 0 0 0" style="fill:#a9a288" transform="translate(355 151)"/><path d="M0 0q8 3 12 11 3 12 0 22l-2 3H8l1-3V17q-3-2-7-2h-6l1-2v-3l1-3z" style="fill:#c7b884" transform="translate(196 194)"/><path d="m0 0 24 8 4 1 8 3v2l-17-3 11 7-1 2-9-3-2-2-3-1-2-2-14-9z" style="fill:#a79c82" transform="translate(407 246)"/><path d="m0 0-9 7 2-1 4-2 3-1h7l-8 6-2 1-3 1-6 3-3 2-6 3-3 2-3-1C-23 12-9-2 0 0" style="fill:#a99d84" transform="translate(431 197)"/><path d="M0 0q8 4 10 13 3 12-3 22l-2 3H3l1-4 1-3 2-4V16l-8-5-3-1-1-4z" style="fill:#c6b782" transform="translate(272 195)"/><path d="m0 0 2 1-1 2 2-1h7l1 2-4 2-5 3-2 1-11 7-3 2-4-2v-3l11-9 2-2z" style="fill:#a79f85" transform="translate(365 164)"/><path d="m0 0 1 2h2v2l12 4q0 9-3 17l-2 1-1-2-7-10Q-1 8 0 0" style="fill:#baa158" transform="translate(212 209)"/><path d="m0 0 4 1 7-1 1 2-3 2-18 13-7 1-2-3z" style="fill:#a59d83" transform="translate(357 159)"/><path d="m0 0 1 3h12q1 8-3 16v4H8l-2-4-4-6Q-1 7 0 0" style="fill:#b89f58" transform="translate(233 212)"/><path d="m0 0 9 5q26 20 58 28l1 2C45 32 17 20 2 2z" style="fill:#4e4732" transform="translate(192 314)"/><path d="M0 0q5 2 6 6c0 7 0 7-2 11l-5 3-3 1-2 1-2-1 1-2q3-5 2-9 1-6 5-10" style="fill:#bca359" transform="translate(371 231)"/><path d="M0 0q7 3 10 11 3 9-1 17l-4 4v-2q3-7 2-15l-3-3-6 1-2-7z" style="fill:#c0b284" transform="translate(318 199)"/><path d="m0 0 9 4 31 13q7 1 11 7v2q-12-2-23-9v-2l-4-1-14-6-2-2Q3 4 0 0" style="fill:#795b48" transform="translate(199 314)"/><path d="M0 0q0 10-4 18l-2 1c-6-6-6-6-6-11l1-7z" style="fill:#bba25a" transform="translate(264 213)"/><path d="m0 0-2 6 5-1v2L0 9l-5 2-2 1-2 1-2 1-6 3-3 2-4-2c2-5 4-5 8-8l4-2z" style="fill:#a6a084" transform="translate(376 169)"/><path d="m0 0-7 6-11 9-7 3-3-2q1-4 5-6l2-1 2-2 2-2c7-5 9-5 17-5" style="fill:#c1bba7" transform="translate(426 195)"/><path d="M0 0h20c0 8 0 8-3 12L1 4z" style="fill:#ccc3a2" transform="translate(195 160)"/><path d="M0 0v7l-8 4-2 1c-6 3-6 3-10 3l-2-1q0-4 5-6l4-3 2-1c8-4 8-4 11-4" style="fill:#a59e83" transform="translate(380 178)"/><path d="M0 0q5 2 6 6l2 3q3 9 2 17Q7 36 0 42h-2l3-6q7-11 3-24L2 7z" style="fill:#ceb871" transform="translate(250 226)"/><path d="M0 0q8 7 9 17 2 13-6 23-3 4-5 3l4-8q4-10 2-22L0 5z" style="fill:#d0bb73" transform="translate(232 225)"/><path d="m0 0-2 10q-8 1-16-3l1-4q8-4 17-3" style="fill:#e4d9ae" transform="translate(171 168)"/><path d="m0 0 1 2h9q0 9-3 17l-2 1c-6-9-6-9-6-15l1-3z" style="fill:#b79e58" transform="translate(300 213)"/><path d="M0 0c7 5 7 5 8 8v16q0 7 3 14Q1 25 1 9z" style="fill:#7d6f49" transform="translate(62 306)"/><path d="M0 0c11 0 11 0 15 3 5 6 5 6 5 9-9 1-9 1-13-2z" style="fill:#e5d9ac" transform="translate(248 165)"/><path d="M0 0q5 2 7 6l1 2q4 12 1 23-2 6-8 11h-2l4-7q6-11 2-23L0 3z" style="fill:#d3be76" transform="translate(211 223)"/><path d="M0 0h2l3 5 2 3q4 8 2 18-3 9-10 14l5-12Q7 16 2 6L0 3z" style="fill:#cfba73" transform="translate(267 227)"/><path d="M0 0q3 1 5 4v8l-1 4-10-1q0-9 6-15" style="fill:#bda45a" transform="translate(384 231)"/><path d="m0 0 9 1q0 8-4 15-3 1-5-2l-1-8 1-4z" style="fill:#b9a158" transform="translate(286 214)"/></svg>