<svg xmlns="http://www.w3.org/2000/svg" style="display:block" viewBox="0 0 500 500"><path d="M0 0q5 5 3 12C2 20-8 27-14 33c-17 14-25 34-34 54q-6 18-18 32l-2 2a98 98 0 0 1-48 32h-2l-1 4-1 3q3 3 8 2 7 1 12 5l4 3v2l2 1q3 1 5 4c0 5 0 5-3 9v4l-1 3-8 2-2 4q-6 1-11-2l-3-2v-2h-2q-12 1-21-6l-3-3-8 5 3 5 2 3 4 6v5l-3 3h-3v2l-3 5h-7l-1 1-7-1-4-5-9-6-3-2-9 1v4l-1 17v3q-1 8-7 13l-7 1-3 2h-6l-3-3-7-2-1-1v-8h-2l-5-3q-1-5 2-9l5-5 2-5h-3q-20 1-39-5l2 3 2 4 2 4 2 7q0 3-5 5l-1 7-2 2h-8l-4 2q-4 0-7-3-12-13-13-30v-7h-4c-26-1-53-9-72-28l-4 2q-4 2-9 1-4-2-6-7l-1-5h-3v4q1 6-3 11l-8 4-8-3q-4-6-4-14v-5l-3-1q-7-2-12-8-3-7-1-14l7-6h13l24-1-2-14h-5l-1 4q-5 3-12 2l-4-4v-2h-2l-2 4q-5 3-10 2-6-3-8-10V97q-1-7-7-12l-2-10v-3q0-4 3-8 6-4 14-3l18 10q13 10 29 10l5-5-5-1-3 3h-10q-4-4-6-9V58l-2 2-10 1q-5-1-7-6l-1-13q0-11-4-20-3-10 2-19 5-7 14-8 5 0 9 5l10 14c8 17 20 25 37 33h5l3-1 4-2 4-2q36-17 77-6l24 12c11-1 24-10 32-17q7-8 12-18c7-13 7-13 14-17 10-1 10-1 14 2q6 8 6 18l3 13q4 12-1 23-2 4-7 5l-8-2v10q22 0 37-16l23-22 2-2 6-5 2-2 10-5v-2C-65-3-28-18 0 0" style="fill:#0d0708" transform="translate(472 134)"/><path d="m0 0 10 8q22 19 26 49 3 30-14 53l-2 2a87 87 0 0 1-49 27l-3 1c-27 5-57 1-80-13a71 71 0 0 1-29-40l-1-10 4 2q13 7 27 3l3-1q-7 7-16 7l-12-2 1 5q12 3 24-2 12-8 17-23 3-14-4-27-7-10-21-12l-7-1a87 87 0 0 1 60-38l2-1q34-5 64 13" style="fill:#efcecf" transform="translate(228 185)"/><path d="M0 0q-3 6-9 11c-15 13-22 27-30 45q-13 34-40 58h-2l-1-11h-3v3q0 18-10 33h-2l-2-4-4-1q2 10 10 16 5 3 9 2 11 2 18 10v2h-7l1 2 2 6h-7v5q-5-1-7-5h-6q-11-1-19-8l-7-12-2-4-3 1q0 4 3 8l1 3q-3 7-10 9l-3 2-22 10-3 1h-8l-1-4q-3-8-8-15v-2l-4 1q2 6 6 11c6 13 4 31 1 44l-3 4-2-5-3 1-2 5h-2v-9q-5 2-9 6v-10h-6l6-8q3-11-1-23l-4-7-4-1 5 12v6h-18q-10 0-21-4l-3-1-8-2-1-2 3-1q38-7 60-39l8 2v4q1 7 6 11h7q5-3 6-8v-3h5v4l4 11 7 4 6-3q4-7 4-15l3-6 6-4q4-4 5-9c0-5 0-5-2-8q-4-4-9-4h-16q-16 1-31-7v-7h6l1 3 5 5q5 1 9-2l4-8 2 2q5 2 9 1 5-3 6-10l1-4 4-1 2 4 4 6c6 0 7 0 12-3q3-8 2-17l1-12V52l4-2q16-8 30-20C-56 17-22-11 0 0" style="fill:#edcdce" transform="translate(442 150)"/><path d="M0 0q0 6-3 11l-4 3-3 3-7 7c-16 13-24 32-32 51q-9 23-26 42l-2 2q-12 13-31 20h-3l1-7 8-6c21-15 32-40 42-63q11-27 33-44l4-5V7c-11-5-22-1-33 2a133 133 0 0 0-46 29l-3 3c-10 7-20 15-33 16l5-5 3-3 8-7 8-8 19-16C-71-1-28-20 0 0" style="fill:#da9ab0" transform="translate(469 140)"/><path d="M0 0q5 2 9 6 2 4 1 9l3 12q3 9 1 19l-3 4-5-1q-3-5-3-11l-4-1-1 2-2 4 1 7q1 9-2 19h-6q-4-6-3-12l-6 3-1 10-2 6h-5l-2-7q-4 0-8 3h-3l-4-7-9-10-2-1v-2l3-2q26-10 39-34C-6 1-6 1 0 0" style="fill:#cb4287" transform="translate(297 135)"/><path d="M0 0q8 8 13 18c9 17 22 25 39 33v2l-6 5-11 12-8-4-5-1-2 5h-6l-2-10q0-6-4-11l-7-3-1 6-5 1q-4-7-3-15c0-8 0-8-2-15q-4-8-2-17 4-7 12-6" style="fill:#cd4288" transform="translate(64 136)"/><path d="m0 0 4 4q1 6-2 11v20l-2 7h-5q-4-6-3-14-7 2-13 6l-2 9-2 4-5-1-2-5h-6q-2 4-2 9l-3 4-6-3-1-6-11-1v-5l-3-12v-5l4-1h5l3-1q23-4 42-18z" style="fill:#cc4288" transform="translate(329 201)"/><path d="M0 0q8 6 13 13 2 10 0 19-5 9-15 14-10 2-19-2-10-5-13-17-2-11 5-20Q-17-5 0 0" style="fill:#fafafa" transform="translate(218 218)"/><path d="M0 0q9 6 13 14 2 13-4 22-5 7-15 10-9 2-19-4-9-8-10-20 0-10 9-18Q-14-6 0 0" style="fill:#fafafa" transform="translate(117 218)"/><path d="m0 0 12 4 13 1h4l14 1h5l6 2q1 5-1 10l-5 3-7 4-1 12q1 3-3 7h-5q-4-8-4-17H16l-3 10-5 1q-4-6-4-14l-9-4z" style="fill:#cc4288" transform="translate(268 264)"/><path d="M0 0q10 3 20 10 12 8 26 11l-4 8-2 14-8-1-2 7-4 1c-3-4-3-4-3-9l-3-6q-3-3-6-1v8l-4 7-5-1q-3-8-2-17 0-8-4-13l-4-3-1-10q3-5 6-5" style="fill:#cb4287" transform="translate(37 200)"/><path d="M0 0q11 7 14 19 3 14-5 24-7 9-17 12h-11l-7-1q9 5 20 4l5-2 4 1v4q-12 6-24 2-13-5-19-18l-2-4-1-3q-3-12 1-25l8-9 2-2Q-16-8 0 0m-33 10q-7 8-6 18 2 10 8 16 9 8 21 6Q0 47 7 38q4-8 2-17Q7 11-1 6q-17-11-32 4" style="fill:#0f0c0c" transform="translate(223 214)"/><path d="m0 0 1 3q3 12 8 22l2 2-3 6q-4 0-6-4l-1-7h-13v6q0 6-4 11h-5q-4-6-4-13v-6l-3-1q-9-3-13-10V4q3-4 6-3l5-1z" style="fill:#ca4287" transform="translate(82 269)"/><path d="M0 0q10-1 19 5l2 7q2 6 6 10v2l-7-2 2 12q-4-2-6-5h-3l-1 5q-3 0-5-4l-1-3-2-3Q0 13 0 0" style="fill:#e9cacb" transform="translate(180 331)"/><path d="m0 0 1 5h-3l-32-1h-54l1-5q44-6 87 1" style="fill:#181313" transform="translate(202 286)"/><path d="m0 0 5 2 3 6 2 3 1 2H5l1 6-4-2h-3l-2 3-1-3q-4-6-12-7l-1-2 3-1 4-2 4-1z" style="fill:#e3c7c7" transform="translate(312 326)"/><path d="M0 0h1q1 10-4 18l-5 5-2 4-1-3-8 2q-10 2-20-4l-2-3 3 1q11 3 22-1Q-6 14-1 4z" style="fill:#b58b94" transform="translate(236 247)"/><path d="m0 0 8 1v2c-15 8-26 10-43 11l-2-6 4-2 2 4q4 2 10 1 4-3 5-8l2 1h10l2-2z" style="fill:#d1baba" transform="translate(297 204)"/><path d="M0 0h23l1 4-3 1H-3l-1-4z" style="fill:#0f0b0b" transform="translate(147 295)"/><path d="m0 0 4 2q14 7 27 3l3-1q-7 7-16 7L6 9l-1 4-2-4-2 1z" style="fill:#b08992" transform="translate(86 262)"/></svg>