<svg version="1.2" xmlns="http://www.w3.org/2000/svg" viewBox="0 0 1080 1080">
	
	<path id="n_underfin" d="m489.83 531.47c0 0-23.24 134.85-53.38 194.9-30.14 60.06-75.75 98.16-75.75 98.16 0 0-45.58 46.13-11.93 77.95 33.66 31.82 119.76-22.88 119.76-22.88 0 0-3.51 31.92 6.87 43.65 18.4 20.79 79.91 13.12 147.03-80.83 4.13-5.78 12.96 14.18 12.96 14.18 0 0 22.16 47.61 60.03-24.47 31.68-60.31 83.65-199.35 83.65-199.35z" style="fill:#663366;stroke:#000000;stroke-linecap:round;stroke-linejoin:round;stroke-width:15"/>
	<path id="n_cinfin1" d="m850.8 610.18c0 0 14.65 235.12-61.63 255.03-6.11 1.6 0.56-63.42-23.81-86.51-4.07-3.87-16.17-34.1-13.27-50.1 9.57-52.85 77.45-114.65 75.6-114.7-4.65-0.11 23.11-3.72 23.11-3.72z" style="fill:#996699;stroke:#000000;stroke-linecap:round;stroke-linejoin:round;stroke-width:15"/>
	<path id="n_cinfin2" d="m789.81 618.56c0 0 7.32 254.97-78.42 272.09-6.98 1.39 6.07-81.04-14.84-111.9-12.05-17.8-4.67-40.98 5.95-54.8 33.04-42.96 18.63-93.79 17-94-4.12-0.52 70.31-11.39 70.31-11.39z" style="fill:#996699;stroke:#000000;stroke-linecap:round;stroke-linejoin:round;stroke-width:15"/>
	<path id="n_dorsal" d="m735.08 389.59c0 0-115.43-239.97-324.13-243.84-200.5-3.71-138.01 67.77-131.2 77.74 7.2 10.56 59.35 65.02 56.8 86.98-1.28 11.06-50.06 8.33-44.31 42.48 5.74 34.16 42.03 37.38 42.03 37.38 0 0 163.53 40.95 159.21 89.79-4.32 48.84 241.6-90.53 241.6-90.53z" style="fill:#663366;stroke:#000000;stroke-linecap:round;stroke-linejoin:round;stroke-width:15"/>
	<path id="n_tail" d="m425.64 469.48c0 0-185.91-69.53-222.64-117.19-26.83-34.83-79.87-18.32-79.87-18.32 0 0-49.3 12.24-36.97 47.56 11.05 31.62 42.14 54.32 42.14 54.32 0 0-44.91-4.16-68.55 9-9.19 5.11-39.35 25.75 1.14 71.07 17.31 19.37 48.36 26.9 48.36 26.9 0 0-54.73 21.12-61.11 46.09-1.24 4.85-24.27 72.28 71.62 68.47 19.5-0.78-50.09 39.55-11.52 76.46 17.1 16.37 72.56 6.27 72.56 6.27 0 0-49.66 97.18 43.28 79.34 91.55-17.56 118.99-80.49 118.99-80.49 0 0 103.76-129.56 87.09-154.48-4.34-6.49-4.52-115-4.52-115z" style="fill:#996699;stroke:#000000;stroke-linecap:round;stroke-linejoin:round;stroke-width:15"/>
	<path id="bdy" d="m430.39 585.18c0 0 38.93-28.03 47.78-17.26 8.87 10.75 165.88 51.1 282.4 95.73 45.31 17.34 165.06-2.67 176.04-50.75 10.98-48.09 14.33-30.14 22.14-43.77 7.81-13.64 12.01-77.11-62.35-122.02-70.73-42.73-125.97-47.81-148.22-47.44-79.73 1.33-195.3 22.61-250.24 55.05-47.05 27.79-73.63 12.47-78.45 13.77 0 0-56.28 53.76 10.9 116.69z" style="fill:#cc6699;stroke:#000000;stroke-miterlimit:100;stroke-width:15"/>
	<path id="fin" d="m723 649.45l-70.47 58.85c0 0-23.31-19.55-61.44-18.21-75.32 2.65-31.84-32.11-31.84-32.11l37.42-22.39-75.04-16.44c0 0 30.28-38.37 31.03-38.53 0.75-0.15-13.52-43.34-13.52-43.34 0 0 9.84-12.74 46.78-7.64 36.94 5.1 114.18 55.16 118 31.93" style="fill:#cc6699;stroke:#000000;stroke-linecap:round;stroke-linejoin:round;stroke-width:15"/>
	<path id="eye1" fill-rule="evenodd" d="m966 517.29c-42.08 2.75-78.28-28.48-81-69.89-2.71-41.4 29.11-77.09 71.19-79.85 42.08-2.75 78.29 28.49 81 69.89 2.71 41.4-29.11 77.09-71.19 79.85z" style="fill:#ffffff;stroke:#000000;stroke-linecap:round;stroke-linejoin:round;stroke-width:15"/>
	<path id="eye2" fill-rule="evenodd" d="m785.21 511.36c-42.08 2.76-78.28-28.48-81-69.88-2.71-41.4 29.11-77.09 71.19-79.85 42.08-2.76 78.29 28.48 81 69.88 2.71 41.4-29.11 77.1-71.19 79.85z" style="fill:#ffffff;stroke:#000000;stroke-linecap:round;stroke-linejoin:round;stroke-width:15"/>
	<path id="liplower" d="m876.71 628.79c0 0-0.62 56.39 91.32-19.66 13.19-10.91-64.6-20.46-88.67-19.69-25.61 0.82-54.26-6.32-66.84-14.18-12.94-8.1-69.96 0.84-18.12 45.09 46.41 39.59 82.31 8.44 82.31 8.44z" style="fill:#9a89cd;stroke:#000000;stroke-linecap:round;stroke-linejoin:round;stroke-width:10"/>
	<path id="lipupper" d="m893.74 562.49c0 0-10.97-68.65-124.5 2.56-17.04 10.69 80.81 26.17 108.55 26.9 28.41 0.74 58.62 9.11 71.21 17.03 12.63 7.94 67.58 2.27 20.42-40.98-47.12-43.23-75.68-5.51-75.68-5.51z" style="fill:#9a89cd;stroke:#000000;stroke-linecap:round;stroke-linejoin:round;stroke-width:10"/>
	<path id="gill" fill-rule="evenodd" d="m712.88 524.56c0 0-62.22-11.35-43.99-88.32" style="fill:none;stroke:#000000;stroke-linecap:round;stroke-linejoin:round;stroke-width:10"/>
	<path id="tail-dt1" fill-rule="evenodd" d="m399.78 518.33c0 0-147.71 24.61-203.39-29.87" style="fill:none;stroke:#000000;stroke-linecap:round;stroke-linejoin:round;stroke-width:10"/>
	<path id="tail-dt2" fill-rule="evenodd" d="m397.89 535.49c0 0-139.33 19.59-214.42 77.08" style="fill:none;stroke:#000000;stroke-linecap:round;stroke-linejoin:round;stroke-width:10"/>
	<path id="tail-dt3" fill-rule="evenodd" d="m406.38 557.98c0 0-106.16 46.94-160.06 126.64" style="fill:none;stroke:#000000;stroke-linecap:round;stroke-linejoin:round;stroke-width:10"/>
</svg>