<svg xmlns="http://www.w3.org/2000/svg" style="display:block" viewBox="0 0 500 500"><path d="m0 0 15 12 1-2 3-3c14 4 24 27 29 39v2h6q4 2 6 6v7l2 6q6 2 13 1l8-1h3c26-1 59 10 77 29q2 3 4 1l6-3q12-5 24 0 14 8 15 24 0 16-14 25l-6 1 1 2v9l-5 2-2 5q-3 5-6 4v5q0 6-6 9l-3 2-30 14h-9v4a141 141 0 0 1-43 94l-8 5-3-3c0-10 8-20 13-28l-3 1h-4l-2-3-2 2-24 22-3 2-2 3-3 2q-3 2-7 1c-3-6 2-10 5-15l11-14-6 1q-3-6 2-10l2-3 2-2 1-2-5-1-4 8q-2 10-11 15-4 0-6-4l-2 2c-16 18-16 18-27 18v-9l-2 1c-10 10-10 10-18 9l-3-7-3 2c-5 3-5 3-8 3q-4-2-4-7l-1 1q-6 7-14 6-3-3-2-7l1-3v-2l-16 8q-13 7-28 5-2-3-1-6l2-2-4 1-5 1h-3c-14 2-14 2-17-1q0-5 5-7l2-2 20-16-3 1-11 1q-2-2-1-6l7-5q11-8 18-20h-2l-3 1h-3l-5-2q1-7 6-12 12-14 17-32 7-21 21-38c-12 7-17 19-24 31-16 30-48 72-85 76-6 0-6 0-8-2l1-10-2 1q-8 2-14 0-2-6 0-13h-2c-15 0-15 0-18-5q-2-8 0-17v-5q0-3-3-5l-11-3q-5-1-8-8 0-5 3-10l1-6-5-2q-7-3-6-11 3-7 9-13v-6l-4-4q-4-3-3-10l8-8q4-4 2-9l-4-5c-5-8-5-8-4-13l7-6q2-3-1-7v-4l-1-2q5-8 15-10h2l5-2 3-1-1-2c-4-7-4-7-3-11q4-5 11-4l-1-2c-4-9-4-9-2-14 5-7 17-5 25-5l-1-3q-1-5 3-8c18-4 37 9 48 22l12 16v-2l3-3 7 1q7 3 13 2l-13-9q-11-4-20-13l-2-2c-4-4-4-4-4-8l1-2 18 3 9 1-4-6-1-4q2-4 6-3l6 1q6 3 14 2l-2-2q-3-3-1-8 7 0 13 3l14 1v-3l1-4q12-1 22 4l5 1v-5c8-4 20 4 26 8m-109 49q7 14 19 25l2-1-1-2-1-3q5-2 11-2 3 1 5-2l-13-5q-10-3-18-8zm21 25c17 19 45 17 67 12l4-1q-9-6-19-4h-13q-20 2-37-7zM66 211l-9 26-1 3-1 4v4l3-4 2-2q5-6 3-13 0-5 5-7l4-8q3-11 14-17 4-2 3-4c-12-7-19 9-23 18" style="fill:#0a0207" transform="translate(262 105)"/><path d="M0 0c25-2 43 22 56 40l1 2 8 11 12 12 2 2q13 9 28 12l-5 9q-7 14 0 28l7 8v5l-4 3q-14 12-20 29l-16 25-2 3c-13 17-42 47-66 46v-2l1-3v-3l-1-3h-7l-9 1v-3l1-3v-4l-1-4h-9l-5-1h-2l-3-1v-21c0-5 0-5-3-8l-12-3-6-3q-1-7 3-12 2-4-2-8l-8-5q0-9 7-15 3-5 2-10l-4-4q-4-3-3-7l4-5q8-6 6-14l-7-10q-3-3-1-7l6-4q3-5 0-10v-7l4-2 3-1 3-1 5-2 3-1 4-3q1-5-2-11v-3l4-1q5 1 6-2l-2-10v-6q5-2 11-1 7 0 13-4z" style="fill:#871c6b" transform="translate(94 119)"/><path d="m0 0 3 2 8 5 3 2 3 2 2 2q4 4 1 7l-1 2q-3 14 5 26 7 6 16 8 5 0 6 2l1 6q-5 1-10-3l-12-2-1 3 8 1c-2 8-2 8-5 11h-3v2h-9l1-4-4 3-2 2-4-2-3-2 1 2 2 5-5 3-2 2-6 1 6-14q-5 1-5 5l-1 2-1 2-2 4-1-3h-3l1 3 1 3q-5 3-11 0V73l-1 2h-2l-2-4v-2l-1-6 10-1q0-2-4-2l-4-1h-7l3-5c-8 1-8 1-13 7l-1 12 4-3 1-2h4l2 7q2 12 13 17 11 1 20-5l2-1 8-4q10-6 20-1 4 2 3 5l-6 3-6 4q-22 15-47 6l-12-9q-15-14-13-35l4-10 2-4 1-3q-8 5-10 15-3 27 18 44l9 5 2 1v1l-18-2q-13-1-25-8 3-9 11-13l1-3q-10 4-16 14l-4 8-2 2q-3 4-7 2l-2-2q-2-2-7-2l-4-1v-6q-2-5-9-5l-4-3 2-9q1-6-3-11c0-5 2-5 6-8l2-6 1-7c10-1 18 6 25 12a26 26 0 0 0 17 6h2v-3h-4c-9-1-16-8-23-13q-6-5-14-5h-2q-4-1-6 3v6q0 7-7 10l1 10-15-5q-28-12-58-13-11-1-17-11-6-16 3-30 5-6 15-5 23-2 45-9a277 277 0 0 1 57-12c29-4 60 0 85 15" style="fill:#7b1d6e" transform="translate(404 193)"/><path d="m0 0 3 1q21 5 41 13l2 1 5 2-1 4q-2 7 4 12l4 1q4 1 3 3l1 4 2 4 7-1q5 1 6 5 8 2 13-5l1-3 2-1 5 2-1 1Q81 63 76 87c-7 27-7 27-15 34l-1-3-1-2q-7 0-9 6c-11 13-11 13-17 16v-4q0-4-4-6-8 2-14 10-2 3-5 2v-8q1-2-2-3-4 1-7 4l-7 4-1-4v-4q-7 1-13 7l-2 1-2-7q1-2-2-3-8-1-13 4-13 8-27 9l1-2 2-3 2-3 3-6-4 1-2 1-6 2q-9 4-18 4l10-9q11-7 15-21l-12 3 2-3 2-2 4-4q11-10 12-24l-8 3-5 2 5-8q12-16 17-34 6-20 20-35l1-2c7-5 18-2 25 0" style="fill:#811b6e" transform="translate(239 251)"/><path d="m0 0 18 5 5 2h7l1-5c10 1 18 9 26 15q5 5 12 4 9 2 12 11l4 8c6 12 6 12 17 18q5 8 2 15l-10 1-28 5-21 6q-7 3-12-2-17-6-35-4h-14q-8 0-15-3v-2l4-1q4 0 7-5-2-5-8-7l-8-3-12-4v-1l8-1 5-2q1-8-6-11l-10-5q-9-4-17-11h17l6-1-1-10 3 1c10 1 10 1 18-2l1-5h2c11 3 11 3 21 0z" style="fill:#891e6b" transform="translate(214 102)"/><path d="m0 0 8 8q10 12 22 20l3 2q8 4 15 5l4 1 7 2-1 2q-9 15-2 32l7 8v5l-5 3v-2l-5 4-3 2-14 13-2 2q-10 14-18 29L5 152l-2 3-7 7-2-1 1-2q14-14 22-33l7-13 1-2 11-15 1-2 10-11q-12 5-21 13l-2 2q-10 9-18 19c0-13 24-32 34-39l-2 1-6 2Q10 91-7 109l-4 1-1 2c-4 7-19 20-27 21l12-11 5-6q20-23 44-38l2-2 14-6Q7 78-22 91c-34 15-34 15-52 14l9-3 14-4 6-2q16-5 32-14a244 244 0 0 1 48-20c-47-1-47-1-68-9l-3-1c-7-3-7-3-8-5l3 1 27 5h2l20 1h3l26-1v-1l-7-2C5 44-13 33-32 15l-2-2-5-5-1-1-4-4 1-2 1 1c24 23 51 42 86 41l-3-2C24 33 7 18 0 0" style="fill:#60135e" transform="translate(140 163)"/><path d="M0 0c18 10 36 29 38 51v4h5v1l-5 1-3 1h-4l-36 9q-5 3-9-1-2-2-2-5l-6-3-3-2q-12-4-25-3h-13c7-7 25-5 34-3q15 4 26 12-14-19-35-29l-3-1-23-7q-18-5-36-14 5-1 10 2l22 6q40 7 70 35l3 2-4-6-1-2-9-10-2-2a91 91 0 0 0-45-25l-15-5h-3l-3-1-2-1-4-3 18 4 2 1 13 2 11 4 5 2A127 127 0 0 1 4 42l14 15C14 37-1 21-16 9l-2-4-4-2-1-2C0 8 17 32 27 53v3l2 1Q26 25 1 4z" style="fill:#651460" transform="translate(263 120)"/><path d="M0 0h7l4 1h3l-2 15-1 2Q-4 61-39 89l-2-1 2-2 2-3 2-3q3-4 3-9l-4-3 2-3q3-4 2-9 0-3 3-7 3-5 2-10 0-6 5-10l4-11q3-5 9-9l4-4 2-2z" style="fill:#801a65" transform="translate(357 299)"/><path d="M0 0h1q0 10-3 20l-1 3q-8 27-27 47l-2 2c-14 15-14 15-21 16l1-8-12 4q-8 4-18 4l10-9c5-4 14-12 14-19q0-4 3-6c10-10 17-27 19-40l3-3-3 24-1 5 4-6q1 6-1 10l-1 3q-5 10-13 19 6-2 11-7l1-2Q-12 34-1 2z" style="fill:#9f2165" transform="translate(233 297)"/><path d="m0 0 3 1q21 5 41 13h2l5 3-1 5-1 2v2l-1-2c-5-2-5-2-9 0Q29 38 27 55l-6 20-1 3-1 3v2l-4 6q0-7 3-14l4-20q1-15 7-28l3-12-6-2-2-1q-4-2-8 1L6 33q-4 9-5 19c-6 25-18 53-40 69h-3l2-2 17-20 2-3q11-22 15-45 4-18 12-34l2-8Q2 4-6 6c-12 8-17 28-21 41l-1 5-1 3c-6 20-6 20-9 22v-2l7-28q3-19 13-36l1-3 2-2h-6l-3-1q-3-1-4 3l-1 2-3 1-1 3q0 4-4 4l6-11 6-8c7-4 18-1 25 1" style="fill:#60115b" transform="translate(239 251)"/><path d="M0 0q12 6 22 15v2l2 1q-14-1-26-7v2l9 4 1 1 4 2q6 4 12 4l-7 4-2 1-3 1-3 1-7 2q12 1 24-2L16 42l-3 4q8-2 13-8l5-1-9 14-2 3-2 3q-2 4-4 3-3 1-5-2-2-2-7-2l-4-1v-6q-2-5-9-5l-4-3 2-9q1-6-3-11c0-5 2-5 6-8l2-6q-1-9 8-7" style="fill:#9d2363" transform="translate(307 237)"/><path d="M0 0q11 10 6 24-4 12-18 14-14 1-22-12-4-12 2-22l3-3 3-2q13-8 26 1" style="fill:#fafafa" transform="translate(404 207)"/><path d="M0 0q8 10 3 21-5 12-17 14-13 2-21-9-7-13 0-24c9-13 24-13 35-2" style="fill:#fafafa" transform="translate(464 210)"/><path d="M0 0h1l1 4q2 9 9 11l32 4q24 1 46 9l2 1 6 3q1 3-3 5t-3 6l1 6-15-5Q49 32 19 31 8 30 2 20 0 14 0 7z" style="fill:#5d165f" transform="translate(197 214)"/><path d="m0 0 2 1c11 2 24 6 31 14v3h-2c-13-3-13-3-25 0l4 2 6 2q6 2 9 6-12 4-25 4l-14 1h-3q-7 1-12-6v-6l6-4q3-4 0-10V0q12-4 23 0" style="fill:#a02264" transform="translate(65 175)"/><path d="M0 0q-1 11-9 18h-2v2h-2l-1 4Q-1 19 7 6c4-5 4-5 8-5 0 17-19 34-31 45l-2 2q-5 5-12 4v-2l1-3v-3l-1-3-16 1 1-7v-4q2-4 8-6 13-6 23-17c9-8 9-8 14-8" style="fill:#a02164" transform="translate(125 302)"/><path d="M0 0c1 29-11 69-36 86l4-8q2-5 1-11l-4-1 1-2 1-7q2-8 6-14 10-17 12-37c1-9 8-7 15-6" style="fill:#67145d" transform="translate(388 301)"/><path d="M0 0h1q2 23-9 43l6-5q-3 21-21 32v-4q0-3-4-5-5 1-9 4l-6 4 27-49 1-2h1v11q5-4 7-12T0 0" style="fill:#9f2065" transform="translate(295 319)"/><path d="M0 0q10-2 19 4 15 9 30-1h4l-1 1 8 1c-2 8-2 8-5 11h-3v2h-9l1-4-4 3-2 2-4-2-3-2 1 2 2 5-5 3-2 2-6 1 6-14q-5 1-5 5l-1 2-1 2-2 4-1-3h-3l1 3 1 3q-5 3-11 0V15l-1 2H2l-2-4v-2l-1-6L9 4Q8 1 4 1H0z" style="fill:#0e070b" transform="translate(376 251)"/><path d="M0 0c19 2 19 2 24 9l9 8c32 29 32 29 30 44l-1 2-5-6-2-1-6-8-13-11-3-2Q18 23 2 17l-3-3q12 2 23 9l4 1C23 14 12 9 4 4z" style="fill:#811b6f" transform="translate(219 115)"/><path d="M0 0q8 7 8 16l1 3Q7 33-5 41l-2 2q-15 5-28-5-11-10-9-25C-38-7-16-13 0 0m-39 11v11q1 8 7 13l2 2q9 6 19 3Q1 34 4 21 5 8-7 0q-20-9-32 11" style="fill:#140a12" transform="translate(408 205)"/><path d="m0 0 4 1c-16 12-35 21-54 14q-11-3-16-12l1 1h3l2 1 21 3 16-2h2q5-1 8-6c2-3 9-1 13 0" style="fill:#5d165e" transform="translate(431 278)"/><path d="m0 0 3 5a49 49 0 0 0 25 23v1l-18-2q-13-1-25-8 2-9 11-13l2-3 2 1z" style="fill:#5c175d" transform="translate(350 268)"/><path d="m0 0 3 2 4 1 4 3v4l1 4-4 3Q-1 30-5 46l-7 17-1 2q-2 6-8 10l3-8q7-15 9-31l8-27z" style="fill:#5f115c" transform="translate(290 282)"/><path d="M0 0q13-1 23 6l1 3h2l-1 4-2-1-3-2-3-2-4-2v2l3 16h-2l1 3 1 3q-5 3-11 0V15l-1 2H2l-2-4v-2l-1-6L9 4Q8 1 4 1H0z" style="fill:#171211" transform="translate(376 251)"/><path d="m0 0-2 4H8l3 1 1 3L2 9l1 6 1 3 1 3h2l1-3h1L8 33l-2-4H3l-3-7-3 4-2-12q-4 1-6 5h-3C-15 6-15 6-9 1z" style="fill:#0f070b" transform="translate(373 247)"/><path d="M0 0h1a112 112 0 0 1-6 30q-2 11-9 21l-2 2-4 6-2 3q-2 5-8 8l4-8 1-8q2-9 8-16A115 115 0 0 0 0 0" style="fill:#9c2364" transform="translate(382 317)"/><path d="M0 0q14 3 26 10l1 3h-2l-13 2q-14 4-27-4v-1l8-1 5-2z" style="fill:#9c2363" transform="translate(181 145)"/><path d="m0 0 7 3-2 3Q-6 18-12 35q-3 12-10 22l-2-1 2-4v-3l1-1h2l1-6C-8 2-8 2 0 0" style="fill:#60105b" transform="translate(317 298)"/><path d="M0 0c2 3-2 6-3 10l-2 2-12 16-2 3c-7 7-7 7-10 8q-3-4-1-8c9-12 9-12 14-12l1-2 7-8z" style="fill:#9c2066" transform="translate(355 320)"/><path d="M0 0v7l-1 3-1 3-2 3q-5 16-16 28 0-8 4-14l2-3 1-2 5-9z" style="fill:#922362" transform="translate(376 315)"/><path d="m0 0-1 2-1 2 2 2-3 2q-3 2-4 5h3v6h-1v-5q-4 1-6 5h-3C-15 6-15 6-9 1z" style="fill:#621f5a" transform="translate(373 247)"/><path d="M0 0q7 2 12 6l-2 5-1 3-3 7q-7-9-6-21" style="fill:#e2dbb4" transform="translate(389 257)"/><path d="M0 0h1l1 5 5 16q-5 3-11 0-2-11 4-21" style="fill:#d3ceac" transform="translate(385 260)"/><path d="M0 0v4a113 113 0 0 1-21 23q-1-7 4-12l3-2 3-3z" style="fill:#9e2068" transform="translate(353 311)"/><path d="M0 0q5 2 7 6 0 4-5 5l-3 2-5 1 4-10 1-3z" style="fill:#aba180" transform="translate(403 265)"/><path d="M0 0v2l-6 3q-4 4-4 10v2h-3q-2-9 5-16z" style="fill:#150312" transform="translate(372 247)"/><path d="M0 0v2l3 3v11H1v5q-4-6-3-16z" style="fill:#1f0e1c" transform="translate(423 213)"/><path d="m0 0 12 2-4 3-2 2-4 1 1-3-9-1q2-5 6-4" style="fill:#551b54" transform="translate(422 277)"/><path d="m0 0-6 12q-3-3-4-7V1z" style="fill:#e3deb9" transform="translate(385 255)"/><path d="M0 0q-1 7-6 11l-4-9q4-2 10-2" style="fill:#d7d3b2" transform="translate(436 256)"/><path d="M0 0c6-1 6-1 8 2l1 6Q2 9-3 4l2-1z" style="fill:#68225d" transform="translate(442 249)"/><path d="M0 0q7 2 12 6l-1 3L1 5 0 8z" style="fill:#b8af8d" transform="translate(389 257)"/><path d="m0 0 2 1c-4 7-4 7-8 8l-3-1 3-4 1-3q2-3 5-1" style="fill:#571956" transform="translate(335 292)"/><path d="M0 0h1c0 20 0 20-6 27-1-4-1-4 1-8L0 2z" style="fill:#4d1343" transform="translate(374 303)"/><path d="m0 0-5 7q-5-1-6-6l4-1 3-1z" style="fill:#d0caab" transform="translate(419 263)"/><path d="m0 0 1 3 3 1-5 5-2 2-4 3-2-1 6-8z" style="fill:#7e2e53" transform="translate(325 374)"/><path d="M0 0h2v8h5q-2 3-6 3-2-1-2-3z" style="fill:#0a0004" transform="translate(302 285)"/><path d="M0 0h1v6q0 2 2 3l-3 4-2 3-4 3 4-8z" style="fill:#7e2c4e" transform="translate(358 368)"/><path d="M0 0q4 0 5 5v2l-8 1 1-2z" style="fill:#d6d0af" transform="translate(422 261)"/><path d="m0 0 10 1h5l2 1h2v1H3v6q-4-3-3-9" style="fill:#8b2c5c" transform="translate(168 114)"/><path d="M0 0q5 4 5 9H3v2h-7v-1h6L1 7l-3-5h2z" style="fill:#27261f" transform="translate(425 258)"/><path d="M0 0h6l1 3-11 1q2-5 4-4" style="fill:#1e041b" transform="translate(420 277)"/><path d="M0 0q6 5 5 6l-6 2z" style="fill:#d8d0ad" transform="translate(405 267)"/><path d="M0 0h1v10l-5-2 2-4 1-2z" style="fill:#d2ccb2" transform="translate(437 262)"/><path d="M0 0q0 4-3 7l-4 6-3 1q2-6 6-10l2-2z" style="fill:#1f051a" transform="translate(197 251)"/><path d="m0 0 6 3-2 6H1L0 5z" style="fill:#b8b39b" transform="translate(440 257)"/><path d="m0 0 1 3 3 2-4 2h-7l2-2z" style="fill:#582250" transform="translate(171 350)"/><path d="m0 0 2 2 3 4v6Q-1 8 0 0" style="fill:#412434" transform="translate(373 265)"/><path d="m0 0-3 4-6-1-1 2V1z" style="fill:#b6b091" transform="translate(385 255)"/><path d="M0 0q2 2-1 5-2 4-4 3v2l-4 1q2-5 6-7z" style="fill:#260913" transform="translate(359 379)"/><path d="M0 0h1v5l3-1h9v1L2 7h-3z" style="fill:#732146" transform="translate(80 337)"/><path d="M0 0c0 7 0 7-2 9h-3c3-9 3-9 5-9" style="fill:#bfb898" transform="translate(402 270)"/></svg>