<svg xmlns="http://www.w3.org/2000/svg" style="display:block" viewBox="0 0 500 500"><path d="M0 0a50 50 0 0 1 9 11.2v2l2 .3q5.4 1.4 10.1 4.2l2 1a92 92 0 0 1 19.5 14.8A96 96 0 0 1 62 55.2l1.6-.4a38 38 0 0 1 28.6 2.3l2.8 2.1 2.5 1.7c6 5.6 10 12.6 10.8 20.8a41 41 0 0 1-8.5 27.6q-4 3.9-8.8 7l.5 1.5c5.6 17 10 34 2.2 51.2A160 160 0 0 1 68 202.2l-2 2.1a105 105 0 0 1-23.4 18.4l-5.3 3.2a133 133 0 0 1-71 18.4H-44l-2.6-.1c-48.9-.5-93.3-7.1-132.7-38.7l-4.4-3.3c-11-8.3-27.2-21.6-32-34.8-.4-4 .3-5.9 2.7-9.2 4-2.6 8.3-3.8 13-5l-5-8c-22.2 4-45.3 15.6-63.2 29.1-2.7 2-4.2 3-7.5 2.7-3.3-2.5-4.4-5.6-5.8-9.3l-1-2.5a140 140 0 0 1-2.5-86l.8-2.9 2.6-8.5.8-2.6c2-5.6 2-5.6 5.5-7.3 4.7.5 7.4 2.7 11 5.5A207 207 0 0 0-210 89.2l3.5 1.2 2.5.8.7-1.6q2.4-4.3 5.3-8.4l-3.5-.2a23 23 0 0 1-12.5-5.8c-1.7-2.4-1.7-2.4-2-5a48 48 0 0 1 14-20l2.9-3a180 180 0 0 1 26-22.3c8.2-6.4 17-11.6 26-16.7l2.6-1.4C-102.8-16.3-40.4-35.7 0 0" style="fill:#04060e" transform="translate(341 132.8)"/><path d="m0 0 7 6 2.7 2c6.9 6 14.3 12.6 18.5 20.9-1 3-1 3-3.3 4.5a29 29 0 0 0-9 18A39 39 0 0 0 24.1 78c9.4 8.5 19.9 10 32 9.9l3.6 11.2 1 3.2A44 44 0 0 1 59 136a158 158 0 0 1-23 30l-2.3 2.5A132 132 0 0 1-32 204l-2.7.6A141 141 0 0 1-96 204l-2.4-.5c-18.5-4.2-36-11.5-52.6-20.5l-2.1-1.2a196 196 0 0 1-42-30.8l-1.8-1.8c-8.2-7.9-16-15.6-22.1-25.2l-2-3c-5-7.7-5-7.7-5-10a153 153 0 0 1 33-2.5h10.3c21.9 0 21.9 0 43.7-2.1q4.4-.6 9-.4l.4 2c3.2 12.9 8 23 19.5 30.2a73 73 0 0 0 32 13.8v-4l-1.6-.8q-3.9-1.5-7.8-3.4l-2.6-1.1c-6-2.7-11.9-5.5-17-9.7v-2l2.9-2.1c4-3.3 5.3-6.8 6.2-12q1-12.2-2-24l-1-6a78 78 0 0 1 12.2 15 318 318 0 0 1 12 19q4 6.7 8.8 13l3-1c-.6-4.2-2.1-7-4.4-10.7l-2-3.4-1.1-1.7-3.2-5.2q-5.9-9.7-13-18.6C-90 91-90 91-89.8 88.8q2.1-4.5 5-8.6a58 58 0 0 0 6.3-28.7c.4-21.9.4-21.9 6.4-28.8 4.4-4 7.7-6.2 13.8-6.1 7 1.2 12.6 7.3 17.3 12.4a14 14 0 0 1-3.9 5.6 32 32 0 0 0-8.4 22.7c.8 8.8 5.1 17 11.7 23A33 33 0 0 0-15.9 87 35 35 0 0 0 5.4 73Q6 71.5 7 70l1.7-3.1c3-7.6 2-16-1-23.4-3-6.6-6.2-10.4-12.5-14A30 30 0 0 1-16 16.1C-22.6 3.8-34.1-2.6-47-7.2c-35.3-9.6-74 2.2-105.3 19.6a229 229 0 0 0-52.3 41.4c-4.2 4.5-9 8.7-15.4 9.4l-5-.2c1.6-5.4 5.1-8.7 8.9-12.5l1.8-2 12.5-12.8A204 204 0 0 1-149-2.1c16-8.5 32.5-13.2 50-17l2.7-.5C-64-26.1-27.1-18.8 0 0" style="fill:#0c6dde" transform="translate(369 163)"/><path d="M0 0c5.4 5 9 10.3 12 17l-3 .4-4 .5-2 .2q-6.6 1-13 2.9l-1-1.5c-4-6-8.3-10-15-12.5a24 24 0 0 0-16.4 2c-6.6 4.8-8.8 11.6-10.2 19.2q-.8 7-.8 14.1c-.5 12-1 25.3-9.6 34.7-4 0-4 0-5.7-1.5l-1.5-2-1.6-2L-73 70q2-4.4 5-8.3A48 48 0 0 0-61 28a17 17 0 0 0-8.8-10.5c-8-3.4-16.3-1.3-24.2 1.5a131 131 0 0 0-47 32l-1.7 1.8c-4.3 4.6-8.1 9-8.4 15.5.2 3.5.7 6 2.5 9 8.3 5.4 16 6.3 25.7 6h3.4q8.9 0 17.5-1.3v12c-9.1 3.7-19.5 3.2-29.1 3.2l-17.8.3c-41.8.5-78 7-113.9 29.5l-10.2 6-2-6c12.4-7 24.7-13.8 38-19l1.9-.8c10.5-4.2 21.2-6.7 32.3-9 14.6-2.6 14.6-2.6 26.8-10.2h2c2.2-4.3 2.3-7.3 1-12-7.2-9.6-21.2-11-32.2-13.5A233 233 0 0 1-262 41l-3.4-1.8c-7.4-4-7.4-4-8.6-5.2v-5l2-1 3.8 2 2.3 1.4 2.5 1.5C-228.7 54-228.7 54-190 60c7.4-2.8 12.6-7 18-12.7l6.1-6.4q6-5.9 12.9-10.9l3-2.4C-112-2.6-44.5-34.6 0 0" style="fill:#141f33" transform="translate(341 170)"/><path d="m0 0 2.9 1.5c19 9.9 19 9.9 39.1 17.5q3.9 1.3 7.4 2.9c6.7 2.7 13.6 4 20.6 5.6 24.8 5.4 24.8 5.4 30 12.5.7 2.5.7 2.5 0 5-6.6 7.1-15.5 9-24.7 10.8A227 227 0 0 0 8 81l-2.3 1.2-2 1.1C2 84 2 84-1 83c-11.5-22.5-7.7-56.2-.9-79.3C-1 1-1 1 0 0" style="fill:#f3d908" transform="translate(65 208)"/><path d="m0 0 3.2 1.3C11 5 19.2 9.7 24 17l-1.7-.3-11.3-2c-45.7-9-91.4 3.7-129.8 28.8a284 284 0 0 0-20 14.9q-8 6.2-15 13.7l-2 2-3.6 4.2c-2.6 2.8-4.3 4.6-8.1 5-5.3-.5-9.8-2-14.5-4.3.4-5 3-7.7 6.4-11.1l1.6-1.7 7.8-8.1A225 225 0 0 1-61-1l3.5-1C-39.8-6-16.9-7 0 0" style="fill:#106ad6" transform="translate(315 125)"/><path d="m0 0-1 3-1-1-6.4.9c-12.2 1.7-24.5 1.5-36.8 1.7l-14.3.2H-63q-15.5.3-31 1.2l1.5 1.7 3.5 4q3.3 3.9 7 7.3l2.2 2.3c6.7 7 14 12.9 21.8 18.7l2 1.5a233 233 0 0 0 82 39.4 162 162 0 0 0 50 5.4 151 151 0 0 0 40.6-5.3q25.8-6.8 47-23l4.3-3 2 1a141 141 0 0 1-72 42l-2.6.7A141 141 0 0 1 34 98l-2.3-.5C13 93.4-4.3 86-21 77l-2-1.1A196 196 0 0 1-65 45l-1.8-1.8A143 143 0 0 1-91 15c-5-7.6-5-7.6-5-10a153 153 0 0 1 33-2.4l10.3-.1c22 0 22 0 43.7-2q4.5-.7 9-.5" style="fill:#1053ae" transform="translate(239 269)"/><path d="M0 0a17 17 0 0 1 4.8 6c1 15-.9 25.6-10 38a22 22 0 0 1-7.4-5.3l-1.8-1.9-2-2L-20 31l-1.6-1.7c-2.4-2.3-3.6-2.4-7-2.5-3.5-.2-3.5-.2-5.5 2.1a59 59 0 0 0 1.6 19.2q.6 4.4.4 8.8c-13.7 2.8-31.2 5.3-43.6-2.6-2-3.5-2.2-6.5-1.4-10.4C-68.9 24-43.7 10-25 1.6-17.6-1.3-7.6-3.7 0 0" style="fill:#0e6bda" transform="translate(271.2 191)"/><path d="M0 0c7 3.9 11.1 9 13.6 16.5 1 9.2.1 16.5-5.4 24-5 5.5-11 8.3-18.3 9.4-7 .4-12.6-1.2-18.3-5.4q-4-4.1-7-9l-1.1-1.8a36 36 0 0 1 0-21 35 35 0 0 1 14.3-14C-14.2-3.8-7.5-3.5 0 0" style="fill:#fbfbfb" transform="translate(428.4 195.5)"/><path d="M0 0c6.8 4 12.1 8.6 14.6 16.3 1.2 8.6 1.2 16.6-4 24a31 31 0 0 1-22.3 10.4c-7.4-.2-12-2.7-17.4-7.6-6.2-6.7-8-13.5-7.7-22.6A24 24 0 0 1-27.5 4c8.4-5.6 18-8.5 27.5-4" style="fill:#fbfbfb" transform="translate(358.4 194.7)"/><path d="M0 0c2 2 3.4 4 5 6.2 3.8 5.3 8.5 10 13 14.8l2 2.2C28.8 32.3 39.4 40 50 47l3.2 2.2A225 225 0 0 0 105 74v1a117 117 0 0 1-51.8-13.8A174 174 0 0 1 7.4 30.8C-.4 24-9.6 15.8-15 7V3c9.8-4.1 9.8-4.1 15-3" style="fill:#125bbc" transform="translate(148 293)"/><path d="M0 0c4 3 7 6 8.6 10.9.6 5.7.2 10-3 15-2.3 2.3-2.8 2.2-6 2.4h-2.4l-2.4.1-5 .2-2.1.1q-3 .3-6 1.2c-8.8 1-8.8 1-12.7-2a16 16 0 0 1-1.4-11c3-7.8 8-12.3 14.8-16.9Q-9-3 0 0" style="fill:#04030b" transform="translate(409.4 272.1)"/><path d="M0 0c8.4 2.8 11.3 11.4 15.1 18.9 5 10 9 19.6 9.2 31v3.6a17 17 0 0 1-5 11.2L15 68c-5.6-2.3-7.7-7.3-10.2-12.6a52 52 0 0 1-2-15l-.1-3.6-.2-7.7Q2.3 18.7.5 8.7-.3 4.3 0 0" style="fill:#f0d70a" transform="translate(242 223)"/><path d="M0 0v2l-1.9.6A223 223 0 0 0-56.8 27L-67 33l-2-6C-18.7-1.2-18.7-1.2 0 0" style="fill:#202839" transform="translate(135 270)"/><path d="M0 0c5 .2 8 1.1 11.7 4.6l2 4-7.1 1q-1 0-2 .3-6 .8-12 .7c-.9-3-1-4.8-.2-7.8C-4.8 0-3.8 0 0 0" style="fill:#d47877" transform="translate(391.3 285.4)"/></svg>