<svg xmlns="http://www.w3.org/2000/svg" style="display:block" viewBox="0 0 500 500"><path d="M0 0a44 44 0 0 1 29.8 9.2c6.7 6.9 9 15.2 11.4 24.1 3.2 11.7 3.2 11.7 11.4 20a73 73 0 0 0 14.7 4.8 40 40 0 0 1 23.5 14.1 35 35 0 0 1 5.1 17.4v7.6c0 6.5 0 6.5-.8 9.8-.6 2.3-.6 2.3 1.2 4.4l2.1 2 2.1 2.1a12 12 0 0 0 7.3 2.7c4.3-2.1 7-5 10.4-8.5 4.9-5 9.5-8.5 16.6-9 4.9.3 8.4 2.3 12 5.5 12 13.5 13.4 35.5 13.1 52.7-.9 17-2.8 38.3-15.1 51.3a17 17 0 0 1-12 4c-7-1.6-12-5.2-17.2-9.9-2.8-2.6-5-3.8-8.8-4-2.5.1-2.5.1-4 2q0 2.8.6 5.7a41 41 0 0 1-3.6 24.2q-3 3.6-6.4 7c-1.8 2.2-2 3-2 5.9l.2 2c.7 8.8-2.9 17-7.8 24.1a49 49 0 0 1-26.5 17.5c-5.6.7-8.8.7-13.5-2.5L42 285c-4.4-6.5-3.1-14.4-2.3-21.8l.3-3.2.8-7.8-2.5 1.1q-13 5.7-26.5 10l2.3 2.1a45 45 0 0 1 6 7.4l1.5 2.3c3.2 5.5 3 12 2.2 18.1a17 17 0 0 1-9 8.4c-11 2-20.6-2-30-7.4a50 50 0 0 1-5-4l-1 1.6c-3.4 4.8-6.4 8.4-12 10.4-6.3 1-11.5-1.1-17-4q-2.9-2-5-5l-1.5-1.7c-5.2-6.3-8-13.6-10.5-21.3-2.5-.9-2.5-.9-5.6-1.4l-3.4-.6-16-3v3l.2 6.2c.1 4.7-.6 7.7-3.2 11.8-2.7 2.3-5.7 3-9.1 3.1a45 45 0 0 1-29.7-15.8 36 36 0 0 1-9.2-21.4l.1-2.2c.8-9 .8-9-1.5-17.4-1.7-1.9-1.7-1.9-3.7-3.6-10.7-9.5-17-30-18.7-43.7q-.4-4.6-.4-9.3c0-10.6 0-10.6-5.2-19.5-4.5-6-5.1-13.3-5-20.6v-2.5a39 39 0 0 1 8.4-24l1-1.5c3.1-3.9 6.4-6.6 10.5-9.3l1.9-1.2c4-2.4 7.3-3.7 12-4.5 3.5-.7 5.1-1.1 7.7-3.7l2.7-4.2a104 104 0 0 1 29.2-27.7l1.5-1c8-5.6 17-8.8 26.3-12l1.8-.5a64 64 0 0 1 18.8-4.2l1.6-.3c1.4-2.2 1.4-2.2 2-5 3.5-6 8.2-11 13-16l2.2-2.4A59 59 0 0 1 0 0" style="fill:#100605" transform="translate(260.2 98.8)"/><path d="m0 0 2.9 1A79 79 0 0 1 33 22c21.3 22.4 27 56.6 27.4 86 0 18.7-2.7 37-10.4 54l-1.3 3.2A78 78 0 0 1 10 203c-21.5 8.4-46 8.5-68 2l-2.5-.7a100 100 0 0 1-60.5-45.5 100 100 0 0 1-7-16.3c-3.5-9.1-3.3-19-3-28.5l9.4 4a45 45 0 0 0 34.6 1.2q5-2 9.4-5.2c1.6-1 1.6-1 4.6-1a48 48 0 0 1-33.4 17.2q-5.4 0-10.6-1.2v4c16.5-.3 29.2-2.2 42-13.7a60 60 0 0 0 15.4-39A44 44 0 0 0-70 54a50 50 0 0 0-31-14 26 26 0 0 1 7-10.7l1.5-1.6C-84 18.6-74.7 11.4-64 5l2-1.3 6-2.7 1.6-.6A81 81 0 0 1 0 0" style="fill:#f26807" transform="translate(231 153)"/><path d="M0 0c10 1.9 18.8 5.8 27.8 10.4l2.2 1.2c4.4 2.3 7.7 4.7 11 8.4l1.5 1.7A85 85 0 0 1 58 53.9l.6 2.2c3.5 15.3 3.9 31 4.1 46.6l.6 40.6v2.1L63 147l-2 1c.3 3.9 2.7 6.4 5 9.3 11 13.9 17.8 28.8 16.4 46.7A34 34 0 0 1 71 223.5a35 35 0 0 1-22.2 8.9c-1.7-.4-1.7-.4-3-1.5-1.1-2.9-1-5.7-1-8.8V220q.2-8.6 2.3-17a113 113 0 0 0 2.4-24.4v-3.2c-.1-5.4-.4-10.3-2.4-15.4l-2-1 .6 23.7v2c0 2.6-.1 4.7-1.8 6.8q-4.4 3.8-10 6l-2.7 1.2-2.9 1.2-2.9 1.2c-5.2 2.3-5.2 2.3-7.3 2.9l-2-1 1.9-2c6.7-7 12-14.6 17.1-23l1-1.6C46.1 160 48.8 139 50 120l.2-2.4c1.7-32.7-6.7-70.4-27.5-96.3A116 116 0 0 0 0 1z" style="fill:#f0680a" transform="translate(262 148)"/><path d="M0 0c9 4.5 16.2 11.8 20.6 20.8a46 46 0 0 1-.4 27A45 45 0 0 1-1 68.5a40 40 0 0 1-28.1 1.2 45 45 0 0 1-24.5-22.5c-3-7.4-3-17.1-.6-24.7A42 42 0 0 1-31.6-.7c9.5-4.2 22-3 31.6.7" style="fill:#fcfcfc" transform="translate(246.4 201.7)"/><path d="M0 0a40 40 0 0 1 15.3 23.7 41 41 0 0 1-9.6 31 41 41 0 0 1-15.4 10l-1.8.8c-8 3-19 2-27-.7A42 42 0 0 1-59 46c-4-9.6-5-18.8-1.7-28.8A42 42 0 0 1-39-4.7C-26-9.9-11.6-7.6 0 0" style="fill:#fcfcfc" transform="translate(151.8 204.3)"/><path d="M0 0h2.8c9 0 16.6.5 24.8 4.8l2 1c6 3.2 11 6.8 16 11.4l2.5 2.2c21.6 20.3 31.7 51.2 34.3 80 2.3 33.1-1.4 69.9-23 96.5l-3.6 4-3.7 4.3a33 33 0 0 1-21.8 11.7l-6.1 1.5c-6.7 1.4-13.7 1.5-20.6 1.8 2.9-2 5.7-3 9-4.1a75 75 0 0 0 40-36.7 112 112 0 0 0 9-24.2l.5-2C69.7 118 65.9 75.8 48.4 45A85 85 0 0 0-1.7 6.7c-9.4-1.9-19.2-2.1-28.7-2.5A29 29 0 0 1-20 1l2-.3q9-1 18-.8" style="fill:#f8f8f7" transform="translate(227.4 142.8)"/><path d="M0 0c5.7 1.4 8.2 5.4 11.3 10.2 10.7 18.4 8 45.8 4 65.6a42 42 0 0 1-12 23c-4.2.6-6.1.5-9.9-1.5l-3.2-2.5-2.5-1.9-2.8-2-2.7-2c-2-2-2-2-2.3-4.8.4-2.3.4-2.3 1.4-3.3 3.5-19 4-40-1.2-58.7-.9-3.3-.9-3.3-.9-6.3l3.5-3.2q3.6-3 6.8-6C-4 .3-4 .3 0 0" style="fill:#f36707" transform="translate(394.8 206.2)"/><path d="M0 0c6.8 5 10.1 11.3 12.8 19.3l.6 2c1.9 6.3 2.6 13.5.2 19.7l-1.8 2.3q-5.5-1.6-10.6-4.1-9-4.2-18.6-6.7l-2.1-.6a142 142 0 0 0-38-4.4l-9.7-.2A54 54 0 0 1-55 10.6C-40.6-3.1-18.5-11.1 0 0" style="fill:#f06808" transform="translate(281.3 110.8)"/><path d="M0 0a140 140 0 0 1 15.8 13c10 9.1 14 20.3 17.5 33l.7 2.8c3.4 12.8 4.4 25.1 4.4 38.4v2.5c0 17.4-1.8 34-8.4 50.3l-5-5-1.2-1.2c-3.3-3.5-4.4-6-4.6-10.8v-4.6l-.3-12-.2-9C19 47 19 47 0 2z" style="fill:#f8f8f8" transform="translate(308 170)"/><path d="M0 0a43 43 0 0 1 18.3 24.6 45 45 0 0 1-6 33 48 48 0 0 1-26.6 18.7 44 44 0 0 1-37-8A41 41 0 0 0-27 82.6l12.7.3h2.3l1.6.4v3c-15.8.7-27.5.5-40-10a59 59 0 0 1-17-31l-.6-2a41 41 0 0 1 5.1-29.6 47 47 0 0 1 27.6-20C-23-9-10.7-5.8 0 0m-55.1 11.3a40 40 0 0 0-8.4 29.3c1 9 7 16.8 13.4 22.9a42 42 0 0 0 30 9A41 41 0 0 0 6 58c7.2-8.6 8.6-16.9 8.2-27.8-.4-5-1.7-8.8-4.4-13l-1.3-2A40 40 0 0 0-13.9-1 41 41 0 0 0-55 11.3" style="fill:#1a0b09" transform="translate(254.3 200.7)"/><path d="M0 0c3.5 2.7 6.2 5.3 8.9 8.8 2.4 3.2 4.7 5.8 7.7 8.5a22 22 0 0 1 6.3 12.8l.6 2.7c3.6 18 5.2 45.1-4.2 61.5q-3.1 3.9-7.2 6.9a65 65 0 0 0-7.6 8.1A18 18 0 0 1 0 113a61 61 0 0 1 2-8.5C12.6 72.5 12 38 1 6 0 3 0 3 0 0" style="fill:#ed690d" transform="translate(339 201)"/><path d="m0 0 1.4 1C5 3.6 7.6 6 9 10q1.2 5.6.4 11.1c-2.6 3.2-4.2 3.9-8.1 4.5-12.5-.8-23-8.9-31.2-17.5-5.7-6.5-5.7-6.5-5.7-10 3.4-1 6.9-1.4 10.4-2l5.2-.8 3.4-.6 3.1-.5C-8-6-4.2-3 0 0" style="fill:#ee680a" transform="translate(267.6 368.9)"/><path d="M0 0h2v2l4 2 4.9 3.2A114 114 0 0 0 36 20c1.3 3.8 1.2 7.1 1.2 11v6.4C37 39 37 39 35 41a23 23 0 0 1-16.5-3.4A41 41 0 0 1 0 14C-.7 9.3-.4 4.7 0 0" style="fill:#ee680b" transform="translate(124 339)"/><path d="M0 0h6.1c11 0 21.4.8 31.6 4.7l2 .8a51 51 0 0 1 26.1 20.7c1 2.3 1.2 3.4 1 6-1.8 1-1.8 1-4 1-1.6-1.9-1.6-1.9-3.2-4.6A49 49 0 0 0 29.2 9.4L18.8 7.2 16 6.6c-18.6-2.4-40.3-1.8-56.4 9a22 22 0 0 0-6.5 8l-1.3 2.6c-2.2.4-2.2.4-4 0-.5-3.2-.5-5 1-8 7.3-10.4 18-14.2 30-17C-14.2-.2-7 0 0 0" style="fill:#180502" transform="translate(183.2 293.8)"/><path d="M0 0a33 33 0 0 1 10 0c1.9 2 2.2 4.3 2.6 7l.4 2 1 6 .3 2a122 122 0 0 1-2.7 45c-.4 2-.4 2-1.6 5-2.4.9-2.4.9-5.1 1H0l.4-1.5L2 59l.6-2.6C6.2 37.7 4.7 18.4 0 0" style="fill:#f5f5f5" transform="translate(362 224)"/><path d="M0 0a273 273 0 0 1 15.5-.9c3.4 0 6.2 0 9.5.9q5.8 5 7.5 12.3c.3 3.6-.5 6-2.3 9A16 16 0 0 1 25 26c-4.2.5-6.2.4-10-1.5A44 44 0 0 1 0 3z" style="fill:#ed680c" transform="translate(201 368)"/><path d="M0 0c12.6 2 24 4.6 32.7 14.8a32 32 0 0 1 3.4 18.1v2.4L36 41h-2c-1.4-1.6-1.4-1.6-3-3.9-4-5.4-8.7-10-13.4-14.7L15 19.9A148 148 0 0 0 3.4 9.3C.1 6.5.1 6.5-.5 2.6z" style="fill:#ea6a10" transform="translate(313 161)"/><path d="M0 0c16.2 9 25.6 26.8 33 43l1.4 3c14.9 34.4 14.3 79.5 2 114.2-4 10.1-9.8 22.8-18.4 29.8l-3-1 1.5-1.8c22.2-29.1 27.3-65.7 24-101.3A128 128 0 0 0-2 1z" style="fill:#311814" transform="translate(268 153)"/><path d="M0 0c1.7 2.3 2.5 4.4 3.2 7.2L4 9.7l.6 2.7.6 2.5C8.1 26.6 9.4 38 9.3 50v1.9A159 159 0 0 1 1 103l-2-2c.2-2 .2-2 .7-4.6l.7-2.7Q1 90.3 2 87a139 139 0 0 0 3.4-37.8C5.5 36.2 4 24.5.3 12A21 21 0 0 1 0 0" style="fill:#371e19" transform="translate(340 206)"/><path d="M0 0c13 11.5 17 33.6 18.7 50.2C20 65.4 20 80.7 20 96h-2v6h-1v-1.5l-.4-21.2a203 203 0 0 0-5.4-50C8.7 20.2 4.4 12-.3 3.8L-1 2z" style="fill:#381d17" transform="translate(307 170)"/><path d="M0 0c2.6 4.6 2.6 8.8 2 14-1.7 5.9-4.4 10-9 14l-3.3-7.3a18 18 0 0 1-1.7-7.2c1.4-3.6 3.8-5.7 6.6-8.3L-4 3.7z" style="fill:#e06716" transform="translate(355 305)"/><path d="M0 0h3a17 17 0 0 1 1.6 4.4l.7 2.4L6 10l.5 2.1a89 89 0 0 1 1.8 20.5v3.5Q8.3 49.3 5 62l-3-1c.1-2.2.1-2.2.8-5.2 1.4-7.1 1.6-14 1.6-21.4v-2A117 117 0 0 0 0 0" style="fill:#3a2019" transform="translate(359 224)"/><path d="m0 0 2 1a112 112 0 0 1 0 68l-1-2h-2l.4-2.2L1.6 52A121 121 0 0 0-.7 3L-1 1z" style="fill:#301612" transform="translate(373 224)"/><path d="m0 0 3 1c1 4.7 1.2 10-1.2 14-3 3.1-5.6 4.8-10 5.2h-4.5c-2.6-.2-4.2-.8-6.3-2.2v-3l1.7.5a36 36 0 0 0 10 .8c2.3-.1 2.3-.1 4-1.4 1.8-2.7 2.1-5.4 2.5-8.6l.2-1.8z" style="fill:#461409" transform="translate(258 318)"/><path d="M0 0v3l-1.8-.6-2.4-.8-2.3-.8A48 48 0 0 0-37 2v-3c9.4-6.4 27.6-4.3 37 1" style="fill:#350903" transform="translate(203 313)"/><path d="m0 0 1.5 2c2.5 3.3 5.7 5.7 8.9 8.2C12 12 12 12 12.2 14.7L12 17C1.7 13 1.7 13-2 9c-.2-3.3.7-6 2-9" style="fill:#e8e8e7" transform="translate(298 147)"/></svg>