<svg xmlns="http://www.w3.org/2000/svg" style="display:block" viewBox="0 0 500 500"><path d="M0 0q11 3 21 2 24 1 46 7c7 2 9 0 14-4q26-13 52 0 25 15 31 44v3c0 12 4 16 13 23 10 9 19 20 18 35-4 6-4 6-9 8q-16 0-31-6v5q-1 14-6 27h4c15 2 37 8 45 22 3 10-3 16-9 24l-17 15c-30 26-70 42-110 49h-5a315 315 0 0 1-102-2q-53-9-99-39l-28-17c-19-10-19-10-22-19l1-14-3-5c-2-11 0-17 7-26l13-11q17-15 29-33a306 306 0 0 1 35-42q21-19 47-30 8-2 15-8Q-27-7 0 0" style="fill:#040404" transform="translate(249 122)"/><path d="M0 0q7-1 13 1l4 10q9 21 31 32l8 1-5-3q-10-5-17-13l8 2q18 10 37 3 10-7 16-15l3-3q0 9-3 17-5 13 0 26 4 11 1 23l-9-1q-12 0-21 7c-15 9-26 11-42 5q-19-3-35 2l-9 2-4 1q-21 4-42-1c-13-3-30-7-41 3q-4 7-6 16-3-4-4-9-1-13-12-18l-19-3q-26-2-49-12l-5-2v-2l8-2q37-11 69-31c16-9 16-9 22-7l3 3q18 14 41 8l21-11 2-1c-6 12-19 19-31 24A58 58 0 0 0-20 8c3-5 3-5 8-7z" style="fill:#d7cdaf" transform="translate(298 219)"/><path d="M0 0c14-3 26 4 38 10q14 7 30 9l3 1 23 2 5 1q9 3 11 11l4 11 1 4 3 11c7-1 7-1 8-7l2-7c3-11 3-11 9-16 11-4 22 0 32 3q28 5 55-3 20-6 39 0 24 5 44-10 7-4 16-3c-2 20-17 35-32 47-20 12-48 15-71 16l5-4c12-10 23-24 23-40l-2 6q-10 27-37 39h-18q-32 0-63-7l-1-2 5-2q15-8 22-23v-3l-3 4q-12 19-33 22c-17-1-38-9-48-23l-5-10 4 14-12-5-3-2-3-3-31-18C3 13 3 13-1 6z" style="fill:#4b425a" transform="translate(64 290)"/><path d="M0 0q21 22 16 51-9 30-37 41-26 7-48-9a57 57 0 0 1-21-48q3-26 26-41c21-11 46-10 64 6" style="fill:#fcfcfc" transform="translate(269 141)"/><path d="M0 0q20 19 18 46-5 26-27 39l-6 3-4 2q-25 6-45-10a55 55 0 0 1-18-46q3-22 20-36 33-19 62 2" style="fill:#fcfcfc" transform="translate(388 140)"/><path d="M0 0q19 8 31 23l3 3q4 6 3 12l5 11 1 7q-9 7-19 10L8 75c-19 11-19 11-25 9q-3-7-1-15 5-15-3-28c-4-3-4-3-8-3l3 1q7 4 8 12l-1 13q-5 12 1 23c-43 18-43 18-62 10-5-6-5-6-4-12q9-14 24-25l12-13 3-4 16-21C-12-2-12-2 0 0" style="fill:#4c435b" transform="translate(145 184)"/><path d="M0 0q7-1 13 1l4 10q9 21 31 32l8 1-5-3q-10-5-17-13l8 2q18 10 37 3 10-7 16-15l3-3q0 10-3 20l-4 1-5 3q-21 14-45 7c-10-6-19-10-25-20l-3-4-2-4-8-1H0c-9 0-9 0-15 7l-2 3c-9 15-26 25-43 28q-18 2-34-6-9-6-20-4c-16 7-16 7-29 19-1 6-1 6 4 10l6 2q10 3 16 12l5 5 10-3h10l5 1 5 1v1h-3q-13-1-22 6-4 7-6 16-3-4-4-9-1-13-12-18l-19-3q-26-2-49-12l-5-2v-2l8-2q37-11 69-31c16-9 16-9 22-7l3 3q18 14 41 8l21-11 2-1c-6 12-19 19-31 24A58 58 0 0 0-20 8c3-5 3-5 8-7z" style="fill:#ae9e87" transform="translate(298 219)"/><path d="M0 0q-8 31-38 44h-18q-32 0-63-7l-1-2 5-2q18-10 25-30 5-2 9 1c19 7 34 5 53 1q13-5 28-5" style="fill:#47485c" transform="translate(311 327)"/><path d="M0 0c-3 17-19 31-33 40q-32 13-68 14l5-4q21-16 23-42V2l2 1-1 4 1 4c5 2 5 2 11 2l5 1c18 3 30 0 45-11q4-4 10-3" style="fill:#4b435a" transform="translate(385 316)"/><path d="m0 0-1 8-9 4-7 5c-18 12-37 9-56 3l-1-8v3l-1 4-13 3-19 4c-21 6-37 4-58-3q-7-2-16-2h-4l-7 1c1-5 1-5 6-9 11-4 22 0 32 3q28 5 55-3 20-6 39 0 24 5 44-10 7-4 16-3" style="fill:#616973" transform="translate(387 307)"/><path d="M0 0c13 2 31 6 39 17 1 8-5 12-10 17l-3 4Q0 60-31 75l-3-1 4-3q14-10 18-28 0-6 3-10H4q12 0 21-7c2-4 2-4 1-8Q16 8 1 4z" style="fill:#5d636e" transform="translate(400 275)"/><path d="M0 0h4q19 0 37 6l4 1 6 3-1 6q-7 0-12-3C7 3-27 9-57 19l-4 1c-6 3-5 6-6 11l-5-1-1-4-4-13V9q6 2 7 5l9-3 33-9 5-1z" style="fill:#080807" transform="translate(309 274)"/><path d="M0 0c12-1 20 7 29 14l6 5-3 9q-5 24 5 47l1 3-24 2 5-13c7-18 2-39-8-55z" style="fill:#474559" transform="translate(270 134)"/><path d="M0 0c3 5 3 5 4 11l-9 6-6 3-4 1-16 9c-19 11-19 11-25 9q-3-5-2-11l6-4 3-2 4-2 3-2 26-13 3-2c8-3 8-3 13-3" style="fill:#606873" transform="translate(184 229)"/><path d="m0 0-4 8c-7 14-6 33 0 47l-1 2-3-4a71 71 0 0 0-35-24q13-15 32-25l5-3q5-3 6-1" style="fill:#474458" transform="translate(183 150)"/><path d="m0 0 3 3q25 22 59 15L81 8c-6 13-21 22-35 25Q25 36 9 21 2 11 0 0" style="fill:#33303e" transform="translate(188 221)"/><path d="M0 0q16 10 25 28l-1 8q-18 1-34-7c-3-8 5-17 8-24z" style="fill:#606872" transform="translate(410 195)"/><path d="m0 0 4 12c-43 18-43 18-62 10-4-5-4-5-4-10l15-1C-30 11-15 0 0 0" style="fill:#616873" transform="translate(123 259)"/><path d="M0 0q10 0 19 6a117 117 0 0 0 40 13l17 2h6l5 1c5 1 5 1 9 6v3h-4l-5-1h-5l-11-1C49 27 23 22 6 7L2 4z" style="fill:#606772" transform="translate(76 291)"/><path d="M0 0q1 7-5 13-11 13-28 11-21-3-34-20l1-2 3 2 5 2 4 2q24 9 47-3z" style="fill:#32303d" transform="translate(390 225)"/><path d="m0 0 1 2q15 1 29-2l4 1Q9 23-21 37l-3-1 4-3Q-5 20 0 0" style="fill:#46475a" transform="translate(390 313)"/><path d="M0 0c9 6 20 16 24 27q-9-1-17-6l-5-2-8-4z" style="fill:#48465a" transform="translate(410 195)"/><path d="M0 0c5 8 5 8 5 12l-8 1-5 1h-11Q-16-3 0 0" style="fill:#616972" transform="translate(303 200)"/><path d="M0 0v3h-4q-17 0-32 2l-8 1q3-6 10-7 18-5 34 1" style="fill:#b5a68c" transform="translate(326 291)"/><path d="M0 0q12 1 18 11-9 6-19 5z" style="fill:#32303c" transform="translate(403 285)"/><path d="m0 0 24 4q-2 6-6 10L7 6 3 3z" style="fill:#484056" transform="translate(290 136)"/></svg>