<svg xmlns="http://www.w3.org/2000/svg" style="display:block" viewBox="0 0 500 500"><path d="M0 0c0 11-6 16-14 23h-2q-2 5-2 11-1 11-11 17l-2 6c7 0 7 0 10-9l9-4 7-15c3-2 3-2 11-1q8 11 7 24v5Q12 81-5 97v4c-1 12-11 21-19 29l-3 3q-5 4-11 5v6l-1 4-2 8 7-1 1-5h2l2-5 9-11 2-3 20-17 3-2 20-12q3 0 0-6-8-29 15-51c13-10 32-13 48-6q25 14 26 42h23l1-10q8-27 36-35 20-3 37 9l2 2c16 13 18 33 13 51l-1 6 4 2c15 9 51 31 51 51l7 1-1-4-2-14-2-1c-16-6-28-22-31-38q-2-7-8-11c-10-17-15-39-5-57q3-5 10-4l7 10 2 3 1 5 6 1 8 10 5 2c-1-7-1-7-6-10q-7-5-6-13c-1-9-1-9-7-14l-5-4-2-2q-7-7-4-18c23-10 47-1 65 14l9 7 13 18c14 25 22 56 10 83l2 10c4 19-5 34-17 48v3c-3 28-24 46-49 55q-8 4-14 10h-2v2l6 1 2 2 6 6q10 7 13 19l1 3c3 14 5 30-4 42-11 0-13-2-17-12l-2-4-2-4-1-3-3-9h-2v-2l-8-3v3c0 10-3 28-13 33-7 0-7 0-12-5l-1-4-1-6v-3q-1-9-8-16h-4q-17 0-35-3l-15 2q-45 8-88-1H63q-17 3-35 2-6 7-7 17 0 9-7 17c-9 0-11-1-15-9q-5-13-5-28c-9 4-9 4-10 7l-5 11-1 3q-4 10-11 17c-9 0-9 0-12-4-7-16-4-42 7-55l9-8 4-5 7-2q-11-10-24-15c-23-9-40-30-41-54l-2-3q-22-24-12-55l-2-1q-10-32 2-62l1-3C-86 28-30-36 0 0" style="fill:#0a0505" transform="translate(127 73)"/><path d="M0 0h27l2 8c5 15 12 33 29 36l-2-2-12-12 1-2 7 4c15 9 33 4 46-5l6-5c12 1 22 11 31 18l2 2q16 15 27 33l13 1-3 9-4 11q-4 16-18 25-12 6-11 20c2 5 2 5 10 8q-6 6-13 9l-2 2q-39 21-83 29h-3a239 239 0 0 1-89-2q-33-6-63-21l-3-1c-19-10-19-10-23-16l3-2c7-5 6-6 6-15q-5-8-13-13c-12-9-16-19-20-33l-3-7v-3l13-1 2-3c13-20 36-49 62-52l3 4q19 17 44 11l9-4 4-1q-4 8-12 12v2q7-1 11-6l3-3Q-3 21 0 0" style="fill:#a93b2c" transform="translate(239 160)"/><path d="M0 0c20 11 37 14 59 10l5-1 3 9 8 4q-5 5-13 9l-2 2Q21 54-23 62h-3q-43 7-86-1l-3-1q-32-6-62-21l-4-1c-18-10-18-10-23-16l3-2q6-4 7-10h3c27 4 46-2 70-14C-77-28-43-23 0 0" style="fill:#f2dfb4" transform="translate(315 287)"/><path d="M0 0q-4 9-12 14-8 8-7 21l-4 3q-12 11-7 26 8 18 24 30c0 15-14 28-26 34q-22 10-42-4c-18-18-16-45-8-68l5-9q12-26 36-41l5-3c10-5 25-8 36-3" style="fill:#a93a2c" transform="translate(119 76)"/><path d="m0 0 2 2c24 22 37 60 28 91q-11 22-35 24c-20-1-36-15-44-32-1-7-1-7 2-8 13-11 24-25 23-43q-4-9-12-15v-2c-1-15-9-21-19-30C-50-31-8-7 0 0" style="fill:#a93a2c" transform="translate(436 92)"/><path d="M0 0q12 21 0 42a40 40 0 0 1-39 17q-25-7-30-32-1-25 19-39c17-9 38-3 50 12" style="fill:#fbfbfb" transform="translate(227 131)"/><path d="M0 0q14 19 6 40-12 23-37 23-22-3-33-24-5-16 3-33l1-3c16-19 43-22 60-3" style="fill:#fbfbfb" transform="translate(338 128)"/><path d="m0 0 7 17c5 14 11 21 22 29q8 4 7 13c-5 5-16 1-22-1-18-7-34-21-39-40v-8l5-1c7-1 14-9 20-9" style="fill:#a43b2d" transform="translate(78 241)"/><path d="m0 0 3 2q8 7 18 7C22 27 8 43-7 51l-7 4-3 1q-11 8-23 2 0-11 11-16C-16 32-12 18-6 4q0-6 6-4" style="fill:#a53b2d" transform="translate(426 242)"/><path d="m0 0 2-7Q9-3 8 3q0 9-8 14h-4l2-9q-78-36-157-2l-6 2 2 2 1 7q-10 0-12-9c0-10 0-10 3-14h4v7l3-2Q-81-37 0 0" style="fill:#140403" transform="translate(335 226)"/><path d="M0 0c4 2 2 10 2 14Q1 32-13 43c-15 1-22-6-29-19q-2-5-2-11h4c17 1 27-2 40-13" style="fill:#a33b2d" transform="translate(463 201)"/><path d="m0 0 3 3q15 10 32 10h10c1 11-7 22-16 27q-7 4-15 3Q0 30-1 10V5z" style="fill:#a53b2d" transform="translate(36 201)"/><path d="m0 0 2 5q3 10 14 13l1 3q4 8 13 9c-1 11-10 18-18 25C1 51-5 33-5 22V12C-4 0-4 0 0 0" style="fill:#a23b2d" transform="translate(373 109)"/><path d="M0 0q5 1 5 7 3 27-15 48-17-8-20-25l10-4 4-8 9-4q5-7 7-14" style="fill:#a23b2d" transform="translate(127 109)"/><path d="m0 0 12 13-11 7-2 4-2 5-1 3-9 17q-3 0-4-6c-1-8 1-48 17-43" style="fill:#e9d9b1" transform="translate(104 335)"/><path d="M0 0c15 8 16 26 16 41l-2 10q-5-6-8-13c-7-15-7-15-19-24q-1-2 3-3z" style="fill:#e9d9b2" transform="translate(397 334)"/><path d="M0 0q-6 15-22 17h-14l-13-2q6-5 13-8l15-6z" style="fill:#e7d8b0" transform="translate(392 328)"/><path d="M0 0h8q12 0 23 5l18 8v2q-8 3-17 2h-5C14 16 8 11 0 2z" style="fill:#e8d8b1" transform="translate(108 328)"/><path d="m0 0 1 6-2 1q-10 7-17 16h-2l-2 4c-6 9-6 9-9 10q-4-2-3-5C-31 20-12 0 0 0" style="fill:#88251f" transform="translate(145 199)"/><path d="M0 0c5 10-1 23-6 32q-3-6-4-14l-1-3-1-7-4-4V2q7-2 16-2" style="fill:#e9dab3" transform="translate(370 352)"/><path d="m0 0 13 2-4 6-4 23H2l-3-6-1-3-3-13V5q0-6 5-5" style="fill:#e9d9b3" transform="translate(134 352)"/><path d="M0 0q15 7 23 20l-2 4c-5-1-5-1-8-4Q4 11-7 5q0-8 7-5" style="fill:#8b271e" transform="translate(357 198)"/><path d="M0 0v1h-5l-3-1-8-1q-13 0-25 2h-7c5-16 39-8 48-1" style="fill:#210504" transform="translate(277 228)"/></svg>