<svg version="1.2" xmlns="http://www.w3.org/2000/svg" viewBox="0 0 1080 1080">
	
	<path id="leg1lower" d="m241.62 722.76c0 0-27.77 22.13-32.84 49.05-5.07 26.92-0.96 86.99 9.21 89.93 10.17 2.93 30.55-70.76 30.55-70.76l45.26-28.5c0 0-43.08-41.85-52.18-39.72z" style="fill: #fff6c9;stroke: #000000;stroke-linecap: round;stroke-linejoin: round;stroke-width: 15"/>
	<path id="leg1upper" d="m246.66 720.63c0 0 104.35-2.96 106.34-6.48 1.98-3.52 21.52 19.4 21.52 19.4l-16.97 20.91c0 0-99.66 27.83-110.89-33.83z" style="fill: #fff6c9;stroke: #000000;stroke-linecap: round;stroke-linejoin: round;stroke-width: 15"/>
	<path id="leg1back" d="m464.74 744.22l-21.96 27.37-97.56 9.85c0 0-11.01 7.69-22.87 63.58-11.86 55.88-41.49-98.36-36.37-86.88 5.13 11.47-7.84-51.58 178.76-13.92z" style="fill: #fff6c9;stroke: #000000;stroke-linecap: round;stroke-linejoin: round;stroke-width: 15"/>
	<path id="leg2lower" d="m831.73 722.76c0 0 27.77 22.13 32.84 49.05 5.08 26.92 0.96 86.99-9.21 89.93-10.17 2.93-30.55-70.76-30.55-70.76l-45.25-28.5c0 0 43.08-41.85 52.17-39.72z" style="fill: #fff6c9;stroke: #000000;stroke-linecap: round;stroke-linejoin: round;stroke-width: 15"/>
	<path id="leg2upper" d="m826.69 720.63c0 0-104.35-2.96-106.33-6.48-1.99-3.52-21.52 19.4-21.52 19.4l16.97 20.91c0 0 99.65 27.83 110.88-33.83z" style="fill: #fff6c9;stroke: #000000;stroke-linecap: round;stroke-linejoin: round;stroke-width: 15"/>
	<path id="leg2back" d="m608.61 744.22l21.97 27.37 97.56 9.85c0 0 11 7.69 22.86 63.58 11.86 55.88 41.49-98.36 36.37-86.88-5.12 11.47 7.85-51.58-178.76-13.92z" style="fill: #fff6c9;stroke: #000000;stroke-linecap: round;stroke-linejoin: round;stroke-width: 15"/>
	<path id="body" d="m197 543l41-2c0 0 42-141.91 274-145 232-3.09 318 103.09 327 130 9 26.91 60 17.09 50 21-10 3.91 78-35.91-68 139-146 174.91-565 61.09-565 2 0-4.84-118.67-134.82-59-145zm-615-640" style="fill: #d15848;stroke: #000000;stroke-linecap: round;stroke-linejoin: round;stroke-width: 15"/>
	<path id="belly" d="m258 696.08l22.96-16.42c0 0 83.83 6.47 109.78-9.12 25.95-15.6 50.9-31.85 105.79-36.49 54.89-4.65 120.77 6.47 167.67 27.36 46.91 20.9 49.91 23.81 72.86 24.63 22.96 0.83 54.89-12.77 54.89-12.77 0 0 52.9-5.39 21.96 29.19-30.94 34.58-96.81 75.8-287.44 77.54-190.62 1.74-268.47-83.92-268.47-83.92z" style="fill: #fff6c9;stroke: #000000;stroke-linecap: round;stroke-linejoin: round;stroke-width: 10"/>
	<path id="mouth" fill-rule="evenodd" d="m354 573.62c0 0 247.3-120.7 368.01 0" style="fill: none;stroke: #000000;stroke-linecap: round;stroke-linejoin: round;stroke-width: 15"/>
	<path id="mouth-dt1" fill-rule="evenodd" d="m349 546c0 0-18.75 28.29 9 45" style="fill: none;stroke: #000000;stroke-linecap: round;stroke-linejoin: round;stroke-width: 15"/>
	<path id="mouth-dt2" fill-rule="evenodd" d="m717 588c0 0 22.25-6.96 25-34" style="fill: none;stroke: #000000;stroke-linecap: round;stroke-linejoin: round;stroke-width: 15"/>
	<path id="chin" fill-rule="evenodd" d="m494 565.45c0 0 59.7-26.94 101.04-4.59" style="fill: none;stroke: #000000;stroke-linecap: round;stroke-linejoin: round;stroke-width: 10"/>
	<path id="eyeline1" fill-rule="evenodd" d="m457.96 486.48c0 0 49.82-33.55 47.08-74.96" style="fill: none;stroke: #000000;stroke-linecap: round;stroke-linejoin: round;stroke-width: 10"/>
	<path id="eyeline1" fill-rule="evenodd" d="m457.96 486.48c0 0 49.82-33.55 47.08-74.96" style="fill: none;stroke: #000000;stroke-linecap: round;stroke-linejoin: round;stroke-width: 10"/>
	<path id="eyeline2" fill-rule="evenodd" d="m584.64 426.56c0 0 13.68 49.03 47.72 57.88" style="fill: none;stroke: #000000;stroke-linecap: round;stroke-linejoin: round;stroke-width: 10"/>
	<path id="eyeline2" fill-rule="evenodd" d="m584.64 426.56c0 0 13.68 49.03 47.72 57.88" style="fill: none;stroke: #000000;stroke-linecap: round;stroke-linejoin: round;stroke-width: 10"/>
	<path id="eyeline2 copy" fill-rule="evenodd" d="m367.44 430.09c0 0 4.18 42.76 37.06 56.91" style="fill: none;stroke: #000000;stroke-linecap: round;stroke-linejoin: round;stroke-width: 10"/>
	<path id="eyeline2 copy" fill-rule="evenodd" d="m367.44 430.09c0 0 4.18 42.76 37.06 56.91" style="fill: none;stroke: #000000;stroke-linecap: round;stroke-linejoin: round;stroke-width: 10"/>
	<path id="eyeline2 copy 2" fill-rule="evenodd" d="m713.24 425.02c0 0-1.58 42.94-33.54 59.05" style="fill: none;stroke: #000000;stroke-linecap: round;stroke-linejoin: round;stroke-width: 10"/>
	<path id="eyeline2 copy 2" fill-rule="evenodd" d="m713.24 425.02c0 0-1.58 42.94-33.54 59.05" style="fill: none;stroke: #000000;stroke-linecap: round;stroke-linejoin: round;stroke-width: 10"/>
	<path id="eye1" fill-rule="evenodd" d="m653.04 460.16c-46.97 0-84.94-37.36-84.94-83.58 0-46.22 37.97-83.58 84.94-83.58 46.98 0 84.95 37.36 84.95 83.58 0 46.22-37.97 83.58-84.95 83.58z" style="fill: #ffffff;stroke: #000000;stroke-linecap: round;stroke-linejoin: round;stroke-width: 15"/>
	<path id="eye2" fill-rule="evenodd" d="m431.95 462.76c-46.98 0-84.95-37.36-84.95-83.58 0-46.22 37.97-83.58 84.95-83.58 46.97 0 84.94 37.36 84.94 83.58 0 46.22-37.97 83.58-84.94 83.58z" style="fill: #ffffff;stroke: #000000;stroke-linecap: round;stroke-linejoin: round;stroke-width: 15"/>
	<path id="arm1lower" d="m815.71 636.47c0 0-33.98 16.32-18.02 35.5 15.95 19.18 42.66 12.23 42.66 12.23 0 0 115.39-63.93 92.64-125.39-22.74-61.47-64.92-3.87-64.92-3.87 0 0-19.6 64.5-52.36 81.53z" style="fill: #d15848;stroke: #000000;stroke-linecap: round;stroke-linejoin: round;stroke-width: 15"/>
	<path id="arm1upper" d="m908.84 459.07c0 0-44.15 4.77-45.21 41.72-1.06 36.95 11.95 62.91 34.09 67.01 22.14 4.1 64.26-8.37 66.66-57.11 2.4-48.74-6.87-39.18-8.76-43.27-1.88-4.09-25.97-10.21-46.78-8.35z" style="fill: #d15848;stroke: #000000;stroke-linecap: round;stroke-linejoin: round;stroke-width: 15"/>
	<path id="claw1lower" d="m854.1 414.48c0 0-68.77-0.18-81.9-39.36-13.14-39.18-1.97-71.09-1.97-71.09l16.49-16.53 8.93 37.27 21.85 5.63-5.52 17.85 68.77 8.98c0 0 6.72 44.99-26.65 57.25z" style="fill: #d15848;stroke: #000000;stroke-linecap: round;stroke-linejoin: round;stroke-width: 15"/>
	<path id="claw1upper" d="m837.94 385.01c0 0-33.63 30.08-39.87 29.87-6.25-0.22 15.36 22.45 15.36 22.45 0 0-7.1 3.33 31.69 45.93 38.8 42.59 55.28 17.12 66.63 13.91 11.35-3.21 79.11-11.45 68.38-82.07-10.72-70.62-15.89-99.71-40.39-126.21-24.5-26.5-69.19-55.22-75.39-57.19-6.2-1.96-45.99-18.54-54.66-12.57-8.68 5.97-10.66 22.7-10.66 22.7 0 0 9.83 14.83 33.1 31.97 23.27 17.14-1.86 29.96-1.86 29.96l41.21 28.19c0 0 6.23 9.22-33.54 53.06z" style="fill: #d15848;stroke: #000000;stroke-linecap: round;stroke-linejoin: round;stroke-width: 15"/>
	<path id="arm1lower copy" d="m271.63 637.43c0 0 34.53 15.12 19.25 34.85-15.28 19.72-42.22 13.7-42.22 13.7 0 0-117.53-59.89-96.93-122.1 20.6-62.22 64.74-6.12 64.74-6.12 0 0 21.84 63.78 55.16 79.67z" style="fill: #d15848;stroke: #000000;stroke-linecap: round;stroke-linejoin: round;stroke-width: 15"/>
	<path id="arm1upper copy" d="m172.4 463.37c0 0 44.3 3.23 46.64 40.12 2.34 36.89-9.76 63.28-31.75 68.15-21.98 4.87-64.52-6.14-68.61-54.76-4.08-48.63 5.52-39.4 7.26-43.55 1.74-4.15 25.6-11.11 46.46-9.96z" style="fill: #d15848;stroke: #000000;stroke-linecap: round;stroke-linejoin: round;stroke-width: 15"/>
	<path id="claw1lower copy" d="m225.56 416.9c0 0 68.73-2.57 80.49-42.18 11.77-39.61-0.51-71.11-0.51-71.11l-17.04-15.95-7.64 37.55-21.64 6.39 6.14 17.65-68.42 11.35c0 0-5.15 45.21 28.62 56.3z" style="fill: #d15848;stroke: #000000;stroke-linecap: round;stroke-linejoin: round;stroke-width: 15"/>
	<path id="claw1upper copy" d="m240.69 386.88c0 0 34.65 28.9 40.89 28.47 6.23-0.43-14.58 22.97-14.58 22.97 0 0 7.21 3.08-30.08 47-37.29 43.92-54.65 19.04-66.1 16.22-11.45-2.81-79.46-8.69-71.19-79.64 8.27-70.96 12.42-100.21 35.99-127.54 23.56-27.34 67.23-57.59 73.36-59.77 6.12-2.18 45.31-20.13 54.19-14.47 8.87 5.67 11.44 22.32 11.44 22.32 0 0-9.31 15.16-31.97 33.1-22.66 17.93 2.9 29.87 2.9 29.87l-40.21 29.61c0 0-5.91 9.43 35.36 51.86z" style="fill: #d15848;stroke: #000000;stroke-linecap: round;stroke-linejoin: round;stroke-width: 15"/>
</svg>