<svg xmlns="http://www.w3.org/2000/svg" style="display:block" viewBox="0 0 500 500"><path d="M0 0q6 5 14 3 12 1 20 12l1 2 1 2q6 14-2 27l-1 2-3 4 7 1q17 1 27 15 4 10-3 18-5 5-14 6l-2 1-16 2q-5-2-5 2l-1 3-3 2q-3 3-1 5 5 7 13 11 10 5 7 15-2 12-14 16c-18 7-44 1-61-8l-9 4-2 12-5 16-7 13h-2l-2 5q-2 4-5 3l-1 3q-8 8-19 6-6-4-6-12c1-14 1-14-4-27q-9-1-16 2l-2 6-6 9c-9 12-24 26-40 25l-7-3q-2-9 1-16l2-8q-7 1-15 5l-2 1q-21 8-37 24l-3 1-1 2q-1 4-6 7l-13 19h-2v3l-1 2h-2l7 10q23 23 22 54v4c0 16 0 16-6 21q-6 1-10-4l-4-9q-6-9-17-11t-16-11l-2-1-5 4c-8 6-20 5-30 5q-16 1-27 10-5 6-13 5-6-3-6-9c0-16 10-33 20-44l2-2q9-9 21-16l3-2 13-5 3-1 8-2v-7a265 265 0 0 1 61-170h2q6-12-2-25-6-11-16-17l-7-5q-5-3-4-9V1h2l1-3c23-19 61-11 86-3l12 5q7 2 13-2l2-2 6-2C-92-25-32-33 0 0" style="fill:#7ab6da" transform="translate(395 95)"/><path d="M0 0q6 5 14 3 12 1 20 12l1 2 1 2q6 14-2 27l-1 2-3 4 7 1q17 1 27 15 4 10-3 18-5 5-14 6l-2 1-16 2q-5-2-5 2l-1 3-3 2q-3 3-1 5 5 7 13 11 10 5 7 15-2 12-14 16c-18 7-44 1-61-8l-9 4-2 12-5 16-7 13h-2l-2 5q-2 4-5 3l-1 3q-8 8-19 6-6-4-6-12c1-14 1-14-4-27q-9-1-16 2l-2 6-6 9c-9 12-24 26-40 25l-7-3q-2-9 1-16l2-8q-7 1-15 5l-2 1q-21 8-37 24l-3 1-1 2q-1 4-6 7l-13 19h-2v3l-1 2h-2l7 10q23 23 22 54v4c0 16 0 16-6 21q-6 1-10-4l-4-9q-6-9-17-11t-16-11l-2-1-5 4c-8 6-20 5-30 5q-16 1-27 10-5 6-13 5-6-3-6-9c0-16 10-33 20-44l2-2q9-9 21-16l3-2 13-5 3-1 8-2v-7a265 265 0 0 1 61-170h2q6-12-2-25-6-11-16-17l-7-5q-5-3-4-9V1h2l1-3c23-19 61-11 86-3l12 5q7 2 13-2l2-2 6-2C-92-25-32-33 0 0m-97-12-2 1q-34 10-64 29l-5 2 15-11 2-2q-3-4-7-5l-3-1h-2l-3-1c-25-9-55-12-78 2-2 4-2 4-1 8l6 4 3 2 3 2q17 12 18 32l1 2q4 1 6-2l2-2 2-1 2-2-3 5-11 12-2 3q-18 20-30 44l-1 2q-21 41-28 86l-1 4-1 23 1 8c0 9 0 9-3 11l-7 2-5 2-2 1q-19 7-34 21l-2 2c-9 10-20 28-18 42q2 3 5 1l8-5c11-9 20-9 34-9q15 0 25-9l2-2 2-2 2-2 1-1v3q1 9 10 14l9 3q14 4 19 17l3 5q5 0 4-5 7-38-21-65l-2-2q-2-3-5-4-4 4-6 10l-1 2 4-13 3-10c5-45 44-82 82-101l6-2q6-4 8-11 2-4 6-6l-1 3-2 4-1 2q-4 7-4 16v12q1 15-3 29l-2 13q5 4 11 1c26-10 40-40 45-66l3-18c8-3 13-12 18-18q8-13 23-18 4-2 6-5 5-3 11-3v2l-6 1-1 2c27 15 80 24 108 8q7-3 5-11-2-9-12-12l-15-4c-6-1-6-1-8-3l-3 1Q9 61-4 54q-13-9-12-25 2-14 14-22c0-5-8-9-12-11q-39-21-83-8" style="fill:#07080a" transform="translate(395 95)"/><path d="m0 0 6 10 13 18a80 80 0 0 0 35 24q9 3 17 2h2c7 0 7 0 11-4q-1-5-7-9c-11-9-11-9-11-15q5-1 6 3l2 2q7 9 16 14 4 5 2 11-7 11-21 11a122 122 0 0 1-61-18q1 3 5 4l2 1 2 2q-3 4-7 5l-3 1-2 1-3 1q-21 9-44 15l-3 1h-10l2-6a60 60 0 0 0 5-30q0-8 7-11l9-11c5-8 14-20 25-20l-1 6h2l2-6z" style="fill:#cfedf3" transform="translate(336 174)"/><path d="m0 0 1 17 1 12v3q-2 6-9 6a225 225 0 0 0-50 27l-2 2q-18 15-28 35l-1 2h-1c-2-30 31-67 53-83l2-2L-8 3z" style="fill:#ceecf2" transform="translate(232 231)"/><path d="M0 0q8 12 3 25-6 12-19 13-12 1-21-8-8-13-2-27c10-14 27-15 39-3" style="fill:#fbfbfa" transform="translate(361 115)"/><path d="m0 0 2 3 2 1q7 12 2 23-7 14-22 14-15-1-22-14-3-13 4-24C-25-7-11-9 0 0" style="fill:#fbfbfb" transform="translate(421 108)"/><path d="M0 0c2 19-11 36-24 48q-5 4-11 2l-1-6q1-15-5-29v-2l11-3 2-1 14-5 3-1 3-1h2z" style="fill:#78b3d6" transform="translate(343 242)"/><path d="M0 0q12 11 10 27l-4 9-1 2Q0 45-8 48l-2 1q-18 3-30-11-9-13-2-28C-34-6-15-11 0 0m-40 14q-3 12 4 22c7 9 14 9 24 9Q2 41 6 27 7 13-2 4C-16-6-33-2-40 14" style="fill:#0f1215" transform="translate(360 108)"/><path d="m0 0 9 3q22 9 45 10h17l2 1-5 7C49 25 15 19 1 4z" style="fill:#f2f2f1" transform="translate(342 175)"/><path d="M0 0q22-2 35 15l2 8C23 22 9 11 0 1z" style="fill:#e08080" transform="translate(359 201)"/><path d="m0 0 2 2-4 2-2 1-3 2c-37 18-66 52-76 92l-3 4C-81 58-41 21-3 1z" style="fill:#1c242c" transform="translate(227 231)"/><path d="m0 0-5 3q-13 7-21 20-5 8-13 13l6-9 9-10c4-7 14-20 24-17" style="fill:#171d23" transform="translate(331 175)"/><path d="M0 0h2q0 8-4 15V6l1-3z" style="fill:#26313a" transform="translate(144 319)"/><path d="M0 0q-4 4-9 5l-2 1-2 1q0-3 2-4l3-2 3-1z" style="fill:#222a30" transform="translate(331 175)"/><path d="m0 0 2 1Q1 6-4 7l-2-1 3-3 1-2z" style="fill:#172432" transform="translate(231 110)"/><path d="m0 0 2 2-3 3-2 2-2 1q0-5 5-8" style="fill:#272f36" transform="translate(298 203)"/><path d="m0 0 2 2-4 2-3 1-2 1q1-4 7-6" style="fill:#292f36" transform="translate(227 231)"/><path d="m0 0 3 1-4 6h-2z" style="fill:#242d34" transform="translate(157 292)"/><path d="m0 0 2 1-3 5-1-4z" style="fill:#203042" transform="translate(136 352)"/><path d="m0 0 3 1-4 4-1-2z" style="fill:#262f37" transform="translate(166 279)"/><path d="m0 0-2 4h-3q3-5 5-4" style="fill:#141b24" transform="translate(172 274)"/></svg>