<svg xmlns="http://www.w3.org/2000/svg" style="display:block" viewBox="0 0 500 500"><path d="M0 0h5q20-1 39 8l3 2 5 3 15 4a269 269 0 0 1 46 8l2-9q4 1 6 5l1 2 1 1 2-2 3-2 4 3 1 2h3q15-4 28 4l5 5q2 4 5 3l3 1 1 3 4 4 2 1 2 1-4 8 4 7-3 2q-5 2-5 6l3 12q3 6 0 11l-4 8q-3 3-3 5c-6 10-18 16-28 19-31 11-69 9-101 3q-10-1-20 3l-22 2h-4l-23-2-35-1q-19 0-36 4v2l57 4c79 5 79 5 104 31q14 15 17 35v2c4 21-1 51-13 68a68 68 0 0 1-46 26l-20 1H2q-22 0-42-5h-2l-26-7-2-1-10-3q-21-7-41-7h-3q-33 1-63 17-7 3-15 2-4-1-6-6-3-10 4-20c19-27 49-40 80-46q39-5 76 8 17 5 36 5h3q15 0 28-5l3-6-2-8a293 293 0 0 0-89-4c-74 6-74 6-102-16a83 83 0 0 1-27-59l-2-16a92 92 0 0 1 28-82l2-2C-137 10-84 7-41 3l8-1z" style="fill:#8c8c4d" transform="translate(261 99)"/><path d="M0 0h5q20-1 39 8l3 2 5 3 15 4a269 269 0 0 1 46 8l2-9q4 1 6 5l1 2 1 1 2-2 3-2 4 3 1 2h3q15-4 28 4l5 5q2 4 5 3l3 1 1 3 4 4 2 1 2 1-4 8 4 7-3 2q-5 2-5 6l3 12q3 6 0 11l-4 8q-3 3-3 5c-6 10-18 16-28 19-31 11-69 9-101 3q-10-1-20 3l-22 2h-4l-23-2-35-1q-19 0-36 4v2l57 4c79 5 79 5 104 31q14 15 17 35v2c4 21-1 51-13 68a68 68 0 0 1-46 26l-20 1H2q-22 0-42-5h-2l-26-7-2-1-10-3q-21-7-41-7h-3q-33 1-63 17-7 3-15 2-4-1-6-6-3-10 4-20c19-27 49-40 80-46q39-5 76 8 17 5 36 5h3q15 0 28-5l3-6-2-8a293 293 0 0 0-89-4c-74 6-74 6-102-16a83 83 0 0 1-27-59l-2-16a92 92 0 0 1 28-82l2-2C-137 10-84 7-41 3l8-1zm-36 22-3 1c-42 4-86 9-120 36l-2 2a95 95 0 0 0-32 60q-3 22 4 43l1 4q11 27 38 39 23 8 47 7h3l25-2 34-1h3c31 0 31 0 45 3h3q16 2 26 14 6 10 4 20-6 15-20 22a67 67 0 0 1-31 5 131 131 0 0 1-37-6l-15-4-16-4-2-1h-3l-3-1a113 113 0 0 0-55 2q-20 4-37 16 5 0 11-3a143 143 0 0 1 99 0l34 10a166 166 0 0 0 42 5q28 1 49-14 11-16 9-36-2-16-14-27l-13-8c-22-12-50-12-75-13h-18c-51-2-51-2-65-15q-10-11-10-26 2-15 13-25c29-20 67-16 100-12l58 8-2-2q-16-14-18-35 1-16 12-30l3-1-1 3-3 3-2 3-2 3-1 3q-7 11-3 25l3 7 1 3q8 12 20 20l6 1 3 1 40 2c22 0 50-2 67-18q3-1 5-6 0-3-3-5l-2-2-10 8-9-5-2-2-2-2-2 2-2 1-2 2-6 3-1-1q-14 0-27 5c-27 10-27 10-41 5 1-14 1-14 4-18l16-4 3-1c13-2 28-3 39 6l7 5 8-5q2-3 4-1l7 4 2 2 2 1q4-1 7-5l2-3 10 5q6-4 6-11-1-8-7-15l-4-3-2 2-2 1-2 2q-8 5-18 3-11-2-17-12-5-10-2-20l8-13-2-4-2 1-6 1-2-3h-2v5l-3-1-24-6h-3c-13-3-13-3-25 1q-2 2-2 5v3l-2 1h-3l-3 1-4 2 6 4-7 3v2l4 1-6 8 2-7-5-4 6-3-6-5 8-3 5-1q3-1 5-5l5-7-40-1H13z" style="fill:#0a0b08" transform="translate(261 99)"/><path d="m0 0-1 2q-6 17 2 33 7 11 16 20l-20-2h-3l-13-2c-62-12-62-12-121 7q-10 8-14 22-2 17 9 29c16 17 48 15 69 15l4 1h15c29 1 65 2 87 24a48 48 0 0 1 3 58c-9 10-26 14-39 15h-14q-18 1-34-3l-3-1q-21-4-40-12l-23-6-4-1q-38-4-74 11h-5a140 140 0 0 1 121-10l15 4 2 1 6 1 3 1 24 1h4q19 1 34-11 9-9 10-21 0-11-7-18l-12-7-2-1-11-3h-2q-23-2-47-2h-3l-31 1c-28 3-63 4-88-12l-3-2c-10-7-12-17-14-29a82 82 0 0 1 21-65 87 87 0 0 1 61-26q23 0 45-4l22-1v3c-1 11-1 11 4 21q4 4 10 4 13-1 24-9l4-1-1-2h-3l-3-9q0-5 5-7l8-4 2-1z" style="fill:#e6eb6f" transform="translate(285 165)"/><path d="M0 0h2l1 4q1 7 8 11 15 7 32 7h4l37 2c33 0 70 1 96 25l2 2q19 21 16 49 1 12-5 22l-1 3-12 12 3-8a46 46 0 0 0-9-51l-11-7-2-1c-22-12-50-13-75-13l-15-1h-3c-52-1-52-1-66-15q-9-11-8-25 2-9 6-16" style="fill:#8a8b4b" transform="translate(138 234)"/><path d="M0 0q4 3 5 7l5 4-4-7 13 3q13 5 26 0h5v2l-13 6c6 0 6 0 11-3l2-1 2-1 4-2-1 5 3-5 18 5q19 10 40 4l9-5q3 3 2 7 0 5-3 9l-3 2-2-2-8-3-7 8-10-6q-2-3-4-1l-6 3-2 2-2 1-2-1-2-1-3-3q-15-9-33-7l-10 2h-2c-8 1-8 1-15 6l-3 16c15 5 29-1 43-6q13-4 25-4 5 0 8-3l2-2 2-2 12 9q7-2 10-8l7 4q-1 7-7 11-12 8-25 11l-2 1a154 154 0 0 1-48 4C1 59 1 59-7 51l-2-2-2-2-2-1-11-16-1-2q-4-9-2-20l9-6 3-1q7-3 15-1" style="fill:#e3e971" transform="translate(311 167)"/><path d="m0 0 6 4q0 9-6 17c-12 11-29 9-44 9q-16-1-32-6-28-8-57-7h-3q-39 2-71 26l-3 2q-4 3-6 9v5q8 0 16-4l26-9c30-7 58 0 87 10l36 9q15 3 31 2h3q16 1 30-5h2q15-6 25-19l3-3q-4 15-18 23C-5 81-44 75-77 68l-28-10a135 135 0 0 0-111 11l-11 2-3-3q-1-12 9-22c18-22 49-35 78-38q30-2 58 6 22 7 46 7h3c11 0 24 0 33-8Q1 7 0 0" style="fill:#666836" transform="translate(288 322)"/><path d="M0 0v2q-13 4-27 3h-4l-17-1-42-1c-21-1-21-1-39 8l1 5c8 6 22 5 32 5l19 2 20 1q32 0 62 9l3 1q25 10 37 34 8 17 6 34-3-4-3-8-5-25-24-39Q3 42-21 38l-3-1q-24-3-50-2c-56-1-56-1-70-13q-4-7-2-15l10-7 3-2C-94-21-41-7 0 0" style="fill:#676936" transform="translate(289 221)"/><path d="m0 0 3 4q4 10 0 19-11 15-29 20h-18a131 131 0 0 1-40-5l-14-4-16-4-3-1-2-1h-3a113 113 0 0 0-55 2q-16 3-30 11-3 3-7 3v2l-8 1q1-5 6-9l2-2c27-22 61-28 96-26q19 2 37 8 18 5 36 5h3q20 1 36-10 5-5 6-13" style="fill:#898a4b" transform="translate(296 331)"/><path d="m0 0 10 2h2l16 5V2q3 1 5 4l2-1 5-2 2 5-1 1q-7 8-9 19 2 11 9 18 10 8 22 6l15-8 3 4 2 2 3 5-6 3-3 2q-15 5-32 1l-12-5q-7-4-14-5l-1 2-3 4 1-5-2 1q-7 6-18 6l8-5 2-1 5-1v-2l-2 1q-12 6-25-1-11-6-14-18-1-12 6-21 9-9 22-10h2z" style="fill:#89894b" transform="translate(350 124)"/><path d="M0 0h5a71 71 0 0 1 45 11v1h-4c-108-1-108-1-204 40l-3 2q-24 23-31 54h-1q-3-32 19-56l2-3 2-3c22-23 53-32 83-37l4-1 54-6z" style="fill:#686936" transform="translate(259 104)"/><path d="M0 0q8 4 12 13 2 12-4 21-8 8-19 10-9-2-16-8-8-10-5-23 4-9 13-14Q-9-4 0 0" style="fill:#fbfbfb" transform="translate(418 131)"/><path d="M0 0q8 4 11 13 4 10-2 19-4 7-12 10-11 2-20-3-7-4-9-12-2-11 3-20Q-17-7 0 0" style="fill:#fbfbfb" transform="translate(356 131)"/><path d="m0 0 1 4-3 1v10l5 3v2c-22 13-22 13-33 11q-7-4-10-12-2-9 1-17c9-12 27-5 39-2" style="fill:#6a6d37" transform="translate(269 170)"/><path d="M0 0q9 6 14 16 2 14-5 24-8 8-20 9-13 0-21-10-6-9-5-19 2-12 12-19 12-6 25-1m-30 10q-5 9-3 20 2 9 12 14 8 2 17 1 7-3 13-11 4-9 1-18Q6 6-3 2q-16-4-27 8" style="fill:#1a1a16" transform="translate(357 128)"/><path d="m0 0 2 1 5 1 1 3-12-2q-11-3-22 1l-3 3c-1 10-1 10 3 19l6 4q15 0 25-10l2-1 3 1v2c-22 13-22 13-33 11q-7-4-10-12-2-8 1-17c8-9 22-7 32-4" style="fill:#0e0e08" transform="translate(262 168)"/><path d="m0 0 13 8v2l-7 2-2 1-13 3 8-14z" style="fill:#f1f1f1" transform="translate(348 194)"/><path d="M0 0q-2 6-6 11l-2 4-2 2q-6-5-9-11l1-3 7-1 2-1z" style="fill:#f1f1f0" transform="translate(347 190)"/><path d="M0 0h3l7 2-5 7-4 1-8-4-3-2-2-2V1z" style="fill:#ececeb" transform="translate(361 189)"/><path d="m0 0-1 5q-3 6-2 13v10l10 2v1H-6q-4-11-1-23 3-5 7-8" style="fill:#2a2b1a" transform="translate(319 187)"/><path d="M0 0h1q1 8-5 15l-1-5-3 2q-7 6-16 5l7-4Q-8 9-1 2z" style="fill:#17180e" transform="translate(370 166)"/><path d="m0 0 3 3 6 6-1 2-1 2-1 3-1 2 3 4-6 2v7l-3-3 1-2Q3 12 0 0" style="fill:#757548" transform="translate(433 138)"/><path d="m0 0 5 9 2 2 2 6H3l5 6-2 1q-7-5-9-13l6 2-1-3Q0 6 0 0" style="fill:#13130b" transform="translate(315 155)"/></svg>