<svg xmlns="http://www.w3.org/2000/svg" style="display:block" viewBox="0 0 500 500"><path d="M0 0q30 17 47 46l13 13 3 2 2 3 3 2 2 1 5-2q10-5 21-4 9 0 17 6 7 6 11 15 3 10 1 20-2 7-7 13l-2 3 3 7q5 6 5 13l-2 5-1 2 6 4 3 4q3 6 1 11l-4 6-5 2q-9 3-15 12-16 20-38 36l-2 1-20 13-2 1-10 4q-5 1-9 5l-3 18q0 9-7 18-4 6-7 6H2l-4-3-7 5q-5 5-11 6l-6-1q-4-3-5-8-3-9-1-18l3-7-3 2q-31 24-69 28-26 2-48-9-28-16-46-43l-2-2-21-33-1-2c-10-15-10-15-10-19v-6l4-5q-5-5-12-5-8 1-14 4l-7 6q-13 12-30 17l-10-1q-6-6-9-13-11-38-3-77 3-14 11-23l7-3q12 3 23 10l12 9c8 6 8 6 17 9l12-2 2-2-3-5v-9q7-14 17-27l1-2a309 309 0 0 1 37-47q21-22 50-30C-83-30-37-20 0 0" style="fill:#c1af85" transform="translate(341 115)"/><path d="M0 0q30 17 47 46l13 13 3 2 2 3 3 2 2 1 5-2q10-5 21-4 9 0 17 6 7 6 11 15 3 10 1 20-2 7-7 13l-2 3 3 7q5 6 5 13l-2 5-1 2 6 4 3 4q3 6 1 11l-4 6-5 2q-9 3-15 12-16 20-38 36l-2 1-20 13-2 1-10 4q-5 1-9 5l-3 18q0 9-7 18-4 6-7 6H2l-4-3-7 5q-5 5-11 6l-6-1q-4-3-5-8-3-9-1-18l3-7-3 2q-31 24-69 28-26 2-48-9-28-16-46-43l-2-2-21-33-1-2c-10-15-10-15-10-19v-6l4-5q-5-5-12-5-8 1-14 4l-7 6q-13 12-30 17l-10-1q-6-6-9-13-11-38-3-77 3-14 11-23l7-3q12 3 23 10l12 9c8 6 8 6 17 9l12-2 2-2-3-5v-9q7-14 17-27l1-2a309 309 0 0 1 37-47q21-22 50-30C-83-30-37-20 0 0m-101 17h-2a153 153 0 0 0-66 35q-18 15-33 33l-9 10-4 5q-7 7-16 10h-17q-5 6-8 13-3 12 0 23 3 9 8 14h8c10 0 10 0 14 2q11 6 18 17l11 12 9 9q8 11 18 18l1 1q28 25 64 34l3 1c26 7 56 4 81-2q4-1 7-5l2-2 2-4 4-1q-1 6-4 9l-7 7q-5 4-8 11v11l1 7 2 2 5-1q13-10 19-24 5-10 6-20v-3l3-1 1 4 14-5 3-1 5-3 1-2h-4q-14 0-27-7l-3-1q-18-12-29-31-11-20-11-43 1-18 10-34l-1 2c-6 26-6 26-3 52l2 6 1 2q9 23 28 39 11 9 24 10h12a37 37 0 0 0 26-8l2-1 28-25 3-3q9-8 16-18v-1a64 64 0 0 0-43 10v-1q11-10 24-12l22-1h8l4-4-1-7-4-2h-11a99 99 0 0 0-71 31l-12 12h-7l-1-5 9-12 1-2a109 109 0 0 1 71-35h3l9-1h5l2-2-2-10-6-7-7 2q-8 2-16 1-8-2-15-8l-2 1c8 9 8 9 18 16l8 1h3v2q-11-1-21-6-9-8-14-20-3-12-2-24l3-8 2-6-4-4-2-2Q14 27-45 15q-28-4-56 2" style="fill:#070705" transform="translate(341 115)"/><path d="M0 0q15-2 28 2 13 8 23 19t22 18l8 6q38 30 87 37h15l29-1-1-5 1-4 2-1h5l2 1 10 2h8l2-2-2-2q-14-12-20-31l-2-11 1-2 1 3q9 24 29 38a63 63 0 0 0 33 11l6 1-1 2-4 2-3 1-3 2-3 1-9 3-1-4-3 1-1 5q-3 18-13 32-6 7-13 11l-4-1q-2-3-2-7c-1-10-1-10 1-15q5-7 13-14 4-4 5-10l-4 1-4 6q-2 3-6 5l-13 2-3 1-14 2h-21q-15 1-30-3l-4-1q-40-10-70-40l-2-2Q59 45 45 28c-9-12-9-12-21-19L10 8H4l-5-6z" style="fill:#9e8f6e" transform="translate(89 267)"/><path d="M0 0q29 13 47 38l-1 2-1-1-15-9q-4-2-6-5l-2-5v5l-11-4-4-10v7l-4-1H1l-6-3-2-5-1-3-1-2 1 9-7-2-5-1-2-5-2-3-1-5h-2l1 2 1 2 1 3 1 5-13-1-5-8 1 3v4c-11 1-11 1-16-1l-5-10q-2-4-5-6l2 3 5 13q-7 2-16 1l-4-8q-3-7-9-12l4 7 1 2 3 4 1 2 1 2 1 4-5 2h-4l-7 1-3-5q-5-8-12-15l8 12 5 9-8 3-3 1h-4l-5-7-6-6 3 3 7 11-6 4-2 1-6 1-3-4-8-7 2 2 2 2 2 3q5 4 4 6l-12 7-5-5-8-8 9 11 1 2v2l-5 4-2 1-3 2h-2l-3-4-2-2-2-2 5 6 1 3-7 6-2 1-3-3-2-2-2-2 4 6 1 2q-1 4-4 6l-2 2-4-1-5-4 3 3 2 3v2q-2 4-6 7l-6-2 2 2 1 3-7 7-4-1 2 2v2l-5 7-2 2-5 4h-2l-2-2q-1-4 2-9l1-2 2-3 2-3 2-4 6-9 2-2c18-28 38-55 68-69l21-7 3-1c33-6 71 3 100 17" style="fill:#9e8f6f" transform="translate(328 116)"/><path d="m0 0 10 10 2 2 2 3-1 3-4 1v2l2-1 7-1 5 6-1 3-4 2h2l7-1 7 7-1 3-6 4 2-1 2-1h2l4-1 8 6v2l-5 4-4 2-2 1 7-3q4-3 7-3 6 3 9 7l-1 3-6 4-3 2 5-3 2-1 5-2 5 2 2 1 2 1 2 2 1 1-1 3-6 5-2 1h2l3-2 5-4 2-1q8 2 14 7L74 89l4-3 3-1 6-6 4-3 13 5q-6 9-15 17l10-9 8-7q7 0 14 3-2 6-7 11l-2 3-2 2 9-8 1-2 4-5 7 1h3l3 1-8 13 1-1 2-1 1-2 2-2 3-5 2-2h13l-4 8 5-6 2-2 9-1h8l-11 8-2 1q-23 13-50 12h-4q-20 0-38-11C39 79 19 45 2 17l-2-3q-3-4-3-9V2z" style="fill:#9d8e6f" transform="translate(122 290)"/><path d="M0 0q9 1 17 8l18 13 2 2-2 5-1 2q-7-1-12-6L3 15l28 18-1 6-4 1-5-2h-3l-3-1-6-2-2-1-10-1h3l19 6 4 2 5 2 1 6-1 2H-8v2l13-1h18l5 1 1 6-1 2-6 2-2 1-21 6 11-2 8-2 3-1 3-1 3-1 2 1 2 4-1 4-4 3-3 1-3 2-6 3-2 2-4 3 2-1 11-6 2-1 5-3 3-1q4 0 6 4l-1 4-4 3-2 1-2 2-3 2C8 101 8 101 1 103h-4l-6-9q-11-34-4-69c3-17 3-17 8-23z" style="fill:#9d8e6e" transform="translate(50 198)"/><path d="M0 0q28 15 52 37l-3 1-4-4Q2 2-50-7l-24-1h-3q-18 0-35 5l-2 1a189 189 0 0 0-80 48l-19 18c-17 18-17 18-28 21-13 1-13 1-19-1l1-4 4-2h7q7 1 14-2 11-7 18-18l8-8 4-5q13-14 28-26l3-2a153 153 0 0 1 72-34l4-1c33-6 68 3 97 18" style="fill:#d3c49c" transform="translate(350 147)"/><path d="M0 0q9 4 13 12 5 9 4 20 0 6-4 11-5 8-14 12-8 2-17 1-8-2-14-8-6-7-8-15t1-17q5-8 12-13 13-7 27-3" style="fill:#fcfcfc" transform="translate(370 184)"/><path d="M0 0q6 0 11 4 9 6 13 15v10q1 6-2 11-6 8-13 12-8 4-16 3-7-1-13-6-7-5-10-14V21l5-10 1-2Q-13-1 0 0" style="fill:#fbfcfb" transform="translate(436 182)"/><path d="m0 0 4 2h3l4 2v3l-1 1H4l-2 8 1 6 2 2h7l-1 5-8 5-2 1-6 2-3 2q-9 3-18 1l-6-3-2-1q-11-10-17-24-2-5-1-10 3-4 8-7c14-5 31 1 44 5" style="fill:#9c8e6e" transform="translate(282 268)"/><path d="M0 0h4l26 2-4 9-10 4-12-1-9-6q-1-2-6-2-5 1-9 4l-6 6c-5 7-5 7-9 8q-6 1-13-2-5-2-14-2l-5 2-3 11-1 5-4 3-10 1-11 2-4 4-6 5q-4 1-9-1l-2-1 13-12 2-2q29-22 64-32l2-1q18-4 36-4" style="fill:#a29370" transform="translate(276 139)"/><path d="M0 0h10L0 12l-1 2-5 5-2 2q-14 15-30 26l-4 2q-7 7-17 7c-22 1-22 1-31-4l-3-1-14-10 3-1 6 3a42 42 0 0 0 21 3q15 0 29-8c12-8 26-18 34-30l-19 3Q-19 0 0 0" style="fill:#9e8f6e" transform="translate(440 285)"/><path d="m0 0 10 5 2 1q7 6 11 15 3 9 2 16v3q1 17-9 32Q9 82-3 87q-7 2-15 1v-1l5-1q12-2 21-11 6-6 9-15l-2 2Q7 73-4 77q-8 2-17 1l-10-5-1-2 2 1q9 3 19 2 13-3 21-12l-2 1-2 1-3 1q-9 4-20 2l-9-4-2-1q-8-5-12-14l-1-2q-4-9-2-20 2-9 8-15Q-20-3 0 0m-28 11q-7 7-10 16-1 10 3 20a29 29 0 0 0 25 16q8 0 15-4 9-5 13-15 3-10 0-21-2-7-8-12Q3 5-5 4q-12-1-23 7" style="fill:#0d0c0a" transform="translate(368 178)"/><path d="m0 0 5 9q3 6 8 11a35 35 0 0 0 36 3l5-1q-8 8-18 12-9 2-19 0l-5-2q7 5 16 6 10-1 19-7 8-5 13-13l1 3q-5 12-15 20-7 5-18 6-9-1-17-7-6-4-8-13-4-13-3-27" style="fill:#776f5a" transform="translate(325 218)"/><path d="m0 0 4 2h3l4 2v3l-1 1Q2 8-7 4l-5-1-2-1q-8-2-18-2h-8l-5 2q-1 6 1 11 5 12 15 20l9 2q14-1 26-10l6-1-1 5-8 5-2 1-6 2-3 2q-9 3-18 1l-6-3-2-1q-11-10-17-24-2-5-1-10 3-4 8-7c14-5 31 1 44 5" style="fill:#0d0b09" transform="translate(282 268)"/><path d="M0 0h2l1 4 2-1 2-1 1 1h2Q8 19-2 31l-13 11-4-1q-2-3-2-7c-1-10-1-10 1-15l5-6 2-3c7-7 7-7 10-8h2z" style="fill:#9b8d6f" transform="translate(337 360)"/><path d="m0 0 3 1v1h-15q-11 0-21 4l-14 10q-15 14-35 21l-2 1c-20 6-42 5-63 5h-34l-1-2h32c45-1 45-1 85-16l15-12 16-10 2-1q16-6 32-2" style="fill:#18140f" transform="translate(303 208)"/><path d="M0 0q6 2 11 7l22 14 2 1a192 192 0 0 0 94 24v1A164 164 0 0 1 0 1z" style="fill:#191510" transform="translate(159 305)"/><path d="m0 0 10 6q8 3 17 2 6 0 11-3h2l3 4-2 4q-7 4-15 5-6 0-11-3Q6 10 0 1z" style="fill:#6e6757" transform="translate(410 232)"/><path d="M0 0q1 16-8 31l-2 2-5-1-2-2 4-11 5-13 1-4z" style="fill:#9d8e70" transform="translate(359 361)"/><path d="M0 0h2a44 44 0 0 1-17 23l-1-2-5 3q3-9 11-16l7-6h2z" style="fill:#96886d" transform="translate(337 360)"/><path d="m0 0 9 2 2 2v6l-1 2-5 1-6-3-2-3 1-5z" style="fill:#a2926f" transform="translate(191 310)"/><path d="M0 0q7 2 12 6l1 9-1 1H6l-3-6-3-4-1-1z" style="fill:#a3936f" transform="translate(147 278)"/><path d="M0 0q11 2 21 7l1 2q-7 3-14 2L1 6z" style="fill:#a49471" transform="translate(327 147)"/><path d="m0 0 4 3-1 4-4 3q-6 1-12-2l-2-1 1-3 6-3 2-1z" style="fill:#a2926f" transform="translate(287 336)"/><path d="M0 0h1l1 9 3 5 4 3h13l-5 4H7l-6-4q-3-4-3-10z" style="fill:#17130f" transform="translate(349 302)"/><path d="M0 0h7L6 6l-7 4h-8l-1-4q5-4 9-5z" style="fill:#a49371" transform="translate(104 236)"/><path d="m0 0 7 1-2 8-1 2h-8l-2-2V6q2-4 6-6" style="fill:#a59470" transform="translate(304 185)"/><path d="m0 0 7 1-2 7-5 2h-7l2-6z" style="fill:#a3936f" transform="translate(176 196)"/><path d="M0 0q12-1 24 1l2 1q7 0 13 3l-1 2-8-1-3-1L6 2H3L0 1z" style="fill:#181410" transform="translate(245 273)"/><path d="m0 0 2 1q-3 13-13 25l-2 2-3 4-2-1 1-2Q-8 17-1 2z" style="fill:#1a1612" transform="translate(342 362)"/><path d="M0 0v2l2 1q-15 5-31 7l1-2 6-2 3-1 4-1 4-1z" style="fill:#201b16" transform="translate(74 260)"/><path d="M0 0h2l14 2v1H1Q-9 3-19 6V3Q-9-1 0 0" style="fill:#29231d" transform="translate(290 207)"/><path d="m0 0 3 1 1 2-1 3q-4 3-8 2h-3V3q3-4 8-3" style="fill:#a3936f" transform="translate(264 156)"/><path d="M0 0v3h-31V2q16-3 31-2" style="fill:#1a1612" transform="translate(283 283)"/><path d="M0 0q3 1 5 4l3 3 2 3 5 9v2h5v1l-5 1H9l4-1-2-3z" style="fill:#1d1813" transform="translate(238 102)"/><path d="m0 0 27 6-1 3Q12 7 0 1z" style="fill:#231e19" transform="translate(45 230)"/><path d="m0 0-1 4-1 1-6 1h-5l2-6z" style="fill:#a59571" transform="translate(254 188)"/><path d="M0 0h2a44 44 0 0 1-17 23v-3l4-5L-1 2z" style="fill:#1c1712" transform="translate(337 360)"/><path d="m0 0 2 1 1 5q-3 3-9 4l-1-5q3-4 7-5" style="fill:#a69673" transform="translate(225 166)"/><path d="m0 0 2 1v2q-12 6-24 6 5-4 12-6l3-1 3-1 2-1z" style="fill:#1e1914" transform="translate(283 288)"/><path d="M0 0q8 6 11 17l-2 2H0v-1h8l-2-3-2-5-1-2-1-2-1-2z" style="fill:#29231d" transform="translate(261 104)"/><path d="m0 0 2 2-1 4h-8l-2-1V2q4-2 9-2" style="fill:#a59470" transform="translate(297 161)"/><path d="M0 0h6l3 2v3L3 6l-5-2z" style="fill:#a69673" transform="translate(122 262)"/><path d="m0 0 4 2-7 4-2 1-13 5 10-8 2-1z" style="fill:#1f1a15" transform="translate(67 277)"/><path d="M0 0q10 3 20 9l-2 3-4-2-3-2-2-1-3-2-6-4z" style="fill:#1b1712" transform="translate(51 212)"/><path d="M0 0q5 3 9 8l2 2 4 7-3 1-4-6-2-3-2-3z" style="fill:#241e18" transform="translate(218 106)"/><path d="M0 0h5l2 4-2 2H0l-2-4z" style="fill:#a69670" transform="translate(313 152)"/><path d="m0 0 5 3 3 3 2 3 2 3v2l3 1h-5L5 8 3 6 0 1z" style="fill:#1f1915" transform="translate(206 118)"/></svg>