<svg xmlns="http://www.w3.org/2000/svg" style="display:block" viewBox="0 0 500 500"><path d="M0 0c8 8 8 8 9 13 9 0 9 0 16-4l3-5q8-11 21-14 24-3 43 10 14 9 17 26h2q34 4 62 23l5 3 6-4 1-4q2-6 9-10a65 65 0 0 1 37-1l11 2 9-1 3-2 4-1 3-1q8-1 14-6l7-2 6 3 1 8-3 5 2 2 6-1q6-1 12 1 3 4 2 9-1 4-5 6l-5 1q-4 1-6 4l-2 2 2 1 4 2c1 7 1 7-1 11q-5 2-11 1l-2-1h-11q-20-1-39-7l-21-3v3l-2 10q-3 4-1 9l3 6q3 4 3 8l1 3 3 1 13 20 1-3 1-5 1-2q2-9 9-13 8-3 14 0 16 10 24 28l15 19c12 10 12 10 14 16l3 1q6 1 8 6 1 5-2 9-1 3-6 2h-6l-2 8 3 1q3 4 3 10l-3 6h-10q-4-4-6-9l-7-3v3l-1 5q-5 3-9 2l-4-2q-3-4-3-10l-4-11-1-2-4-10-1 3q-3 13-13 22-11 5-23 1-20-7-35-22-1-2-6-2l-5 4q-23 18-52 20c-7 1-7 1-13 4l-4 7-8 7-2 2q-15 11-33 15-9 4-14 13l-3 3-4 7q0 5-4 6c-7 1-7 1-10-2q-3-3-3-7l2-5-5-2-2-1-7 2q-4 3-10 2-4-1-6-5l2-10 5-3 3-1 2-7-2 1q-5 0-8-3-2-2-2-5 0-4 2-7 5-3 10-2h11l9-1c17 0 17 0 31-8l-2-1c-30-7-30-7-42-13h-6q-20 0-38-8c-6-3-6-3-13-3l-9 5-2 1q-5 3-6 10l-1 6v13q1 5-2 10-5 4-10 2l-5-4v-5l-13 1-1 3q0 6-4 7-6 2-12 0-4-5-3-10l4-6v-5l-7 1q-5 1-8-2-2-3-2-8 1-4 4-6l4-1 11-8 10-6q7-4 11-11l10-10-3-1q-20-4-32-20-9-17-4-37 6-17 23-26l5-1 6-4q2-5 1-10l-1-3v-5l-3-10q-4-13 3-27 9-13 24-17c19-3 37-2 52 11" style="fill:#978d3c" transform="translate(150 125)"/><path d="M0 0c8 8 8 8 9 13 9 0 9 0 16-4l3-5q8-11 21-14 24-3 43 10 14 9 17 26h2q34 4 62 23l5 3 6-4 1-4q2-6 9-10a65 65 0 0 1 37-1l11 2 9-1 3-2 4-1 3-1q8-1 14-6l7-2 6 3 1 8-3 5 2 2 6-1q6-1 12 1 3 4 2 9-1 4-5 6l-5 1q-4 1-6 4l-2 2 2 1 4 2c1 7 1 7-1 11q-5 2-11 1l-2-1h-11q-20-1-39-7l-21-3v3l-2 10q-3 4-1 9l3 6q3 4 3 8l1 3 3 1 13 20 1-3 1-5 1-2q2-9 9-13 8-3 14 0 16 10 24 28l15 19c12 10 12 10 14 16l3 1q6 1 8 6 1 5-2 9-1 3-6 2h-6l-2 8 3 1q3 4 3 10l-3 6h-10q-4-4-6-9l-7-3v3l-1 5q-5 3-9 2l-4-2q-3-4-3-10l-4-11-1-2-4-10-1 3q-3 13-13 22-11 5-23 1-20-7-35-22-1-2-6-2l-5 4q-23 18-52 20c-7 1-7 1-13 4l-4 7-8 7-2 2q-15 11-33 15-9 4-14 13l-3 3-4 7q0 5-4 6c-7 1-7 1-10-2q-3-3-3-7l2-5-5-2-2-1-7 2q-4 3-10 2-4-1-6-5l2-10 5-3 3-1 2-7-2 1q-5 0-8-3-2-2-2-5 0-4 2-7 5-3 10-2h11l9-1c17 0 17 0 31-8l-2-1c-30-7-30-7-42-13h-6q-20 0-38-8c-6-3-6-3-13-3l-9 5-2 1q-5 3-6 10l-1 6v13q1 5-2 10-5 4-10 2l-5-4v-5l-13 1-1 3q0 6-4 7-6 2-12 0-4-5-3-10l4-6v-5l-7 1q-5 1-8-2-2-3-2-8 1-4 4-6l4-1 11-8 10-6q7-4 11-11l10-10-3-1q-20-4-32-20-9-17-4-37 6-17 23-26l5-1 6-4q2-5 1-10l-1-3v-5l-3-10q-4-13 3-27 9-13 24-17c19-3 37-2 52 11m-31-7 2 2 3 2 2 2q11 10 11 24 0 16-10 29l-2 3a35 35 0 0 1-27 11h-7 3c13-3 13-3 24-10l1-2-4 1q-17 5-32-6l-3-2v2q2 7-2 13l-1 6h-2q-15 3-25 15-10 15-6 32 5 17 21 26 10 5 21 3l-2-8 8 10q19 25 50 31 29 4 57-5l-22 8-1 2q15 6 32 9l2 1 11 1q13-12 13-31h2l-1 10v2q-2 15-14 24l-16 10-2 1-7 1h-3l-3 1-27 2-8-1-2 4 2 2 5-1h19l8 1 1 3-2 1-8 4-3 1-22 12 1 4h6l1-2q3-3 7-4l4-2q10-5 23-7c-8 21-8 21-13 24l1 5 5-1 2-4q4-8 10-14l3-5q4-4 10-5 21-5 37-20l2-2c13-11 15-29 17-45l1-5q2 17-3 32l-1 6c22 0 47-10 63-26l1-1-4-11q-5-8-6-18l1 2q15 38 52 53l9 1h4q6 0 11-6l5-11v-2q4-10 3-22v-2l1-23q3 10 2 19 1 8 5 14l1 6q3 12 8 23l2 6q0 5 2 6h3q1-5-2-11-6-14-6-29 5 1 6 6l9 13c11 16 11 16 14 23h5v-6l-4-3-7-11-2-2c-10-19-10-19-12-27l17 10 12 11 2 3h4v-5l-4-3q-5-2-8-7l-11-10q-10-9-16-22c-5-9-13-21-23-25q-5-2-10 2-9 15-7 33l2 7 2 13v7l-1-2c-8-31-8-31-25-57q-4-5-6-11-4-11-12-21l-1-2c-20-25-50-39-81-44h-4l-1 12h-2v-3q-1-22-18-37l2 6q6 13 3 25a39 39 0 0 1-11 20q-10 9-24 10l-17-4-3-1-2-1q9 12 22 14 12 1 23-2-14 8-31 3-16-6-23-22a58 58 0 0 1-6-28v-6Q9 18-4 21q3-4 8-5Q2 6-8 0q-11-7-23-7" style="fill:#090806" transform="translate(150 125)"/><path d="m0 0 12 2 4 1 4 6 4 6-3-9V1l1 1q12 17 31 21 19 3 35-8l7-9 3-3q-2 14-13 25a58 58 0 0 1-45 10h-5q9 6 21 6l-2 10v2a44 44 0 0 1-9 20c-7 4-17 0-23-2h-3l-22-7 1-2 7-2 15-6h-3l-4 2h-2q-41 11-78-9l-10-8-2-2q-8-7-12-16l-4-3 2 8q-14 1-27-7l-12-14 1-3 2 1 1 1 2 1q6 4 13 3 10-3 15-10l2-3 1-1-1 8 1-2 4-6h8l9-2c25-7 50-2 74 5" style="fill:#f5e884" transform="translate(179 240)"/><path d="M0 0q12 8 17 21 3 14-4 25l-2 4Q2 62-13 64q-15 0-25-10-11-10-11-25 0-14 11-23Q-21-9 0 0" style="fill:#fbfbfb" transform="translate(224 123)"/><path d="M0 0q10 7 16 16 4 14-2 25T-5 56q-13 3-24-5l-2-1q-8-9-9-19-1-11 4-20l2-2Q-20-6 0 0" style="fill:#fbfbfb" transform="translate(116 121)"/><path d="M0 0h5v4L1 5l-22 10-3 2-3 4 34-1 3-1c4 0 4 0 8-3h5l1 5q-3 2-6 1l-26 5-17 3v3l8 2 2 1a61 61 0 0 0 22 3h5l1 4H-5q-19-1-38-6l-28-4v2l-4 17-8-9-12-13 4-6 5-9q3-4 8-6h15l22 2q10 3 18-1l4-2h2l9-3 3-1 4-1z" style="fill:#958b3e" transform="translate(428 153)"/><path d="m0 0 7 7 2-1q9-1 18 3 24 8 50 0 19-6 38 2l1-2q2-5 6-8h2l-5 11c-3 7-3 18-1 25l3 6v5l-4-5-4-7h-2l-20-4q-35-11-70-3l-10 1H7q-4 3-6 8v-8Q6 14 0 0" style="fill:#11100d" transform="translate(82 208)"/><path d="M0 0q41 3 71 30l2 1q15 13 23 31v2q-8 3-16 0-7-7-9-17l-2-3h-6c-6 0-6 0-8-2l-2-3q-3-5-10-8H29q-8 1-14-4l-3-5-2-3-3-5Q5 8 0 7z" style="fill:#6d5d31" transform="translate(260 157)"/><path d="m0 0 3 5 2 3v5C-7 29-32 37-51 40h-7l6-27h2q13 0 24-7h7q8-1 15-5z" style="fill:#f4e884" transform="translate(324 279)"/><path d="m0 0 7 5q5 7 13 12l-10 7-3 2-4 1-4 16v2q-2 8 0 16v2l-2 2-4-1v-6q1-12-2-22c-10 3-17 15-22 23l-2 7-4 1h-2l-1-5 2-2q5-3 6-7l2-3 2-3 2-4 5-12q-9 2-17 7l-2 1q-5 3-8 7h-5l1-5 5-2 7-5 11-7q10-6 17-16Q-7 4 0 0" style="fill:#958a40" transform="translate(88 275)"/><path d="M0 0q10 5 16 15v3l-3 1-5 4 2-1 24-2c0 14 0 14-3 18l-5 3q-5 4-8 10l-3 4-2 2-5 5-9-1q-3-7 1-12l6-10c3-6 0-15-1-22v-3Q4 8 0 2z" style="fill:#6d5d31" transform="translate(138 123)"/><path d="m0 0 6 3 8-2q6-1 9 2l2 6-1 3v4l-1 4 3 1 4 3 2 1q6 2 8 7t-1 10Q22 36 8 24l-2-2L-8 4c4-4 4-4 8-4" style="fill:#6d5d32" transform="translate(336 276)"/><path d="M0 0q8 1 15 4 10 3 20 3h3l27-3 21-2 2-1 13 4-1 5-10 1-1-1-7-1h-7v2h9l6 2 7 1 4 2v5l-18-3-11-3-2-1q-15-3-30-2h-3q-14-1-29 3l-9 1 1-4 5-2 2-1 2-1H6L0 5z" style="fill:#f0f0f0" transform="translate(93 218)"/><path d="M0 0a42 42 0 0 1 11 15c9 18 9 18 9 26h-2v4l-3 8H9q-2-5-1-11-1-5-5-7l-4-1-5-3q-2-7 3-15Q0 9 0 0" style="fill:#6d5d31" transform="translate(365 238)"/><path d="M0 0q10 4 13 14 3 6 2 12-2 3-6 5c-6 1-6 1-9-2l-3-5q-4-6-11-8l-4-3V6l5-3 2-2q6-2 11-1" style="fill:#6f5e30" transform="translate(302 195)"/><path d="M0 0q1 20-11 36-8 10-20 16-3-6-2-13 1-3 4-5l8-1q4-1 7-5 2-8-4-14 0-5 3-9 6-6 15-5" style="fill:#6c5d32" transform="translate(267 291)"/><path d="M0 0q10 4 15 13l2 5 1 2q6 17-1 33Q6 74-15 81l-15 1h-3q-8 1-15-3v-2h2c18 1 34 1 48-11q12-12 14-29Q15 17 2 5 0 3 0 0" style="fill:#100e08" transform="translate(262 201)"/><path d="M0 0h1q2 13-5 22-6 8-16 11v1q-20 2-35-12l-1-1q5 0 10 3 16 5 31-4Q-4 12 0 0" style="fill:#5f572e" transform="translate(243 164)"/><path d="m0 0 2 2 9 7 2 2q7 3 13 2v1h-9v4l-4 15-8-9-12-13 6-8z" style="fill:#62542e" transform="translate(340 172)"/><path d="M0 0q8 1 15 4l19 4h8v1l9 1v1h-2c-21 0-21 0-41 4l-9 1 1-4 5-2 2-1 2-1H6L0 5z" style="fill:#e1e1e1" transform="translate(93 218)"/><path d="m0 0 3 2 6 3q14 8 30 2c-8 9-18 10-30 12l-1-2 4-1-3-1q-5-2-8-8z" style="fill:#5f5830" transform="translate(80 172)"/><path d="M0 0q16 4 31 13l2 1 5 4v3q-5 0-9-4-7-5-15-4-7 0-12-5-2-3-2-8" style="fill:#948a41" transform="translate(286 163)"/><path d="m0 0 2 6 2 1q6 3 9 8v7l-2 2H6l-2-1H2Q-2 12 0 0" style="fill:#6c5c31" transform="translate(386 254)"/><path d="M0 0q5 6 4 12v4q4-2 4-5l1 1c-1 7-1 7-3 9-5 1-5 1-8-1q-2-5-1-11z" style="fill:#110e08" transform="translate(244 195)"/><path d="m0 0 18 13-5 10-5-7-2-3-1-2-2-3z" style="fill:#8a8244" transform="translate(437 288)"/><path d="m0 0 5 4q1 4-1 7l-3 1-13-1Q-7 4 0 0" style="fill:#6a5b32" transform="translate(88 275)"/><path d="m0 0 2 3H0q-10-2-21-2h-11q2-4 7-5 13-2 25 4" style="fill:#252214" transform="translate(149 244)"/><path d="M0 0h2l1 14h-13l6-9 2-3z" style="fill:#888142" transform="translate(75 317)"/><path d="M0 0h2l1 5Q1 7-4 7l-16 1V6h-5V5h2l8-1 3-1h5z" style="fill:#847c48" transform="translate(449 169)"/><path d="M0 0q-1 7-6 13l-4-2-2-2-5-3 7-3 2-1z" style="fill:#8d8547" transform="translate(189 358)"/><path d="M0 0q3 3 3 7v7h2V8l2 1v7l-4 2q-3 1-5-2z" style="fill:#131108" transform="translate(254 175)"/><path d="m0 0-2 7q-10 1-20-2l12-4h2z" style="fill:#8d8648" transform="translate(436 181)"/><path d="m0 0 4 6-7 1h-2l-3 1h-10l9-6 3-1z" style="fill:#857c47" transform="translate(430 163)"/><path d="M0 0q4 0 4 2 3 4 1 7l-4 2-5-2-1-4q1-4 5-5" style="fill:#70602d" transform="translate(327 220)"/><path d="m0 0 5 7 5 5 2 1v6H7L1 7 0 5z" style="fill:#898147" transform="translate(443 310)"/><path d="M0 0q5 2 8 7l1 2c3 5 3 5 3 8l-8-1z" style="fill:#867d43" transform="translate(426 301)"/><path d="m0 0 2 1-1 4-6 2-2 4h-6l-1-4 5-4h4z" style="fill:#8e8548" transform="translate(167 357)"/><path d="M0 0q4 2 7 6l8 5 1 4v2l-5-1-4-5-9-8 2-1z" style="fill:#857e48" transform="translate(449 287)"/><path d="m0 0 2 1-10 10-5 5h-5l1-5 5-2z" style="fill:#888049" transform="translate(53 305)"/><path d="m0 0 4 1-1 2-2 4-2 6-5 1-1-5 5-5z" style="fill:#897f46" transform="translate(189 368)"/><path d="M0 0h13v2L8 5 5 7 0 8z" style="fill:#8a804a" transform="translate(165 345)"/><path d="M0 0q0 5-3 8l-2 3-1 2-5-5 3-4 3-2 3-1z" style="fill:#877f49" transform="translate(59 312)"/><path d="M0 0h5v4L3 5l-13 5h-2V8l-3-1 6-2 3-1 5-1z" style="fill:#857d4b" transform="translate(428 153)"/><path d="M0 0h1l1 2c1 6 1 6 4 11l1 8-5-2L0 9l-1-3z" style="fill:#817b49" transform="translate(422 306)"/><path d="M0 0h1v6h2q3 6 1 11l-4 1-2-2 1-8V6z" style="fill:#8d854a" transform="translate(82 322)"/><path d="m0 0 3 1-1 5h-4q-4 1-7 4 0-5 3-8z" style="fill:#1b160c" transform="translate(148 198)"/><path d="M0 0h2l3 1 12 2v1h-6L7 5l-9 1-2-4z" style="fill:#847a48" transform="translate(157 337)"/></svg>