<svg xmlns="http://www.w3.org/2000/svg" style="display:block" viewBox="0 0 500 500"><path d="M0 0q4 3 8 3 12 3 17 14l1 3v3l2 1q9 4 11 14 4 15-5 26l-5 4q-5 3-6 9c-12 26-41 37-67 42q-25 5-51 2c-9-1-9-1-17 1l-3 4-8 8-1 1q-16 13-36 9-13-4-25-13-9-9-21-7l-20 10q-17 10-36 4l-14-8q-6-4-14-1c0 7 7 11 12 14 30 18 73 18 106 21 61 6 61 6 89 17l11 4a68 68 0 0 1 32 17q11 9 10 22-1 9-9 14-17 7-34 1h-3l-30-9c-25-7-45-11-67 6l-3 2a73 73 0 0 1-62 16l-26-11c-13-7-24-4-37 1q-14 5-27-3a60 60 0 0 1-29-48v-11q0-7-4-12c-18-32-16-72-2-105a144 144 0 0 1 26-40 164 164 0 0 1 68-43C-197-46-69-59 0 0" style="fill:#6d8180" transform="translate(417 142)"/><path d="M0 0q4 3 8 3 12 3 17 14l1 3v3l2 1q9 4 11 14 4 15-5 26l-5 4q-5 3-6 9c-12 26-41 37-67 42q-25 5-51 2c-9-1-9-1-17 1l-3 4-8 8-1 1q-16 13-36 9-13-4-25-13-9-9-21-7l-20 10q-17 10-36 4l-14-8q-6-4-14-1c0 7 7 11 12 14 30 18 73 18 106 21 61 6 61 6 89 17l11 4a68 68 0 0 1 32 17q11 9 10 22-1 9-9 14-17 7-34 1h-3l-30-9c-25-7-45-11-67 6l-3 2a73 73 0 0 1-62 16l-26-11c-13-7-24-4-37 1q-14 5-27-3a60 60 0 0 1-29-48v-11q0-7-4-12c-18-32-16-72-2-105a144 144 0 0 1 26-40 164 164 0 0 1 68-43C-197-46-69-59 0 0m-229-25h-3a202 202 0 0 0-99 53c-29 27-41 67-37 106q4 19 13 37 4-4 4-9c7-28 28-51 54-63 37-16 78-9 115 0a831 831 0 0 0 90 17l-7-6q-11-7-17-20l-8-13q-6-5-9-14l-1-2q-1-24 16-43l-2 3c-6 13-14 28-9 43q4 8 10 14t9 15q4 8 13 14l2 2q12 8 26 7h3c29 0 62-10 80-34l4-9h-2q-17-1-26-15-6-12-1-23 6-12 18-15h13c-3-7-3-7-9-10H8Q-1 8-7 1c-50-49-159-41-222-26" style="fill:#060707" transform="translate(417 142)"/><path d="m0 0 2 2c24 23 65 25 96 28l38 4c75 6 75 6 93 33v7c-9 6-22 1-31-1-39-11-71-10-110 0l-34 7h-2l-21 1h-6c-22 0-49-6-63-24q-6-9-4-20 7-9 19-13Q-6 17 0 0" style="fill:#5c6d6f" transform="translate(123 279)"/><path d="m0 0 3 6c7 18 24 25 41 29 34 9 68 2 101-7 37-9 69-6 106 4 8 2 19 5 26 0q4-3 3-8-2-8-7-13l-1-2c14 4 28 12 34 26q1 6-2 11-11 10-26 7l-14-3-3-1-15-4c-27-9-54-16-78 1l-7 6q-16 13-36 15h-3q-21 1-41-11c-16-8-27-6-43 0l-2 1Q18 59 5 46-9 29-3 8c1-6 1-6 3-8" style="fill:#a6b4b2" transform="translate(76 325)"/><path d="M0 0q21 6 44 9-9 16-25 21C2 33-9 28-22 17q-12-9-29-6l-14 7c-11 7-22 12-34 7l-15-8q-6-5-14-4-8 6-10 14-4 15-18 20l-4 3h-2q-21 10-26 32l-1 11q-3-5-2-11v-3q0-34 23-61l2-2C-127-32-51-15 0 0" style="fill:#a6b5b2" transform="translate(257 251)"/><path d="M0 0h1v5q2 14 13 25l9 15q7 13 19 19l2 1v1q-12 1-22-2h-4q-27-4-53-12l-58-11q-56-8-98 29-9 10-16 22l-2-4 3-8 1-2c18-33 48-47 83-55h30l36 3 3 1 8 1 3 1 19 5q15 4 31 5l-2-4-2-4-1-3-1-2-1-2-2-14V8z" style="fill:#5c6d6e" transform="translate(281 192)"/><path d="m0 0 10 4c36 17 79 17 118 21 75 6 75 6 93 33v5l-4-2-10-7-2-1q-32-15-68-13h-2l-31 2-38 1h-2c-22 1-45-3-60-21Q-1 12 0 0" style="fill:#6d8080" transform="translate(131 288)"/><path d="M0 0h3c33 4 71 11 95 35q7 7 16 7 4 1 6 5l-2 1-3-2q-5-2-12-2-9 1-16-7C69 23 43 17 21 13l-3-1q-29-4-59-3h-3q-30-1-58 4h-3a235 235 0 0 0-126 59q-11 11-19 23v-7l3-4 1-2q6-10 15-19l1-2c28-29 66-45 104-54l3-1Q-62-7 0 0" style="fill:#819493" transform="translate(314 110)"/><path d="M0 0q9 11 6 24-3 9-12 13l-2 1q-12 4-21-3-10-9-9-23 3-11 14-17 13-3 24 5" style="fill:#fbfbfb" transform="translate(373 172)"/><path d="M0 0q10 7 11 20 0 11-8 18-10 6-22 3-10-5-13-16-3-12 6-22Q-14-7 0 0" style="fill:#fbfbfb" transform="translate(441 168)"/><path d="M0 0a27 27 0 0 1-4 44q-12 6-25 2-14-8-16-23-1-14 9-24 18-12 36 1m-38 10q-4 10 0 20 6 11 17 13 13 1 21-8 7-10 4-22Q-1 3-11-1q-17-4-27 11" style="fill:#0c0d0d" transform="translate(375 168)"/><path d="M0 0q5 3 6 7L5 6l-17-2h-2q-12 1-23 6l-4 1q4-5 10-8l3-2c8-4 20-6 28-1" style="fill:#060808" transform="translate(409 223)"/><path d="M0 0q2 6-2 11-7 9-17 11l-4-1 2-1 3-1 3-2 4-3-1-2 4-3q6-3 8-9" style="fill:#586768" transform="translate(381 200)"/><path d="m0 0 2 2 5 6 7 6 6 6q-8 0-14-7Q0 8 0 0" style="fill:#5e6e6e" transform="translate(406 200)"/><path d="M0 0q1 4-1 7l-1 3q-2 3-6 3z" style="fill:#13181a" transform="translate(299 158)"/><path d="m0 0 7 9-3 2Q-1 6 0 0" style="fill:#515d5e" transform="translate(406 200)"/><path d="m0 0 2 1v3l-5 2-3 1h-4l5-4 3-2z" style="fill:#111618" transform="translate(378 226)"/><path d="m0 0 4 1v4L0 3z" style="fill:#101818" transform="translate(401 210)"/><path d="m0 0-1 5h-3q1-6 4-5" style="fill:#121719" transform="translate(390 210)"/><path d="m0 0 5 1v3L0 1z" style="fill:#839292" transform="translate(428 154)"/></svg>