<svg xmlns="http://www.w3.org/2000/svg" style="display:block" viewBox="0 0 500 500"><path d="m0 0 8 3q12 8 21 18 15 17 25 35 9 17 13 35l1 19v8l-3 8v7q7 9 15 16l3 2 9 10 2 4 3 5 1 2h2l1-3 3-9a108 108 0 0 1 16-26l2-2 7-7q13-11 28-19a140 140 0 0 1 39-11h16l2 2 1 21a148 148 0 0 1-18 63q-7 13-18 22l-13 10-6 3-3 2 13 10 10 8 1 3h2a136 136 0 0 1 19 30l2 4q6 15 9 32l1 23v14l-2 2h-19a136 136 0 0 1-49-18l-14-11-2-1q-6-5-11-12l-13-20-2-7-2-3-1-2-1 2-4 6-5 7-6 6-2 2v2l2 2 10 12q5 9 6 17l2 14v3l-1 6-2 2-6 2-20-2-19-8-2-1-6-4v-2l-3-1v-2h-2v-2l-5 3-2 1-2 1 2 4 6 7 17 24q7 15 11 29l2 16v8l-2 3-2 1-9 1q-13-1-27-5L6 414l-14-11c-10-11-10-11-14-18l-8-16-1-2-10 2-8 2-4 1h-8l-7 1-2 1 1 6 3 10 3 11v24l-2 3-2 1-2 1q-13-1-25-6l-19-9-6-6-2-1-8-9-11-22-2-7 1-3-1-3-6-2a145 145 0 0 1-55-34l-3-2-11-13-2-3q-9-10-16-24a137 137 0 0 1-14-54v-15l-1-2-7-5-8-9-4-9-1-16 2-11 6-12 2-3 2-3 8-6 8-5 10-3h9l7-1 2-1 3-4 6-8a139 139 0 0 1 29-24l3-2q12-7 25-12 15-6 32-9h3l2-1 3-3 3-5a155 155 0 0 1 23-31l17-15q9-7 20-12l21-6q12-2 24 1" style="fill:#ee5f0c" transform="translate(278 22)"/><path d="m0 0 8 3q12 8 21 18 15 17 25 35 9 17 13 35l1 19v8l-3 8v7q7 9 15 16l3 2 9 10 2 4 3 5 1 2h2l1-3 3-9a108 108 0 0 1 16-26l2-2 7-7q13-11 28-19a140 140 0 0 1 39-11h16l2 2 1 21a148 148 0 0 1-18 63q-7 13-18 22l-13 10-6 3-3 2 13 10 10 8 1 3h2a136 136 0 0 1 19 30l2 4q6 15 9 32l1 23v14l-2 2h-19a136 136 0 0 1-49-18l-14-11-2-1q-6-5-11-12l-13-20-2-7-2-3-1-2-1 2-4 6-5 7-6 6-2 2v2l2 2 10 12q5 9 6 17l2 14v3l-1 6-2 2-6 2-20-2-19-8-2-1-6-4v-2l-3-1v-2h-2v-2l-5 3-2 1-2 1 2 4 6 7 17 24q7 15 11 29l2 16v8l-2 3-2 1-9 1q-13-1-27-5L6 414l-14-11c-10-11-10-11-14-18l-8-16-1-2-10 2-8 2-4 1h-8l-7 1-2 1 1 6 3 10 3 11v24l-2 3-2 1-2 1q-13-1-25-6l-19-9-6-6-2-1-8-9-11-22-2-7 1-3-1-3-6-2a145 145 0 0 1-55-34l-3-2-11-13-2-3q-9-10-16-24a137 137 0 0 1-14-54v-15l-1-2-7-5-8-9-4-9-1-16 2-11 6-12 2-3 2-3 8-6 8-5 10-3h9l7-1 2-1 3-4 6-8a139 139 0 0 1 29-24l3-2q12-7 25-12 15-6 32-9h3l2-1 3-3 3-5a155 155 0 0 1 23-31l17-15q9-7 20-12l21-6q12-2 24 1m-128 84-24 9-3 2a111 111 0 0 0-26 15l-2 2q-13 10-23 22l-2 2v2l3 2a41 41 0 0 1 22 25l1 11-2 25q-2 8-7 15l-8 11a61 61 0 0 1-21 12h-15l-3 1-1 4 4 16q5 15 12 29l2 2 10 14 1 3 3 1 2 3 2 3 7 6 7 6 15 12 1 1 14 7h2v2l6 3 4 1 4 1 4 2a177 177 0 0 0 44 8h33l3-1 10-2 3-1 10-1 2-2v-2l-1-4-1-3-1-3-3-20v-15h5l1 2 1 7q0 14 5 29l9 22 1 3a85 85 0 0 0 40 38l23 7 4 1h7l3-1 1-3-1-6-1-3q-3-15-9-28l-14-21a239 239 0 0 0-50-45l-5-5v-2l1-3h3l3 1 11 9 3 2 17 15 2 1h2l7-3 4-3 2-1 15-12 2-2 10-11 4-3 10-10v-2h2l7-9 1-1q13-16 22-35l3-10v-8l-1-8-5-14a236 236 0 0 0-39-51l-2-2-17-15-3-2a252 252 0 0 0-84-44l-3-1-25-4h-19q-21 0-41 5" style="fill:#0d0503" transform="translate(278 22)"/><path d="m0 0 3 1v10q0 15-4 30t-11 28l-2 4-2 3-10 12q-6 8-15 14l-18 8-2 1-2 2v2l1 3 7 3 18 12 2 2a98 98 0 0 1 28 38 189 189 0 0 1 10 41l1 13-1 4-2 1-6-1h-3l-3-1q-11-1-22-5l-2-1-7-2v-2l-3-1-5-3q-8-4-15-12l-2-1-3-1-4-5-6-8-10-17-5-12-1-4 1-4 6-10 1-3h2l4 5a217 217 0 0 0 36 40h3l2-1v-5l-4-5a198 198 0 0 1-33-35l-1-2-3-4h3l10 4a122 122 0 0 0 31 9h3l1-3-1-2-9-2-21-6-17-9-1-1-1-10 1-3 3-4 10-6 19-10 3-1 4-1 10-2v-4l-6-1-15 5q-13 5-24 13l-2 1 2-5q8-13 18-24l19-20 1-1v-3l-1-2-3-1-3 2-9 8-2 2q-13 13-23 29l-1 2-3 5-2 3-2-2-1-2-2-3-2-3-1-7 4-13a111 111 0 0 1 19-29l1-2q10-10 22-17l15-8 12-3 3-1z" style="fill:#e95e0f" transform="translate(480 125)"/><path d="m0 0 8 1 7 5 3 3a89 89 0 0 1 21 22 210 210 0 0 1 24 41l1 3 1 3v3l2 4 1 14v3l-1 10-3 6-10-7-17-12-3-2v-4l4-3 2-2 5-4 1-2-2-3-6 1-5 4-2 3-5 3-6-1-8-3-2-1-6-4-3-1-3-2 2-4 10-10 17-9 2-2 1-2-1-3-1-1-7 1-11 7-20 18-9-1-22-6-5-1 1-2 11-14 13-13 13-8 2-2-1-3-2-1h-4l-8 5q-11 8-20 18l-4 4-1 3-5 8-2 2-3 1q-7 2-15 1h-4l-11-1-3-1 1-2q5-10 11-17 11-14 24-25l22-13q15-5 31-5" style="fill:#ea9121" transform="translate(270 30)"/><path d="m0 0 14 1 8 2 11 9 4 5 6 13v19l-5 11-7 9-11 7-7 3-13 1-9-2-8-4-8-8-6-10-3-8q-1-9 1-20a49 49 0 0 1 10-18l4-3 12-6z" style="fill:#fbfbfb" transform="translate(170 166)"/><path d="m0 0 11 1 9 5 7 4 9 16a64 64 0 0 1-1 23l-3 8-6 7-10 7-6 3-16-1-8-1-7-5-7-7-5-9-2-7V30l3-9 6-9 15-10z" style="fill:#fbfbfa" transform="translate(53 164)"/><path d="M0 0h14l10 5 12 9 4 7 2 5v14l-2 6-11 14-10 5-3 1H3l-5-1-4-2-5-5-2-3-1-2 1-4 5-10 1-4-1-4-6-11-1-1-1-6 1-3 4-6 4-3z" style="fill:#0f0604" transform="translate(93 260)"/><path d="m0 0 16 1 12 6 11 9 5 7 4 10v2l1 1v21l-3 11-11 15-6 4-16 8-14 1-12-3-11-5q4 6 10 9l10 6 20 2 7-2 2-1h5l2 2 1 3-1 2-2 2-10 2H1l-9-2-3-2-2-1-9-6q-7-4-12-12l-4-6-6-27-1-2V40l4-13 7-11 10-9 14-6zm-8 9-10 5-9 8-6 8-2 8-1 18 3 8 7 11 10 8 9 4a47 47 0 0 0 20-1l11-5 7-6 5-7 2-2 2-5 2-11-1-12-1-5-3-4-1-2-7-9-6-5-9-4A52 52 0 0 0-8 9" style="fill:#140806" transform="translate(172 158)"/><path d="M0 0h4a162 162 0 0 1 77 18l29 16 3 3a246 246 0 0 1 54 48l2 2v3q-10-6-17-14-21-17-43-32l-3-1Q84 29 58 20a165 165 0 0 0-56-8H0a162 162 0 0 0-51 8h-2l-14 6-5 2a131 131 0 0 0-39 25l-2 2h-2l-2 4-3 1-2-1 2-4 11-12 1-2 19-14A187 187 0 0 1-43 5l10-2h3q15-4 30-3" style="fill:#ed9d56" transform="translate(192 101)"/><path d="m0 0 5 1h3l4 1 8 2h3l13 1 15 1 2 2 2 6v3l2 4 3 20v4l1 6-1 2-4 1-22-8-13-8-10-11A81 81 0 0 1 0 3z" style="fill:#d33f0b" transform="translate(146 388)"/><path d="m0 0 4 1 9 10 5 10 2 9 1 3v7l-1 2-2 1h-6l-17-5-16-9-3-3-1-4 4-4 3-2 2-1 4 2 5 4q4 5 9 8l3 1h4v-4l-4-3-13-10-2-2 2-4 4-3 2-2z" style="fill:#de8d25" transform="translate(349 323)"/><path d="M0 0v2l-9 3a151 151 0 0 0-57 32 126 126 0 0 0-29 44l-1 2h-2v-6l3-14a111 111 0 0 1 19-29l2-2q9-9 21-17 7-5 16-7l11-4 3-1q12-4 23-3" style="fill:#ea9b56" transform="translate(483 126)"/><path d="M0 0h2l3 1 4 8 5 19v25A137 137 0 0 1 2 90l-3 3-3 1-3-1-1-1v-6l4-7 5-12 4-16-1-23-4-16-2-7V2z" style="fill:#190503" transform="translate(253 202)"/><path d="M0 0h13l7 2 7 5 7 7 1 2v3h-8l-10 1-9 4-2 1H3l-2-5-2-6-3-4V3l2-2z" style="fill:#337973" transform="translate(91 268)"/><path d="M0 0h2l1 3-6 10a35 35 0 0 1-14 10h-11l-3-1-3-2v-3l1-4 5-5 5-4 8-3z" style="fill:#da796a" transform="translate(125 295)"/><path d="m0 0 4 1 3 7a175 175 0 0 0 20 40l1 3v5l-4 1-10-16Q5 28 0 13l-1-9V1z" style="fill:#1a0804" transform="translate(258 355)"/><path d="m0 0 4 1 17 17 7 7 10 14v5l-2 1-3-1-4-5-3-3-2-3-13-15-2-2-5-4-2-2-2-2-1-2V1z" style="fill:#1a0904" transform="translate(270 350)"/><path d="M0 0h2L1 3q-6 6-14 9l-7 3-9 1h-3l-3 2-1-7V7l1-3h3l4 1h15z" style="fill:#d16626" transform="translate(74 239)"/></svg>