<svg xmlns="http://www.w3.org/2000/svg" style="display:block" viewBox="0 0 500 500"><path d="M0 0q24 7 41 26c9 11 9 11 10 15l4 6 12 1h31l8-1q3-5 3-10 5-7 12-12 8-3 15-2 10 2 17 9 6 8 5 17l-1 6 8 1-1-2q0-10 3-18 4-7 11-10 7-4 16-3 10 2 15 9l3 2q4 7 4 14a25 25 0 0 1-9 20l5 2 3 1 7 4c18 7 18 7 22 13q1 10-4 20l-14 20c-4 6-4 6-8 7l-9 12-4 5h-4l-3-6-1 2-2 2-2 2-2 2-4-2-1-4-1-2-1-2-1 2-2 2-2 3-2 2h-4l1 5 2-3 4 1q4 2 4 5l2-3 2-3h3l4 11 1 3q3 5 2 11-5 8-15 12l-9 4c-29 14-29 14-41 14l1 3q0 18-11 32c-6 8-6 8-10 10l-5-1-3-3-1-3-1-3-1-3c-5-13-5-13-13-24H77q-28 1-57-6l-8 1-4 5q-26 26-62 32l-13 1-3-3v-6l4-6 1-1 7-9q14-15 21-33l-2-1-10-4-2-1-30-15c-5-3-5-3-9-3l-7 2q-7 2-16 0l-2-2 3-11-1-3q-3-4-8-6l-3-1-7-3v2a92 92 0 0 1-26 35q-12 12-28 15h-6l-2-3 5-12q8-19 12-40l3-12q3-3 1-6l-1-2v-3l-5-17c-3-12-3-12-8-22v-5l1-5h-1l-3-1h-2l-3-1-3-8v-3l-3-8v-3l-4-14 2-3q7-1 12 2l2 1 1 1q12 6 19 15l3 3q20 19 33 44l1 2 2 7 2-1 7-3 2-1 3-1 2-1 3-1V85q0-3 2-5 3-2 7-2 7 1 13 5h8l3-1 50-17 3-1 9-5 4-18q0-4 3-8l1-1h-1l-3-1-2-13v-2l-2-5V2q7-5 15-2" style="fill:#60707d" transform="translate(230 123)"/><path d="M0 0q24 7 41 26c9 11 9 11 10 15l4 6 12 1h31l8-1q3-5 3-10 5-7 12-12 8-3 15-2 10 2 17 9 6 8 5 17l-1 6 8 1-1-2q0-10 3-18 4-7 11-10 7-4 16-3 10 2 15 9l3 2q4 7 4 14a25 25 0 0 1-9 20l5 2 3 1 7 4c18 7 18 7 22 13q1 10-4 20l-14 20c-4 6-4 6-8 7l-9 12-4 5h-4l-3-6-1 2-2 2-2 2-2 2-4-2-1-4-1-2-1-2-1 2-2 2-2 3-2 2h-4l1 5 2-3 4 1q4 2 4 5l2-3 2-3h3l4 11 1 3q3 5 2 11-5 8-15 12l-9 4c-29 14-29 14-41 14l1 3q0 18-11 32c-6 8-6 8-10 10l-5-1-3-3-1-3-1-3-1-3c-5-13-5-13-13-24H77q-28 1-57-6l-8 1-4 5q-26 26-62 32l-13 1-3-3v-6l4-6 1-1 7-9q14-15 21-33l-2-1-10-4-2-1-30-15c-5-3-5-3-9-3l-7 2q-7 2-16 0l-2-2 3-11-1-3q-3-4-8-6l-3-1-7-3v2a92 92 0 0 1-26 35q-12 12-28 15h-6l-2-3 5-12q8-19 12-40l3-12q3-3 1-6l-1-2v-3l-5-17c-3-12-3-12-8-22v-5l1-5h-1l-3-1h-2l-3-1-3-8v-3l-3-8v-3l-4-14 2-3q7-1 12 2l2 1 1 1q12 6 19 15l3 3q20 19 33 44l1 2 2 7 2-1 7-3 2-1 3-1 2-1 3-1V85q0-3 2-5 3-2 7-2 7 1 13 5h8l3-1 50-17 3-1 9-5 4-18q0-4 3-8l1-1h-1l-3-1-2-13v-2l-2-5V2q7-5 15-2m-10 5 1 3 1 3 2 16 7 4 1 1v2l-3 1-4 3-1 9-4 14 15-1-1 2-5 1-3 1-4 1q-24 6-49 15l-2 1-16 6-2 1-8 2-10-5-9-1v10l-2 5-8 5-3 1-3 1-3 2-18 7 7-7 1-1-3-8-1-2-15-22-1-2c-11-15-25-32-44-38 2 14 2 14 7 28q7 3 13 3v2q-3 7-1 14l1 3 7 24 4 14v5l-1 3q-5 12-6 24-2 14-9 26l-3 8-1 2a54 54 0 0 0 28-16q16-14 23-33 1-3-4-6-3-2-4-5l4 2 2 1 16 10 3 1 4 3 6 4 1 7-2 7q9 1 16-3l8 1 9 4 4 2 7 4 2 1 18 9 3 1 9 3 2-7 1-4 1-6v-3l8-3 4-2h3l9-6q-2 6-5 7l-4 1-11 6q-3 6-3 14-6 24-24 43l-12 15v2c17 1 34-7 48-15q35-23 51-61l1-6h4q-5 20-17 35l-4 5v4l5 1 3 1h3l3 1q48 7 95-4l3-1c21-4 21-4 38-14l-2-1-11-1-3-1h-3l-3-1h-2v-2l4 1q19 4 36-2l7-6v-4h-3l-2 1h-4c-21 5-45-2-64-10q-12-4-25-2c5-11 12-25 22-31q14-9 30-7l21 4q21 8 44 4 11-5 17-17l1-2q7-9 10-19l-1-4q-8-8-19-12l-5-2q-11-6-25-5-6 1-10-2-4-2-6-5-6-4-15-5l-5 1-2 3q-5 6-12 8-10 2-20-3l-9-10v-3l-2-3-10-1h-4l-54 3 3-3 6-1c-1-9-10-19-16-25C24 17 10 7-3 5z" style="fill:#09090a" transform="translate(230 123)"/><path d="M0 0c-1 10-10 20-17 27q-7 5-15 6-22 1-43-6-16-6-32-2-16 6-25 20-6 8-9 17h3q13-1 24 4c21 8 45 13 67 7h4l-1 6q-7 6-16 7-15 2-30-2v2l5 1h3l3 1 4 1 9 1c-21 17-59 20-84 21-49 2-49 2-66-5l1-6 3-3 8-13 1-2 7-16 2-3 6-1 4 4-1-6 8-1 4 4-1-3-1-3 5-3h3l3 6 2 1-1-2-2-8q5-5 11-8l5-4C-119 15-81 5-43 1h3C-8-2-8-2 0 0" style="fill:#d4d4d9" transform="translate(465 224)"/><path d="m0 0 41 13 15 4a266 266 0 0 0 54 12h5v2l-4 1-4 2-2 13-2 7-11-4-3-1-44-20-5 2q-6 2-13 1v-2l2-7v-2l-2-4-12-7-8-5-3-1-2-2-2-1z" style="fill:#d0d1d6" transform="translate(94 257)"/><path d="M0 0q5 2 9 6c5 7 5 7 5 10q1 8-3 14-4 7-12 10-7 2-13-1-9-4-12-13-2-7 0-13 3-7 10-12 8-2 16-1" style="fill:#fafaf9" transform="translate(426 152)"/><path d="m0 0 8 5 2 1 4 10q1 6-2 14-4 6-12 9-6 2-12 1-7-2-11-7-4-6-5-13l4-12q9-11 24-8" style="fill:#fafafa" transform="translate(369 152)"/><path d="m0 0 2 1 3 6 1 3 1 5 4-2 4-6 2-3 1-3 2 1 3 10 2 5h4l2-4 4-5h2l2 5-1 7 2 14-1 5-2 1-1-3-1-3-2-3-1-3h-2l-6 7-3 5h-1l-2-6-1-4-1-6q-6 4-11 10l-1 2H3l-1-5-3-7-6 2-2 2-3 3-3-9q-4 1-7 5l-5 2h-6c9-18 9-18 17-23h2l3 4 3 4h3l3-7V5z" style="fill:#9c5350" transform="translate(362 253)"/><path d="M0 0q1 16-7 29l-8 9h-2l-3-8-8-19-3-7 22-3 4-1z" style="fill:#616e7b" transform="translate(357 334)"/><path d="M0 0h2L1 2v3L0 8l-1 3-1 4-1 16v3q0 13 4 25l1 5-3-1q-10-17-9-35Q-9 13 0 0" style="fill:#0d0e11" transform="translate(301 221)"/><path d="M0 0h2L1 3q-6 25 1 49l3 7 1 5-4-3Q-10 42-8 19-7 8 0 0" style="fill:#090a0d" transform="translate(275 226)"/><path d="M0 0h2L1 2q-9 29 2 59l1 3-3-1Q-10 46-9 25q1-12 7-23z" style="fill:#08090c" transform="translate(288 223)"/><path d="M0 0h13l-3 9-2 2-1 2H5L2 8 1 5z" style="fill:#e5e5e5" transform="translate(365 251)"/><path d="M0 0v11l1 4 6 2h4v2q-5 2-11 1-5-3-5-6 0-6 2-10z" style="fill:#1b1b1b" transform="translate(319 275)"/><path d="m0 0 4 1h3l5 2q-2 6-7 11L1 8V5z" style="fill:#eee" transform="translate(384 253)"/><path d="M0 0q5 6 5 13h-7l-5-2z" style="fill:#e3e3e2" transform="translate(392 283)"/><path d="m0 0 2 1 2 6v3l1 3-12-2q2-6 7-11" style="fill:#e8e7e7" transform="translate(375 281)"/><path d="m0 0 7 1 5 2-7 10-4-8V2z" style="fill:#e9e9e8" transform="translate(401 258)"/><path d="M0 0q4 2 4 7l1 3-10 1z" style="fill:#e2e2e1" transform="translate(407 285)"/><path d="m0 0-3 11-3-1q-4-4-3-7 4-3 9-3" style="fill:#ececeb" transform="translate(359 253)"/><path d="M0 0h2q3 4 2 10l-9-2z" style="fill:#e6e6e5" transform="translate(358 279)"/><path d="M0 0h9Q7 6 2 10z" style="fill:#edeeee" transform="translate(418 261)"/><path d="M0 0h3v5l-4 1-4 4h-2z" style="fill:#201414" transform="translate(375 277)"/><path d="m0 0-6 9-3-8z" style="fill:#dbdbdb" transform="translate(440 260)"/><path d="M0 0h2l1 8-6 1z" style="fill:#dbdbdb" transform="translate(418 285)"/><path d="m0 0 2 1 1 6-7-1z" style="fill:#cecece" transform="translate(344 277)"/><path d="m0 0 2 1-4 7-4 1q2-5 6-9" style="fill:#201718" transform="translate(379 253)"/></svg>