<svg version="1.2" xmlns="http://www.w3.org/2000/svg" viewBox="0 0 1080 1080">
	
	<g id="guppy_resize">
		<path id="tail" d="m792.65 592.12c0 0 13.32 161.6 108.31 190.41 94.99 28.8 38.82-15.61 50.66-35.81 11.83-20.2-64.75-157.98-37.56-183.42 27.19-25.44 86.48-229.22 1.75-202.63-84.74 26.58-152.06 176.32-123.16 231.45z" style="fill: #b1e131;stroke: #000000;stroke-linecap: round;stroke-linejoin: round;stroke-width: 10"/>
		<path id="tail-dt1" fill-rule="evenodd" d="m900.96 441.02c0 0-111.37 95.96-110.05 146.73 1.32 50.78 110.84 141.22 117.91 142.37" style="fill: none;stroke: #000000;stroke-linecap: round;stroke-linejoin: round;stroke-width: 10"/>
		<path id="underfin" d="m636.31 736.23c0 0 16.77 65.02 59.4 84.73 42.62 19.7 57.91 0 55.02-30.57-2.89-30.58 26.2-41.05 26.2-41.05 0 0 51.98-8.69-77.73-80.36-129.71-71.67-62.89 67.25-62.89 67.25z" style="fill: #b1e131;stroke: #000000;stroke-linecap: round;stroke-linejoin: round;stroke-width: 10"/>
		<path id="fin2" d="m450.66 789.51c0 0 20.01 83.45 57.89 89.69 37.89 6.24 32.67-65.38-7.13-111.59-39.8-46.2 103.52 138.34 135.21 98.24 31.7-40.1-21.53-101.17-33.98-93.15-12.46 8.01-46.53-11.41-64.81-35.25" style="fill: #b1e131;stroke: #000000;stroke-linecap: round;stroke-linejoin: round;stroke-width: 15"/>
		<path id="dorsal" d="m415.34 369.4c0 0 126.2-187.41 204.38-166.82 78.18 20.59 30.85 139.75 83.85 159.83 52.99 20.08 19.89 98.19-13.1 95.21-33-2.99-244.58-45.03-275.13-88.22z" style="fill: #b1e131;stroke: #000000;stroke-linecap: round;stroke-linejoin: round;stroke-width: 15"/>
		<path id="dorsal-dt1" fill-rule="evenodd" d="m594.39 259.35c0 0-100.91 60.69-123.15 119.66" style="fill: none;stroke: #000000;stroke-linecap: round;stroke-linejoin: round;stroke-width: 10"/>
		<path id="dorsal-dt1" fill-rule="evenodd" d="m898.34 461.98" style="fill: none;stroke: #000000;stroke-linecap: round;stroke-linejoin: round;stroke-width: 10"/>
		<path id="dorsal-dt2" fill-rule="evenodd" d="m612.73 308.26c0 0-69.04 41.52-84.25 81.87" style="fill: none;stroke: #000000;stroke-linecap: round;stroke-linejoin: round;stroke-width: 10"/>
		<path id="dorsal-dt3" fill-rule="evenodd" d="m647.67 346.69c0 0-56.28 33.85-68.68 66.74" style="fill: none;stroke: #000000;stroke-linecap: round;stroke-linejoin: round;stroke-width: 10"/>
		<path id="body" d="m354.2 376.39c0 0-66.28 17.39-98.69 58.52-32.42 41.12-88.73 86.08-102.19 160.71-13.46 74.62 4.36 88.21 4.36 88.21 0 0-17.24 10.7-9.6 35.81 7.63 25.11 35.31 25.87 43.67 27.08 8.35 1.2 27.3-18.87 42.79 28.82 15.5 47.68 206.47 72.14 287.36 39.3 80.88-32.84 221.01-118.91 248.05-151.97 27.04-33.06 21.47 6.77 48.03 7.86 26.57 1.09 33.93-228.39-20.08-174.68-54.02 53.7-35.66-7.67-77.74-29.7-42.08-22.03-150.7-92.75-236.69-93.45-85.99-0.71-17.97-5.79-129.27 3.49z" style="fill: #ccd4c2;stroke: #000000;stroke-linecap: round;stroke-linejoin: round;stroke-width: 15"/>
		<path id="eyeline1" fill-rule="evenodd" d="m183.89 625.31c0 0 57.94 9.4 83.84-62.01" style="fill: none;stroke: #000000;stroke-linecap: round;stroke-linejoin: round;stroke-width: 10"/>
		<path id="eyeline2" fill-rule="evenodd" d="m478.53 623.02c0 0-105.45 25.3-108.13-62.85" style="fill: none;stroke: #000000;stroke-linecap: round;stroke-linejoin: round;stroke-width: 10"/>
		<path id="eye1" fill-rule="evenodd" d="m436.98 599.76c-48.5 0-87.7-39.21-87.7-87.71 0-48.5 39.2-87.7 87.7-87.7 48.5 0 87.71 39.2 87.71 87.7 0 48.5-39.21 87.71-87.71 87.71z" style="fill: #ffffff;stroke: #000000;stroke-linecap: round;stroke-linejoin: round;stroke-width: 15"/>
		<path id="eye2" fill-rule="evenodd" d="m208.71 603.51c-48.51 0-87.71-39.2-87.71-87.71 0-48.5 39.2-87.7 87.71-87.7 48.5 0 87.7 39.2 87.7 87.7 0 48.51-39.2 87.71-87.7 87.71z" style="fill: #ffffff;stroke: #000000;stroke-linecap: round;stroke-linejoin: round;stroke-width: 15"/>
		<path id="gill" fill-rule="evenodd" d="m595.46 519.91c0 0 27.8 136.93-46.38 210.23" style="fill: none;stroke: #000000;stroke-linecap: round;stroke-linejoin: round;stroke-width: 10"/>
		<path id="fin1" d="m638.93 623.56c0 0 89.49-52.51 112.67-40.17 23.19 12.33 43.27 128.79-39.3 150.22-82.57 21.44-9.78-19.04-70.75-42.79" style="fill: #b1e131;stroke: #000000;stroke-linecap: round;stroke-linejoin: round;stroke-width: 15"/>
		<path id="fin1-dt1" fill-rule="evenodd" d="m631.95 661.99c0 0 58.83-32.9 100.44-26.2" style="fill: none;stroke: #000000;stroke-linecap: round;stroke-linejoin: round;stroke-width: 10"/>
		<path id="teeth" d="m198.73 700.43c0 0-4.89-38.07 0.88-48.04 5.76-9.98 32.84 28.66 34.93 36.68 2.1 8.02 11.01-49.42 19.22-40.18 8.21 9.25 20.96 33.19 20.96 33.19 0 0 5.94-31.6 13.98-39.3 8.03-7.7 24.45 28.31 26.2 31.44 1.74 3.13 13.97-32.65 20.96-34.06 6.99-1.41 20.44 32.68 20.96 34.94 0.53 2.25 11.71-31.61 20.09-31.45 8.38 0.16 9.08 37.75 10.48 38.43 1.4 0.69 19.91-34.04 25.33-26.2 5.42 7.85 16.07 32.68 16.59 34.94 0.53 2.25-60.26-9.61-60.26-9.61l-48.91-0.87c0 0-26.2-5.93-73.37 8.73-47.16 14.66-48.04 11.36-48.04 11.36z" style="fill: #ffffff;stroke: #000000;stroke-linecap: round;stroke-linejoin: round;stroke-width: 10"/>
		<path id="mouth" fill-rule="evenodd" d="m176.61 711.81c0 0 146.35-74.42 284.01-1.66" style="fill: none;stroke: #000000;stroke-linecap: round;stroke-linejoin: round;stroke-width: 15"/>
		<path id="cheek" fill-rule="evenodd" d="m479.1 685.58c0 0 45.56 43.42-23.58 53.28" style="fill: none;stroke: #000000;stroke-linecap: round;stroke-linejoin: round;stroke-width: 10"/>
		<path id="chin" fill-rule="evenodd" d="m252.01 716.15c0 0 58.18-20.81 72.5 7.86" style="fill: none;stroke: #000000;stroke-linecap: round;stroke-linejoin: round;stroke-width: 10"/>
	</g>
</svg>