<svg xmlns="http://www.w3.org/2000/svg" style="display:block" viewBox="0 0 500 500"><path d="m0 0 2 2q8 14 6 29 1 18 13 30c11 10 17 25 9 38l-5 6q15 12 34 17l1-2c9-22 37-61 65-56 15 7 8 35 5 48l-8 25-1 2-1 4c-6 17-3 28 3 45l4 11a112 112 0 0 1 6 39c0 7-1 17-10 19-16 1-30-12-41-23l-2-2q-12-14-20-29-11 1-11 12l2 3c7 7 2 15-1 22q-4 10-5 20-2 12-12 13-14-1-23-12l-5-4-5-6-2-2-1-4-8 2-2 2-3 1-2 1-6 4 3 1c18 5 27 21 26 40q0 8-8 9t-17-2l-2-1q-5-2-4-4l-2-1-11-7-1 2q-3 14-16 14c-11-4-24-21-24-33h-2c-32 8-72 2-99-18l-2-1q-8-5-15-14-4-5-12-5-12-3-14-16l2-11v-11l-2-11v-3l1-15q0-3-4-4c-16-15-16-38-4-55q13-16 33-16h2q10 0 18 3v-2c17-14 46-31 69-29q4 0 4-5l5-6 1-2 23-25 2-2 18-13 2-1C-14-13-14-13 0 0" style="fill:#b0bdbd" transform="translate(303 91)"/><path d="m0 0 2 2q8 14 6 29 1 18 13 30c11 10 17 25 9 38l-5 6q15 12 34 17l1-2c9-22 37-61 65-56 15 7 8 35 5 48l-8 25-1 2-1 4c-6 17-3 28 3 45l4 11a112 112 0 0 1 6 39c0 7-1 17-10 19-16 1-30-12-41-23l-2-2q-12-14-20-29-11 1-11 12l2 3c7 7 2 15-1 22q-4 10-5 20-2 12-12 13-14-1-23-12l-5-4-5-6-2-2-1-4-8 2-2 2-3 1-2 1-6 4 3 1c18 5 27 21 26 40q0 8-8 9t-17-2l-2-1q-5-2-4-4l-2-1-11-7-1 2q-3 14-16 14c-11-4-24-21-24-33h-2c-32 8-72 2-99-18l-2-1q-8-5-15-14-4-5-12-5-12-3-14-16l2-11v-11l-2-11v-3l1-15q0-3-4-4c-16-15-16-38-4-55q13-16 33-16h2q10 0 18 3v-2c17-14 46-31 69-29q4 0 4-5l5-6 1-2 23-25 2-2 18-13 2-1C-14-13-14-13 0 0m-174 100 1 1 5 6 2 2c15 19 9 44-6 62a41 41 0 0 1-34 13l3-1q16-1 26-13l-2 1h-3l-2 1-3 1-2 1q-11 2-23-2l-5-1q0 15 2 29 2 6-1 10-4 10 3 17l7 1q9 0 14 8 10 11 23 18l2 1a117 117 0 0 0 63 14 145 145 0 0 0 37-5l3-1q5-1 5-6 4-1 6 2l1 4q6 10 14 18l3 3c8 8 21 17 32 14 6-6-2-22-6-28q-6-7-16-8c-17-4-17-4-17-11l3 1q6 0 11-3l3-1 24-15 2-2 2-1v-4l-3-3-3-2-7-6-2-2q-2-3-2-7l7 4c16 17 16 17 36 18l3-3 2-2c12-12 20-36 13-53-5-7-16-4-23-2l-2 1-23 10-3 2-2 1-5 1q-1-5 4-7l3-1 3-1 26-12c10-3 22-3 28 7q2 13 1 27 22 0 25-23v-16q2-18-12-28h-7c-16-1-30-11-43-21-56-39-135-57-191-8" style="fill:#060a05" transform="translate(303 91)"/><path d="M0 0c7 18-3 43-9 60-7 18-8 32-2 50l4 11 1 3c13 39 13 39 4 52q-12 0-22-7l-1-2q-19-13-30-33l-2-3-1-4 4-3 9-7 2 2c9 12 9 12 20 18l-2-2-15-16-2-2q-2-9 1-16l2 1h2l2 1 9 2-2-1-3-2-3-1-3-2-2-1c-4-3-2-14-1-19q5-5 13-8v-1l-2 1-3 1-2 1-7 2-1-4-1-2q-1-7 5-14l1-1 15-17-8 6-2 1-11 13-4 2-2-2q-3-5-10-7a141 141 0 0 1 26-36C-27 8-9-9 0 0" style="fill:#8df409" transform="translate(428 164)"/><path d="m0 0 3 17Q2 40 18 56c9 10 15 19 7 32q-3 6-10 2l-7-4-2-2-4-2 5-7 2-1 1-1-9 5c-5 2-11-3-15-5l-2-1-4-2 6-9 3-2 6-5-5 3-2 1q-5 3-8 7c-6 6-17-1-24-3 4-12 15-21 25-28-14 8-14 8-25 20-5 7-8 6-16 5l-3-1-8-1c7-19 25-32 41-42l2-2q-16 8-30 20l-2 1q-9 9-15 20-2 2-6 2h-16l9-14 2-2 3-3 4-5 11-10 2-2Q-48 4-25-4l2-1c8-3 20-4 23 5" style="fill:#8df409" transform="translate(301 100)"/><path d="M0 0c5 19-4 37-22 46-15 7-33 1-43-12l-4-8-1-2c-8-16 1-34 15-44C-34-33-9-22 0 0" style="fill:#fcfcfc" transform="translate(244 214)"/><path d="M0 0c8 15 2 33-10 44q-19 13-38 2l-2-1A36 36 0 0 1-63 1c13-26 49-26 63-1" style="fill:#fcfcfc" transform="translate(137 210)"/><path d="M0 0c4 19-3 46-20 56-11 4-20-4-27-11l-8-7q-5-4-2-10l-1-6C-60 9-48 6-38 2l4-2C-6-12-6-12 0 0" style="fill:#8cf20c" transform="translate(351 263)"/><path d="m0 0 1 3c8 19 0 40-16 51a44 44 0 0 1-48 1 50 50 0 0 0 19 12q7 2 14 1h10c-3 7-22 5-28 3-24-8-36-37-34-61C-72-30-18-37 0 0m-76 13q-1 12 4 22l2 2c8 15 26 22 42 17Q1 41-3 10C-7-9-24-19-42-18c-17 1-31 14-34 31" style="fill:#0b0c0c" transform="translate(248 207)"/><path d="M0 0q6 5 5 13 5 1 5-5 4-5 9-4 5 6 4 13 2 1 3-2 1-6 7-6 5 2 6 7 2 6 9 8l2 1 4 1q5 2 4 5l-1 2-13-4Q14 19-18 19l-2-1q-23-1-43 9h-7q-1-5 5-7h2v-2c-1-15-1-15 5-17q5 0 7 4l1 2 4 5 1-2 1-2 1-2q2-5 5-4 6 2 8 8l3 1V8q1-7 8-9 6 4 8 11l1-2 1-2 1-2q3-6 8-4" style="fill:#0e0f0f" transform="translate(164 280)"/><path d="M0 0c3 6 14 8 20 9 10 3 13 6 17 15l1 2c2 5 5 14 1 18-13 3-27-9-36-18l-3-3q-8-9-13-21C-2-4-2-4 0 0" style="fill:#8cf20c" transform="translate(261 345)"/><path d="M0 0q4 5 1 9v2l-1 2q-6 11-7 23 1 8-7 9c-12-2-25-17-30-26q2-7 8-8 4 0 7 2 16 2 25-12z" style="fill:#8cf00e" transform="translate(348 312)"/><path d="m0 0 2 3 1 2 2 2c4 6 0 13-3 18q-2 4-7 1-8-8-14-20l-1-2-1-5 7-2h1q9-4 13 3" style="fill:#8def11" transform="translate(251 363)"/><path d="M0 0q4 4 6 10v1q5 14 4 30v2q1 38-27 65h-2l5-9C7 68 8 35 0 0" style="fill:#0f1111" transform="translate(272 225)"/><path d="M0 0c3 10-3 21-10 27q-7 3-14 2c-1-15-1-15 7-18h3Q-5 8 0 0" style="fill:#8d9c9b" transform="translate(381 258)"/><path d="m0 0-2-1q-19-5-38 0c0-14 35-6 40 1" style="fill:#131616" transform="translate(164 314)"/><path d="M0 0h12L3 3-8 4l-3 1-11 1-4 1h-2q-1-5 3-5z" style="fill:#0e2306" transform="translate(323 276)"/><path d="M0 0q8 9 1 20-5 4-11 3h-3q-3 1-4-2l3-1h3l3-1c8-2 7-5 8-13z" style="fill:#131616" transform="translate(230 302)"/><path d="m0 0 14 4 3 1 15 8q-5 1-10-1l-2-1L6 7 4 6q-5-2-4-4z" style="fill:#0a1d05" transform="translate(294 289)"/><path d="m0 0-2 1-29 28q1-7 7-11l1-1C-5-2-5-2 0 0" style="fill:#8edd2c" transform="translate(268 119)"/><path d="m0 0-2 1a96 96 0 0 0-23 20l-7 7q0-5 4-8l1-1 6-6C-17 9-6-3 0 0" style="fill:#8cd92f" transform="translate(416 165)"/><path d="m0 0-2 2h2l29-2h2l6 1q-1 3-6 2h-7L-4 5V0z" style="fill:#84cc34" transform="translate(299 274)"/><path d="M0 0c7 7 7 7 7 10l-9 2c0-9 0-9 2-12" style="fill:#e9e9e9" transform="translate(107 285)"/><path d="M0 0q1 4-3 6l-1 1-2 2q-9 8-15 18C-21 18-7 5 0 0" style="fill:#88d230" transform="translate(408 200)"/><path d="m0 0 2 1C0 8-6 7-12 6h-10l2-4 1 2h16q4-1 3-4" style="fill:#81c136" transform="translate(226 150)"/><path d="m0 0-1 1-5 5-2 2-2 2-2 2-1 3-3-1 6-9 3-2q4-5 7-3" style="fill:#8edc2d" transform="translate(297 156)"/><path d="m0 0-9 6-2 2-2 1-6 3q2-7 10-9l2-1q6-4 7-2" style="fill:#1d450c" transform="translate(277 112)"/><path d="M0 0q0 5-4 9-4 3-6 7l6 2q-4 2-8-1 2-6 6-10l2-3z" style="fill:#83c436" transform="translate(269 145)"/><path d="M0 0q4 0 4 5l1 2v1h-7z" style="fill:#e5e5e5" transform="translate(160 284)"/><path d="m0 0-2 1v-2c-7 1-7 1-10 6l-2-5C-2-7-2-7 0 0" style="fill:#88c051" transform="translate(262 347)"/><path d="m0 0-1 1-2 2-2 1-1 4 3 2 2 1 1 1q-4 1-6-1l-2-2-2-1 5-7 2-1z" style="fill:#88d332" transform="translate(313 174)"/><path d="m0 0 1 6h-6q-1-7 5-6" style="fill:#dbdbdb" transform="translate(182 289)"/><path d="m0 0 2 4v1l1 2h-7q1-9 4-7" style="fill:#eaeaea" transform="translate(145 284)"/><path d="m0 0 3 6-7 1q1-9 4-7" style="fill:#d5d5d5" transform="translate(127 286)"/><path d="M0 0q1 4-2 6l-2 1-1 2-2 1q-4 5-6 3z" style="fill:#8ad331" transform="translate(228 127)"/><path d="m0 0-9 4-3 1-6 2V2l1 1q4 1 7-1 4-2 10-2" style="fill:#87cc38" transform="translate(405 232)"/><path d="M0 0h-8q-3 1-5-2c9-2 9-2 13 2" style="fill:#2a2f2f" transform="translate(108 276)"/><path d="M0 0q4 3 3 6l-6-1z" style="fill:#c6c6c7" transform="translate(196 293)"/><path d="m0 0-4-1h-3l-5-3q8-2 12 4" style="fill:#21470e" transform="translate(326 303)"/><path d="m0 0 3 2Q2 6-2 6l-2 2h-4l2-2z" style="fill:#87cc38" transform="translate(382 281)"/><path d="m0 0 4 1 3 1 4 3C0 3 0 3 0 0" style="fill:#88cb39" transform="translate(387 265)"/><path d="m0 0-9 6q-1-5 3-5l2-1z" style="fill:#1b440c" transform="translate(284 134)"/></svg>