<svg xmlns="http://www.w3.org/2000/svg" style="display:block" viewBox="0 0 500 500"><path d="m0 0 3 2v2l4 2a148 148 0 0 1 47 116q0 35-31 51-23 10-47 10c3 21 3 21 14 39l2 3q10 11 25 8l3-1q11-2 18 7 4 9-2 17l-1 2c-7 8-27 7-37 5l-15-6 2 2q10 9 7 21-6 9-16 8c-9-3-15-13-19-20l4 14q3 10-4 19-8 5-18 1-8-6-10-17l-1-3c-10-35-10-35-10-51h-2v2l-5 24-10 24-1 2c-11 20-11 20-20 21q-10 1-15-8l-2-7v-4l-3 2q-9 3-16-4-5-7-2-15l7-8 1-3-2 1c-15 6-35 10-48 0q-7-6-5-16 2-8 10-10h7l5 1h10l9-2v-2l5-3 2-3h2l2-5 3-5q7-15 8-30h-2c-28-2-61-11-73-39-8-23-3-54 5-77l1-2q9-27 27-48h2l2-4c19-23 51-38 81-42h3q53-4 96 29" style="fill:#adc2ce" transform="translate(333 118)"/><path d="m0 0 3 2v2l4 2a148 148 0 0 1 47 116q0 35-31 51-23 10-47 10c3 21 3 21 14 39l2 3q10 11 25 8l3-1q11-2 18 7 4 9-2 17l-1 2c-7 8-27 7-37 5l-15-6 2 2q10 9 7 21-6 9-16 8c-9-3-15-13-19-20l4 14q3 10-4 19-8 5-18 1-8-6-10-17l-1-3c-10-35-10-35-10-51h-2v2l-5 24-10 24-1 2c-11 20-11 20-20 21q-10 1-15-8l-2-7v-4l-3 2q-9 3-16-4-5-7-2-15l7-8 1-3-2 1c-15 6-35 10-48 0q-7-6-5-16 2-8 10-10h7l5 1h10l9-2v-2l5-3 2-3h2l2-5 3-5q7-15 8-30h-2c-28-2-61-11-73-39-8-23-3-54 5-77l1-2q9-27 27-48h2l2-4c19-23 51-38 81-42h3q53-4 96 29m-167 9-6 5c-31 27-49 81-41 121 7 26 30 35 54 40l16 3 10 1 4 1a267 267 0 0 0 52 1 353 353 0 0 0 64-4c26-5 52-12 61-39C59 91 33 36-1 6L-17-5l-2-1-19-10-3-1q-12-4-25-6l-3-1c-36-4-72 8-98 33" style="fill:#060708" transform="translate(333 118)"/><path d="M0 0c18 29 34 77 16 109-17 27-55 29-84 32h-3l-39 1h-4q-28 1-56-3h-2l-18-4c-22-4-43-14-50-38a140 140 0 0 1 39-121l25-20 3-2C-113-85-36-56 0 0m-138-49-3 1q-23 7-41 22l-3 3q-27 25-38 62v3c-6 21-9 49 7 66l13 8 3 1c32 14 70 13 103 12h4c56-1 56-1 98-32C19 64 1 16-21-9l-1-2c-27-32-73-51-116-38" style="fill:#c6d8df" transform="translate(360 157)"/><path d="M0 0q12 19 2 38-13 20-36 17-19-6-26-24-5-23 12-38l3-1 2-2c14-8 33-2 43 10" style="fill:#fcfcfc" transform="translate(329 179)"/><path d="M0 0q13 16 6 36-10 20-32 21-22-1-31-22-8-19 7-35 3-4 7-6l1-2c14-7 32-3 42 8" style="fill:#fcfcfc" transform="translate(224 177)"/><path d="M0 0h19l-2 30v3c-3 23-9 69-32 81q-7 2-11-5-1-8 4-15C-5 65-1 33 0 0" style="fill:#a8bcc6" transform="translate(229 302)"/><path d="M0 0h19v6q2 45 15 88 6 10 0 19-6 3-12-1-5-6-7-15l-1-3C4 65 0 31 0 0" style="fill:#a8bcc6" transform="translate(252 302)"/><path d="M0 0q16 23 3 48-16 23-44 21-27-7-34-35-4-26 18-43c19-12 43-8 57 9m-66 18q-5 21 11 35 16 13 36 5Q2 46 0 22-2 6-15-2l-2-2c-20-11-43 2-49 22" style="fill:#090a0a" transform="translate(231 173)"/><path d="M0 0q15 22 5 47-17 25-46 22-23-6-32-28l-1-3c-5-15 1-32 12-43 19-16 45-14 62 5m-65 15q-6 22 10 38 17 13 37 5Q1 46 1 24-2 4-20-5c-19-6-38 1-45 20" style="fill:#090a0a" transform="translate(335 173)"/><path d="m0 0 1 4c3 20 9 44 31 52q8 2 17 0 7-1 13 1 3 6 1 12c-8 9-24 9-34 6q-10-3-19-10l-2-2A49 49 0 0 1-9 36q-4-17-4-35z" style="fill:#aabec8" transform="translate(303 300)"/><path d="M0 0h6l7 1c-1 30-6 58-36 72-11 5-29 6-39-2q-2-5-1-11 4-5 10-5l6 2q22 2 34-16Q-2 22 0 0" style="fill:#a9bdc8" transform="translate(197 300)"/><path d="m0 0 13 1q3 48-25 87l-2 3c-8 9-8 9-14 8q-4-2-6-8 2-5 6-9C-8 60-1 29 0 0" style="fill:#96adb6" transform="translate(213 301)"/><path d="M0 0h12v4c3 29 9 57 30 79q5 4 3 10-3 6-8 5C17 93 5 55 1 38Q-1 19 0 0" style="fill:#96aeb7" transform="translate(275 302)"/></svg>