<svg xmlns="http://www.w3.org/2000/svg" style="display:block" viewBox="0 0 500 500"><path d="m0 0 9 5 12 5 5 2 4 1q7 2 13 7l2 3q4 5 10 7 20 9 33 25 6 8 14 12 9 4 14 12l1 3 4 7 4 1q6 0 11 4l3 9 3 6q2 7 0 14v15l5 8q7 11 6 23-1 19-13 33h-2l-4-9-6-7-4 3q-2 7 1 14 2 3 5 2l2 1q11 4 21 1 11-5 17-14t5-22l-12-24c-8-13-11-23-9-38q4-18 19-30l10-5 3-1q13-3 26 1l12 9 2 3q8 10 6 23 0 9-6 16l-6 3-2-1-2-2v-10q1-5-2-10l-4-4h-5l-8-1-2-1-1 7-5 9-1 4 2 1q3 2 4 5l1 2 2 6q1 5 4 5l3 2 5 10 1 2 2 2q5 3 6 8l1 12q0 6 3 10 3 6 1 11l-3 7-2 14-4 9-3 2-2 2q2 4 5 6 10 13 11 31 1 21-10 39l-5 6-2 2q-10 11-25 13-22 3-42-10-9-6-22-7-7 2-12 9-3 6-3 14 0 6-3 8h-6q-6-4-7-12v-6l-7 4q-22 12-47 8-19-4-32-18l-2-1-3-4v-2l-4-2-2-1q-7-1-15 2l-11 9-5 3-4-3q-1-8 4-14l3-5 1-2-6-4-2-1-2 6q-4 12-14 17-10 8-24 8-12-3-22-12l-16-25q-2 10 2 18l2 3 1 9-4 2q-5-1-9-6l-7-11-1-2q-4-10-2-22l3-6 1-6-9-7q-8-7-11-19-2-15 4-28l1-2q7-11 18-17l6-1 3-1-3-5q-4-7-3-15l1-2v-2l-5 2q-14 6-28 3l-7-4-1-6 1-3h10c9-1 16-8 23-13l6-5 1-11v-2q1-12-5-22-4-6-12-10-3-2-4-5v-3l5-3q9 0 17 5 14 11 19 28l2 14v2l2-1q27-3 51 11l5 5 4 2q4-2 6-7v-2l-5-2q-16-5-27-18-4-4-8-4-7-1-12-5l-3-5-7-10q-8-12-8-25-1-6-6-10-4-3-5-8v-3q0-8-5-14l-2-10q1-4 4-7 10-5 22-5 8 0 14-5 7-3 15-1h3q8 2 16-3l2-1q6-3 11-1 9 1 18-2 11-5 22-1m-21 146q-4 6-4 14l-1 4v3a24 24 0 0 0 29 5l6-7v-3l-3-2-3-3-1-8v-3q-8-4-18-3zm-76 22q0 5 3 9l1 3q3 8 11 11l10 3v-6l-7-6h-2l-3-7-3-7zm-19 46-3 4q-4 5-9 6l-3 2 1 6v12l6 5 5-2 7-3 20-2 6-1-6-5h-3q-7-4-12-11l-2-7-3-4zm137 28-5 5q-4 4-9 5H-3l-3 3-11 3h-2l-6-3h-8c8 6 22 8 32 8q13-2 23-11l4-5 2-2 1-8zm58 2q-5 4-7 10v5q-1 7-7 13l-6 2-4 3-1 4q-2 6-9 10h-6q-4 0-7 2l1 4h5l4-3 8-1 9-2 4-7 9-8 6-5 1-3-1-1q-1-8 3-15l3-4v-6zm101 17-6 2-6 3q-5 4-11 2l-5 1-5 1h-3q-5-1-7-4-3-2-8-2l-4 15h8l8 2 3 3 8 1q5 0 10 3l2 3 2 1 4-1h3l10-2q3-3 2-6 2-7 7-11l-3-3q-4-4-5-10zm-287 4-2 2-2 1-2 2-1 1q1 8 7 14l5 4 5 1 7 5q3 3 7 3l6-4 3-1q7-3 11-10l1-5-1-2-6-1q-5-2-9-7l-1-2-7-5h-11q-6 1-10 4" style="fill:#831d31" transform="translate(219 81)"/><path d="m0 0 9 5 12 5 5 2 4 1q7 2 13 7l2 3q4 5 10 7 20 9 33 25 6 8 14 12 9 4 14 12l1 3 4 7 4 1q6 0 11 4l3 9 3 6q2 7 0 14v15l5 8q7 11 6 23-1 19-13 33h-2l-4-9-6-7-4 3q-2 7 1 14 2 3 5 2l2 1q11 4 21 1 11-5 17-14t5-22l-12-24c-8-13-11-23-9-38q4-18 19-30l10-5 3-1q13-3 26 1l12 9 2 3q8 10 6 23 0 9-6 16l-6 3-2-1-2-2v-10q1-5-2-10l-4-4h-5l-8-1-2-1-1 7-5 9-1 4 2 1q3 2 4 5l1 2 2 6q1 5 4 5l3 2 5 10 1 2 2 2q5 3 6 8l1 12q0 6 3 10 3 6 1 11l-3 7-2 14-4 9-3 2-2 2q2 4 5 6 10 13 11 31 1 21-10 39l-5 6-2 2q-10 11-25 13-22 3-42-10-9-6-22-7-7 2-12 9-3 6-3 14 0 6-3 8h-6q-6-4-7-12v-6l-7 4q-22 12-47 8-19-4-32-18l-2-1-3-4v-2l-4-2-2-1q-7-1-15 2l-11 9-5 3-4-3q-1-8 4-14l3-5 1-2-6-4-2-1-2 6q-4 12-14 17-10 8-24 8-12-3-22-12l-16-25q-2 10 2 18l2 3 1 9-4 2q-5-1-9-6l-7-11-1-2q-4-10-2-22l3-6 1-6-9-7q-8-7-11-19-2-15 4-28l1-2q7-11 18-17l6-1 3-1-3-5q-4-7-3-15l1-2v-2l-5 2q-14 6-28 3l-7-4-1-6 1-3h10c9-1 16-8 23-13l6-5 1-11v-2q1-12-5-22-4-6-12-10-3-2-4-5v-3l5-3q9 0 17 5 14 11 19 28l2 14v2l2-1q27-3 51 11l5 5 4 2q4-2 6-7v-2l-5-2q-16-5-27-18-4-4-8-4-7-1-12-5l-3-5-7-10q-8-12-8-25-1-6-6-10-4-3-5-8v-3q0-8-5-14l-2-10q1-4 4-7 10-5 22-5 8 0 14-5 7-3 15-1h3q8 2 16-3l2-1q6-3 11-1 9 1 18-2 11-5 22-1m-26 6q-9 4-18 1h-4l-7 8q-5 7-13 10h-3l1-1q7-3 13-10l-1-2c-8-1-20-2-27 1l-8 8h-2v-2h-10q-9 0-16 5l-1 5 3 9q4 4 3 11l3 8 3 2q7 8 7 19 0 3 2 5 3-8 2-17l-4-6 5 4 1 9-1 3-1 6v8l4 5 7 12 3 3 10 2q12 0 22-6l5-4q8-4 16-3 9 3 14 9 4 4 10 3h6c-15 1-15 1-20-2l-6-6q-2-2-5-2-13 2-23 10l-8 3h-4q3 8 10 12c6 4 16 10 23 10q1-11-3-22v-3l9 3 8 14v6l1 5q7 2 14 1l6 1h3q1-7-3-14l-4-7q7 5 9 12l1 17v6l4 3h2v-5q2-9 6-17c3-3 3-3 4-8l-1-5 2 3 7 5h2v2l-2-1-3-2q-3 1-5 4l-2 3-1 3q-5 8-4 16 2 6 6 8l10-2 3-4v10l-1 4v2h-2l1-4-1-4h-9l-6-1-2-1-3 4q-3 7-10 9-9 3-18 0-7-1-12-6v-12l3-5q4-13 1-27-1-7-7-12h-2l1 8 1 9v3q-1 10-8 17-13 12-15 30 1 12 10 20 7 8 16 10 10 0 19-6v-2l-7-1q-10-1-17-8l2 1a48 48 0 0 0 20 7q10 0 18-6 7-4 11-11l5-5-5 9-2 3a82 82 0 0 1-44 23q-23 3-43-9-6-2-10-8l-2-1c-17-16-23-43-27-66v-5q-2-17-13-30-7-7-16-9h-5q4 5 11 9 7 6 8 14l1 2a461 461 0 0 1 16 67v-2a231 231 0 0 0-11-44l-2-6h-2q-2 6-1 10h2v9l-4 2v7l3 1v6l-1 4-1 3 1 10 4 4 2 13q1 7 5 12l2 1 4 2 1 3 2 3 1 5q2 5 7 8l8 3q5 3 9 8 2 4 5 3l2-1-4-5-1-3 4 1h5l-8-1 2 4q4 5 10 6l3-1v-3 4l1 2q5 3 10 2l2-3 1 3q3 3 7 2h3l2-1 2-3 1 3 5 1h5l2 2q7 1 14-2v-2l-1-1 4-1 8-2v3q5 0 9-3l2-2-1-3 4-2q5-2 9-7l-22 4-3 1v-2l-4-1h3q10 0 17-6l7-5q10-6 17-15-7 12-18 17l-6 5 6 1h6l2 2v4l1 3q8-6 10-16l3-10q1 13-7 24-11 19-32 27-20 3-38-5l-17-5-3-1-26-7h-3q-17-5-33 1l-2 1q-11 4-16 16-8 13-4 27 3 11 10 18l3 1q0-4-4-10-4-10-3-22 3-12 14-22 14-9 33-7 21 5 38 20 17 14 38 16H7c14 0 14 0 27-5l3-1 3-2 3-1 3-2 6-3 5-5 11-14 5-7 1-2 8-5q7-2 12 1l3 2 2 1q0-6-4-12-5-9-4-19h2v5q0 8 3 15 5 10 6 20v4q2 17-8 31l-4 4-2 3q-8 8-18 14l-3 2q-16 10-36 8-14-2-25-12-3-4-6-3l-2 1a48 48 0 0 0 26 22l2 1q9 3 17 3h3q21-1 40-12 6-4 5-10 3-7 9-13l3-4q2-5 6-7h5l5-1q4-6 5-14l1-2q4-19-2-38l-1-2q-3-8-8-15l-4-5 2 2 2 2 2 2q2 3 4 1l2 5 6 19 1 3q3 3 7 3l2 1q12 4 22-2h3q-10 5-20 4l-9-3-4-1v6q4 5 10 6l21-3c15-4 15-4 21-3q9 5 13 14l1 2 1 11v2q0 11-7 20-7 8-16 9-17-2-30-11l-3-2-2-1q-9-4-19-1-11 4-18 14l-6 13q1-12 9-20t18-10q12 0 22 5l10 6q11 5 22 4 9-2 13-9 7-9 6-19l-4 1q-3 4-4 9v2h2v2l-2 1q-3 1-5 4l-2-2q-5 0-9 2l-2 1v3l-4-3-3-1-3-1v-3q-4-3-8-3h-2l1 4-2-1-2-1-2-2-6-1-1-4-10-1-2 1v2l-11 3v-2l-6 1-4 5 1 2-4 3q-7 6-10 15v13l2 2 1-5v3l1 4v3l1 3h2v-6q1-10 7-19 7-6 17-6 13 2 23 10 16 9 34 8 14-2 25-12 14-17 15-40 0-20-12-35-8-9-20-12l-12-1-14 1c-21 0-21 0-31-7-9-8-9-8-11-14l-1-6-1-7-10-5-3-1q-18-3-35 5l-6 1 4-12q9-12 21-18 8-4 12-13 3-5 8-9l3-3-6-8q-4-6-2-14 3-7 8-12l2-5 2-1 1-2q-2-9-9-16-8-7-19-11l-2-4a91 91 0 0 0-38-29q2 8 9 13l-2-1-4-2-2-4-5-7-2-2-10-11h-8l-3 1h-7l3-1 4-1v-2l-7-2L1 6q-5-4-14-3zm5 140q-4 6-4 14l-1 4v3a24 24 0 0 0 29 5l6-7v-3l-3-2-3-3-1-8v-3q-8-4-18-3zm-76 22q0 5 3 9l1 3q3 8 11 11l10 3v-6l-7-6h-2l-3-7-3-7zm-19 46-3 4q-4 5-9 6l-3 2 1 6v12l6 5 5-2 7-3 20-2 6-1-6-5h-3q-7-4-12-11l-2-7-3-4zm137 28-5 5q-4 4-9 5H-3l-3 3-11 3h-2l-6-3h-8c8 6 22 8 32 8q13-2 23-11l4-5 2-2 1-8zm58 2q-5 4-7 10v5q-1 7-7 13l-6 2-4 3-1 4q-2 6-9 10h-6q-4 0-7 2l1 4h5l4-3 8-1 9-2 4-7 9-8 6-5 1-3-1-1q-1-8 3-15l3-4v-6zm101 17-6 2-6 3q-5 4-11 2l-5 1-5 1h-3q-5-1-7-4-3-2-8-2l-4 15h8l8 2 3 3 8 1q5 0 10 3l2 3 2 1 4-1h3l10-2q3-3 2-6 2-7 7-11l-3-3q-4-4-5-10zm-287 4-2 2-2 1-2 2-1 1q1 8 7 14l5 4 5 1 7 5q3 3 7 3l6-4 3-1q7-3 11-10l1-5-1-2-6-1q-5-2-9-7l-1-2-7-5h-11q-6 1-10 4" style="fill:#120808" transform="translate(219 81)"/><path d="M0 0q9 5 13 14 2 6 1 12v2q1 7-3 13l-3 2v-7q0-12-7-21-7-7-17-6-8 0-14 5-7 7-7 16 0 20 12 38l7 18 3 6q5 10 3 21 3-9 0-17l-6-16q-5-13-12-25-7-15-5-31 4-7 10-11 5-3 12-3 7 2 12 6-3 3-7 2h-2l-5-2q-3-2-7 1l-4 3 3 1q0 6-4 12h-2l-2 1 2 6-1 3 2 10 2 3h3l3 1 2 10v-3l1-2 4 1q4 3 5 8v5h3l4 3q3 5 3 11h-3l-1-2-1-2-5 1v8l2 6h5l1-3 1-1 2 5 3 5q1 5-1 10H3l-1-3-1-3-4-1v2l4 1q2 3 1 8l-4 7-5-1-1-4 1 7 8-3q2 8-3 15l-4 3h-2v-2l-1-2h-8l-2 1-3-2 3-4q6-8 6-17l-1 2c-5 15-5 15-10 18h-9l-2-2 3-4 4-3v-3l-2 2-7 9-7 1v-3l4-3 3-2 1-3-2 1-2 2-2 3q-7 6-16 6h-5q-7 0-14-4l-1-2 6-1q14 0 26-8 9-8 12-19 3-19-7-33l-2-3q-12-17-12-37 3-15 14-26Q-22-8 0 0" style="fill:#6d1629" transform="translate(432 160)"/><path d="M0 0h2l2 4v2l1 3 1 3q5 15 8 32v2l1 4q1 9 7 15l5 9q4 14 16 21l2 1 16 13q8 4 18 5h26l-3 2-2 2 1 3v2H91l-2-3-1 3h-8l-5-2-1-2-1 3q-6 0-11-3l1-4h-1v2h-6l-8-6-1-3 8 1-9-1 2 5 2 2 1 1h-5l-4-5q-5-6-12-7-6-3-10-9l-1-5-5-8-5-2q-3-6-4-14L2 54l-3-2-1-10 1-1 1-6v-6l-3-1v-7l2-1 2-1v-9h-2z" style="fill:#a9a38b" transform="translate(95 209)"/><path d="M0 0q4 0 7 3t5 8q2 16-6 31a91 91 0 0 1-45 33q-19 3-37-7l-4-4-2-2-2-3 9-1h4l15 1h7l4-1 1-2 8-1 9-3 2-2 3-1-1-3q3-6 10-8 6-4 8-10l2-5h-2v2h-2q-1-6 2-11l4-5V2z" style="fill:#afa98f" transform="translate(307 322)"/><path d="M0 0h2q7 0 13 5 8 7 11 19 0 14-4 28l-1 2-2 5h-2l-3-5Q8 41-4 36a54 54 0 0 0-42 5l-2 1-2-1q6-10 17-15l2-2c5-3 5-3 8-3v-3q3-9 11-16 5-2 12-2" style="fill:#9b8242" transform="translate(342 217)"/><path d="m0 0 4 3Q1 6-3 5h-2l-5-2h-7l-4 4 3 1q0 6-4 12h-2l-2 1 2 6-1 3 2 10 2 3h3l3 1 2 10 1-3v-2l4 1q4 3 5 8v5h3l5 3 2 11H4l-1-2-1-2-5 1v8l2 6h5l1-3 1-1 2 5 3 5q2 4-1 10H8l-1-3-1-3q-2-3-4-1v2l4 1q3 3 1 8l-4 7-5-1-1-4 1 7 8-3q2 8-3 15l-3 3h-3v-2l-1-2h-8l-2 1-3-2 3-4q10-15 9-34l-4-12-4-10q-4-13-12-25-7-15-4-31 2-7 9-11 10-5 20 0" style="fill:#afa98f" transform="translate(427 173)"/><path d="M0 0q14 7 27 17 16 15 38 16h18q17 2 32-9l2-1 2 1q-8 8-17 12h-2l1 3q-5 4-11 5l-3-1v-2l-3 1-6 1h-3l-2-1-1-4-1 3H60l3 1 4 1h3l3 1v2l-6 1-3 1-6-3 1-3h-6l-2-1-3 1-10-4-2-2v-4l8 1 5 3-7-5h-7l-1 3q-3 1-5-2v-9l-5-4-3-2h-5l-2 2-1 1-4-3-2 1-4-1-2-1-2-2-3-6-4-2V4h-3l-4-1-1-3h-1v2l-1 2h-6q-6 0-13 4l-5 4-3 2q-5 5-8 12l-1 6-1 3h-1q-1-9 4-19 7-11 19-17l3-1q15-3 30 2" style="fill:#ada68f" transform="translate(147 335)"/><path d="M0 0a69 69 0 0 1 47 17q1 4-2 7l-7 5-1 2-2 2-4-4-2-2-2-2 6 6 1 5v6l-5-5Q19 23 2 18h-6l-4-1-3-7-1-2V1z" style="fill:#6a162a" transform="translate(124 216)"/><path d="m0 0 1 4q0 6 3 11v3l-4 1q-8 2-15 6l-3 5 2-1 2-2 3-2c5-4 5-4 8-4h3v4l-6 4-2-1h-2l-2 4-1 3v2l2 2v8h-4l-1-4q1 6 5 10l2 3 4 4 1 1-5-1q-7-5-10-15l-1-8q0 10 4 18l6 5 2 2-2 6q-7-2-13-9-9-13-7-30l3-8 1-2Q-18 6-5 1z" style="fill:#691627" transform="translate(97 273)"/><path d="m0 0 6 4q6 12 5 25v6q2 4 5 3v-5q0-9 5-17l4-8-1-6 2 2 7 5 3 2v2l-3-2h-4q-8 10-9 22l2 8q3 3 7 2l7-3 2-3 2-1-1 7v2l-2 9h-2v-8l-3 1q-7 1-12-2l-2-1-2 5q-5 7-14 10-13 2-24-5l-5-8q0-6 3-11 6-14 2-28V4h2l1-3q4 6 2 13l1 5h14l6 1 3 1v-4l-1-3-4-9zm-17 25q-4 7-4 15l-1 4v3a24 24 0 0 0 29 4l6-6v-3l-3-2-3-3-1-9v-2q-8-4-18-3z" style="fill:#150507" transform="translate(215 201)"/><path d="M0 0q8 3 12 9 2 6 1 12-3 8-10 13-6 2-14 1-7-3-11-10-3-7 0-14Q-15-3 0 0" style="fill:#fafafa" transform="translate(290 188)"/><path d="M0 0q5 2 8 6 4 8 2 15l-4 6-2 2q-4 4-11 4-6 0-10-5-4-2-5-7-2-6 1-14 8-11 21-7" style="fill:#fbfbfb" transform="translate(348 182)"/><path d="M0 0h3l3 5c10 16 10 16 25 26q9 2 17-3 6-4 9-11h-2l2-4v2l2-1 2-7 1-2 8 3 2 1 1 2q-1 12-10 20T43 42q-11 0-20-6C13 28 5 14 0 2z" style="fill:#6b1729" transform="translate(99 356)"/><path d="M0 0h1l1 4q2 6 6 10 5 5 6 12c4 12 17 19 27 27l3 2q9 7 19 6h2l15-1c13 1 13 1 27-1v-2h3v2l6-2q10-3 19-3-5 6-11 8l-2 1v4c-6 4-6 4-9 4l-2-1v-2l-6 2-7 1 3 1v2q-7 3-14 2l-4-5 1-4 3-2H69q-15 1-27-7l-3-3-3-2-3-3-5-4-2-1-5-4q-8-6-11-16-2-8-8-14-3-3-3-7z" style="fill:#260b0c" transform="translate(111 259)"/><path d="M0 0h3L2 7v2q-3 10-12 16-6 5-13 3-14-3-26-10-11-7-24-5-12 4-20 16-4 9-6 20v2l-2-4q-1-12 6-21l7-8 1-1v-3l5-4h4l1 2 6-3h4V7q5-2 9-1l4 2v3h3l9 5-1-2v-2q5-1 10 3l1 2-1 1 4 2 3 1 3 1 1-2 3-3h7l2 2 5-5h2v-2h-2q0-6 3-10z" style="fill:#a8a28e" transform="translate(412 357)"/><path d="m0 0 9 5v5l-1 1q-9 1-16-4l-3-2V3h-3l-4-1-1-3h-1v2l-1 2h-6q-6-1-13 4l-5 4-3 2q-5 4-8 12l-1 6-1 3h-1q-1-10 4-19 7-12 19-17l3-1q17-4 33 3" style="fill:#a79f92" transform="translate(150 336)"/><path d="M0 0q8-1 16 3 17 8 26 24v7l-7-1q-3-5-4-11h-2l1 3v2l-4-1q-4-4-4-10l2-1c-5-3-5-3-11-4L2 7l1-2-2-1z" style="fill:#aea88e" transform="translate(116 235)"/><path d="M0 0q8 3 11 10 5 11 1 22l-2 5-3 2 1-6-2 2q-6 5-13 6-9-1-16-6-5-6-6-16 0-8 5-14 11-9 24-5m-23 9q-4 6-3 14 4 8 10 12 7 3 14 1 8-3 11-11 3-7 0-13T-1 2q-13-4-22 7" style="fill:#10090a" transform="translate(293 187)"/><path d="M0 0q0 10-7 16-6 8-15 9c-12 2-22-5-32-11l-3-1-2-1q-10-4-19-1-7 2-11 6l-2 2q-6 8-10 17l-1 2h-1q-1-10 6-18 7-9 19-14 13-2 25 5l10 5q11 6 22 5 7-3 13-9l3-9 1-2z" style="fill:#1f0b0d" transform="translate(417 363)"/><path d="m0 0 2 2h-5l1 3q-3 3-8 2h-3l-1-2v6q-3 3-7 2v-2h-3V9h-2v2l-1 2-8 1h-4v-4h-2l-11-2V2l5 2q13 3 25-1 10-4 22-3" style="fill:#aaa38b" transform="translate(400 333)"/><path d="m0 0 4 5-5 5-11-4q-7-4-14-3h-3l-15 3-6 1q9-8 21-11 15-3 29 4" style="fill:#917d45" transform="translate(341 257)"/><path d="m0 0-2 11 1 4v2l-4 2-3 1h-6l-2 1q-7 3-14 2l-6-2-2-4h5q10 0 19-7z" style="fill:#691a2c" transform="translate(91 224)"/><path d="m0 0-3 3-3 2-5 2-2 1v4c-6 4-6 4-9 4l-2-1v-2l-4 1-6 2v-2l-1-3-7-2h-2V8l6-1 15-3q12-6 23-4" style="fill:#a8a18d" transform="translate(246 314)"/><path d="M0 0h3v4l-6 4h-2l-2-1-2 5-1 2v2l2 2v8h-4l-1-4q0 6 5 11l2 2 4 4 1 1-5-1q-7-4-9-12c-2-12-2-12 2-18q4-7 13-9" style="fill:#aba490" transform="translate(94 294)"/><path d="m0 0 16 5 2 1 4 3v5l-1 1A25 25 0 0 1 2 9V7h-3l-4-1-1-3h8l-7-1z" style="fill:#9a9483" transform="translate(137 332)"/><path d="M0 0q4 0 7 3t5 8q0 5-3 8l-3-6H4q-4 7-3 14l5 5H1l-2-2V20l1-5h-2l1-10z" style="fill:#9e9889" transform="translate(307 322)"/><path d="m0 0 5 1q5 5 6 12l-2 4-5-1q-5-6-5-13V1z" style="fill:#352d25" transform="translate(109 276)"/><path d="M0 0h1l1 4q4 12 14 20l3 3C6 25 6 25 3 22q-2-4-1-8v-2H0z" style="fill:#9c9783" transform="translate(161 264)"/><path d="M0 0h2l4 1-1 2-1 2 3 1v2q-6 3-14 2l-1-8z" style="fill:#b2aa85" transform="translate(205 325)"/><path d="m0 0 2 1-1 6-5 5-1 1h-6q-2-3 1-7 4-5 10-6" style="fill:#aea78a" transform="translate(303 362)"/><path d="m0 0-1 1v5l4 2v3q-9-2-15-9l-3-4q8-3 15 2" style="fill:#aca595" transform="translate(238 383)"/><path d="m0 0-2 6q-4 5-10 6-8 2-14-1l-6-5-2-2-1-1V1q4 0 8 3l1 3q6 3 13 2l6-2 2-1 4-5z" style="fill:#b1a598" transform="translate(153 373)"/><path d="M0 0v2h-7q-11-2-21 3l-8 8-1 1-1-2q3-7 10-11c8-4 20-5 28-1" style="fill:#2f0508" transform="translate(293 173)"/><path d="M0 0h4l3 1h3L3 4q-8 3-14 11l-1 1q-1-4 1-7l2-3 1-2q3-4 8-4" style="fill:#782b3b" transform="translate(192 379)"/><path d="M0 0h5l4 4 2 2 1 4-1 2-5-1-6-7z" style="fill:#bbb48e" transform="translate(123 299)"/><path d="M0 0h15q10 0 19 2l1 1v5l-2-2 1-2h-8l-5 1-1 2 5 2h3v1l-4 1h-5l-2-5 4-4H11L7 1H0z" style="fill:#35302b" transform="translate(177 322)"/><path d="M0 0q5-1 9 1l5 4-1 3Q7 10 2 6L0 4z" style="fill:#322822" transform="translate(145 339)"/><path d="M0 0q5 0 10 3l3 5v2H7L0 4z" style="fill:#aca387" transform="translate(163 353)"/><path d="m0 0 3 1 1 6q-2 6-8 9l-7 1-2-2 1-7q5-7 12-8m-8 6q-3 2-3 6v3h6l7-8-1-5q-5 1-9 4" style="fill:#312922" transform="translate(303 360)"/><path d="M0 0h3v2l2 1Q-9 7-24 6l-13-1h-8V4h16L0 2z" style="fill:#3d1a1e" transform="translate(218 316)"/><path d="m0 0 10 5 18 10h2v2Q13 15 0 2z" style="fill:#57212b" transform="translate(138 276)"/><path d="m0 0 8 1q7 0 12 5l3 2-9-3L2 4H0l-1-1q-6 0-11 3l-4-1 5-3z" style="fill:#350509" transform="translate(203 97)"/><path d="M0 0h4q3 4 2 8l-1 6-4-2Q-1 7-1 1z" style="fill:#afa885" transform="translate(425 247)"/><path d="M0 0q6 0 11 2 6 5 8 12v5h-3v-4L11 5 2 2 0 1z" style="fill:#2f060a" transform="translate(218 183)"/><path d="M0 0c7 0 7 0 11 2l3 5-5-1H-6q1-4 6-6" style="fill:#802234" transform="translate(339 174)"/><path d="M0 0q5 0 10 3 4 3 4 9v3l-5 1q-5-2-8-6-2-5-1-10m1 2 1 6q3 4 7 6l4-1-1-5Q8 3 3 1z" style="fill:#332e25" transform="translate(122 297)"/><path d="m0 0 5 3q3 4 3 9v2l-4-1-4-6z" style="fill:#bab490" transform="translate(110 277)"/><path d="m0 0 6 1q2 4 1 10l-5-1q-3-3-3-8z" style="fill:#c3c28d" transform="translate(152 270)"/><path d="M0 0h2q5 3 6 8l-1 4-2 1q-3-2-5-6z" style="fill:#aca888" transform="translate(403 203)"/><path d="M0 0q11 2 18 9l9 13-1 3-4-5Q14 9 2 2L0 1z" style="fill:#3f070c" transform="translate(286 145)"/><path d="M0 0v14l1 4 7 1h5q-4 4-8 3-4 1-6-2-4-6-2-13z" style="fill:#2f0407" transform="translate(277 255)"/><path d="m0 0 3 2-1 5-1-2-1-2q-6-1-11 1l-5 3q-1 4 1 7h-3l-1-7q3-4 9-7z" style="fill:#302a22" transform="translate(281 378)"/><path d="M0 0h2v5q2 9 6 17l1 5-1 2-1-3-2-4-1-2-4-8z" style="fill:#3d090e" transform="translate(310 293)"/><path d="m0 0 10 1 3 5v2l-4 2-11-1q-2-2-2-5V2h3v4q6 3 11 2L9 4 4 2 0 1z" style="fill:#2b241e" transform="translate(240 382)"/><path d="M0 0h1v2l1 7 8 2 5 3 2 7h-2l-1-3-4-4-5-1-5-3q-2-4-1-9z" style="fill:#39060c" transform="translate(135 130)"/><path d="m0 0 3 3q2 6 0 12l-3 3h-7v-2h4l3-2z" style="fill:#35060b" transform="translate(247 222)"/><path d="m0 0 6 1 5 8-1 3-4-5-4-2-3 1V1z" style="fill:#180e0a" transform="translate(330 225)"/><path d="m0 0 11 4 3 2 6 4 7 1 2-1-1 4q-4 1-8-1l-7-4-3-2z" style="fill:#3f060c" transform="translate(289 162)"/><path d="m0 0 2 1 2 1 3 2q11 2 21 0-3 4-7 4-9 2-16-2z" style="fill:#3b060a" transform="translate(265 226)"/><path d="m0 0 5 1 1 4-1-1-2-2H1q-4 7-3 14l5 5h-5q-2-2-2-5C-4 6-4 6-2 2z" style="fill:#2a231b" transform="translate(310 333)"/><path d="M0 0q0 4-3 8l-5 14-1 3-2 1q1-14 10-25z" style="fill:#3d0a0e" transform="translate(305 295)"/><path d="m0 0 2 1-1 4-4 2h-2l-5 1q-2-2 1-4 3-3 9-4" style="fill:#62524a" transform="translate(89 237)"/><path d="M0 0q4 0 7 3l2 2 3 2v6l-3 2-1-3h3L8 6-2 2v3l-3-1q1-4 5-4" style="fill:#2f2923" transform="translate(165 351)"/><path d="m0 0 5 1v3L4 2 0 3v8l3 4 2 1v-2h2l-1 3H1q-3-3-3-7V4z" style="fill:#342922" transform="translate(425 245)"/><path d="m0 0 3 1v3l4 2q-9 2-18-1l-1-4 1 2H0z" style="fill:#403832" transform="translate(218 372)"/><path d="m0 0 6 1v2Q-1 6-8 5l-1-3 6-1z" style="fill:#968f7f" transform="translate(206 330)"/><path d="m0 0 2 2h13l-1 2Q8 7 2 6l-3-3z" style="fill:#39090f" transform="translate(143 182)"/><path d="M0 0h5l2 1h2l1 2-4-1H3L1 1l7 7v2H5Q1 6-1 1z" style="fill:#2a2620" transform="translate(141 316)"/><path d="M0 0q6 0 10 4v2L6 5H5L1 4l-2-3z" style="fill:#b0a38d" transform="translate(147 340)"/><path d="m0 0 3 3 11 6 4 2q-6 1-11-2L0 3z" style="fill:#38070e" transform="translate(163 162)"/><path d="M0 0q6 0 11 2l2 1v4L7 6V4L0 1z" style="fill:#7f7668" transform="translate(234 381)"/><path d="m0 0 2 3 3 3 2 2v2l3 1 2 1-2 2Q4 11 0 5l-1-3z" style="fill:#3e0810" transform="translate(175 272)"/><path d="M0 0h6l2 3h-9v5h-2l-1-6z" style="fill:#340508" transform="translate(178 114)"/><path d="m0 0 3 1 1 4v4h1v8H3l-1-6-2-9z" style="fill:#4d1d29" transform="translate(313 399)"/><path d="M0 0v2h-3l-2 1 2 4 3 2-3 1-4-3 1-6z" style="fill:#43070f" transform="translate(176 191)"/><path d="M0 0q6-1 11 2l3 2v2L7 3H0z" style="fill:#4a4131" transform="translate(182 365)"/><path d="m0 0 3 1-2 5-3 9v2h-1Q-4 8 0 0" style="fill:#918680" transform="translate(94 353)"/><path d="m0 0-2 6q-4 4-9 5l-2-2 6-2q4-1 5-4l1-2z" style="fill:#948d87" transform="translate(153 373)"/><path d="M0 0v6c0 5 0 5 2 8h3v2q-4 0-7-3V2z" style="fill:#2c221c" transform="translate(98 229)"/></svg>