<svg version="1.2" xmlns="http://www.w3.org/2000/svg" viewBox="0 0 1080 1080" width="64" height="64">
	<style>
		.s0 { fill: none;stroke: #ffffff;stroke-miterlimit:100;stroke-width: 25 } 
		.s1 { fill: #ffffff } 
	</style>
	<path id="Fish Outline" class="s0" d="m526.38 105.67c1.65 0.2 7.27 1.06 12.5 1.9 5.23 0.84 14.79 3.31 21.25 5.48 6.46 2.17 15.46 5.67 20 7.78 4.54 2.1 12.52 6.47 17.75 9.7 5.23 3.23 12.65 8.09 16.5 10.81 3.85 2.71 9.47 7.01 12.48 9.55 3.02 2.53 9.1 7.92 13.5 11.96 4.41 4.05 12.92 12.6 18.92 19 5.99 6.41 19.55 22 30.12 34.65 10.57 12.65 20.96 24.9 23.1 27.22 2.13 2.32 4.11 4.22 4.38 4.23 0.27 0.01 8.37 1.59 18 3.51 9.81 1.96 24.31 5.75 33 8.63 8.52 2.83 20.23 7.21 26 9.74 5.77 2.53 15.68 7.26 22 10.51 6.32 3.26 16.9 9.34 23.5 13.53 6.6 4.18 16.73 10.98 22.5 15.12 5.78 4.13 15.43 11.56 21.46 16.51 6.02 4.95 15.83 10.97 25.2 20.12l29.34 3c56.66 7.33 85.13 50.18 94.66 84.67 1.8 6.51 21.01 73.6-37.33 124.66 0 0 5.16 17.98 5.14 34.55-0.03 19.15-0.34 23.42-2.37 33-1.28 6.05-3.65 15.27-5.26 20.5-1.61 5.23-4.56 13.33-6.56 18-2 4.67-5.21 11.42-7.13 15-1.93 3.58-6.31 10.77-9.74 16-3.43 5.23-10.66 14.28-16.07 20.12-5.41 5.84-15.02 15.47-21.34 21.4-6.32 5.93-16.45 15.12-22.5 20.44-6.05 5.31-17.07 14.42-24.5 20.24-7.43 5.83-19.8 14.83-27.5 20-7.7 5.18-17.93 11.64-22.74 14.36l-8.75 4.94c-3.3 10.08-6.17 17.73-8.52 23.5-2.34 5.77-6.69 15.67-9.67 22-2.98 6.33-7.84 15.55-10.8 20.5-2.96 4.95-8.36 13.05-12.01 18-3.64 4.95-10.2 12.63-14.57 17.07-4.37 4.43-12.21 11.22-17.44 15.09-5.23 3.86-12.99 9.12-17.25 11.68-4.26 2.56-12.81 6.94-19 9.73-6.19 2.79-17.32 7.05-24.75 9.47-7.43 2.43-16.2 5.1-19.5 5.94-3.3 0.84-9.49 1.53-13.75 1.53-7.09-0.01-8.03-0.25-11-2.86-2.08-1.82-3.76-4.61-4.65-7.75-0.98-3.39-1.19-6.9-0.71-11.4 0.39-3.58 1.57-9.88 2.63-14 1.05-4.13 3.22-11.33 4.81-16 1.59-4.67 4.57-12.55 6.62-17.5 2.06-4.95 7.29-16.31 11.64-25.25 4.35-8.94 8.17-17.26 8.48-18.5 0.35-1.39-0.12-3.15-1.25-4.6l-1.82-2.34c-23.25 1.88-36.52 2.65-44.5 2.93-12.62 0.44-15.8 0.21-24.5-1.76-5.5-1.24-19.68-5.49-31.5-9.45-11.83-3.96-22.85-7.49-24.5-7.85-2.17-0.46-3.47-0.16-4.68 1.09-0.92 0.95-4.1 7.13-7.06 13.73-2.96 6.6-8.9 17.62-13.21 24.5-4.31 6.87-10.53 16.33-13.84 21-3.3 4.67-8.82 11.87-12.26 16-3.44 4.12-10.01 11.13-14.6 15.56-4.59 4.43-11.05 10.08-14.35 12.56-3.3 2.48-9.38 6.6-13.5 9.14-4.13 2.55-11.77 6.65-17 9.11-5.23 2.46-13.77 5.85-19 7.53-5.23 1.68-15.35 4.38-22.5 6-7.15 1.61-17.39 3.42-22.75 4.02-5.36 0.59-14.36 1.07-20 1.05-8.86-0.03-10.72-0.33-13.68-2.25-1.89-1.22-4.03-3.68-4.75-5.47-0.73-1.79-1.32-4.94-1.33-7 0-2.06 0.7-6.45 1.56-9.75 0.86-3.3 2.91-9.38 4.55-13.5 1.65-4.13 5.74-12.45 9.11-18.5 3.36-6.05 10.17-17.08 15.13-24.5 4.95-7.42 12.91-18.67 17.68-25 4.77-6.33 13.3-17.13 18.95-24 5.65-6.88 16.85-19.86 24.9-28.87 8.05-9 15.88-18 17.4-20 1.52-1.99 2.76-4.64 2.75-5.88-0.01-1.27-1.22-3.15-2.77-4.32-1.51-1.14-8.95-5.75-16.53-10.25-7.58-4.5-17.84-11.33-22.79-15.18-4.96-3.85-14.28-12.82-20.72-19.94-6.44-7.11-23.13-25.79-37.08-41.5-13.96-15.71-33.24-38.01-42.86-49.56-9.61-11.55-18.45-21.81-19.63-22.79-1.25-1.05-3.69-1.78-5.89-1.75l-3.75 0.04c-11.32 23.64-17.01 34.77-19.93 40-2.93 5.23-9.05 15.13-13.61 22-4.56 6.88-11.36 16.31-15.12 20.97-3.76 4.65-10.67 12.47-15.34 17.37-4.67 4.9-12.55 12.18-17.5 16.19-4.95 4-12.6 9.51-17 12.23-4.4 2.73-11.15 6.55-15 8.49-3.85 1.94-12.4 5.66-19 8.26-6.6 2.59-15.15 5.81-19 7.14-3.85 1.34-15.77 5.08-26.5 8.32-10.73 3.23-25.91 7.72-33.75 9.96-7.84 2.24-14.44 4.07-14.68 4.07-0.23 0-1.13-0.68-2-1.5-1.04-0.99-1.57-3.27-1.56-6.75 0-2.89 0.68-9.75 1.51-15.25 0.83-5.5 2.68-14.95 4.11-21 1.43-6.05 4.38-17.75 6.54-26 2.17-8.25 5.78-20.85 8.02-28 2.24-7.15 6.06-17.73 8.49-23.5 2.42-5.77 7.13-15.67 10.45-22 3.32-6.33 9.29-16.45 13.27-22.5 3.98-6.05 10.78-15.27 15.11-20.5 4.33-5.23 13.6-15.35 20.59-22.5 7-7.15 16.7-16.27 21.56-20.26 4.86-3.99 13.97-10.74 20.25-15 6.28-4.26 11.9-8.51 12.5-9.45 0.75-1.18 0.78-2.53 0.09-4.35-0.75-1.99-3.83-4.11-12.5-8.63-6.33-3.3-16.45-8.94-22.5-12.54-6.05-3.6-15.95-10.26-22-14.81-6.05-4.56-13.67-10.68-16.94-13.62-3.27-2.94-9.94-9.84-14.83-15.34-4.89-5.5-11.39-14.05-14.46-19-3.06-4.95-7.04-12.38-8.84-16.5-1.81-4.13-4.17-10.65-5.24-14.5-1.07-3.85-2.72-13.07-3.65-20.5-0.93-7.43-2.59-20.25-3.69-28.5-1.09-8.25-3.26-21.3-4.81-29-1.55-7.7-5.34-22.77-8.42-33.5-3.08-10.73-5.61-20.51-5.61-21.75-0.01-1.97 0.64-2.32 5.24-2.85 2.89-0.33 8.4-0.3 12.25 0.08 3.85 0.37 11.73 1.59 17.5 2.7 5.77 1.12 15.67 3.72 22 5.79 6.33 2.07 17.12 6.31 24 9.42 6.87 3.11 17.38 8.45 23.34 11.88 5.96 3.43 17.32 11.07 25.25 16.98 8.48 6.32 20.42 16.62 29.02 25 8.03 7.84 18.13 18.52 22.44 23.75 4.3 5.23 10.4 13.1 13.56 17.5 3.15 4.4 8.83 12.95 12.62 19 3.79 6.05 10.3 17.75 14.47 26 4.16 8.25 8.41 16.24 9.44 17.75 1.33 1.97 2.71 2.75 4.86 2.75 2.3 0 3.65-0.87 5.8-3.75 1.54-2.06 4.8-6.86 7.25-10.67 2.45-3.8 9.4-12.24 15.45-18.73 6.05-6.5 22.36-23.53 36.25-37.84 13.89-14.3 25.63-27.02 26.09-28.26 0.45-1.24 0.43-6.98-0.06-12.75-0.5-5.77-0.62-17.7-0.29-26.5 0.34-8.8 1.27-20.73 2.08-26.5 0.81-5.77 2.62-15.68 4.04-22 1.41-6.32 4.38-17.12 6.6-24 2.23-6.87 6.26-17.68 8.97-24 2.7-6.32 7.86-17.12 11.45-24 3.59-6.87 11.63-20.15 17.86-29.5 6.23-9.35 14.76-21.28 18.96-26.5 4.2-5.22 11.78-14.17 16.84-19.88 5.07-5.71 12.7-13.7 16.96-17.75 5.22-4.96 8.98-7.69 11.5-8.35 2.06-0.54 8.25-1.66 13.75-2.49 5.5-0.84 13.37-1.45 17.5-1.37 4.12 0.07 8.85 0.31 10.5 0.51z"/>
	<path id="eye1 copy 2" fill-rule="evenodd" class="s1" d="m691.07 380c47.66 0 86.19 38.01 86.19 85.03 0 47.02-38.53 85.03-86.19 85.03-47.67 0-86.19-38.01-86.19-85.03 0-47.02 38.52-85.03 86.19-85.03z"/>
	<path id="eye2 copy 2" fill-rule="evenodd" class="s1" d="m913.68 381.94c47.67 0 86.2 38.01 86.2 85.03 0 47.02-38.53 85.03-86.2 85.03-47.66 0-86.19-38.01-86.19-85.03 0-47.02 38.53-85.03 86.19-85.03z"/>
</svg>