<svg xmlns="http://www.w3.org/2000/svg" style="display:block" viewBox="0 0 500 500"><path d="m0 0 2 1 6 4 3-1h3l4 9 4 8h7l3 12 1 4a34 34 0 0 0 23-17q2-2 6-2l2 1q0 8-7 14L46 43h-2v6l-1 8c25 2 48 1 68-15l4-4h5l1 4-7 9-2 2C99 66 79 68 61 68H48l-1 9q-1 5 2 9l7 1 2 1q9 4 17 1 8 0 16 4l10 1q7-1 14 3h7q7 0 14 4l12 2q6 0 11 4h11q4-6 6-14 5-13 18-20 6-1 11 2 7 4 10 13 3 5 8 8 8 9 6 20l-2 3-1 4 5 5v9l-4 5-1 2 3 6q1 10-5 19l-5 4h-3v3q-2 8-8 13-5 4-12 4-14-6-20-20c-6-12-6-12-6-15h-8l-7 3h-3l4 6v6q-7 0-12-4l-6-7-3 1-4 2 6 8v5q-6 1-10-1-7-5-9-11l-7 3q0 5 5 9v4l-1 3q-10-1-15-7-4-4-3-9l-3 1-7 2q1 5 5 9l2 5q-1 3-3 2-6 1-10-2-5-4-7-10 0-4-4-3-2-2-5 2-3 2-1 5l2 3 1 2q1 5 5 9l2 2 5 5q4 2 4 5l12 3 3 1q10 3 20-1h8l1 4q-7 10-19 13-13-1-25-5l-2-1q-15-5-21-18l-5-7-1-2-4-4-4 3-5 1 11 18q5 10 15 16l15 4 1 3v3q-6 3-13 2h-2c-12 0-12 0-16-4v2l-3 5q-7 3-12 1l-11-7v-2l-2-1q-10-6-14-16v-2H7l-7-2 1 2q3 3 1 5v2q-8-1-13-6l-1-2-1 1q-2 4-5 6-7 0-12-5-13-14-15-32l-4-2q-12-3-21-10-4-2-9-2l-32-3h-19l-2-5-7-3-9-4v-4l-5-2q-5-4-8-9-4-7-11-9-4-2-7-8l-9-4-3-4v-4q1-5-3-8v-2l-2-1-7-5 2-7-1-5-4-2-5-5 1-4 1-2 2-1-1-5q-4-30 14-55l7-5 4 3v11q0 4 3 7l-1 9q-1 4 3 4l2 4v3l1 6 5 4 1 8 1 1q2-7 0-14l-1-1 2-6v-2l-2-3q-2-1-2-6l1-3-2-5 1-5 4-1c11 4 17 15 22 25l3 24 4 8 2 1 3 1q1 4-2 7l-1 3 4 1-2 9 2 1-2 8 2 2-1 4-3 2 2 5 2 3q3 6 8 8h3l5 1q4 4 3 7h4q-1-5-6-11a61 61 0 0 1-11-45q4-22 21-36 21-13 47-12l-2-4-2-13 4-4q5 1 6 5l5 3 5 2 1 2 2 4 7 1 2 2q3 4 8 5l3 2 3 1-7-7q-2 0-2-5l-3-5-6-3q-3-3-4-8l-7-3-5-5q-4-5-12-7l-3-4 1-4c19-12 48 0 64 11m-101 60-2 1q-8 9-10 20l-1 3v10l4-6q9-23 32-32l29-7-2-4c-17-3-38 3-50 15m8 20q-12 16-11 34l4 10 3 2v-3c-1-15-1-15 4-20q9-7 20-5l7 4 2 1 8-4q21-10 44-12l3-1h5v-1l-7-1h-2v-4l-5-1-4-1v-7q-4-8-11-10c-18-7-48 6-60 19m65 108 4 8v-6l-1-2zm17 1q3 10 14 16 1-7-1-14l-1-2q-6-2-12 0m32 4-3 2q-1 6 2 11l16 15 3 2 4 2-2-5-2-1q-3-2-4-6l-4-10-1-3-1-2-1-3q-2-3-7-2" style="fill:#110403" transform="translate(240 125)"/><path d="m0 0 1 4 9-2 4 14-1 1v4l-1 4-5 1 1 8-2 7-2 2-7 11-2 4-1 2-4 9q-4 5-3 12l3 5 7 1q9-5 16-14l2-2c7-8 7-8 12-18q3-5 9-8l3-3v-2l-2-1q1-7 6-14V8l1-2V1q10 2 16 9 14 26 8 54-3 15-15 23-6 3-13 2l-2-1H27l-5 5-9-3q-5-3-11-2l-4 4v2l-1 2h-16c-10 0-10 0-14-2l2-1q8-4 12-13v-3l-1 2c-5 9-5 9-10 12l-3 2c-9 3-19-2-27-5q-15-8-26-20 7-8 19-8 13-2 23 8l2 2 5 2q-5-10-16-14a41 41 0 0 0-35 7q-4 4-7 3l-3-2-2-1-5-3 5-5v-4l1-2-2 1-3 1-5-5v-3h3l3-1 2-4q5 0 9 5 6 2 14 1l6-3 3-1 2-5 1-3q2-6 0-13l-1-2v-3l8-4 2-1c13-5 29-11 43-9q6 3 8 8l2 3 3 13q1-9-5-17l-2-5-4-2z" style="fill:#a7463a" transform="translate(245 214)"/><path d="m0 0 3 1q10 5 17 11 2 3 6 3l3-2q2 3 1 5 2 7 6 12l5 1 3-1v2q0 11 8 20h5v2c0 7 0 7 2 13q3 8 1 15l-4 4h-7c-5-1-5-1-10 2l-2 3-3 3h-6l-3 1-1-3h-7v-2l-1-2-4-1-4-1-2-5-7-1 1-2q1-4-2-6h-2l3-10 1-3 3-6q2-4 1-10-1-4-5-6-5-4-5-9-2-3-6-4-3-2-4-5l-1-4-7-4q-3 0-5-4-4-5-11-7l-4-2c9-9 34-2 44 2" style="fill:#ac4438" transform="translate(223 120)"/><path d="M0 0h2v15l2 2v12l4 3 1 6 1 7 4 2 1 8q2 4 5 6 8 3 17 2l8 1 2 6 4 1-1 4h-2v6h4l-3 10h3l-2 4h-2l3 6-2 1-2 1v2l-1 2-5 1-7 2-4 9q-2 3-5 2-8-1-12-8-3-4-8-5l-3-1 1-3q0-6-5-12-3-4-8-6l-1-2 3-1q-2-8-8-14l-2-4 4-1-1-2A68 68 0 0 1-2 2h2z" style="fill:#aa4337" transform="translate(52 134)"/><path d="M0 0q10 2 16 9 14 26 8 54-3 15-15 23-6 3-13 2l-2-1h-11l-5 5-9-3-12-3 8-10 11-12c5-6 5-6 7-12q3-5 9-8l3-3v-2l-2-1q1-7 6-14V7l1-2z" style="fill:#a94438" transform="translate(289 215)"/><path d="M0 0q4 4 4 10l1 2 1 6v2c3 14 3 33-3 46q-4 7-12 7h-10c-1-4-1-4 1-8 7-17 6-39-1-56l-4-7-1-2 1-3q12-4 23 3" style="fill:#a94539" transform="translate(330 222)"/><path d="M0 0h9q7-1 12 3 8 15 6 31v3c0 21 0 21-6 28q-5 4-12 3H6q-3 1-5-2l2-6A98 98 0 0 0 0 0" style="fill:#aa4539" transform="translate(333 223)"/><path d="M0 0c14-1 14-1 20 4q6 13 4 27v3q1 13-5 23-8 5-18 3v-2l1-2v-2Q8 27 0 0" style="fill:#a9453a" transform="translate(357 227)"/><path d="M0 0c15 0 30 0 43 8q4 3 3 8-4 6-11 8l-3 1q-11 3-23 3H0v-3l1-10v-4z" style="fill:#a94639" transform="translate(422 244)"/><path d="M0 0q10-2 17 4l2 1q5 9 3 20v3c0 15 0 15-4 20q-5 4-12 3H1l1-5v-3l2-5Q6 18 0 0" style="fill:#aa463a" transform="translate(379 232)"/><path d="M0 0q5 4 6 10 1 8-5 16-6 4-13 4-7-2-11-7-4-7-2-15 2-6 8-10 9-3 17 2" style="fill:#f9f9f8" transform="translate(217 232)"/><path d="M0 0q6 4 7 11 2 8-4 14-5 4-12 4-7 1-12-5-4-6-3-15 8-16 24-9" style="fill:#f9f9f9" transform="translate(170 228)"/><path d="M0 0h14l13 1-7 15-2 5 3 2-2 1-2 2-2 1-3 4-2 2q-7 0-12-4l-3-2-2-2q0-4 2-6v-9h4V5z" style="fill:#a8463a" transform="translate(260 233)"/><path d="m0 0 1 1q4 5 9 6l3 1 1 3q2 4 6 5h3l4 3 10 5 3 1 3 1-4 7-2 8-1 2h-6Q7 30 0 5z" style="fill:#a8463b" transform="translate(182 143)"/><path d="M0 0q3 0 5 2v11q-1 6-5 11-6 2-12 0-16-6-27-16l-1-3h1z" style="fill:#a7463b" transform="translate(459 270)"/><path d="M0 0q6 4 7 10 2 7-2 12-3 3-7 2l-4-2-33-3q3-5 9-9l2-1Q-15-1 0 0" style="fill:#a94539" transform="translate(458 222)"/><path d="M0 0q7-2 13 3 9 6 8 17 1 10-4 18-5 6-12 5H0l1-3 1-18v-3Q3 9 0 0" style="fill:#a7463b" transform="translate(400 236)"/><path d="m0 0 6 2 2 3 2 1 1-3 5 6 3 1 3 2-1 9v3l-2 6-9 1H4l1-4-3-1h-3l-4-1-8-4 7-13 2-3 1-2 2-2z" style="fill:#a64439" transform="translate(110 257)"/><path d="m0 0 13 7q4 3 7 3l-8 10-3 4-2 1-5 7c-6 7-6 7-12 7h-3q-2-6-1-12l5-10 2-4 2-3z" style="fill:#a8463a" transform="translate(249 259)"/><path d="M0 0q5 1 9 5 11 8 24 11l4 2q1 6-3 11t-9 6-9-2Q5 21-1 5z" style="fill:#a8473b" transform="translate(415 279)"/><path d="M0 0q7 1 12 7 4 4 3 11l-6 1q-14 4-25 14-3 4-5 3l-2-1q1-8 4-15l1-2q6-9 13-15z" style="fill:#a7463b" transform="translate(437 202)"/><path d="M0 0q14 7 19 23 3 9 3 17v8L4 47l1-11v-5l-1-4-1-2 2-3q0-4-3-7-2-4 0-9z" style="fill:#a64539" transform="translate(72 147)"/><path d="M0 0q3 6 2 13v2l-1 9h-14c-7 0-7 0-10-2q-3-7-2-14l3-3 2-2q4-3 9-2z" style="fill:#aa493d" transform="translate(284 207)"/><path d="M0 0q5 6 5 13l-4 6-2 2-2 3-1 2-2 2q-8-1-13-8-3-3-3-8l2-1q4-2 4-5l4-7c9-2 9-2 12 1" style="fill:#a8473b" transform="translate(102 245)"/><path d="M0 0q7 4 10 11 3 10-2 18-5 7-11 8-9 3-18-2-6-5-8-14 0-9 5-16Q-13-5 0 0m-22 9q-4 7-2 13 3 9 11 12 7 2 14-3 6-5 6-13 0-7-4-11-5-5-11-5-9 1-14 7" style="fill:#1c0d0c" transform="translate(216 227)"/><path d="m0 0 7 4q1 3-2 5h-8l-2-6-3 1 2 3 1 4A59 59 0 0 0 6 31l-2 4-5 1-2-4-2-3-1-3-4-8-1-2q-3-6-1-12 5-6 12-4" style="fill:#a2493f" transform="translate(281 304)"/><path d="M0 0v5l-7 2h-5l-3 1q-16 2-30 15l-1 1-5-2c4-9 14-14 22-17q14-5 29-5" style="fill:#883e37" transform="translate(180 162)"/><path d="m0 0 4 2-2 2v3q8 7 18 7 3 0 5 2l3 5-32-1z" style="fill:#a24c41" transform="translate(135 270)"/><path d="m0 0 4 1 2 4 1 2 3 11 2 3-1 8H6Q-1 17 0 2z" style="fill:#a6483c" transform="translate(245 307)"/><path d="M0 0q10 4 13 13l-2 4q-4 2-8 0l-4-4-2-3-3-8q2-3 6-2" style="fill:#a5473e" transform="translate(260 337)"/><path d="m0 0 7 2 16 3 3 1 2 1v6A100 100 0 0 1 0 6l-2-1z" style="fill:#a24e43" transform="translate(319 334)"/><path d="M0 0h3l3 4 12 13 2 2-5 6Q7 21 4 13l-2-2c-3-5-3-5-3-9z" style="fill:#9f4c42" transform="translate(299 312)"/><path d="M0 0h6l3 6 2 4 6 17Q7 22 3 10z" style="fill:#8a4139" transform="translate(219 313)"/><path d="M0 0q5 0 9 4c5 8 5 8 5 12l-1 2H6q-4-4-5-9V6z" style="fill:#954139" transform="translate(199 309)"/><path d="m0 0 4 2-3 10q-4 7-4 14l-1 2h-5q0-15 9-28" style="fill:#913f37" transform="translate(127 185)"/><path d="m0 0 9 8q3 2 2 5 1 3-2 5H4l-2-6 2-3-2 1-3 1-5-5V3l6-1z" style="fill:#2c0706" transform="translate(142 256)"/><path d="m0 0 4 1q1 5-2 8l-3 11-1 5h-6q0-13 8-25" style="fill:#9b463d" transform="translate(136 206)"/><path d="m0 0 8 6 3 2 3 6-1 2-6 1-8-9-2-2-1-5z" style="fill:#a64b40" transform="translate(288 341)"/><path d="m0 0 3 3Q2 8-3 9l-8 8-3 2-4-1-1-2Q-12 6 0 0" style="fill:#9f4940" transform="translate(157 187)"/><path d="M0 0q6 4 6 13c3 15 4 37-3 51l-3 1 1-3Q9 34 1 6z" style="fill:#380c0b" transform="translate(332 225)"/><path d="M0 0h5l1 6v3l1 4v8l1 3 1 9Q-1 18 0 0" style="fill:#913e36" transform="translate(118 215)"/><path d="M0 0h5l1 6q1 10 5 18l-5 2-4-8Q0 12 0 5z" style="fill:#a44a42" transform="translate(128 232)"/><path d="M0 0v5l-8 3h-3l-6 2-3 1h-2l-2-4q6-4 12-5l4-1z" style="fill:#9e4b41" transform="translate(184 179)"/><path d="M0 0c7 13 5 34 3 49l-4 5v-7q3-10 2-21v-4q1-9-2-17z" style="fill:#350b0a" transform="translate(358 231)"/><path d="M0 0q8 1 15 6l1 4q-4 3-9 2L4 9 3 5z" style="fill:#a44e46" transform="translate(249 304)"/><path d="M0 0h4l4 5-15 1V1z" style="fill:#924a40" transform="translate(194 177)"/><path d="M0 0q3 2 3 6 0 14-4 27l-2-1 1-4Q1 14 0 0" style="fill:#451615" transform="translate(381 249)"/><path d="M0 0q10 6 12 17l1 11q-3-4-3-9-3-8-9-15l-2-3z" style="fill:#3c0e0d" transform="translate(232 215)"/><path d="M0 0h1q0 10-7 17l-9 6-1-3 4-2q9-6 11-16z" style="fill:#390d0d" transform="translate(227 286)"/><path d="M0 0q3 4 2 10v20h-3V7z" style="fill:#43110f" transform="translate(401 241)"/><path d="M0 0q3 4 2 7l-8 2-1-7q3-2 7-2" style="fill:#934d47" transform="translate(300 303)"/><path d="m0 0 5 4-1 4Q0 9-2 6q-2-2-2-5z" style="fill:#97463d" transform="translate(140 258)"/><path d="m0 0 5 1 3 6 3 5Q5 10 1 4z" style="fill:#92544e" transform="translate(318 298)"/><path d="M0 0h5l3 7 2 4Q4 9 0 3z" style="fill:#93564f" transform="translate(341 294)"/><path d="M0 0h12l-1 3-7 1H0z" style="fill:#784541" transform="translate(308 186)"/><path d="m0 0 13 1v3H0z" style="fill:#8b4e4e" transform="translate(293 186)"/><path d="M0 0v2l-5 2-2 1-7 1V3l5-2h2z" style="fill:#7d4944" transform="translate(336 182)"/><path d="M0 0h7l6 4H-1z" style="fill:#9b5b54" transform="translate(304 356)"/><path d="m0 0-1 5c-11 10-11 10-16 10l3-4 2-1z" style="fill:#62423f" transform="translate(297 151)"/><path d="m0 0 3 1v7q1 2-2 3l-7 1-1-2 8-1z" style="fill:#4a0f0d" transform="translate(211 281)"/><path d="m0 0 7 7Q2 7-4 2V0z" style="fill:#74433f" transform="translate(273 357)"/><path d="m0 0 7 3h-17q4-4 10-3" style="fill:#461110" transform="translate(181 279)"/><path d="M0 0h3l1 6v7l-2 2Q-1 8 0 0" style="fill:#2d0d0c" transform="translate(125 232)"/><path d="m0 0 2 1-4 4 13 1v1H-6q2-5 6-7" style="fill:#864843" transform="translate(425 234)"/><path d="m0 0 4 2-1 4-3 1-3-2z" style="fill:#98463f" transform="translate(147 265)"/><path d="m0 0 5 1c4 5 4 5 4 8Q5 9 3 5z" style="fill:#915a54" transform="translate(362 290)"/><path d="m0 0 6 3 3 2 2 2v2L0 4z" style="fill:#754441" transform="translate(274 349)"/><path d="M0 0v2l-4 2-2 1-4 1 1-4z" style="fill:#8e5853" transform="translate(360 339)"/><path d="M0 0q4 0 6 3l1 2 1 2 1 2-1 2-4-4-2-3z" style="fill:#684140" transform="translate(207 329)"/><path d="m0 0 9 7-1 2-7-4z" style="fill:#854f47" transform="translate(233 326)"/><path d="m0 0 5 1 4 7Q4 7 0 1z" style="fill:#714743" transform="translate(383 286)"/><path d="m0 0 2 1-3 3-2 1c-4 4-4 4-8 4V7l5-3z" style="fill:#6b4442" transform="translate(349 173)"/><path d="M0 0h6l1 4H1z" style="fill:#7d4945" transform="translate(284 185)"/><path d="M0 0h4l2 5H0z" style="fill:#7a3f3b" transform="translate(181 162)"/><path d="m0 0 3 1-1 4v2L1 9l-3 1z" style="fill:#401211" transform="translate(358 275)"/><path d="M0 0h6l3 3H-2z" style="fill:#300807" transform="translate(76 194)"/><path d="M0 0h4l2 5H4L3 9 2 6z" style="fill:#3f0f0d" transform="translate(272 307)"/><path d="M0 0h1L0 10l-3 1 1-5 1-4z" style="fill:#2b0908" transform="translate(401 268)"/><path d="M0 0h2l3 3 1 2 1 2-1 2-3-3-2-1z" style="fill:#664343" transform="translate(214 326)"/></svg>