<svg version="1.2" xmlns="http://www.w3.org/2000/svg" viewBox="0 0 1080 1080">
	
	<path id="Color Fill 1" fill-rule="evenodd" d="m555.57 98.54c4.68 0.74 12.78 2.45 18 3.79 5.23 1.34 14.23 4.32 20 6.61 5.78 2.29 14.78 6.43 20 9.2 5.23 2.77 14.45 8.34 20.5 12.37 6.05 4.03 14.83 10.37 19.5 14.09 4.68 3.72 16.61 14.89 26.53 24.83 12.39 12.42 24.78 26.35 39.65 44.57l21.62 26.5c9.07 1.17 17.1 2.84 23.7 4.45 6.6 1.62 16.95 4.46 23 6.33 6.05 1.87 16.4 5.55 23 8.18 6.6 2.63 18.3 7.93 26 11.78 7.7 3.86 18.5 9.72 24 13.04 5.5 3.31 12.7 7.84 16 10.05 3.3 2.22 10.95 7.72 17 12.23 6.05 4.51 15.95 12.47 22 17.67 6.05 5.21 16.63 15.06 23.5 21.91l12.5 12.44c24.68 1.1 31.24 1.94 36.5 3.44 4.13 1.17 10.88 3.71 15 5.63 4.13 1.92 10.43 5.44 14 7.83 3.58 2.39 9.93 7.88 14.11 12.19 4.19 4.3 9.33 10.53 11.44 13.83 2.1 3.3 5.28 9.15 7.05 13 1.78 3.85 4.26 10.82 5.52 15.5 1.92 7.08 2.3 11 2.3 23.5 0 12.48-0.39 16.43-2.29 23.5-1.25 4.68-4.04 12.1-6.18 16.5-2.15 4.4-5.37 10.72-7.17 14.04-1.8 3.32-4.73 9.17-6.51 13-1.78 3.83-5.74 10.11-8.79 13.96-3.05 3.85-8.57 9.61-12.26 12.8-4.1 3.53-10.62 7.7-16.72 10.67-5.5 2.68-13.37 5.62-17.5 6.54-4.51 1.01-11.87 1.68-18.5 1.68-6.58 0-14.01-0.67-18.5-1.67-4.12-0.91-12-3.88-17.5-6.58-5.88-2.9-12.76-7.29-16.71-10.68-3.7-3.17-9.21-8.91-12.26-12.76-3.05-3.85-7.08-10.15-8.95-14-1.88-3.85-4.36-10.38-5.51-14.5-1.15-4.13-3.62-11.1-5.49-15.5-1.87-4.4-3.96-10.7-4.64-14-1.04-5.06-1.4-5.69-2.24-4-0.6 1.21-0.78 7.34-0.45 15.5 0.38 9.36 1.19 15.72 2.65 20.75 1.16 3.99 3.48 10.29 5.17 14 1.69 3.71 5.18 9.89 7.75 13.73 2.58 3.83 7.61 9.93 11.18 13.54 3.58 3.61 9.43 8.55 13 10.97 3.58 2.42 9.65 5.85 13.5 7.63 3.85 1.78 10.6 4.27 15 5.54 6.87 1.98 10.26 2.31 24 2.31 13.74 0 17.13-0.33 24-2.31 4.4-1.27 11.15-3.76 15-5.54 3.85-1.77 9.25-4.74 12-6.6 2.75-1.86 7.38-5.44 10.28-7.95 2.9-2.51 5.44-4.34 5.66-4.07 0.21 0.27 1.11 5.67 2 12 0.9 6.33 1.9 18.25 2.23 26.5 0.38 9.16 0.15 19.09-0.57 25.5-0.64 5.77-2.1 15.23-3.23 21-1.14 5.77-4.05 16.58-6.48 24-2.42 7.42-7.06 18.9-10.3 25.5-3.24 6.6-8.25 15.6-11.12 20-2.87 4.4-8.03 11.6-11.47 16-3.43 4.4-12.94 14.52-21.13 22.5-8.19 7.98-18.94 18.11-23.88 22.51-4.94 4.41-12.81 11.19-17.49 15.07-4.67 3.88-12.55 10.2-17.5 14.04-4.95 3.85-13.73 10.34-19.51 14.44-5.79 4.09-16.04 10.81-22.8 14.94l-12.27 7.5c-3.26 10.08-6.89 19.08-10.16 26.5-3.27 7.42-8.7 18.9-12.07 25.5-3.37 6.6-8.79 16.05-12.05 21-3.26 4.95-8.5 12.15-11.64 16-3.14 3.85-9.72 10.83-14.62 15.5-4.89 4.67-12.72 11.23-17.39 14.56-4.67 3.34-11.64 7.89-15.49 10.13-3.85 2.24-10.6 5.87-15 8.07-4.4 2.2-14.07 6.27-21.5 9.03-7.42 2.77-18.9 6.51-25.5 8.33-10.1 2.77-13.74 3.3-23 3.34-9.42 0.03-11.57-0.27-15-2.12-2.2-1.19-5.17-3.44-6.61-5-1.43-1.56-3.31-4.19-4.18-5.84-0.86-1.65-2.06-4.58-2.65-6.5-0.6-1.92-1.09-7.1-1.08-11.5 0.01-4.4 0.5-10.7 1.09-14 0.6-3.3 2.21-10.05 3.59-15 1.38-4.95 4.55-14.17 7.05-20.5 2.49-6.33 7.4-17.58 10.91-25 3.51-7.42 6.27-13.57 6.13-13.66-0.14-0.08-6.32 0.47-13.75 1.22-7.42 0.76-16.87 1.39-21 1.41-4.12 0.02-10.87-0.63-15-1.44-4.12-0.81-11.77-2.62-17-4.03-5.22-1.41-16.25-4.86-24.5-7.67-11.7-3.99-15.09-4.81-15.41-3.73-0.23 0.77-3.01 6.57-6.18 12.9-3.17 6.33-10.68 18.92-16.67 28-6 9.08-14.52 21-18.93 26.5-4.41 5.5-12.47 14.22-17.91 19.38-5.45 5.15-14.17 12.35-19.4 16-5.22 3.64-15.35 9.58-22.5 13.19-7.2 3.65-18.8 8.43-26 10.74-7.15 2.29-16.15 4.88-20 5.76-3.85 0.89-11.95 2.48-18 3.54-6.05 1.06-16.85 2.22-24 2.56-9.11 0.44-14.64 0.25-18.5-0.65-3.02-0.71-7.07-2.08-9-3.05-1.92-0.96-4.8-3.04-6.39-4.61-1.6-1.57-3.84-4.88-4.98-7.36-1.66-3.59-2.06-6.33-1.97-13.5 0.09-7.25 0.73-10.85 3.29-18.5 1.75-5.23 5.69-14.45 8.75-20.5 3.07-6.05 7.62-14.38 10.11-18.5 2.49-4.13 7.09-11.33 10.22-16 3.13-4.67 9.87-14.13 14.99-21 5.11-6.88 14.04-18.35 19.83-25.5 5.79-7.15 16.24-19.52 23.22-27.5 6.97-7.98 13.65-15.4 14.84-16.5 1.19-1.1 2.14-2.34 2.12-2.75-0.01-0.41-2.84-2.28-6.28-4.16-3.44-1.87-10.52-6.21-15.75-9.64-5.22-3.42-12.14-8.3-15.38-10.84-3.23-2.53-8.58-7.76-11.89-11.61-3.31-3.85-16.92-19.15-30.25-34-13.33-14.85-30.7-34.46-38.61-43.59-7.9-9.12-17.74-20.67-21.87-25.66l-7.5-9.08c-12.21 23.51-19.17 35.73-23.36 42.33-4.18 6.6-11.47 17.17-16.21 23.5-4.74 6.33-12.8 16-17.92 21.5-5.12 5.5-12.5 12.83-16.41 16.3-3.9 3.46-11.6 9.36-17.1 13.1-5.5 3.75-13.37 8.65-17.5 10.89-4.12 2.24-12.9 6.28-19.5 8.99-6.6 2.7-21.67 8.1-33.5 12-11.82 3.89-31.62 9.98-44 13.52-12.37 3.55-23.85 6.7-25.5 7.01-1.65 0.31-4.8 0.15-7-0.36-2.2-0.51-5.12-2.02-6.5-3.35-1.37-1.33-3.12-4.38-3.89-6.76-0.78-2.46-1.34-8.02-1.27-12.84 0.06-4.67 1.03-13.9 2.16-20.5 1.12-6.6 4.08-20.1 6.57-30 2.48-9.9 6.56-24.98 9.05-33.5 2.49-8.52 6.09-19.77 8-25 1.91-5.23 7.02-16.7 11.35-25.5 4.34-8.8 11.92-22.08 16.87-29.5 4.94-7.42 12.06-17.32 15.82-22 3.76-4.67 11.79-13.61 17.84-19.87 6.05-6.26 15.05-14.85 20-19.1 4.95-4.24 12.83-10.53 17.5-13.98 4.68-3.44 8.6-6.55 8.72-6.9 0.12-0.36-4.38-3.13-10-6.15-5.62-3.02-15.62-9.1-22.23-13.5-6.6-4.4-16.73-11.89-22.5-16.64-5.77-4.75-13.2-11.5-16.51-15-3.31-3.5-8.08-8.84-10.6-11.86-2.52-3.02-6.71-8.65-9.33-12.5-2.61-3.85-6.92-11.5-9.57-17-2.65-5.5-5.98-14.05-7.41-19-1.43-4.95-3.26-14.4-4.08-21-0.81-6.6-2.41-19.65-3.54-29-1.14-9.35-3.39-23.64-5.01-31.75-1.62-8.11-5.02-21.39-7.56-29.5-2.54-8.11-5.24-17-5.99-19.75-0.75-2.75-1.37-7.14-1.38-9.75 0-2.61 0.61-5.99 1.37-7.5 0.79-1.58 3.22-3.6 5.73-4.75 3.74-1.72 6.45-2 19.37-1.99 11.89 0.01 17.32 0.5 26.02 2.35 6.05 1.28 15.28 3.68 20.5 5.34 5.23 1.66 13.78 4.81 19 7.02 5.23 2.2 15.35 6.97 22.5 10.61 7.15 3.63 18.63 10.37 25.5 14.97 6.88 4.6 16.77 11.81 21.99 16.03 5.22 4.22 15.38 13.52 22.57 20.67 7.2 7.15 16.9 17.73 21.57 23.5 4.66 5.77 10.82 13.76 13.67 17.75 2.86 3.99 8.24 12.1 11.95 18.03 3.71 5.94 9.45 15.83 12.75 21.99 3.3 6.16 6.23 11.22 6.5 11.24 0.28 0.02 2.61-3.01 5.19-6.73 2.58-3.73 19.72-22.06 38.13-40.78l33.44-34c-0.81-34.11-0.56-47.76 0.1-54.5 0.61-6.32 1.81-15.55 2.66-20.5 0.86-4.95 2.86-14.18 4.45-20.5 1.59-6.32 4.97-17.35 7.49-24.5 2.53-7.15 7.17-18.62 10.32-25.5 3.14-6.87 8.82-17.9 12.6-24.5 3.79-6.6 10.07-16.72 13.95-22.5 3.88-5.78 10.65-15.22 15.04-21 4.38-5.78 11.83-14.99 16.55-20.47 4.72-5.48 13.76-15.3 20.08-21.82 10.56-10.88 12-12.01 17.5-13.69 3.3-1.01 10.05-2.55 15-3.42 5.55-0.98 14.18-1.56 22.5-1.5 7.43 0.05 17.33 0.7 22 1.44zm179.5 272.99c-7.05 0.24-13.6 1.1-18.25 2.42-3.99 1.13-10.51 3.67-14.5 5.65-3.99 1.98-9.72 5.52-12.75 7.87-3.02 2.35-7.54 6.47-10.04 9.15-2.5 2.68-5.93 6.9-7.62 9.38-1.69 2.47-4.48 7.31-6.21 10.75-1.72 3.44-4.12 9.74-5.33 14-1.76 6.19-2.2 10.37-2.2 20.75 0 10.51 0.44 14.53 2.27 21 1.25 4.4 4.03 11.37 6.18 15.5 2.14 4.12 6.05 10.18 8.67 13.45 2.63 3.27 7.93 8.58 11.78 11.79 3.85 3.22 10.38 7.61 14.5 9.76 4.13 2.14 11.1 4.88 15.5 6.07 6.28 1.69 10.81 2.16 21 2.16 9.81 0 14.84-0.49 20.5-2 4.13-1.09 10.65-3.57 14.5-5.5 3.85-1.93 9.7-5.53 13-8.01 3.3-2.47 8.05-6.69 10.55-9.36 2.5-2.67 6.38-7.56 8.63-10.86 2.24-3.3 5.21-8.7 6.61-12 1.39-3.3 3.34-8.93 4.32-12.5 1.31-4.73 1.8-10.04 1.79-19.5-0.01-10.35-0.46-14.58-2.2-20.75-1.21-4.26-3.6-10.56-5.32-14-1.71-3.44-5.02-8.95-7.36-12.25-2.33-3.3-7.12-8.67-10.63-11.93-3.51-3.25-8.64-7.36-11.39-9.12-2.75-1.76-7.7-4.34-11-5.73-3.3-1.4-8.7-3.22-12-4.06-3.3-0.84-7.35-1.75-9-2.01-1.65-0.27-7.95-0.32-14-0.12zm226 2c-7.05 0.24-13.6 1.1-18.25 2.42-3.99 1.13-10.51 3.67-14.5 5.65-3.99 1.98-9.72 5.52-12.75 7.87-3.02 2.35-7.54 6.47-10.04 9.15-2.5 2.68-5.93 6.9-7.62 9.38-1.69 2.47-4.48 7.31-6.21 10.75-1.72 3.44-4.12 9.74-5.33 14-1.76 6.19-2.2 10.37-2.2 20.75 0 10.51 0.44 14.53 2.27 21 1.25 4.4 4.03 11.37 6.18 15.5 2.14 4.12 6.05 10.18 8.67 13.45 2.63 3.27 7.93 8.58 11.78 11.79 3.85 3.22 10.38 7.61 14.5 9.76 4.13 2.14 11.1 4.88 15.5 6.07 6.28 1.69 10.81 2.16 21 2.16 9.81 0 14.84-0.49 20.5-2 4.13-1.09 10.65-3.57 14.5-5.5 3.85-1.93 9.7-5.53 13-8.01 3.3-2.47 8.05-6.69 10.55-9.36 2.5-2.67 6.38-7.56 8.63-10.86 2.24-3.3 5.21-8.7 6.61-12 1.39-3.3 3.34-8.93 4.32-12.5 1.31-4.73 1.8-10.04 1.79-19.5-0.01-10.35-0.46-14.58-2.2-20.75-1.21-4.26-3.6-10.56-5.32-14-1.71-3.44-5.02-8.95-7.36-12.25-2.33-3.3-7.12-8.67-10.63-11.93-3.51-3.25-8.64-7.36-11.39-9.12-2.75-1.76-7.7-4.34-11-5.73-3.3-1.4-8.7-3.22-12-4.06-3.3-0.84-7.35-1.75-9-2.01-1.65-0.27-7.95-0.32-14-0.12zm-315.9 94.97l-0.91 3.5c-0.5 1.92-0.67 9.35-0.39 16.5 0.35 8.92 1.17 15.28 2.61 20.25 1.15 3.99 3.47 10.29 5.16 14 1.69 3.71 5.18 9.89 7.75 13.73 2.58 3.83 7.61 9.93 11.18 13.54 3.58 3.61 9.43 8.55 13 10.97 3.58 2.42 9.65 5.85 13.5 7.63 3.85 1.78 10.6 4.27 15 5.54 6.87 1.98 10.26 2.31 24 2.31 13.74 0 17.13-0.33 24-2.31 4.4-1.27 11.15-3.76 15-5.54 3.85-1.77 9.25-4.74 12-6.59 2.75-1.86 7.65-5.66 10.89-8.45 3.24-2.8 8.6-8.68 11.91-13.08 3.32-4.4 7.72-11.6 9.8-16 2.07-4.4 4.72-11.38 5.9-15.5 1.27-4.46 2.34-11.76 3.15-28.5l-3.35 7.5c-1.84 4.12-4.73 9.75-6.41 12.5-1.69 2.75-3.65 6.8-4.35 9-0.71 2.2-2.81 7.15-4.66 11-1.85 3.85-5.86 10.15-8.91 14-3.04 3.85-8.56 9.61-12.25 12.8-4.1 3.53-10.62 7.7-16.72 10.67-5.5 2.68-13.37 5.62-17.5 6.54-4.51 1.01-11.87 1.68-18.5 1.68-6.77 0-13.88-0.66-18.5-1.71-4.12-0.94-10.65-3.14-14.5-4.89-3.85-1.76-9.47-4.82-12.5-6.8-3.02-1.98-8.42-6.48-12-9.98-3.57-3.51-8.6-9.51-11.17-13.35-2.57-3.83-6.03-10.34-7.69-14.46-1.66-4.13-3.33-9.53-3.72-12-0.38-2.48-2.39-8.55-4.46-13.5-2.08-4.95-4.36-11.7-5.07-15zm224.9 134c-7.15 0.19-16.6 1.09-21 2-4.4 0.9-11.26 3.19-15.25 5.07-4.48 2.12-9.27 5.43-12.56 8.68-2.93 2.89-6.94 8.17-8.91 11.75-1.97 3.58-5.71 12.35-8.31 19.5-2.6 7.15-5.63 15.25-6.72 18-1.1 2.75-2.48 9.5-3.08 15-0.88 8.18-0.79 11.64 0.47 19 0.93 5.41 2.87 11.79 4.86 16 2.3 4.86 5.32 9 9.91 13.55 4.69 4.67 9.04 7.77 15.09 10.79 5.65 2.81 11.86 4.92 18.5 6.3 8.14 1.68 12.25 1.97 22 1.53 6.94-0.3 15.17-1.35 19.5-2.48 4.13-1.07 9.87-3.12 12.75-4.57 2.89-1.44 7.09-4.31 9.33-6.37 2.24-2.06 4.93-5.55 5.98-7.75 1.06-2.2 1.91-5.58 1.91-7.5-0.01-1.92-0.93-5.53-2.05-8-1.33-2.95-5.37-7.66-21.42-22.81l3.46-4.35c2.16-2.72 6.57-12 11.79-24.84 4.58-11.28 9.45-22.75 10.81-25.5 1.47-2.97 2.46-6.72 2.46-9.25-0.01-2.34-0.49-5.49-1.08-7-0.58-1.51-2.49-4.25-4.25-6.09-1.75-1.83-4.76-4.14-6.69-5.13-1.92-0.99-6.87-2.51-11-3.39-4.12-0.88-8.85-1.79-10.5-2.04-1.65-0.24-8.85-0.29-16-0.1zm-39 65.3c2.75 0.95 7.93 3.37 11.5 5.36 3.58 2 10.33 6.44 15 9.88 4.68 3.44 11.88 9.21 16 12.84 4.13 3.63 11.45 10.2 16.28 14.61 6.12 5.58 8.76 8.69 8.75 10.26-0.01 1.24-1.26 3.28-2.78 4.54-1.51 1.26-5.22 3.25-8.25 4.41-3.02 1.17-8.65 2.67-12.5 3.35-4.33 0.76-11.37 1.02-18.5 0.68-7.8-0.38-13.42-1.21-17.5-2.62-3.3-1.13-8.81-3.87-12.25-6.09-3.52-2.26-7.73-6.09-9.66-8.77-1.87-2.61-4.24-7-5.25-9.75-1.38-3.78-1.84-7.82-1.84-16.5 0-8.48 0.47-12.75 1.75-16.25 0.97-2.61 2.77-5.43 4-6.26 1.24-0.83 4.05-1.49 6.25-1.47 2.2 0.03 6.25 0.83 9 1.78z" style="fill:#ffffff"/>
</svg>