<svg xmlns="http://www.w3.org/2000/svg" style="display:block" viewBox="0 0 500 500"><path d="M0 0c9 35-4 70-25 97-12 16-12 16-9 32l8 13 4 6c9 16 23 58 0 69-20 2-25-16-24-32l-2-16-2 3q-16 23-43 36l-6 4 8 3 3 1h4c33 7 33 7 32 22q-4 7-11 10l-4 2c-20 8-47-1-63-14-4-3-4-3-9-2l-3 1-7 2q-8 3-17 2h-5l-8-1q-14 1-25 11l-3 1-37 27c-32 23-68 39-109 39h-4c-53 0-53 0-51-20q4-6 11-9 10-4 19-11l3-3 4-5 4-2 2-5 4-7q39-50 38-113c0-15 0-32 11-44q2-6-6-9l-11-9-2-2-13-14-2-3c-16-19-37-53-33-79 7 0 6 2 9 8l2 4 2 5q4 11 11 20l1 2 6 7 1 3 10 11 2 2q16 14 35 24V56q1-12 14-9 13 4 24 13 5 3 12 0 33-8 68-13l54-9 3-1c28-6 59-15 82-32l3-2q9-7 14-16C-15-30-4-12 0 0" style="fill:#2c3b56" transform="translate(448 109)"/><path d="M0 0c9 35-4 70-25 97-12 16-12 16-9 32l8 13 4 6c9 16 23 58 0 69-20 2-25-16-24-32l-2-16-2 3q-16 23-43 36l-6 4 8 3 3 1h4c33 7 33 7 32 22q-4 7-11 10l-4 2c-20 8-47-1-63-14-4-3-4-3-9-2l-3 1-7 2q-8 3-17 2h-5l-8-1q-14 1-25 11l-3 1-37 27c-32 23-68 39-109 39h-4c-53 0-53 0-51-20q4-6 11-9 10-4 19-11l3-3 4-5 4-2 2-5 4-7q39-50 38-113c0-15 0-32 11-44q2-6-6-9l-11-9-2-2-13-14-2-3c-16-19-37-53-33-79 7 0 6 2 9 8l2 4 2 5q4 11 11 20l1 2 6 7 1 3 10 11 2 2q16 14 35 24V56q1-12 14-9 13 4 24 13 5 3 12 0 33-8 68-13l54-9 3-1c28-6 59-15 82-32l3-2q9-7 14-16C-15-30-4-12 0 0m-370 4q9 32 31 57l2 3c14 16 14 16 32 28l-4 8q-10 15-9 32c1 31-2 56-15 84l-1 3q-14 31-36 56l-2 2q-11 11-27 18-5 1-4 7c9 7 20 6 31 7q9 1 7 3c57 6 105-28 149-60l9-8 3-2 4-2 2-2q11-6 24-4c18 1 18 1 34-6h-3q-10 0-20-5c-28-13-58 15-78 32l-21 17a171 171 0 0 1-73 35h-3c-8 2-8 2-11 1l4-1c40-7 69-25 99-51 57-48 57-48 87-33q8 4 17 3 8-1 14 5c17 17 52 26 70 7q4-10-8-13l-18-3c-21-4-43-14-35-39 14-30 55-49 84-30 12 13 14 29 15 46v7c17-9-3-51-10-61l-4-8q-6-10-16-15l-3 4c-12 18-34 22-49 7q-14-17-6-37c3-9-54-20-63-21-40-5-40-5-79 0q5 9 14 10v2q-16-7-27-21-7-7-15-11l-4-2c-3-1-10-3-13 0v12c0 10 0 10-3 12v-4l-6-3q-18-7-31-21-3-4-5-3l-2-4-13-15-2-2-11-19z" style="fill:#040508" transform="translate(448 109)"/><path d="m0 0 1 3 2 3c5 14 3 32-1 45l-1 4q-8 26-27 45l-9 14-4 2-3-8c-8-17-30-21-45-12l-7 6-10-2-3-1-3-1q-29-10-60-14h-2l-32-1-26 1h-11q-6-1-6-6l9-2 3-1q36-8 72-13l46-8h3l27-8q35-9 62-30l4-2q6-6 9-13 6-9 12-1" style="fill:#2c3b56" transform="translate(438 98)"/><path d="m0 0 1 4c2 8 5 28-5 31-13-4-13-20-13-32q1-11-6-20-4 2-6 6c-7 13-41 49-59 42-17-17 0-38 15-49C-45-37-9-37 0 0" style="fill:#9cacb9" transform="translate(424 287)"/><path d="M0 0q0 34-35 32C-51 26-61 8-53-8-41-29-3-30 0 0" style="fill:#fbfbfb" transform="translate(318 273)"/><path d="M0 0q-1 34-35 32l-8-4-3-2a29 29 0 0 1 1-43C-29-28-2-23 0 0" style="fill:#fbfbfb" transform="translate(395 215)"/><path d="M0 0q10 4 21 4c-9 9-27 6-38 6q-12-1-22 6l-4 2-3 2-4 3-8 6c-40 30-84 61-137 58 0-2 7-2 9-2q50-8 89-40l2-2 15-12C-28-13-28-13 0 0" style="fill:#9cabb6" transform="translate(287 333)"/><path d="M0 0c0 21-20 37-40 32-21-6-30-27-21-46C-46-43-2-33 0 0m-59 11c7 16 26 23 41 13C-3 13-1-7-14-20c-23-17-55 2-45 31" style="fill:#0b0c10" transform="translate(323 277)"/><path d="M0 0c2 29-12 55-29 78q-8 11-12 23 1 3-2 1c-11-6 3-23 8-29l5-7Q-5 39-1 2z" style="fill:#97a4af" transform="translate(446 129)"/><path d="M0 0v9q1 2-3 5-3-1-1-6c2-29-8-60-43-56-23 5-59 25-51 53l1 3c-8 0-5-12-5-18C-84-67-3-63 0 0" style="fill:#0c0f15" transform="translate(429 305)"/><path d="m0 0 2 5c11 19 28 28 48 36 27 10 40 22 49 49q5 13 17 18 1 3-2 2c-12-4-16-14-20-25-10-25-24-33-48-42a95 95 0 0 1-29-16C13 24-8 0 0 0" style="fill:#060811" transform="translate(154 207)"/><path d="m0 0-2 10v3c-5 23-15 39-29 56l-11 15q-1 3-3 1c2-9 10-17 16-23Q-7 37-4 4q1-6 4-4" style="fill:#0c0e15" transform="translate(446 129)"/></svg>