<svg xmlns="http://www.w3.org/2000/svg" style="display:block" viewBox="0 0 500 500"><path d="M0 0c60-1 121 18 173 47l2 1c8 5 8 5 10 8v5q-2 3-5 2-9 0-16-5-41-15-81-25l-4-1c-23-5-54-10-76 4q-7 6-8 14c0 20 18 40 30 54 30 36 30 36 29 54l-5 11q8-1 13-7l8-7c27-24 27-24 44-24l4 1 1 9-4 10q-17 44-5 90 4 11 0 20-5 3-9 1-19-7-34-21c-8-7-8-7-16-10v2c3 15-3 26-9 39l-9 19v3q-5 14-5 29v3l3 24q2 6 1 11a51 51 0 0 1-21 0q-30-5-57-20-5-4-12-3 6 22 22 39l1 4-1 3-18-4q-27-10-42-34c1 18 1 18 8 35q3 3 1 5 0 2-2 3l-9-3-2-1-16-13-2-2q-15-15-20-35c-2-10-6-14-14-20q-19-15-31-36l-1-3-2-2-4-6-2 1q-10 2-19-2-9-9-14-22l-7-15q-3-6-2-13 2-4 8-6 14 1 27 9l4 2v-17l-6-2q-10-6-14-18-3-14 4-26 6-8 16-12h4v-2q2-7 10-12 5-4 7-11 15-31 40-51 8-6 14-13A161 161 0 0 1 0 0" style="fill:#090908" transform="translate(286 62)"/><path d="m0 0 18 7 2 7 7 24 4 12 1 2q10 30 16 61v2l3 44v4q1 22-3 44l-1 3-3 17-1 3-2 8v3c-4 14-4 14-9 18l-3 2-2 1q-16 9-34 11-3 0-5-4v-6l3-13a290 290 0 0 0 6-53l2 1h2l2 1q9 3 16 0 11-9 14-22l6-12c4-7 4-7 4-16l-4-3c-12-2-23 5-33 11l-7 6-3 1v-2a525 525 0 0 0-22-92 214 214 0 0 1-8-56l3-15c8-4 23-1 31 1" style="fill:#f5dd12" transform="translate(227 122)"/><path d="M0 0v3a241 241 0 0 0 15 96q8 24 11 49l1 3c2 16 2 16-1 20l-1 2-4 3v4l2 1q3 3 3 7l2 1h-5q2 4 6 6 1 36-9 70l-2-1h-2l-3-1-7-2 1 4 5 2 7 4 2 1q12 9 17 23l10 20q-28-7-44-32l-12-24h-3l3 13-19-5-2-1-2-1-2-1-5-4 3-1q30-15 42-47 10-35 5-71l-3 1v2c3 31 2 66-19 91l-2 2-2 2q-4 6-11 10h-2l-5-16-1-3-1-3a123 123 0 0 1-3-37v-44h2q15 3 27-4 9-7 11-18 2-15-6-28l-7-6-2-1c-7-5-17-3-25-3q-1-22 3-44l1-4 7-20v-2q4-9 14-13z" style="fill:#2b364a" transform="translate(191 122)"/><path d="m0 0 2 1-1 2q-13 31-12 67c0 7 0 7-3 10l-3 3q-4 1-5 6l-1 2q-5 13 0 26 3 6 7 9 6 6 5 14v40q0 18 4 35v2l5 15 1 9q-7 4-15 3l-9-7-2-2q-15-13-25-31-7-12-19-20-3-2-3-7v-2c19 0 19 0 27 2v-4q-10-2-21-2h-10q1-9 7-14 7-4 14-3 10 2 16 10l2 3q2 4 5 4h3q5-6 3-14-1-12-9-22l-1-2-1-2q-1-4 2-9 6-14 2-28c-7-21 7-52 16-70l1-3q5-11 14-18l2-2z" style="fill:#fbfbfb" transform="translate(161 134)"/><path d="M0 0q12 3 19 14l6 13a566 566 0 0 1 26 78 245 245 0 0 1-2 99v2c-4 15-17 27-30 35l4-18 5-23v-2l2-17A333 333 0 0 0 2 11L1 8z" style="fill:#293548" transform="translate(250 133)"/><path d="m0 0 3 1q32 11 63 26l3 1 3 2 2 1 3 3-57-19Q2 9-18 6l-2-1c-32-6-69-11-98 7q-14 11-17 29l-11-3q-17-5-36-5 4-18 20-29C-114-25-50-16 0 0" style="fill:#f8f8f6" transform="translate(380 82)"/><path d="M0 0h13l6 1-1 4c-3 27 3 53 10 79a490 490 0 0 1 12 69l-11 8-4 3-4 2-1-2A525 525 0 0 0-1 72a214 214 0 0 1-8-56l3-15z" style="fill:#fcfcf9" transform="translate(202 120)"/><path d="M0 0q28 29 43 66l1 3 3 5q2 8 9 11 9 1 16-4l10-9 1 2-2 5q-5 13-4 27v3q-1 18 6 34l1 4h-2v-2l-2-1-10-6q-6-4-13-3c-9 4-11 15-15 24v2l-1 2-3 3v-2q5-26 4-53v-3q-1-33-15-62h-2l3 11 6 18v2q5 21 4 43v2q1 20-3 41v3l-2 7v2q-1 6-5 10l2-14A256 256 0 0 0 1 4z" style="fill:#f3db15" transform="translate(275 152)"/><path d="m0 0 2 1q8 3 17 3v13q0 10 6 19l9 2v-2l4-3 3-2 6-3-5 22q0 7-7 13l-8 3Q12 75-4 76q-3 0-5-4v-4z" style="fill:#d8e0e6" transform="translate(224 319)"/><path d="M0 0q10 6 13 16 2 15-6 27-7 8-19 9-10-1-17-7-9-10-9-24 2-12 12-20 12-6 26-1" style="fill:#fcfcfb" transform="translate(177 214)"/><path d="m0 0-6 10a98 98 0 0 0-16 73q5 17 14 32l1 4q-15-3-25-15a96 96 0 0 1-7-68l5-12C-29 14-12-1 0 0" style="fill:#171717" transform="translate(397 199)"/><path d="M0 0q7 5 10 14 3 12-4 23-6 7-16 9-10 1-18-5-8-9-8-21 0-10 7-17Q-16-8 0 0" style="fill:#fbfbfb" transform="translate(113 217)"/><path d="m0 0 1 1Q0 11-5 19l-3 6-2 2-5 11q-3 5-8 8-9 1-16-4l-3-1q-5-1-8-6v-5C-40 16-18-2 0 0" style="fill:#f3db13" transform="translate(265 272)"/><path d="m0 0 1 7C0 31 21 53 35 70c25 30 25 30 24 46q-2 6-5 7l-2 1-1-2-21-42-2-3Q16 57-1 40q-6-5-6-12v-4Q-9 12-2 2z" style="fill:#efd816" transform="translate(275 104)"/><path d="M0 0c16 2 25 11 36 21 13 13 13 13 28 20q3 7 3 15-7 4-15 3l-9-7-2-2Q26 37 16 19 10 9 0 0" style="fill:#d7e0e7" transform="translate(93 319)"/><path d="M0 0h1v2q2 27 14 51l2 8q-8 0-14-4l-2-1c-11-8-23-19-28-32l2-1q14-9 24-22z" style="fill:#2b374a" transform="translate(295 356)"/><path d="m0 0 11 1 1 2q2 4 6 4l7 4 2 1q12 9 17 23l10 20Q25 47 9 21l-5-9-1-2-1-2-1-2z" style="fill:#2e3946" transform="translate(185 382)"/><path d="m0 0 2 1q8 3 17 3v13q0 10 6 19l7 2C23 45 7 52-4 51l1-15z" style="fill:#fcfcfa" transform="translate(224 319)"/><path d="m0 0 13 5 8 2q4 1 6 4 5 10 6 21l3 19Q17 41 7 22l-1-3Q1 10 0 0" style="fill:#262d3c" transform="translate(153 389)"/><path d="M0 0q4 3 4 7 0 12-7 23-19 33-18 70-3-4-4-9l-1-3-2-22-1-3q0-9 6-17l8-13 1-3Q-7 18-2 5z" style="fill:#edd618" transform="translate(329 294)"/><path d="M0 0a66 66 0 0 1 16 24l4 9 1 3 1 2 1 2 2 8 3 9 6 18v2q5 21 4 43v2q1 20-3 41v3l-2 7v2q-1 6-5 10l2-14A256 256 0 0 0 1 4z" style="fill:#eeeeea" transform="translate(275 152)"/><path d="M0 0v1h-2c-17 4-34 7-45 22q-5 9-7 19l-11-3q-6-3-13-3l3-1 1-2c5-12 18-20 29-25l17-5 4-1z" style="fill:#f0d91b" transform="translate(299 81)"/><path d="M0 0q13 1 25 9l-4 6-2 11v5l3 1 1 4q2 6 7 8v2q-7 1-12-2-6-7-9-15l-4-8-7-19z" style="fill:#f0d818" transform="translate(60 279)"/><path d="m0 0 8 10q8 12 21 21c-12 4-30-6-41-11l-2-1-10-7 3-1z" style="fill:#f6f6f6" transform="translate(264 383)"/><path d="m0 0 1 2-2 5q-5 13-4 27v3q-1 18 6 34l1 4H0v-2l-2-1-8-5-3-2-2-2v-2q5-21 0-43l-1-6 3-1z" style="fill:#f3f3ef" transform="translate(357 224)"/><path d="m0 0-9 4q-16 5-24 19-4 9-3 17v9l-7-4-2-1q-6-2-6-5 0-13 9-23Q-31 6-15 2h2z" style="fill:#2b3647" transform="translate(300 86)"/><path d="m0 0 1 2-3 6q-11 26-14 54l-2-1q-8-5-18-8 3-6 9-10t8-12q7-16 19-31" style="fill:#2b3648" transform="translate(137 156)"/><path d="m0 0 1 2-2 6q-16 40-3 82l1 8a78 78 0 0 1-14-53q3-25 17-45" style="fill:#ededed" transform="translate(394 211)"/><path d="M0 0q4 1 6 5l2 4 1 2q3 7 3 15v2l-1 4-4-1-4-6q-7-7-16-10l2-2z" style="fill:#edd61a" transform="translate(118 269)"/><path d="M0 0q12 4 20 15l6 12 10 20-8-5-2-2Q16 29 11 17 8 9 1 2z" style="fill:#ead61f" transform="translate(203 390)"/><path d="m0 0 2 1-1 1-9 18-4 3-4 1-2 1-10 2q9-14 23-23z" style="fill:#2b3545" transform="translate(201 95)"/><path d="m0 0 10 11 1 2 17 30-3 1-2 3-5-12h-3l-1-2L2 7 1 4z" style="fill:#e6d32c" transform="translate(284 163)"/><path d="M0 0h6c6 6 6 16 8 24v14L6 15z" style="fill:#dfcb24" transform="translate(172 397)"/><path d="m0 0 1 2q-6 12-19 17V5l6-1z" style="fill:#2b3447" transform="translate(115 263)"/></svg>