<svg xmlns="http://www.w3.org/2000/svg" style="display:block" viewBox="0 0 500 500"><path d="M0 0c11 0 18 8 25 15l11 8 11 10 5 3q7 4 10 9l8 4 6 6v2l5 2 11 8 3 2 7-3c32-17 70-20 105-11q53 16 86 60c18 24 18 24 45 37q10 1 18-4l2-4-3-3a52 52 0 0 1-15-36q-1-19 12-32c6 0 6 0 8 2l4 7q5 7 12 11 11 7 16 18v5l6-3q8-4 17-4h4l10 1q11 0 20-4l7 1q4 9 0 17a55 55 0 0 1-37 33l-4 1-14 1h-9l-2 7c-4 18-22 39-35 52l-3 4q-20 21-46 35l-4 2-11 5q4 12 11 22 5 6 3 13-3 5-10 6-31-1-53-22l-11 1q-43 7-87-3-4 0-7 2l-2 3-4 4-9 9c-3 5-3 5-7 8h-8q-8-5-10-13-3-14-1-28v-4l-8-5a106 106 0 0 1-45-75q-4-45 19-83l4-5 3-3q-2-6-7-11l-2-4-4-3-7-8-6-6q-5-4-8-11l-11-9-7-8L6 17q-7-6-7-16z" style="fill:#527f89" transform="translate(25 83)"/><path d="M0 0c11 0 18 8 25 15l11 8 11 10 5 3q7 4 10 9l8 4 6 6v2l5 2 11 8 3 2 7-3c32-17 70-20 105-11q53 16 86 60c18 24 18 24 45 37q10 1 18-4l2-4-3-3a52 52 0 0 1-15-36q-1-19 12-32c6 0 6 0 8 2l4 7q5 7 12 11 11 7 16 18v5l6-3q8-4 17-4h4l10 1q11 0 20-4l7 1q4 9 0 17a55 55 0 0 1-37 33l-4 1-14 1h-9l-2 7c-4 18-22 39-35 52l-3 4q-20 21-46 35l-4 2-11 5q4 12 11 22 5 6 3 13-3 5-10 6-31-1-53-22l-11 1q-43 7-87-3-4 0-7 2l-2 3-4 4-9 9c-3 5-3 5-7 8h-8q-8-5-10-13-3-14-1-28v-4l-8-5a106 106 0 0 1-45-75q-4-45 19-83l4-5 3-3q-2-6-7-11l-2-4-4-3-7-8-6-6q-5-4-8-11l-11-9-7-8L6 17q-7-6-7-16zm99 73v2l4 3c4 3 4 3 7 8l10 5 2 2h4l7 3q3 7 2 16v-5c-1-7-1-7-5-11l-5-1 2 3q3 6 2 13l-4 7v2q-8 4-18 4l-4-2c1 4 1 4 5 8h13q-6 3-12 2l-6-4-4-10-7-8-3-5-6-4-6-9c-10 5-17 20-21 30l-1 5q13-3 25-10l-2 4v3l-7 1 4 2 12 6-2-4v-2c10 12 8 21 8 37q-2 13-14 21l-8 2 4-2 7-6-4 2q-10 3-22 0l1-3-4-4-3-6h-1l1 9v3l9 5-9-2c1 23 15 44 31 61 6 6 6 6 14 9l2-2c10-10 24-10 37-10h4q11-1 22 2l4 1 20 6q19 7 40 6 0-3-4-5-3-1-5-6v-3l1 3 5 5v-4l-1-5 3 1 3 7q11 31 41 44 14 8 30 6l2-2c0-6 0-7-4-12l-8-17c-5-15-12-22-26-30l-9-3 1-3 7 2 3 1q-1-6-7-9 6 2 9 7l2 5 8 4 3 3q3 4 7 1l6-2 3-1q39-16 68-45l3-2q12-14 20-32l5-9 14-1q23-1 39-18 9-10 10-24-5 0-10 3h-23q-14-2-26 7l-3 3-3 1v-4q0-12-9-20-6-6-14-9-6-4-7-11l-2-4q-7 4-9 12-5 16 1 31 5 10 12 17c4 4 4 4 4 8q-3 6-9 9-13 5-27 1-19-11-33-29l-20-24-3-4-3-3h-2v-2q-17-16-38-25l-3-1c-39-18-90-17-127 5" style="fill:#070909" transform="translate(25 83)"/><path d="M0 0c17 6 17 6 35 7l13 2 8 13 2 3 2 3-7 1-4 1-4 1h-5Q-25 38-81 7q5-10 17-12 33-7 64 5" style="fill:#eae6ce" transform="translate(202 332)"/><path d="M0 0q8 7 10 16l-2 7q-9 5-18 3l-13-5-8-3-4-1q-16-6-33 0l-11 5q-6 4-12 2t-8-8q-1-5 2-11 13-14 33-18c22-3 46-1 64 13" style="fill:#0f1213" transform="translate(199 284)"/><path d="M0 0q10 4 16 12 5 12 0 25-6 8-15 12-10 2-21-3-9-7-11-19-1-11 6-20c9-7 14-8 25-7" style="fill:#fbfbfb" transform="translate(207 209)"/><path d="M0 0q9 3 14 12 5 11 0 21-4 8-12 13c-10 1-10 1-15-2-7-6-11-10-11-20q0-12 8-19 7-7 16-5" style="fill:#fafafa" transform="translate(99 213)"/><path d="m0 0 9 4 26 7 7 2v2h-4l-4 1 5 5q8 10 6 21v11l5-15h1q1 11-4 22l-2-2-8 8-4 1 3-5-2 1q-9 6-19 6h7l4 1h3q-2 3-5 2-14 0-26-6l4 3 8 7q-13-3-20-14l-4-8 1-4-2-6q-2-15 7-28l2-1-4 9-1 6 2-4q6-11 19-15l-6-1 3-1V7L2 5 0 3zm-1 21c-6 9-8 13-7 24q3 10 11 16 11 5 21 3 10-4 16-14 3-12-1-22-6-10-16-13-13-2-24 6" style="fill:#0c0f11" transform="translate(184 194)"/><path d="m0 0 1 3 1-3h13l1 4 1-4c9 0 9 0 12 2l-1 10-10-1h-3v6l-1 2H3l-1-2-1 2-5 1-13 5h-2v-5l-1-5-5 1v2h3l1 9q-4 3-8 3l-1-3-1 3-5-1q-3-5-1-12l1-2h2l3-5 6-2v3h2V6q11-6 23-6" style="fill:#525252" transform="translate(142 274)"/><path d="m0 0 15 5 3 2 8 3 4 2 3 1q-1 4-6 7L16 33l-4 4-6-1q-7-12-6-25l-1-4z" style="fill:#527d85" transform="translate(126 348)"/><path d="M0 0q1 3-3 6l-4 4-3 4-28 25-3 3c-25 18-25 18-34 18l-5-10q5-4 11-5l6-3 4-1Q-26 28-3 2z" style="fill:#dfdcc9" transform="translate(388 282)"/><path d="M0 0v5l1 4h10l-9 3 1 3v4c-7 4-7 4-11 4v-5l-1-5-5 1v2h3l1 9q-4 3-8 3l-1-3-1 3-5-1q-3-5-1-12l1-2h2l3-5 6-2v3h2V4z" style="fill:#272727" transform="translate(131 276)"/><path d="M0 0q8 2 12 9 5 9 4 19c-2 8-2 8-5 11q-8-2-11-8-3-4-1-7l2-5L0 3z" style="fill:#e4e0cb" transform="translate(120 161)"/><path d="M0 0q9 3 14 12 5 12 2 23l-2 3Q6 36 2 27v-9L1 3z" style="fill:#e7e3cd" transform="translate(103 147)"/><path d="M0 0c5 1 5 1 9 4l1 4h4q4 4 4 9 1 4-3 7l-6 1-1-2-1 1-10-2V10h2l-1-4z" style="fill:#282827" transform="translate(187 282)"/><path d="M0 0q9 3 14 11 2 6 0 11-3 6-9 9h-8l2-8q4-9 1-20z" style="fill:#e4e1cb" transform="translate(136 173)"/><path d="M0 0q8 4 13 12 6 11 2 23-7-3-12-11v-8L1 3z" style="fill:#e2dfcb" transform="translate(88 135)"/><path d="M0 0v10h3l1 9q-4 3-8 3l-1-3-1 3-5-1q-3-5-1-12l1-2h2l3-5z" style="fill:#292929" transform="translate(117 282)"/><path d="M0 0q9 4 14 13t3 19Q9 30 5 21v-4L0 2z" style="fill:#e1ddc9" transform="translate(72 122)"/><path d="m0 0 15 11 4 4q8 8 9 18Q12 20 0 2z" style="fill:#dddac9" transform="translate(31 90)"/><path d="M0 0q11 7 16 19l1 10q-7-5-12-13L0 2z" style="fill:#dedbc9" transform="translate(57 110)"/><path d="m0 0 28 8q16 5 32 6h3v1l-6 1-4 1q-16-2-33-8L-4 3l-6-1q4-3 10-2" style="fill:#191f1e" transform="translate(181 324)"/><path d="M0 0c7 0 7 0 11 3v10l-1 1-10-2z" style="fill:#e7e7e7" transform="translate(184 292)"/><path d="M0 0q7 0 12 2l-1 10c-6 1-6 1-11-1z" style="fill:#f2f2f2" transform="translate(159 274)"/><path d="m0 0 10 2v11Q4 13-1 9z" style="fill:#f0f0f0" transform="translate(172 289)"/><path d="M0 0c8 1 8 1 11 3l-2 9-10-2C-2 3-2 3 0 0" style="fill:#f4f4f4" transform="translate(174 277)"/><path d="M0 0h11v10H0z" style="fill:#fbfbfb" transform="translate(145 274)"/><path d="M0 0h2q5 7 3 16-3 6-9 10l-11 1-1-2 10-3q3 0 6-5Q2 9 0 0" style="fill:#0b1518" transform="translate(213 291)"/><path d="M0 0v10c-5 2-5 2-10 1-2-4-2-4-1-9z" style="fill:#f4f4f4" transform="translate(142 274)"/><path d="m0 0 1 9c-5 2-5 2-10 1l-1-7q4-3 10-3" style="fill:#efefef" transform="translate(129 277)"/><path d="m0 0 11 1v9Q6 10 0 7z" style="fill:#ededed" transform="translate(158 287)"/><path d="M0 0c5 1 5 1 9 4v6Q3 11-2 8z" style="fill:#ececec" transform="translate(187 282)"/><path d="M0 0h1l1 5c1 7 1 7 5 11l10 2v2q-7 2-13-2-5-5-5-12z" style="fill:#091215" transform="translate(94 294)"/><path d="m0 0 3 2-1 2-6-2h-10l-8 2-3-1q12-9 25-3" style="fill:#0e1a1e" transform="translate(157 304)"/><path d="m0 0 1 7q-4 3-8 3l-1-9c4-2 4-2 8-1" style="fill:#ededed" transform="translate(120 294)"/><path d="M0 0v7q-4 3-8 3l-1-8c4-2 4-2 9-2" style="fill:#f0f1f1" transform="translate(131 289)"/><path d="m0 0 4 1-2 10 4 1-1 2-4-1-1 4-2 1v-6h-5l-1-3 3 1h4z" style="fill:#383838" transform="translate(171 276)"/><path d="m0 0 1 8-7 3-1-8q4-4 7-3" style="fill:#eaeaea" transform="translate(117 282)"/><path d="M0 0c1 4 1 4-1 8q-5 8-14 12l-4-1 6-4Q-4 9 0 0" style="fill:#0a1217" transform="translate(235 248)"/><path d="M0 0v6c-4 2-4 2-9 2l-1-7q4-2 10-1" style="fill:#f6f6f5" transform="translate(143 287)"/><path d="M0 0h10v6H0z" style="fill:#fafafa" transform="translate(146 287)"/><path d="m0 0 6 2 2 1-3 6H0z" style="fill:#f1f1f1" transform="translate(197 297)"/><path d="m0 0 2 1 1 19-2 2L0 9l-1-4z" style="fill:#23221d" transform="translate(119 160)"/><path d="m0 0 11 1h5l5 1v1l-6 1-4 1-12-2z" style="fill:#2b3333" transform="translate(223 336)"/><path d="M0 0q8 9 6 20-4-4-5-9V7z" style="fill:#3b3933" transform="translate(71 122)"/><path d="M0 0q3 8 2 16l-3 1V7l-1-4V1z" style="fill:#2f2e28" transform="translate(104 152)"/><path d="M0 0q4 2 7 6L6 9l-7-3z" style="fill:#d6d6d6" transform="translate(198 289)"/><path d="M0 0c6 9 6 9 6 14l-3 1-2-8-2-5z" style="fill:#2b2a25" transform="translate(56 109)"/><path d="m0 0 1 7-5-1-1-4z" style="fill:#e3e3e3" transform="translate(110 297)"/><path d="M0 0h1q1 10-3 18l-2-1 2-9h1l1-4z" style="fill:#33332d" transform="translate(137 181)"/><path d="M0 0q3 6 2 11v7H1Q-1 9 0 0" style="fill:#35342e" transform="translate(89 139)"/><path d="M0 0h1v14h2l-4 7V11l1-6z" style="fill:#415458" transform="translate(229 228)"/><path d="m0 0 1 4h-2l-2 3-2 3h-2l-1-4h3l2-5z" style="fill:#465c60" transform="translate(236 246)"/><path d="M0 0q4 1 7 7v5C3 8 3 8 2 4z" style="fill:#2b3b3e" transform="translate(108 209)"/><path d="M0 0h2l1 6-5 2z" style="fill:#dcdddc" transform="translate(106 289)"/><path d="m0 0 8 4C4 5 4 5-1 3z" style="fill:#18272d" transform="translate(77 264)"/><path d="m0 0 3 1-4 3-4-1z" style="fill:#16252d" transform="translate(221 264)"/><path d="m0 0 3 4 1 3H1z" style="fill:#556a6e" transform="translate(74 251)"/><path d="M0 0c2 3 2 3 2 8L0 7z" style="fill:#20211d" transform="translate(102 146)"/><path d="m0 0 2 1v7l-3-4z" style="fill:#1b1b18" transform="translate(87 134)"/><path d="M0 0h2l3 4-5 1z" style="fill:#434343" transform="translate(118 285)"/><path d="M0 0h3v3l-5-1z" style="fill:#282c29" transform="translate(210 333)"/><path d="m0 0 2 6h-3z" style="fill:#3b3b3b" transform="translate(109 286)"/></svg>