<svg version="1.2" xmlns="http://www.w3.org/2000/svg" viewBox="0 0 1080 1080">
	
	<path id="underfin" d="m637 695.4c0 0 53.06 84.43 96.29 75.7 43.24-8.72 0-52.35 10.81-62.8 10.81-10.44 4.92-19.66 38.32-53.34 33.41-33.67-70.74-24.95-70.74-24.95z" style="fill:#bfbfbf;stroke:#000000;stroke-linecap:round;stroke-linejoin:round;stroke-width:15"/>
	<path id="tail" d="m821 480l88-82c0 0 46-36.86 52 0 6 36.86-19 94-44 118-25 24 8 64 8 64 0 0 63 58.14 37 92-26 33.86-67-4.86-88-19-21-14.14-99-122-99-122z" style="fill:#bfbfbf;stroke:#000000;stroke-linecap:round;stroke-linejoin:round;stroke-width:15"/>
	<path id="body" d="m176 500c0 0 132-166.86 320-131 188 35.86 184 53.14 218 75 34 21.86 101 33 101 33 0 0 56 22.14 38 70-18 47.86-42 50-42 50 0 0-53 9.14-58 21-5 11.86-75 76.14-141 105-66 28.86-210 40.86-260 21.86-26.82-10.19-230-81.72-176-244.86z" style="fill:#bfbfbf;stroke:#000000;stroke-linecap:round;stroke-linejoin:round;stroke-width:15"/>
	<path id="fin" d="m482 710.37c0 0 58.27 109.85 123.41 107.4 65.13-2.44 23.99-59.41 23.99-59.41 0 0-36.56 10.44-59.42-65.13" style="fill:#bfbfbf;stroke:#000000;stroke-linecap:round;stroke-linejoin:round;stroke-width:15"/>
	<path id="dorsal" d="m469 391l101-97c0 0 52-28.86 67-18 15 10.86 4 96 4 96 0 0-61 63.14-116 60-55-3.14-56-41-56-41z" style="fill:#71dcf1;stroke:#000000;stroke-linecap:round;stroke-linejoin:round;stroke-width:15"/>
	<path id="dorsal2" d="m703 453c0 0 53-61.86 74-30 21 31.86-23 81-23 81z" style="fill:#71dcf1;stroke:#000000;stroke-linecap:round;stroke-linejoin:round;stroke-width:15"/>
	<path id="mouth" fill-rule="evenodd" d="m229 636c0 0 47-52.86 105 16" style="fill:none;stroke:#000000;stroke-linecap:round;stroke-linejoin:round;stroke-width:15"/>
	<path id="mouth-dt1" fill-rule="evenodd" d="m326.03 666.87c0 0 31.37-6.94 22.51-24.96" style="fill:none;stroke:#000000;stroke-linecap:round;stroke-linejoin:round;stroke-width:15"/>
	<path id="bodytop" d="m165 532l96-108c0 0 75-43.86 86-44 11-0.14 53-19.86 107-17 54 2.86 162 32 162 32 0 0 71 22.14 92 46 21 23.86 86 31 86 31 0 0 64 13.14 55 36-9 22.86-276 27.14-383 9-107-18.14-298 7-301 15z" style="fill:#71dcf1;stroke:#000000;stroke-linecap:round;stroke-linejoin:round;stroke-width:10"/>
	<path id="bodymid" d="m426 682c0 0 84 1.14 106-3 22-4.14 80-16.86 115-35 35-18.14 86-47 86-47 0 0 90-26.86 100-24 10 2.86 33-39.86 20-58-13-18.14-413-33.86-379 6 34 39.86-11 139.14-48 161z" style="fill:#ff5555;stroke:#000000;stroke-linecap:round;stroke-linejoin:round;stroke-width:10"/>
	<path id="gill" fill-rule="evenodd" d="m438.34 704.81c0 0 76.16-67.06 68.35-134.61" style="fill:none;stroke:#000000;stroke-linecap:round;stroke-linejoin:round;stroke-width:10"/>
	<path id="eye1 copy" fill-rule="evenodd" d="m374.07 590.08c-41.22 0-74.54-33.32-74.54-74.54 0-41.22 33.32-74.54 74.54-74.54 41.23 0 74.55 33.32 74.55 74.54 0 41.22-33.32 74.54-74.55 74.54z" style="fill:#996bb1;stroke:#000000;stroke-linecap:round;stroke-linejoin:round;stroke-width:10"/>
	<path id="eye2 copy" fill-rule="evenodd" d="m189.54 579.08c-41.22 0-74.54-33.32-74.54-74.54 0-41.22 33.32-74.54 74.54-74.54 41.22 0 74.54 33.32 74.54 74.54 0 41.22-33.32 74.54-74.54 74.54z" style="fill:#996bb1;stroke:#000000;stroke-linecap:round;stroke-linejoin:round;stroke-width:10"/>
	<path id="eye1 copy 2" fill-rule="evenodd" d="m374.07 561.08c-41.22 0-74.54-33.32-74.54-74.54 0-41.22 33.32-74.54 74.54-74.54 41.23 0 74.55 33.32 74.55 74.54 0 41.22-33.32 74.54-74.55 74.54z" style="fill:#ffffff;stroke:#000000;stroke-linecap:round;stroke-linejoin:round;stroke-width:15"/>
	<path id="eye2 copy 2" fill-rule="evenodd" d="m189.54 550.08c-41.22 0-74.54-33.32-74.54-74.54 0-41.22 33.32-74.54 74.54-74.54 41.22 0 74.54 33.32 74.54 74.54 0 41.22-33.32 74.54-74.54 74.54z" style="fill:#ffffff;stroke:#000000;stroke-linecap:round;stroke-linejoin:round;stroke-width:15"/>
</svg>