<svg xmlns="http://www.w3.org/2000/svg" style="display:block" viewBox="0 0 500 500"><path d="M0 0c3 1.8 4.5 2.9 6 6q.5 7.2-.5 14.4Q4 31.7 6 43c.5 5.8.2 10-3 15l-5 6 2 1 9.7 4.6 3.5 1.6q8.8 4.2 17.3 9.1c3.5 1.9 6 3.2 10 3q5.6-1.5 10.9-3.9A30 30 0 0 1 69 77c4 2 6.7 4.2 9 8a19 19 0 0 1 0 13l-1 2a26 26 0 0 0 16 2c5.7-3.3 10.2-8.1 14.8-12.8 12.1-12.4 30.2-27.8 47.8-30.6a20 20 0 0 1 9.3 1.6C167 62 167 62 169 66c2.3 13.7-4.4 27.6-10.9 39.3q-5.5 9.7-11.5 19A22 22 0 0 0 143 140a96 96 0 0 0 10.4 18.7c8.9 13.6 15.9 28 16 44.6-.5 3.2-1.5 5-3.4 7.7-3.2 2.1-6 2.1-9.7 1.9-20.2-2.7-39.6-20.7-53.2-34.9l-1.7-1.8A22 22 0 0 0 90 169q-6.2.9-12 3l-2.8.9L69 175v2l2.4.9A10 10 0 0 1 76 181c.6 4.5.8 7.4-1.3 11.6L69 201l-4.3 6.9-2 3.2c-5.6 9.6-5 19.2-4 30 .4 5.4.4 9.2-2.7 13.9a14 14 0 0 1-10.1 1.8c-16.1-4.4-29.4-15.8-40.7-27.6C3 227 3 227 0 225c-3.5 1.3-3.5 1.3-7.2 3.4l-3.8 2-3 1.6 2.3 1.8A35 35 0 0 1 0 255c.7 6.2 1.2 11.8-1.8 17.4-5 2.5-8.8 2.5-14.2 1.6a82 82 0 0 1-39-26l-1-2-5.7.4-3.7.3-6.5.6A192 192 0 0 1-194 218.4c-18.3-12.8-34.2-29.1-41-51l-.9-3.2c-.8-2.8-.8-2.8-2-5.2-3.4-2.1-3.4-2.1-5.8-3-5.6-2.6-9.3-8.5-12.4-13.6-2.3-5-3.5-10.5-4.9-15.8a66 66 0 0 0-2.6-8.1c-2.8-8-2.3-17.4.3-25.4 4.1-9.6 9.2-16 18.4-21.1a42 42 0 0 1 28.2-3.4A38 38 0 0 1-199 80l1.8-1.2c29.8-19.3 66-33.5 102.1-32.7 13.8.9 13.8.9 26.4-3.6q4.2-4.4 7.7-9.5c2-2 2-2 4-3.6l6.7-5.9C-37.3 12-18.6-3 0 0" style="fill:#060707" transform="translate(298 113)"/><path d="m0 0 3.6.8A315 315 0 0 1 76 32c-4 1.3-7 .3-11-.7q-12.1-2.6-24.4-4.5l-3.2-.5c-14.5-2.2-29-2.5-43.6-2.6h-3a256 256 0 0 0-40.4 2.7c-6.2.8-6.2.8-9.4-.4l-4.8-5c-5.7-5-13.8-8.8-21.3-9.2-11.3-.3-19.6.4-29.2 7A41 41 0 0 0-129 43c-1.2 21-.5 41.2 11.9 58.9 6.1 8 13.6 14.2 23.5 16.7q4.3.6 8.4.5h3l2.2-.1-1-4h-2c-9.8-.4-17.8-4-25.2-10.4l-2.8-2.6c3.2 0 4.6.6 7.4 2a35 35 0 0 0 22.3 2.5A41 41 0 0 0-59 92q2.9-5.3 5-11l1-2.5c5-13.4 3.5-33-1-46.5 24-3.6 24-3.6 35-4h2.4a301 301 0 0 1 78.4 7.6l8.8 1.8 4.2 1c11.7 2.4 23.3 5 34.5 9.2a81 81 0 0 0 23.5 4.8c4.7.4 7.6 1.3 11.2 4.6l2 5q-15.2-1-30.3-3.1c-28-3.5-55.5-5.4-83.7-4.9h-2.7c-24 .5-51.5 3.4-74.3 11q1 5.9 2.6 11.6A77 77 0 0 1-45 120l-1.1 3.2c-2.7 7-6.3 13-10.9 18.8l-2 2.5A81 81 0 0 1-92 167v3a34 34 0 0 0 16-5.1l2.1-1.2a44 44 0 0 0 10-7.8 10 10 0 0 1 7.3-3.3q4.8-.1 9.6.4c-5.5 7.1-12 12-20 16v4c9.7-1.4 18.3-9.2 25-16l1-2c3-.3 3-.3 7-.3h4.6l2.3-.1c41.4-.5 77.5-12.7 112.3-35 17.8-11.3 38.2-22 59.8-21.6-1 3-1 3-3 4.6a34 34 0 0 1-10.6 2.8 74 74 0 0 0-23 7.8c-12 6-22.4 15-32.7 23.6C35.2 170 35.2 170 15 172.3c-4-.4-6.4-1.8-9.8-3.8C1 165.8 1 165.8-4 165v4a52 52 0 0 0 7 3.9l2.2 1q9.4 4.3 19.4 7.5c5.2 2.5 7.6 6 10.2 11.2 2 5.6 1.4 11.5 1.2 17.4-9.6 1.4-17-3.4-25-8a68 68 0 0 1-9-7l-2.4-2.2a106 106 0 0 1-15.5-19L-18 171h-3a46 46 0 0 0 3 11 183 183 0 0 1-65-1l-2.5-.5c-32.8-6.7-64.7-21.3-86.7-47.2-6.4-8.3-13.8-19.7-13.8-30.3l2.7-.5A53 53 0 0 0-163 95c-3 6-7.5 9.8-13.4 12.7l-2.6 1.3-1 4c7-1.1 11.8-3 17-8 11.5-14 14.3-31.4 15-49l.2-3.9c.2-7.2-.2-12.7-3.4-19.1l-.8-2c1-3 1-3 3.6-5A192 192 0 0 1-87 0l2.2-.6C-58-7-26.6-6.7 0 0" style="fill:#acb6b9" transform="translate(255 170)"/><path d="M0 0h2.6c34.2.1 69.9 3 103.3 10.3 1 3.6 1.2 6.3 1.2 9.9v3c-.2 3.6-.5 6-2.2 9.1-3.4 1-3.4 1-7.8 1.5a128 128 0 0 0-48.2 16.6q-10.5 5.7-20.5 12A214 214 0 0 1-6 79.4l-2.2.8Q-17 84-26.3 86l-2.7.7c-16.8 3.7-33 4-50 3.7q2.1-5.3 4.8-10.5A82 82 0 0 0-65 39.3l-4-1-.2 1.9-1.4 11.5a94 94 0 0 1-14 36.6 17 17 0 0 1-5.4 6q-6.4 1-13 0l2.6-3.4 1.7-2.2 3.5-4.7a81 81 0 0 0 13.8-65q-1-4.8-1.6-9.7l23-3.8A348 348 0 0 1 0 0" style="fill:#fa0239" transform="translate(299 228.7)"/><path d="M0 0c1 1 1 1 1.3 3 1 18.2-11.4 35.8-21 50.6a30 30 0 0 0-5.7 19.2c1.2 9.5 8 17.6 13 25.5 8 12.6 14.7 25.5 13.4 40.7l-1 1c-9.7.9-18.4-5-26.2-10.1q-4.6-3.4-8.8-6.9l-3.3-2.7A212 212 0 0 1-56 104l-3-3-2-2 2.6-1.7A35 35 0 0 0-48 78.6l.1-3.6.1-3c.3-9.1-.5-16.8-6-24.4A85 85 0 0 0-61 40C-17.3-1.5-17.3-1.5 0 0" style="fill:#afbabc" transform="translate(459 179)"/><path d="m0 0 3.6.8A315 315 0 0 1 76 32c-4 1.3-7 .3-11-.7q-12.1-2.6-24.4-4.5l-3.2-.5c-14.5-2.2-29-2.5-43.6-2.6h-3a256 256 0 0 0-40.4 2.7c-6.2.8-6.2.8-9.4-.4l-4.8-5c-5.7-5-13.8-8.8-21.3-9.2-11.3-.3-19.6.4-29.2 7A41 41 0 0 0-129 43l-.4 8.5-.2 3.3V58l-.4 8a40 40 0 0 1-18 3v-2.4l.3-11v-3.8c.1-7-.3-12.5-3.5-18.8l-.8-2c1-3 1-3 3.6-5A192 192 0 0 1-87 0l2.2-.6C-58-7-26.6-6.7 0 0" style="fill:#08e7f1" transform="translate(255 170)"/><path d="M0 0a301 301 0 0 1 78.4 7.7l8.8 1.8 4.2.9c11.7 2.5 23.2 5.1 34.4 9.3a81 81 0 0 0 23.6 4.8c4.7.3 7.6 1.3 11.2 4.6l2 5Q147.4 33 132.3 31c-28-3.5-55.5-5.4-83.7-5l-2.8.1c-24 .5-51.4 3.4-74.2 11l-1 3h-4v-2c-.5-17.2-.5-17.2-4-34A276 276 0 0 1 0 0" style="fill:#05f0f1" transform="translate(238.4 198)"/><path d="M0 0a40 40 0 0 1 16 23c.8 9.5-.7 17.6-5.7 25.8A36 36 0 0 1-10 63c-8.9 2.2-16 1.3-24.3-2.5-8.5-4.6-12.6-11.3-16.8-19.8a40 40 0 0 1 .2-23.1A40 40 0 0 1-30.5-3.1C-19.5-6.8-10.3-5.3 0 0" style="fill:#fbfbfb" transform="translate(183 191)"/><path d="M0 0c8.6 4.1 13.2 10 17.5 18.4a40 40 0 0 1 0 22.5c-3.2 6.6-7 11.3-13 15.5L1 58.8c-7 3.2-16.1 2.6-23.5.9-8.1-3-13.5-8-18-15.2a39 39 0 0 1-3-22.1 34 34 0 0 1 4-9l2-3.6A33 33 0 0 1 0 0" style="fill:#fcfcfc" transform="translate(83.5 189.6)"/><path d="m0 0 .7 25.7c.6 17.7.6 17.7-2.5 23.8-2.3 2.5-4.1 4-7.2 5.5-3.5.2-3.5.2-7-1l-8.9-2.8A237 237 0 0 0-64 42C-49 24-24.7-.4 0 0" style="fill:#06e7f2" transform="translate(297 119)"/><path d="M0 0c2.6 1 4.6 2.1 6.8 3.8-.4 5.5-2.5 8.6-5.6 13a61 61 0 0 0-11.8 44.6l.4 7.4-1 1c-12.3-.3-23-9.5-32-17a200 200 0 0 1-13-12v-2l4.3-2.6c8.4-4.9 16-11 23.5-17.1l8.2-6.6 6-5.1C-4.8-.3-4.8-.3 0 0" style="fill:#aeb8bb" transform="translate(360.2 293.2)"/><path d="M0 0c1 3 1 3 .1 5.6-4 8.4-8.4 14.1-16.5 18.8a34 34 0 0 1-22.2 2A40 40 0 0 1-62 4l1-2 1.4 1.4c6.6 6.2 14.7 11 24 11.8A46 46 0 0 0-7 7q3.7-3.3 7-7" style="fill:#383646" transform="translate(196 245)"/><path d="m0 0 1 2a43 43 0 0 1-15 18 31 31 0 0 1-19 3 31 31 0 0 1-15-11c-2-3.3-2-3.3-3-6l1-2 5.6 3.7a45 45 0 0 0 28.2 2.8A39 39 0 0 0 0 0" style="fill:#383646" transform="translate(98 244)"/><path d="m0 0 4 1v18l-5 1c-2-4-2-4-2-8-7.3-2.6-14-3.3-21.7-3.3h-2.7A55 55 0 0 0-43 11h-5V6a44 44 0 0 1 22.6-4.4h2.9A44 44 0 0 1-2 6l.4-2.4C-1 1-1 1 0 0" style="fill:#0c0d0d" transform="translate(137 284)"/><path d="M0 0c2.7 1.4 2.7 1.4 4 4 .2 4.7-.4 8-3 12-8.2-2.4-15.5-6-23-10A27 27 0 0 1 0 0" style="fill:#5dc8d6" transform="translate(366 197)"/></svg>