<svg xmlns="http://www.w3.org/2000/svg" style="display:block" viewBox="0 0 500 500"><path d="m0 0 2 2c18 16 29 40 36 63v1l2 10 3 7 14-7q4-2 6 1 1 5-5 6l-2 1-2 1-2 1-5 5q30 12 27 44-4 23-26 30h-3v5l-1 11q0 4 2 3c22-2 38-16 40-38q0-21-7-42-5-20 1-41l1-3c9-19 30-31 51-26 15 5 26 17 24 34q-2 18-20 20-6 1-9-5 0-6 3-10 5-3 0-6l-3-2-1-2q-3 1-5 5-3 5-7 5 0 5 2 9v10q1 11 8 18l2 8q1 9 5 17l1 7q-2 3 3 5h3q8 5 5 15-4 6-10 8l-4 6q-1 7-9 8 0 7 3 14 3 6 0 13v6l-1 3v8q0 11-7 20l-1 2-6 7-2 3-1 2q-7 8-16 10l-2 1-13 5q-11 5-23-1l-4-1c-1 14 7 32 20 39h7q7 0 7-7-1-6-8-7-5-4-3-11 8-11 21-7c13 4 21 17 21 30l-3 8v3c-6 14-14 20-28 26l-3 1c-12 5-40 0-48-12l-1-3-10-10-2-1q-6-9-7-21l-1-2-7 4-5 3-3 2-10 7-2 1c-5 3-11 8-10 14l6-1q10-3 15 5 0 16-17 22-24 6-34-17l-3-13v-2q0-17 11-31l2-3q3-5 9-8 15-10 21-27l-2 2q-10 12-24 21-4 2-5 6-7 10-16 17c-9 6-17 13-14 25l5 4 4 3 2 2q7 5 4 14c-5 7-9 6-17 6h-3c-14 1-30-14-34-27v-11q0-16 11-28l2-2-8-3-2-1q-8-1-17 2c-16 5-16 5-24 5q-4 0-3 4l-2 2v6l3 2q4 2 5 7 2 1 3-2t4-4l-1-3c-1-9-1-9 5-12q15 0 19 14c2 13-4 26-17 31-18 8-37-1-47-17q-7-10-5-22l-1-6h-13q-7 0-12-4l-17-7q-9-2-15-11l-10-8q-7-6-10-15l-7-12q-3-9-1-19l1-14q1-9 7-16l3-10 1-8q1-2-2-3-6 2-8 9-4 6-12 3c-8-8-5-19 0-28 9-11 24-12 36-6 17 10 20 29 16 46v3l6-1q22-5 41 7c20 13 44 21 63 1q6-7 8-15l-4 1h-17c-34 0-69-8-94-33l-2-2c-24-24-28-61-20-92l1-2c13-57 62-93 118-101h2C-84-51-36-34 0 0m-230 230c4 11 23 17 34 19l2-1q-4-13-18-18l-5-4q-8-6-13 4m304-5q-4 2-10 2-2 0-3 2 9 3 17-4z" style="fill:#877eae" transform="translate(315 93)"/><path d="m0 0 2 2c18 16 29 40 36 63v1l2 10 3 7 14-7q4-2 6 1 1 5-5 6l-2 1-2 1-2 1-5 5q30 12 27 44-4 23-26 30h-3v5l-1 11q0 4 2 3c22-2 38-16 40-38q0-21-7-42-5-20 1-41l1-3c9-19 30-31 51-26 15 5 26 17 24 34q-2 18-20 20-6 1-9-5 0-6 3-10 5-3 0-6l-3-2-1-2q-3 1-5 5-3 5-7 5 0 5 2 9v10q1 11 8 18l2 8q1 9 5 17l1 7q-2 3 3 5h3q8 5 5 15-4 6-10 8l-4 6q-1 7-9 8 0 7 3 14 3 6 0 13v6l-1 3v8q0 11-7 20l-1 2-6 7-2 3-1 2q-7 8-16 10l-2 1-13 5q-11 5-23-1l-4-1c-1 14 7 32 20 39h7q7 0 7-7-1-6-8-7-5-4-3-11 8-11 21-7c13 4 21 17 21 30l-3 8v3c-6 14-14 20-28 26l-3 1c-12 5-40 0-48-12l-1-3-10-10-2-1q-6-9-7-21l-1-2-7 4-5 3-3 2-10 7-2 1c-5 3-11 8-10 14l6-1q10-3 15 5 0 16-17 22-24 6-34-17l-3-13v-2q0-17 11-31l2-3q3-5 9-8 15-10 21-27l-2 2q-10 12-24 21-4 2-5 6-7 10-16 17c-9 6-17 13-14 25l5 4 4 3 2 2q7 5 4 14c-5 7-9 6-17 6h-3c-14 1-30-14-34-27v-11q0-16 11-28l2-2-8-3-2-1q-8-1-17 2c-16 5-16 5-24 5q-4 0-3 4l-2 2v6l3 2q4 2 5 7 2 1 3-2t4-4l-1-3c-1-9-1-9 5-12q15 0 19 14c2 13-4 26-17 31-18 8-37-1-47-17q-7-10-5-22l-1-6h-13q-7 0-12-4l-17-7q-9-2-15-11l-10-8q-7-6-10-15l-7-12q-3-9-1-19l1-14q1-9 7-16l3-10 1-8q1-2-2-3-6 2-8 9-4 6-12 3c-8-8-5-19 0-28 9-11 24-12 36-6 17 10 20 29 16 46v3l6-1q22-5 41 7c20 13 44 21 63 1q6-7 8-15l-4 1h-17c-34 0-69-8-94-33l-2-2c-24-24-28-61-20-92l1-2c13-57 62-93 118-101h2C-84-51-36-34 0 0m-158-34-2 1c-46 13-81 49-91 96l-1 3c-9 48 15 88 59 107q26 9 53 8h17c6 0 6 0 9-5l-4-11q-6-15-2-31h2l-2 6q-1 13 5 25c7 16-1 36-15 46-20 12-38 6-57-5l-11-5-2-1c-20-11-44-3-58 15q-5 6-2 14c8 4 17-3 22-8l7-1 13-1 3-1q12 1 14 13 4 5 10 6 8 2 9 9 4 6 10 5l12-6q13-4 28-3 12 2 21-6l3-2q12-11 17-26-4 22-24 34l-2 1c18 12 42 7 57-8q7-11 11-23c-2 19-15 35-34 40h-5q-16 0-33-6c-26-8-52 3-64 28a53 53 0 0 0-3 23q1 30 29 39c13 1 27-3 31-17q3-12-7-20l-6-1-1 9q0 5-5 8v4l-6 1h-4q-9-3-10-14v-2l-2-10q1-8 8-13l3-2q9-6 20-6h2c10 0 10 0 13 4q4 4 10 5h2l10 3c13 3 30 3 42-3l2-1a86 86 0 0 0 27-17q19-19 25-45 0 7-3 14l-2 13q-3 26-25 42v3q1 6-5 9h-3q-10 5-10 15l3 1q3 9-4 15-1 8 4 12h3q6 2 8 9c3 5 11 2 16 1q10-4 11-15-4-3-10-1c-8 0-8 0-10-2-3-15 11-21 22-27 35-20 40-54 45-91l1-11 4-30 1-7q0-6-7-6h-3q-12-3-19-13c-3 7 9 18 13 22-18-10-24-39-17-57l3-8 1-2-3 1H5V96v3l1 3 19-8 3-1c9-4 9-4 9-12l-1-3Q24 26-18-9l-3-2a153 153 0 0 0-69-28q-35-5-68 5m-72 264c4 11 23 17 34 19l2-1q-4-13-18-18l-5-4q-8-6-13 4m304-5q-4 2-10 2-2 0-3 2 9 3 17-4z" style="fill:#08070a" transform="translate(315 93)"/><path d="M0 0q7 16-5 28-6 4-12 1 0-4 3-7 5-7 2-15c-4-4-10-2-15-2h-2q-7 0-10 6v6q0 8-5 13c-1 8-1 8 4 13q4 2 4 6l1 3-2 4q-1 8 4 13h3q5 4 4 11l-2 2q-4 6-1 13l-5 2c-24 10-29 32-30 55q1 8-7 10l-2-2q-8-1-14 6v2q-2 4-7 3-5-2-8-9l-1-3c-3-6-8-16-4-23l7-1c24-2 40-19 42-43q1-17-5-35c-7-27-7-57 22-70 15-6 33-2 41 13" style="fill:#877fad" transform="translate(464 146)"/><path d="M0 0q3 7-4 10l-11 5c-8 3-8 9-8 17v8q0 4-3 6v5l-1 3 4 3q4 3 2 9v3q1 6-4 6c-6 2-5 7-5 13l2 3-3 5-1 2q-4 4-9 4-6 0-9 4v4q-4 8-14 7l-4-1q-8-5-14 1-8 1-17-3l-3-1q-7-1-6-9l3-13 1-2 5-36 5 9c5 11 14 20 27 18 16-5 17-21 18-35 2-20 21-66 49-45" style="fill:#887fae" transform="translate(453 247)"/><path d="M0 0q6 17-3 32l-2 3q-19 18-42 7c-8-6-16-14-16-24v-3q-2-10 4-18l2-3c15-20 46-17 57 6" style="fill:#fcfcfc" transform="translate(290 208)"/><path d="m0 0 4 1q5 4 5 10v5l1 3c2 14 11 32 27 33q12-1 14-11t-8-13q-3-3-1-7 13-6 23 4 5 4 4 10l-2 2v7q0 2 2 3 2 4 0 7l-1 3q-2 4-6 4-7 1-9 6v3c0 4-6 6-10 6q-2 1-2-2-7-3-13 1t-12 0l-3-4q-2-6-8-8l-3 1q-7-1-11-9l1-2q1-9-7-13t-7-13l6-9q5-6 9-16 1-6 7-2" style="fill:#887fae" transform="translate(349 362)"/><path d="M0 0c7 14 4 32-9 42q-19 13-37-1c-10-10-15-29-7-42 15-20 40-21 53 1" style="fill:#fcfcfc" transform="translate(381 205)"/><path d="m0 0 5 4q6 1 12-1 9-4 16 2l2 3c11 13 30 16 46 16 6 0 6 0 8 2l-4 5q-8 9-10 23 0 6-4 6-6 0-7-7-6-5-14-3l-2 3q-6 0-11-4v-3q-2-8-11-8l-6 1q-8-3-7-13 0-5-5-8H4q-6 0-7-7l1-4V5z" style="fill:#887fad" transform="translate(50 322)"/><path d="M0 0q-7 9-15 15c-10 8-21 18-15 32q5 5 11 8t4 10q-6 6-15 3l-4-6-8-2q-8 0-11-7l2-4q2-9-7-13v-7q0-7 5-7h3c6-2 5-7 5-12l-1-2q2-5 8-4h6q13 0 26-4z" style="fill:#8980ae" transform="translate(261 378)"/><path d="M0 0q5 13 4 26v6c0 8-5 10-12 14q-8 7-14 18l-1 2-2-3-2-1q-3-2-2-9 2-5 6-5 4-7 2-15-2-7 5-10h1q4-6 1-13l-3-1-2-3q-5-6-12-1l-5 7q0 5-4 4-6-5-5-13c9-20 34-20 45-3" style="fill:#877fab" transform="translate(72 251)"/><path d="M0 0q-6 6-13 8c-8 3-8 9-8 17v8q0 4-3 6v5l-1 3 4 3q4 3 2 9v3q1 6-4 6c-6 2-5 7-5 13l2 3-3 5-1 2q-4 4-9 4-6 0-9 4v4q-4 8-14 7l-4-1q-8-5-14 1-8 1-17-3l-3-1q-9-3-5-13 1-3 3-1l3 1 3 1 5 3c20 8 41-1 53-17 7-12 6-24 6-37 1-19 7-45 32-43" style="fill:#beb0d2" transform="translate(451 254)"/><path d="m0 0 17 7 2 1 17 7 10 5 6 3 3 1 3 1 2 1 1-8q2-9 4-7c1 5 2 17-5 20l-4-1h-2l3 6c10 19 3 45-14 58q-9 6-22 7l10-4q16-7 22-21l-7 6Q22 97-1 80a38 38 0 0 1-6-49Q4 16 22 15l-2-1-10-4-4-2-3-1-4-2q-2-1-2-3 1-2 3-2m-9 48c0 17 8 32 26 37q29 2 39-24l1-8v-2c-1-14-11-28-25-31-18-2-40 6-41 28" style="fill:#0d0d10" transform="translate(236 169)"/><path d="M0 0c8 13 5 39-1 52l-1 3q-10 16-24 27c-11 10-20 26-11 41q6 10 16 9h6q-3 4-8 5h-3q-8 2-11-6-2-5-8-5-5-1-5-9 0-3 2-5 4-5 2-13l-3-1q1-13 13-16 4 0 5-4v-3c0-6 3-7 7-11Q-7 50-7 29l4-15z" style="fill:#bfb1d3" transform="translate(311 310)"/><path d="M0 0q15-2 23 11 2 4-2 7v7q0 2 2 3 2 4 0 7l-1 3q-2 4-6 4-7 1-9 6v3c0 4-6 6-10 6q-2 1-2-2-7-3-13 1t-12 0l-3-4q-2-6-8-8l-3 1q-7-1-11-9l1-2q1-9-8-13-5-4-6-13 2-4 6-7 4 1 4 7c7 23 22 43 49 41q26-7 24-32Q14 4 2 2z" style="fill:#bbaece" transform="translate(395 381)"/><path d="m0 0 5 4 5 1q3 1 5 5c10 18 29 31 48 35 12 2 12 2 13 6q1 6-5 9-6 0-7-7-6-5-14-3l-2 3q-6 0-11-4v-3q-2-8-11-8l-6 1q-8-3-7-13 0-5-5-8H4q-6 0-7-7l1-4V5z" style="fill:#baadce" transform="translate(50 322)"/><path d="M0 0c1 6 1 14-6 16l1-4q4-9-1-15h-15q-7 0-10 6v6q0 8-5 13c-1 8-1 8 4 13q4 2 4 6l1 3-2 4q-1 8 4 13h3q5 4 4 11l-2 2q-4 6-1 13-3 3-7 2l-1-9q-2-23-11-45c-5-16-1-36 15-44q16-5 25 9" style="fill:#baaccf" transform="translate(456 154)"/><path d="M0 0q13 6 25 5h3a95 95 0 0 0 30-5q-5 4-11 6l-2 1c-18 7-38 3-56-3l-3-1-2-3c-6-7-23-4-31 0l-4 3-3 2c-9 7-9 12-6 23l2 8q1 5 5 7l-1 3c-13-6-15-22-12-34C-53-18-23-10 0 0" style="fill:#bbadcf" transform="translate(208 369)"/><path d="M0 0q12 11 29 15 3 1 2 3-8 7-17 5l-3-1-3-4q-2-8-10-8-9-2-10-11-2-8-10-8l-3 1h-13q-8 1-15 7-4 4-9 3c7-31 48-16 62-2" style="fill:#bdaed0" transform="translate(124 320)"/><path d="M0 0c6 8 4 17 2 26l-3 16-4 11-5 8-1 1-2-3h-2q-4-4-3-9t7-6q4-7 1-14 0-7 5-11h2q4-6 1-13l-3-1-2-2q-4-5-10-4l-5 5-3 3C-24-8-9-9 0 0" style="fill:#baaccd" transform="translate(60 255)"/><path d="M0 0q3 2 0 5l-2 3c-10 13-15 28-3 42l18 11q4 1 3 3-10 3-14-6l-8-2q-8 0-11-7l2-4q2-9-7-13v-7q0-7 5-7h3c6-2 5-7 5-12l-1-2q3-6 10-4" style="fill:#bdaed1" transform="translate(225 382)"/><path d="M0 0v9q0 5-4 6l-4-2q-8-1-14 6v2q-4 5-9 3-5-4-5-10l7-2C-21 10-8 0 0 0" style="fill:#bcaed0" transform="translate(399 293)"/><path d="M0 0q5 2 6 8 1 10-9 16-9 4-16-2 4-4 10-3 3 2 5-2v-3l2-2Q1 8 0 2z" style="fill:#b9accd" transform="translate(173 393)"/><path d="M0 0h3q4 0 6 3l2 2Q2 9-5 10h-7C-14 3-6 0 0 0" style="fill:#b8abc8" transform="translate(170 371)"/><path d="M0 0q6 2 5 6-2 4-8 2-6-1-5-6 3-4 8-2" style="fill:#b7a9c8" transform="translate(108 373)"/><path d="M0 0c4 3 4 3 4 8q-9 2-13-6c0-5 6-4 9-2" style="fill:#b7a9c8" transform="translate(82 362)"/><path d="M0 0q4 2 3 7v2q0 4-4 4-4-1-3-6V5q-1-5 4-5" style="fill:#b5a7c7" transform="translate(439 228)"/><path d="M0 0q3 4-1 7-5 2-10 1 0-10 11-8" style="fill:#b9abcb" transform="translate(390 307)"/><path d="M0 0q7 2 7 8-1 4-3 3-7-2-7-8-1-4 3-3" style="fill:#b9abcc" transform="translate(56 341)"/><path d="M0 0h2l5 2C6 7 4 6 0 7h-3q-3-1-4-5z" style="fill:#b8aacb" transform="translate(379 362)"/><path d="M0 0q2 3 1 6v3q1 3-4 2-2-3-2-8V1q0-5 5-1" style="fill:#beb1ce" transform="translate(47 316)"/><path d="M0 0q5 4 3 10-2 4-4 3-3-2-2-6V4q-1-5 3-4" style="fill:#b2a5c4" transform="translate(431 291)"/><path d="M0 0q2 7-3 12h-4Q-9 2 0 0" style="fill:#baadcb" transform="translate(50 287)"/><path d="M0 0q3 5 2 11-6 0-7-6-1-8 5-5" style="fill:#b5a7c8" transform="translate(433 203)"/><path d="m0 0 1 2q3 9-4 13h-10v-1h3q6 1 5-5l4-4z" style="fill:#50465d" transform="translate(174 398)"/><path d="M0 0q0 6-6 8h-6q2-10 12-8" style="fill:#b8aaca" transform="translate(415 350)"/><path d="M0 0v7q-1 6-7 5-3-10 7-12" style="fill:#c0b3cf" transform="translate(431 323)"/><path d="M0 0q7-2 13 3v3Q6 8 0 3z" style="fill:#b3a5c4" transform="translate(179 367)"/><path d="M0 0v7q-1 4-5 4C-7 6-7-5 0 0" style="fill:#b5a7c6" transform="translate(265 411)"/><path d="M0 0q7 0 10 5v4Q4 9 0 4z" style="fill:#b9aac8" transform="translate(101 312)"/><path d="M0 0q6 0 8 6l-1 5Q0 9 0 0" style="fill:#b6a9c6" transform="translate(332 404)"/><path d="M0 0q7 1 10 6 1 4-2 4Q0 8 0 0" style="fill:#b9aac8" transform="translate(122 331)"/><path d="M0 0q6 4 4 11-4 1-6-3c-1-8-1-8 2-8" style="fill:#baabcb" transform="translate(205 416)"/><path d="M0 0q0 7-6 10h-3q1-9 9-10" style="fill:#b8a9c8" transform="translate(440 263)"/><path d="M0 0v8q1 3-4 2l-1-6V2q0-5 5-2" style="fill:#b3a6c7" transform="translate(426 176)"/><path d="M0 0q7 2 8 8Q1 9-3 3q1-4 3-3" style="fill:#b5a7c6" transform="translate(353 426)"/><path d="M0 0q1 2-2 3h-7q-4 0-3-4 6-3 12 1" style="fill:#bbaeca" transform="translate(389 438)"/><path d="M0 0q-1 9-10 8 1-9 10-8" style="fill:#b5a7c6" transform="translate(413 424)"/><path d="M0 0q0 6-4 11h-3Q-8 2 0 0" style="fill:#b0a2c0" transform="translate(154 378)"/><path d="M0 0q0 5-6 5h-4V3h-18V2l23-2z" style="fill:#24212a" transform="translate(252 377)"/><path d="m0 0 1 2h-2l-1 2-1-3q-10-1-12 8-2-1-2-3C-15-1-5-5 0 0" style="fill:#51455f" transform="translate(393 307)"/><path d="M0 0q1 7-4 10h-3Q-9 1 0 0" style="fill:#baabcb" transform="translate(215 389)"/><path d="M0 0q4 4 2 7-2 1-2-2-4-6-12-4l-2 3q-3-2-1-4 8-4 15 0" style="fill:#534763" transform="translate(113 373)"/><path d="M0 0q8 6 6 14-2 2-5-1h3Q3 4-5 2l-1 4q-2-8 6-6" style="fill:#564a65" transform="translate(58 339)"/><path d="M0 0q7-1 10 4v3Q4 7 0 3z" style="fill:#b8abc8" transform="translate(218 439)"/><path d="M0 0q6 0 8 5v4Q3 9 0 4z" style="fill:#baaccc" transform="translate(266 437)"/><path d="M0 0q0 6-4 9h-4q0-8 8-9" style="fill:#bbaccc" transform="translate(279 383)"/><path d="M0 0q-1 6-6 9l-3-1q1-8 9-8" style="fill:#b1a5c2" transform="translate(434 153)"/><path d="M0 0h-3q-3-3-7-3l-3-1q-2 0-3 2v-2h-11v-1C-4-8-4-8 0 0" style="fill:#4e4659" transform="translate(194 371)"/><path d="M0 0q10 3 7 12L5 9Q2 2-7 3h-2q3-5 9-3" style="fill:#504462" transform="translate(80 359)"/><path d="M0 0q-2 6-8 6h-3q3-8 11-6" style="fill:#bbaccb" transform="translate(85 314)"/><path d="M0 0q6 0 8 7 1 8-5 11l-1-3 2-1Q7 5 0 0" style="fill:#51455e" transform="translate(43 313)"/><path d="M0 0c0 7 0 7-3 9q-2 1-2-2V2q0-5 5-2" style="fill:#b1a2c2" transform="translate(58 264)"/><path d="M0 0q4 4 3 9L0 6q-1-6-9-7l-1 3V0l-2-1q6-3 12 1" style="fill:#4e4058" transform="translate(110 313)"/><path d="m0 0-2 4q-3 4-4 9l3 1h-2v8c-2 0-2-5-3-6 0-6 0-16 8-16" style="fill:#493e57" transform="translate(153 376)"/><path d="M0 0q1 2-2 3-6 3-5 11l3 1q-3 2-5-1C-10 8-9-2 0 0" style="fill:#4b3f58" transform="translate(431 321)"/><path d="M0 0q2 9-6 13l-6-1 3-4v3q7-3 7-10l-2-1z" style="fill:#4b3e59" transform="translate(217 388)"/><path d="M0 0h-4q-8 1-10 8l4 1-5 1C-17 2-7-7 0 0" style="fill:#493e55" transform="translate(417 350)"/><path d="M0 0q6 5 2 13-2 4-7 4 0-2 2-3 4-1 3-6l1-3q1-2-3-3h2z" style="fill:#4f415c" transform="translate(49 284)"/><path d="M0 0h1c0 7 0 7-2 9-1 6-1 6 3 11v2q-5 0-6-6t3-10z" style="fill:#4f4360" transform="translate(423 167)"/><path d="M0 0q5 1 3 6v2q1 3-4 2C-2 3-2 3 0 0" style="fill:#bbaeca" transform="translate(418 398)"/><path d="M0 0q10 2 10 12l-5-1 3-1Q6 3-1 3h-3q1-4 4-3" style="fill:#4f435b" transform="translate(353 424)"/><path d="M0 0q7 1 11 8v6l-3 1V9Q6 4 1 3z" style="fill:#544761" transform="translate(331 401)"/><path d="M0 0q3 2 2 6-4 8-12 6l1-5 1 3q7-1 8-8z" style="fill:#4e415c" transform="translate(279 382)"/><path d="m0 0 1 6q1 6 6 8v2q-8 0-9-10 0-4 2-6" style="fill:#4d3f5e" transform="translate(428 200)"/><path d="M0 0q6 0 8 5v3Q3 9 0 3z" style="fill:#b0a2c1" transform="translate(150 403)"/><path d="M0 0q9 1 12 10v2q-2 1-4-3-2-5-8-6l-1 2q-3-5 1-5" style="fill:#4d3f57" transform="translate(123 328)"/><path d="M0 0q4 7-2 13h-4q-1-2 3-3l1-4V4q2-2-2-4z" style="fill:#594c6a" transform="translate(59 262)"/><path d="m0 0 1 4-4-2q-4-4-9-3l-2-2q8-4 14 3" style="fill:#453a53" transform="translate(229 441)"/><path d="M0 0q8-1 12 5 2 3-1 6l-1-3Q9 3 3 2L2 5V2H0z" style="fill:#4b3f57" transform="translate(263 435)"/><path d="M0 0q5-1 5 3C4 13 4 13 0 16l-2 4c0-6 0-6 3-8l1-4V5z" style="fill:#473b54" transform="translate(262 408)"/><path d="M0 0v6l1 11q-7-4-4-12z" style="fill:#574a65" transform="translate(418 394)"/><path d="M0 0h4L2 1 1 3h-2q-5 0-9 4l-2-1q5-6 12-6" style="fill:#43394f" transform="translate(84 312)"/><path d="M0 0v5l-1 3q1 4-2 7-4-4 0-10l1-3z" style="fill:#292531" transform="translate(311 310)"/><path d="m0 0-2 3v10q-2 1-3-2C-6-3-6-3 0 0" style="fill:#4f4162" transform="translate(438 227)"/><path d="m0 0-5 3q-5 1-5 7l-2 1Q-13-2 0 0" style="fill:#4b3f5a" transform="translate(436 151)"/><path d="M0 0q5-1 6 4v3Q0 6 0 0" style="fill:#baadc8" transform="translate(446 152)"/><path d="M0 0q0 4-3 7h-3q0-6 6-7" style="fill:#b7a8c7" transform="translate(174 404)"/></svg>