<svg xmlns="http://www.w3.org/2000/svg" style="display:block" viewBox="0 0 500 500"><path d="M0 0q14 7 25 19l2 3q9 9 15 20l8 13q7 10 6 21l-3 20-4 24-1 4 2 5v12l-2 4-11-2-6 8a98 98 0 0 1-41 31q-10 4-21 5l-18 8q-7 8-12 18l-12 16-3 4q-11 13-26 18h-7l-6-5-2-8 1-4v-7l-1-3q-10 1-19 4l-15 3-5 1h-12l-5 1-11 14q-11 15-29 20l-8-1q-4-4-6-9-1-12 1-24l1-6-4 8q-2 6-8 8h-6l-5-5v-2l-4 3-5 3h-6l-4-4 1-15-1-4h-12l-4 6q-4 10-12 17l-7 2-5-3-2-5-9 5h-7l-4-4v-18c-4-2-4-2-9-2q-3 0-5-4-2-7 1-13 12-24 33-40l-5-13c-14-28-22-62-20-93l2-9 5-1 4 5 1-6q1-10 6-18l4-1 7 6c22 17 53 20 80 23q41 6 80-5l5-2c5-2 5-2 8-7l1-3 11-14 2-3q18-18 41-25 39-13 77 6" style="fill:#1b1b1b" transform="translate(394 122)"/><path d="M0 0q14 7 25 19l2 3q9 9 15 20l8 13q7 10 6 21l-3 20-4 24-1 4 2 5v12l-2 4-11-2-6 8a98 98 0 0 1-41 31q-10 4-21 5l-18 8q-7 8-12 18l-12 16-3 4q-11 13-26 18h-7l-6-5-2-8 1-4v-7l-1-3q-10 1-19 4l-15 3-5 1h-12l-5 1-11 14q-11 15-29 20l-8-1q-4-4-6-9-1-12 1-24l1-6-4 8q-2 6-8 8h-6l-5-5v-2l-4 3-5 3h-6l-4-4 1-15-1-4h-12l-4 6q-4 10-12 17l-7 2-5-3-2-5-9 5h-7l-4-4v-18c-4-2-4-2-9-2q-3 0-5-4-2-7 1-13 12-24 33-40l-5-13c-14-28-22-62-20-93l2-9 5-1 4 5 1-6q1-10 6-18l4-1 7 6c22 17 53 20 80 23q41 6 80-5l5-2c5-2 5-2 8-7l1-3 11-14 2-3q18-18 41-25 39-13 77 6m-98 11q-23 17-35 44-5 14-6 27l-1 10h-3q-2-15 3-29l1-4 1-4v-2l-7 2c-38 12-81 7-119-1q-25-5-46-20l-2-1-2 2q-3 13 0 25v5l-7-3-2-3-3-3h-2q-2 25 8 49 13 27 39 43l3 2 4 3c16 8 34 16 53 16l-1-6v-6l4 1 1 6 1 4v6q4 28-2 55-3 14-2 28l2 3 9-1q26-17 40-44 15-27 23-54l2-4 1-4 1-2h3l-3 12-1 9 10-1 5-1q12-1 23-6l13 5q22 13 49 13 27-1 49-16 15-11 26-26v-2h-2l1-4q-13-5-28-8l-4-1a173 173 0 0 0-43-5l-14 2-6 6v9l3 4q12 1 24-3 24-4 47-3h4l9 1v2l-6 2-8 4 2 1-1 3q-10 5-21 4h-5l-11-1-28-1c-10 0-10 0-15-3l-4-7q-2-10 2-19l10-9 9-2q10-1 18-7l4-4q4-4 10-6l13 1-2-6q-4-10-3-21 3-10 10-18l15-8h10l9 1h3Q24 24 7 12-13-3-38-4c-23 0-40 2-60 15" style="fill:#070505" transform="translate(394 122)"/><path d="m0 0 6 4q22 13 46 14l3 1C42 34 12 42-7 47q-23 8-47 10h-12l5-10 5-9 3-5 3-10q2-9 7-15 14-5 29-6l6-1z" style="fill:#e7f6fa" transform="translate(291 290)"/><path d="m0 0 6 8q21 26 52 40c13 5 13 5 27 7l10 1 4 3 1 9v5l-1 25v5l-1 3c-11 0-23-7-32-13A153 153 0 0 1 3 11L1 7z" style="fill:#e7f5fa" transform="translate(75 236)"/><path d="M0 0q7 2 13 6l4 3q11 9 25 11 8 1 15 7l5 7v10l-6-1-4-2-3-1a222 222 0 0 0-76-15q-7 0-13 3-4 2-6 5v9l2 3q11 1 21-2 32-8 63-2v2l-9 4-5 3q-10 4-21 4h-6l-10-1q-14-2-26-1h-8l-4-1-5-8c0-11 0-11 2-16q5-6 13-9l5-1q14-2 24-12 4-4 10-5" style="fill:#ec860e" transform="translate(377 217)"/><path d="M0 0q10 4 17 12 6 10 4 21 0 9-7 16t-15 9-17-1q-8-3-14-10-5-7-5-15-1-9 3-16 3-7 10-12l3-2q11-4 21-2" style="fill:#fbfbfb" transform="translate(422 167)"/><path d="M0 0q10 4 17 12 6 10 4 21 0 9-7 16-6 7-16 9-9 2-16-1-8-3-13-9-6-9-6-19 0-9 4-16 5-7 11-11 11-4 22-2" style="fill:#fcfcfc" transform="translate(342 167)"/><path d="M0 0h2l5 8 12 14c7 7 7 7 8 10Q21 53 8 70l-3 3-4-1-3-6 1-6 2-2 6-10-9 12q-4 6-10 8l-3 2-3 1-1-1V50q4-4 10-6l4-5-5 4-9 6-11-1-3-2 2-11Q-18 15 0 0" style="fill:#f0860b" transform="translate(90 286)"/><path d="M0 0h3c23 0 49 5 69 14l-1 4-8 5-4 2-7 3v-3l-2-1 6-3 3-1 5-2v-2l-13-1h-3q-23 0-47 4-10 3-21 2l-3-4V8l4-5q9-4 19-3" style="fill:#1c100c" transform="translate(353 242)"/><path d="M0 0q9 4 16 11 7 9 7 17 1 12-4 23L5 64q-11 5-23 3-10-3-18-10-7-8-9-18t1-18q5-11 15-17 14-8 29-4m-29 9q-8 7-11 18-2 11 4 22 4 7 11 10 8 5 17 3 8 0 15-5l10-13q3-11-1-23Q12 11 2 6q-16-7-31 3" style="fill:#0a0a0a" transform="translate(345 163)"/><path d="m0 0 1 2-16 22-3 4q-8 9-20 14h-6q-2-5-2-11V21l1-3 7-3 5-2 4-1 7-2 3-2 16-7z" style="fill:#1b1b1b" transform="translate(330 324)"/><path d="m0 0 3 1v1h-9q-20 0-40 5l-17 1V4l8-2 4-1h4-16l2-4c18-9 43-1 61 3" style="fill:#ececeb" transform="translate(397 251)"/><path d="M0 0h1q1 11-4 21l-10-4-1 2h3v2l-14-3-7-3h8l4 1h4l-11-3-5-1-2-2h8q8 1 16-3l5-3h2V2z" style="fill:#1c1917" transform="translate(439 219)"/><path d="m0 0 2 1-1 3-8 2-4 1c-18 3-43 6-60 0V3l9 1h27q16 0 32-3z" style="fill:#040404" transform="translate(239 188)"/><path d="m0 0 6 2 4 2 3 2q0 5-4 10t-9 8h-4l-1-10V4q2-3 5-4" style="fill:#e68414" transform="translate(137 333)"/><path d="m0 0 11 3q-1 8-7 14H0l-5-9z" style="fill:#e28318" transform="translate(152 341)"/><path d="m0 0 9 6 3 2 2 2v2l-4 3C0 15 0 15-3 13Q-4 6 0 0" style="fill:#de821a" transform="translate(121 321)"/></svg>