<svg xmlns="http://www.w3.org/2000/svg" style="display:block" viewBox="0 0 500 500"><path d="M0 0h3c41 3 84 12 114 41q8 8 18 10 19 6 34 17 10 6 19 5l8 4 8-1c22-1 40 19 29 41l-3 4q-1 6 3 11 5 11-3 18l-2 7c-7 22-7 22-12 22l-3-8-1-5-2-7q-2-1-3 4c-5 15-5 15-10 12-2 7-2 7 1 12l4 8 3 4 3 7q0 4 2 3l2-6 5-10 2-5q4-8 7-2l2 5 3 4 3 9q5-8 8-17 1-5 4-4 7 14 10 30-1 3 4 7c6 12-5 18-15 20q-7 2-12 9-18 18-41 31l-3 2q-35 20-77 22c-10 1-14 2-21 11q-18 15-42 17 2-6 6-11l1-3-7 5c-12 7-29 13-43 11 2-5 2-5 6-9q10-12 14-28l2-5-6-2-7-4-4-2-8-5-13 3c-15 5-42 13-41-9q0-22-15-40c-15-20-15-20-4-27 5-6-6-9-12-11q-4 1-6 7-11 24-33 40l-2 2c-9 6-23 14-34 14l6-9c8-11 11-19 11-33q0-25 11-47l-3-8q-8-20-8-44 0-21-16-36c0-7 30 9 34 12q27 18 37 48c6 0 14-3 16-8h-4c-11-2-2-18 2-24q9-6 19-7h14l6-6 3-3c5-8-4-16-11-19l-3-2-9-3q4-6 10-8c19-9 57-32 33-56-7-7 5-5 9-5" style="fill:#0c0807" transform="translate(198 83)"/><path d="M0 0q7 4 15 3c9 1 6 5 1 11-11 15-1 38 18 40q8 1 15-2c8-3 9 10 9 16q-5 3-11 2H31q-18 0-37 5l-3 1q-12 3-20 12l-3 3q-11 13-17 28l-4 10c-10 21 14 16 28 16h98c8-1 11-1 11 9-8 8-25 6-36 5H0q-18 0-37 9c-46 14-69-32-74-71v20q0 19 8 38l5 15c-44-36-29-91-6-133q-11 15-20 35c-3 7-9 0-14-4l-19-14-3-2-7-4-3-3c-5-2-3 1-3 5q3 15-13 19l4 10c2 15-9 24-23 24-5-1-5-1-9 1-12 0-70 2-56-22q8-8 19-11 26-12 42-34C-158-24-69-52 0 0" style="fill:#cd8628" transform="translate(369 158)"/><path d="m0 0-4 7-9 18Q-40 83 4 130l-2-4Q-9 102-9 75v-4c0-17 0-17 2-17l1 9c5 50 36 79 85 61q8-3 18-3h14l12 1-5 1q13 3 26 3h12q11-1 6 4c-8 8-8 8-11 8l-2 4-7 6-4 3c-9 7-9 7-14 7v2q-10 7-22 11l-6 3c-26 10-54 6-72-17l3 5 1 2 6 7v2l5 2 3 2 12 5 3 2q-17 3-35 2H8c-7-1-2-7 0-11 7-9 7-9 2-14l-3 7c-9 21-30 48-55 45l5-11 5-12c4-13 10-18 22-24 9-4 9-4 12-12q-4-4-6 3l-6 4-2 2-5 2c-5 2-5 2-9 6-18 15-61-37-70-50l-7-9-8-11a87 87 0 0 0-41-29q-10-4-12-16l7 2q27 11 56 6h5c18 0 26-14 19-30q1-6 8-7 6-8 4-18c2-7 10 1 13 4l17 13 5 3 4 3 3 2q7 8 7-2C-20 27-2-4 0 0" style="fill:#b5221f" transform="translate(266 196)"/><path d="M0 0c20 13 20 13 20 16H-2q-13 1-22-9-17-13-37-18l3 1C-24 7-24 7-24 15l-12 3-14 3q-8 1-14-4-8-6-17-7l5 3c14 7 14 7 14 12l-6 2-18 10q-5 2-12-1l-7-1 9 5q1 5-5 7l-10 8q-3 1-5-4-4-9-15-13l10-7c15-9 32-21 32-40v-4l-2-7C-91-33-8-5 0 0" style="fill:#b8c6c7" transform="translate(290 113)"/><path d="M0 0a92 92 0 0 1 46 48q6 7-4 9l-4-5c-8-12-8-12-20-22l4 4 15 24q-2 11-11 3l-8-3 4 3c16 11 15 26-2 34l12-4q3-3 5 1-4 18-17 29l-2 3 1-1 8-7q9-7 14-19c17 4-9 33-16 40q-10 12-27 17l3-9q4-10 3-21 0-22 10-42c3-6 2-7-1-13Q3 48 4 23 3 13-1 3q-3-5 1-3" style="fill:#b9c5c6" transform="translate(60 174)"/><path d="m0 0 19 13c12 8 12 8 8 15l-14-3-4-1-3-2-4-1-10-3 3 1 12 6 4 2 4 2 4 1c6 3 6 3 6 9l-8 1-5 1H1l-13 1h3l30 1q6 1 3 8l-7 4-4 2-5 2-5 2-11 5 3-1 4-1 4-2c24-8 24-8 23 3l-7 6-5 3-5 3-10 7c-10 7-10 7-12-3q-1-6-6-7-5-3-2-10 1-10-5-19c-3-6-1-6 3-11q4-9 1-19 1-6 7-9 3-5 3-10c2-6 9 2 12 4" style="fill:#b9c7c7" transform="translate(212 218)"/><path d="M0 0q6 7 2 16-3 12-1 24 0 7-5 12l-3 5q-5-6-8-13-1-9-7-4l-3 7c-6 11-6 11-9 10v-3q-4-1-2 6h-11q-4 0-3-4l-4 2-4-7v7q-9 3-6-5l-5 3c2-12 8-39 22-30 5 2 4-3 4-7 1-9 1-9 4-9l5 7q3 7 7 2l1-6c2-12 2-12 5-10l7 10q3 7 6 2l4-11q1-6 4-4" style="fill:#c0201f" transform="translate(388 239)"/><path d="m0 0-4 7-9 18Q-40 87 8 135l3 4c-10-5-10-5-10-9l-4-2c-9-9-22-23-22-36q-13 7-24 16l-10 7-4 3q-9 7-7 1v-9q-1-8-10-12-6-2-1-9 4-14-8-22-6-4 2-7 12-11 4-26 1-6 8-7 6-8 4-18c2-7 10 1 13 4l17 13 5 3 4 3 3 2q7 8 7-2C-20 27-2-4 0 0m-67 24q-2 6-7 8-3 4-1 9 1 13-7 22l5 9q4 8 1 18 0 6 6 8 4 5 4 11c2 7 10-2 13-4q11-9 22-15 6-5 2-11-10 0-21 5l-4 1-8 3 3-1 13-6 5-2 4-2 4-2q5-3 3-9l-8-1h-10l-5-1h-13 3l16-1h5l5-1h5q5 0 3-6l-7-4-4-2-5-2-9-4-4-3-3-1 3 1 12 4 4 1 4 2 4 1q9 3 8-7l-8-6-6-4-2-1-16-12c-8-5-7-4-9 5" style="fill:#140b0a" transform="translate(266 196)"/><path d="M0 0c-13 19-33 17-44-1-15-42 59-43 44 1" style="fill:#fbfbfb" transform="translate(349 207)"/><path d="m0 0 3 4 17 22 2 2 4 5c10 9-3 14-11 19q8-2 14-6c8-5 12 0 17 6q-6 5-14 7l-4 1C5 64 5 64 5 52 4 31-4 19-16 3c-13-17 6-15 16-3" style="fill:#bac7c8" transform="translate(148 303)"/><path d="M0 0c-10 19-29 18-41 2C-53-33 4-41 0 0" style="fill:#fbfbfb" transform="translate(427 194)"/><path d="M0 0c0 24-33 56-57 53l5-11 5-12c4-13 10-18 22-24C-4-4-4-4 0 0" style="fill:#bac7c8" transform="translate(275 356)"/><path d="M0 0c-12 23-40 23-53 2-21-51 69-56 53-2m-46 3c13 16 35 11 43-8 3-50-67-28-43 8" style="fill:#120c0a" transform="translate(354 208)"/><path d="m0 0 1 9c3 36 22 70 62 69h3C25 105-2 37-2 9c0-9 0-9 2-9" style="fill:#1b0604" transform="translate(259 250)"/><path d="M0 0h4c5 1 1 4-1 6l-3 4-4 4-3 4q-8 7-16 1C-23 5-12 0 0 0" style="fill:#b3bebf" transform="translate(149 191)"/><path d="M0 0h3q12 0 6 5C2 12-9 20-20 21l3-7 1-5 2-4c3-7 7-5 14-5" style="fill:#bac6c7" transform="translate(278 386)"/><path d="m0 0 6 14c4 10-7 9-14 9-9-4 2-15 5-21q1-2 3-2" style="fill:#f3f3f3" transform="translate(422 279)"/><path d="M0 0c2 11-7 9-15 7V4l-2 1 5-12 2-3c4-5 8 7 10 10" style="fill:#240d0c" transform="translate(353 291)"/><path d="m0 0 2 4c3 9-12 6-18 5q2-7 6-12l2-4c4-6 7 3 8 7" style="fill:#f3f3f2" transform="translate(400 291)"/><path d="m0 0 2 4c2 6-1 5-7 5h-5c-4-1 2-26 10-9" style="fill:#f6f6f6" transform="translate(373 290)"/><path d="m0 0-1 3q-1 13-7 4C-20-10 2-8 0 0" style="fill:#ececec" transform="translate(382 239)"/><path d="M0 0c4 11 6 21-9 18l3-9 2-6q2-5 4-3" style="fill:#ececeb" transform="translate(444 281)"/><path d="M0 0h4c7 1 0 11-3 15C-5 9-13 0 0 0" style="fill:#e6e6e6" transform="translate(397 232)"/><path d="M0 0c-3 13-3 13-8 7l-3-3C-13-1 2-12 0 0" style="fill:#e7e7e7" transform="translate(361 243)"/><path d="m0 0 2 3c3 7-5 5-10 5-5-2 1-21 8-8" style="fill:#ebebea" transform="translate(349 291)"/><path d="M0 0c0 4-1 15-6 13-7-15-7-15 6-13" style="fill:#f3f3f2" transform="translate(421 233)"/><path d="m0 0-2 2q-5 9 1 18-15-8-3-20z" style="fill:#2c130c" transform="translate(162 222)"/><path d="m0 0-2 2q-5 9 1 18-15-8-3-20z" style="fill:#2d140c" transform="translate(221 193)"/><path d="m0 0-2 2q-5 9 2 18-16-7-4-20z" style="fill:#2a130b" transform="translate(224 160)"/><path d="M0 0c2 5 2 5 1 9l1 4q-9 3-6-5l-3 2C-3 0-3 0 0 0" style="fill:#2a0807" transform="translate(328 284)"/><path d="m0 0-2 2q-6 10 2 18C-10 18-11 7-4 0z" style="fill:#2c0404" transform="translate(210 326)"/><path d="m0 0-3 4c0 7 0 9 3 15q-14-7-4-19z" style="fill:#2c120b" transform="translate(142 241)"/><path d="m0 0-2 2q-5 8 0 17-14-8-2-19z" style="fill:#350606" transform="translate(172 275)"/><path d="m0 0-3 5q-1 8 3 14-13-6-4-19z" style="fill:#29110a" transform="translate(171 238)"/><path d="m0 0-3 5 1 11 1 2q-13-7-3-18z" style="fill:#28120b" transform="translate(179 199)"/><path d="m0 0-2 3q-5 8 1 15l1 2q-15-8-4-20z" style="fill:#281009" transform="translate(258 170)"/><path d="m0 0-3 6q0 6 2 11l1 3C-7 16-13 0 0 0" style="fill:#25100a" transform="translate(249 153)"/><path d="m0 0-3 5c-1 6 0 7 3 12q1 3-4 0C-7 13-9-5 0 0" style="fill:#310404" transform="translate(236 303)"/><path d="m0 0-2 3q-4 6 0 14l1 2q-13-7-3-19z" style="fill:#2a0404" transform="translate(159 261)"/><path d="m0 0-3 6q-1 8 4 14C-8 18-12 0 0 0" style="fill:#250e08" transform="translate(241 188)"/><path d="m0 0-3 5c-1 6 0 7 3 12q1 3-4 0C-7 13-9-5 0 0" style="fill:#1f0d08" transform="translate(269 154)"/><path d="m0 0-2 3q-4 7 1 16-13-7-3-19z" style="fill:#1f0c06" transform="translate(210 173)"/><path d="m0 0-3 5q-1 8 3 14C-9 15-9-4 0 0" style="fill:#1f0b06" transform="translate(234 170)"/><path d="m0 0-3 5q-1 7 3 13C-9 14-8-4 0 0" style="fill:#240202" transform="translate(232 328)"/><path d="M0 0c0 13 0 13-6 10C-7 6-5 0 0 0" style="fill:#e4e4e4" transform="translate(343 250)"/><path d="M0 0c3 7 3 7-1 8-7-2-3-8 1-8" style="fill:#eaeaea" transform="translate(328 290)"/><path d="M0 0c-2 5-5 2-9 0l-4-2C-23-8-3-2 0 0" style="fill:#292b2b" transform="translate(241 105)"/></svg>