<svg xmlns="http://www.w3.org/2000/svg" width="500" height="500" viewBox="0 0 500 500"><style>.s0{fill:#111611}</style><path d="m278 22 8 3q12 8 21 18 15 17 25 35 9 17 13 35l1 19v8l-3 8v7q7 9 15 16l3 2 9 10 2 4 3 5 1 2h2l1-3 3-9 3-7 4-7 4-6 5-6 2-2 7-7q13-11 28-19l9-4 10-3 10-2 10-2h16l2 2 1 21-2 16-3 17-6 15-7 15q-7 13-18 22l-13 10-6 3-3 2 13 10 10 8 1 3h2l5 7 5 7 5 8 4 8 2 4q6 15 9 32l1 23v14l-2 2h-19l-13-3-12-4-12-5-12-6-14-11-2-1q-6-5-11-12l-13-20-2-7-2-3-1-2-1 2-4 6-5 7-6 6-2 2v2l2 2 10 12q5 9 6 17l2 14v3l-1 6-2 2-6 2-20-2-19-8-2-1-6-4v-2l-3-1v-2h-2v-2l-5 3-2 1-2 1 2 4 6 7 17 24q7 15 11 29l2 16v8l-2 3-2 1-9 1q-13-1-27-5l-23-10-14-11c-10-11-10-11-14-18l-8-16-1-2-10 2-8 2-4 1h-8l-7 1-2 1 1 6 3 10 3 11v24l-2 3-2 1-2 1q-13-1-25-6l-19-9-6-6-2-1-8-9-11-22-2-7 1-3-1-3-6-2-15-6-14-8-14-9-12-11-3-2-11-13-2-3q-9-10-16-24l-6-13-4-13-3-14-1-14v-15l-1-2-7-5-8-9-4-9-1-16 2-11 6-12 2-3 2-3 8-6 8-5 10-3h9l7-1 2-1 3-4 6-8 7-7 7-6 7-6 8-5 3-2q12-7 25-12 15-6 32-9h3l2-1 3-3 3-5 5-8 6-8 6-8 6-7 17-15q9-7 20-12l21-6q12-2 24 1" class="s0"/><path d="m278 22 8 3q12 8 21 18 15 17 25 35 9 17 13 35l1 19v8l-3 8v7q7 9 15 16l3 2 9 10 2 4 3 5 1 2h2l1-3 3-9 3-7 4-7 4-6 5-6 2-2 7-7q13-11 28-19l9-4 10-3 10-2 10-2h16l2 2 1 21-2 16-3 17-6 15-7 15q-7 13-18 22l-13 10-6 3-3 2 13 10 10 8 1 3h2l5 7 5 7 5 8 4 8 2 4q6 15 9 32l1 23v14l-2 2h-19l-13-3-12-4-12-5-12-6-14-11-2-1q-6-5-11-12l-13-20-2-7-2-3-1-2-1 2-4 6-5 7-6 6-2 2v2l2 2 10 12q5 9 6 17l2 14v3l-1 6-2 2-6 2-20-2-19-8-2-1-6-4v-2l-3-1v-2h-2v-2l-5 3-2 1-2 1 2 4 6 7 17 24q7 15 11 29l2 16v8l-2 3-2 1-9 1q-13-1-27-5l-23-10-14-11c-10-11-10-11-14-18l-8-16-1-2-10 2-8 2-4 1h-8l-7 1-2 1 1 6 3 10 3 11v24l-2 3-2 1-2 1q-13-1-25-6l-19-9-6-6-2-1-8-9-11-22-2-7 1-3-1-3-6-2-15-6-14-8-14-9-12-11-3-2-11-13-2-3q-9-10-16-24l-6-13-4-13-3-14-1-14v-15l-1-2-7-5-8-9-4-9-1-16 2-11 6-12 2-3 2-3 8-6 8-5 10-3h9l7-1 2-1 3-4 6-8 7-7 7-6 7-6 8-5 3-2q12-7 25-12 15-6 32-9h3l2-1 3-3 3-5 5-8 6-8 6-8 6-7 17-15q9-7 20-12l21-6q12-2 24 1m-128 84-24 9-3 2-7 3-7 4-6 4-6 4-2 2q-13 10-23 22l-2 2v2l3 2 7 4 7 6 5 7 3 8 1 11-2 25q-2 8-7 15l-8 11-5 4-5 3-5 3-6 2H43l-3 1-1 4 4 16q5 15 12 29l2 2 10 14 1 3 3 1 2 3 2 3 7 6 7 6 15 12 1 1 14 7h2v2l6 3 4 1 4 1 4 2 11 3 11 2 11 2 11 1h33l3-1 10-2 3-1 10-1 2-2v-2l-1-4-1-3-1-3-3-20v-15h5l1 2 1 7q0 14 5 29l9 22 1 3 7 12 10 10 11 9 12 7 23 7 4 1h7l3-1 1-3-1-6-1-3q-3-15-9-28l-14-21-11-13-12-11-13-11-14-10-5-5v-2l1-3h3l3 1 11 9 3 2 17 15 2 1h2l7-3 4-3 2-1 15-12 2-2 10-11 4-3 10-10v-2h2l7-9 1-1q13-16 22-35l3-10v-8l-1-8-5-14-8-14-10-13-10-12-11-12-2-2-17-15-3-2-19-14-21-12q-10-6-22-10l-22-8-3-1-25-4h-19q-21 0-41 5" style="fill:#0d0503"/><path d="m480 125 3 1v10q0 15-4 30t-11 28l-2 4-2 3-10 12q-6 8-15 14l-18 8-2 1-2 2v2l1 3 7 3 18 12 2 2 9 8 7 9 7 10 5 11 3 10 3 10 2 11 2 10 1 13-1 4-2 1-6-1h-3l-3-1q-11-1-22-5l-2-1-7-2v-2l-3-1-5-3q-8-4-15-12l-2-1-3-1-4-5-6-8-10-17-5-12-1-4 1-4 6-10 1-3h2l4 5 8 11 9 10 9 10 10 9h3l2-1v-5l-4-5-9-8-9-8-8-10-7-9-1-2-3-4h3l10 4 8 3 7 3 8 2 8 1h3l1-3-1-2-9-2-21-6-17-9-1-1-1-10 1-3 3-4 10-6 19-10 3-1 4-1 10-2v-4l-6-1-15 5q-13 5-24 13l-2 1 2-5q8-13 18-24l19-20 1-1v-3l-1-2-3-1-3 2-9 8-2 2q-13 13-23 29l-1 2-3 5-2 3-2-2-1-2-2-3-2-3-1-7 4-13 4-8 4-7 5-7 6-7 1-2q10-10 22-17l15-8 12-3 3-1zM270 30l8 1 7 5 3 3 6 5 5 5 5 6 5 6 7 10 6 10 6 10 5 11 1 3 1 3v3l2 4 1 14v3l-1 10-3 6-10-7-17-12-3-2v-4l4-3 2-2 5-4 1-2-2-3-6 1-5 4-2 3-5 3-6-1-8-3-2-1-6-4-3-1-3-2 2-4 10-10 17-9 2-2 1-2-1-3-1-1-7 1-11 7-20 18-9-1-22-6-5-1 1-2 11-14 13-13 13-8 2-2-1-3-2-1h-4l-8 5q-11 8-20 18l-4 4-1 3-5 8-2 2-3 1q-7 2-15 1h-4l-11-1-3-1 1-2q5-10 11-17 11-14 24-25l22-13q15-5 31-5M170 166l14 1 8 2 11 9 4 5 6 13v19l-5 11-7 9-11 7-7 3-13 1-9-2-8-4-8-8-6-10-3-8q-1-9 1-20l2-5 2-5 3-4 3-4 4-3 12-6zm-117-2 11 1 9 5 7 4 9 16 1 6v6l-1 5-1 6-3 8-6 7-10 7-6 3-16-1-8-1-7-5-7-7-5-9-2-7v-14l3-9 6-9 15-10z" class="s0"/><path d="m172 158 16 1 12 6 11 9 5 7 4 10v2l1 1v21l-3 11-11 15-6 4-16 8-14 1-12-3-11-5q4 6 10 9l10 6 20 2 7-2 2-1h5l2 2 1 3-1 2-2 2-10 2h-19l-9-2-3-2-2-1-9-6q-7-4-12-12l-4-6-6-27-1-2v-15l4-13 7-11 10-9 14-6zm-8 9-10 5-9 8-6 8-2 8-1 18 3 8 7 11 10 8 9 4 5 1h5l5-1 5-1 11-5 7-6 5-7 2-2 2-5 2-11-1-12-1-5-3-4-1-2-7-9-6-5-9-4-5-1h-12z" style="fill:#140806"/><path d="m146 388 5 1h3l4 1 8 2h3l13 1 15 1 2 2 2 6v3l2 4 3 20v4l1 6-1 2-4 1-22-8-13-8-10-11-3-6-3-6-3-6-2-6zm203-65 4 1 9 10 5 10 2 9 1 3v7l-1 2-2 1h-6l-17-5-16-9-3-3-1-4 4-4 3-2 2-1 4 2 5 4q4 5 9 8l3 1h4v-4l-4-3-13-10-2-2 2-4 4-3 2-2zM74 239h2l-1 3q-6 6-14 9l-7 3-9 1h-3l-3 2-1-7v-4l1-3h3l4 1h15z" class="s0"/></svg>