<svg xmlns="http://www.w3.org/2000/svg" style="display:block" viewBox="0 0 500 500"><path d="M0 0q11 6 18 14l2 2q28 27 42 64v3h3q23-1 40 12 5 4 11 3 17 1 30 10l2 2c4 4 10 2 15 2q10-1 17 6l6 9 6 8q9 7 10 16l1 8v3l-3 12q-3 4-1 8l4 6q11 17 12 37 1 7 5 13 7 14 4 30-3 10-11 14l-9 2-3 1h-3l2 2 5 9 1 2c10 16 10 16 10 24l-4 6c-13 5-32-4-44-9l-11-5q-15-7-27-18h-12l-8-1h-3l-13-1q-5 0-10 5-9 4-18 0l-2-1q-11-5-23-2-13 1-25-1h-3l-16-2c-10-3-10-3-20-1l-8 8c-15 14-38 23-57 29l-3 1c-14 5-32 9-46 4l-6-6c-2-12 9-24 15-34l21-34-3 2c-25 13-25 13-36 10l-5-4v-13l1-14v-10q0-4 3-8l4-2 2-1 7-3-12-4h-10l-11 11c-12 13-32 29-50 30l-9-2q-5-9-4-19l3-13 6-26q6-18 1-37v-4l-7-28q-5-13-5-28v-4q1-6 4-10 6-2 11-1a118 118 0 0 1 52 46l3 3 1 2q4 4 5 9l13-1v-3c-2-20-2-20 2-27q3-4 7-5c13 0 23 7 34 13 6 4 6 4 12 5l2-1 3-2-2-1-3-2-3-1q-5-4-6-9c-1-17 12-37 23-50l3-3 19-18q12-9 21-22C-24 4-14-6 0 0" style="fill:#060503" transform="translate(254 83)"/><path d="m0 0 4 3q6 4 13 3 16 0 28 10v4l-6 5-1 2 2-1 9-3 2-1q12-4 23-1l4 6h-2q-16-1-28 8-10 10-10 24 0 17 11 29l5 6h-2c-30 3-57 10-78 33q-12 17-18 37l-1 2v12l1 9q-34 5-66-4l6-8q8-7 13-17l8 5q9 9 20 11v-2l-2-1-6-4-3-2-2-2-3-2a70 70 0 0 1-22-44q0-25 9-49l-8 14q-13 27-2 54l8 17c-27 38-72 66-118 75-15 2-15 2-21-2q1-9 7-17l2-3 8-15c27-44 27-44 46-49l29-5 7-1v4l-43 19q12-1 22-6l3-1 18-7h6v3c-14 14-34 23-51 32l-3 1-3 2-4 3q35-12 63-33 2-2 5-2l2 1q-15 21-37 35l-3 2q-21 13-44 23l24-8 3-2c24-10 49-25 63-47l1-5-2-1q-11-4-16-15-1-9 4-17-5 3-9 8l-1 3q0 2-5 3l-10 1c-6-18-5-40 3-58q7-10 18-12l13-1h-2q-9-1-14-8-6-9-4-20c3-13 8-28 20-36q10-3 20-2h3q10 0 19 2l-1 4-2 1-2 2-4 1-1 2-4 6q-8 14-5 31v2-3q1-20 16-35 38-30 78-8" style="fill:#86804d" transform="translate(352 183)"/><path d="m0 0-1 4-1 4-1 3q-6 15 1 30l5 6v2l-3 2-4 2-2 1q-10 4-14 16-5 16-5 34v2l2 17-3 1h-4l-2 1-11 3-4-1c-10-11-10-27-9-42q0-15 11-25-9 3-13 12a78 78 0 0 0-3 32v10c-17-4-17-4-21-9q-7-12-6-27l3-5q-7 5-7 14v12l-17-3-6-2h-5q-7-2-9-8-8-15-3-31 2-8 9-14l8-2h4l25-2v3c-1 10-1 10 4 19l4 3-1-2q-5-8-2-18c5-11 5-11 10-15l5-2h3l2-1 3-1 14-3v2c-3 12-3 12 1 24l4 3-1-2q-4-13 3-27 3-11 14-16 12-5 23-4" style="fill:#86804d" transform="translate(217 193)"/><path d="M0 0c27 9 45 44 57 68q3 5 3 11l-11 2-1-4q-9-33-31-57l9 16q9 17 14 33l1 3 1 2 1 3v7l-4 3-7-2h-5l-7-2-4-9C12 61 1 34-12 28l2 2L3 55l2 4c8 17 8 17 8 23l-23 1-5-9q-7-13-19-24l2 2 17 32-7 6-4 5q-2 3-5 2-4 1-6-3l-5-8-2-2q-4-7-10-12l2 2 12 24h-3q-14 4-26 13l-6-4-2-1-7-5q0-9 5-16l1-2q14-29 40-48l19-22C-8-1-8-1 0 0" style="fill:#86804e" transform="translate(248 89)"/><path d="M0 0q20 16 24 41 1 10-4 17-5 6-12 5-7-2-11-8l-5-15q-1-9-8-16a44 44 0 0 0-27-6l-18 2-4 1q-18 3-31 18-4 11-5 21 0 10-8 17-7 3-14 1-6-2-9-8c-4-13 1-26 6-37q21-35 59-44c22-5 49-3 67 11" style="fill:#a79368" transform="translate(446 297)"/><path d="M0 0c14 0 26 14 35 23l20 24 1 2 4 5q-1 4-5 7h-2l-4-4q-8-11-19-20l-2-1-12-8 11 10 16 17 2 3c5 5 5 5 5 9l-3 5-3-1-19-8v2l3 1 10 5 3 1 5 4v19q-4 5-10 6l-11 5 14-4 9-2q2 4 1 8-10 13-25 22l-2 1-7 4v2q21-10 37-26l3 2v2l4 2c-2 10-16 18-24 24l-3 2c-7 5-17 12-26 12H2c-5-10 3-29 5-39l3-12 1-4q4-19-1-39L3 34C-2 12-2 12-1 1z" style="fill:#857f4e" transform="translate(31 173)"/><path d="M0 0q5 5 6 12l3 13a99 99 0 0 1-70 19h-6l-10-2c2-27 2-27 9-35C-52-5-17-13 0 0" style="fill:#aa9567" transform="translate(428 326)"/><path d="M0 0q11 7 15 18 2 13-4 23-8 12-23 14-10 0-18-6l-3-1q-10-11-9-26 1-12 10-19Q-17-8 0 0" style="fill:#fbfbfb" transform="translate(333 219)"/><path d="M0 0q9 5 14 15 4 12-2 23Q6 48-4 51q-12 3-22-4l-3-2q-8-7-9-21 0-10 8-18Q-17-7 0 0" style="fill:#fbfbfb" transform="translate(433 218)"/><path d="M0 0h2v3l3 21 1 3q4 17 19 27 15 9 32 5l-1 5v2l-2 5v12l1 9q-34 5-66-4l6-8q8-7 13-17l8 5q9 9 20 11v-2l-2-1-6-4-3-2-2-2-3-2C9 57 1 40-2 26Q-3 13 0 0" style="fill:#a89467" transform="translate(253 278)"/><path d="m0 0 4 3 2 3 4 9c-27 38-72 66-118 75-15 2-15 2-21-2v-2l4-1q25-6 49-17l2-1 3-2 9-6c16-7 34-18 45-33l4-3c5-3 9-11 11-16z" style="fill:#a69366" transform="translate(248 321)"/><path d="m0 0 2 1c9 7 15 21 17 32v8h-3l-1-3Q8 16-12 5c-18-7-41-6-58 2q-11 4-20 13l-2 1q-11 15-16 33l-1 2-3 1q-1-23 13-42Q-81-4-54-9l3-1q27-5 51 10" style="fill:#070604" transform="translate(440 305)"/><path d="M0 0q10 9 13 21 3 17-8 30-10 12-27 14-15-2-25-11-11-12-11-30l4-13 2-3C-39-9-18-12 0 0m-45 10q-7 10-6 22l5 13 2 3q9 9 21 10 13 0 22-10t8-23Q6 14-3 7q-10-8-24-7-10 2-18 10" style="fill:#090908" transform="translate(342 216)"/><path d="m0 0 3 4 1 2 2 3 2 3 10 17 1 2q4 5 4 12-11 1-22-3l-3-2q-23-7-41-21v-2l3-1q12-2 22-6h6l4 4 2 2 2 2 4 5 2 2 6 6Q2 18-7 9l-2-3q2-6 9-6" style="fill:#837d4e" transform="translate(437 360)"/><path d="m0 0 3 2Q1 7-4 9l-3 2-2 1 8-3 5-2q4-3 7-1h5q1 3-2 5L-2 25q11-5 21-14l4-2 5 6C15 27-3 41-21 41h-3v-2l1-21v-3l1-9 2-1 3-1 3-1 7-4q4-2 7 1" style="fill:#847e4f" transform="translate(134 306)"/><path d="m0 0 4 3q6 4 13 3 16 0 28 10v4l-4 1v-2l-13-4-2-1-12-1Q3 12-6 4-25-6-45-1q-24 6-39 26l-6 17-1 4-2 1q-2-20 12-36Q-67-1-51-7l3-1q26-6 48 8" style="fill:#a59367" transform="translate(352 183)"/><path d="M0 0q6 1 10 6l1 1q27 26 40 60v4l-11 2-1-4Q30 38 9 14L4 5z" style="fill:#a59269" transform="translate(257 97)"/><path d="m0 0 1 2 7 3q10 6 21 7l3 16-9 2-11 3-4-1c-9-9-8-20-8-32" style="fill:#a99568" transform="translate(162 288)"/><path d="M0 0q15 5 27 14l-6 3q-7 1-12 8l-16 2-1-17V6q0-3 2-5 2-3 6-1" style="fill:#857f4e" transform="translate(126 197)"/><path d="M0 0q6 5 8 12l1 2q5 9 5 17l-1-1Q-5 15-28 11l-3-3h3C-17 8-8 8 0 0" style="fill:#817a4e" transform="translate(444 267)"/><path d="m0 0 3 4 1 2 2 3 2 3 10 17 1 2q4 5 4 12h-6l-1-2L5 24l-2-3L-7 9l-2-3q2-6 9-6" style="fill:#a69369" transform="translate(437 360)"/><path d="M0 0c15 1 29 16 38 26l17 21 1 2 4 5-3 4-2 1-2-3C40 35 24 14 0 3z" style="fill:#a59268" transform="translate(31 173)"/><path d="M0 0h3l19 2-2 4q-5 4-10 3H8L2 8c-14-1-14-1-27 5q-7 9-11 21h-1q0-8 5-16l1-2q4-10 15-15z" style="fill:#a49368" transform="translate(255 178)"/><path d="m0 0 7 2 10 1h6l2 20-9-2-3-1q-5-1-9-6Q1 8 0 0" style="fill:#a99569" transform="translate(131 284)"/><path d="m0 0 3 1 34 7 1 9-17-3-6-1-2-1h-3q-5-1-8-6z" style="fill:#a59266" transform="translate(87 275)"/><path d="m0 0 2 1q9 6 19 7l-3 9q-7 4-15 3-4-10-3-20" style="fill:#aa9669" transform="translate(198 295)"/><path d="m0 0-1 6-20 7q-9 2-13 10l-1 2h-1q0-8 5-15l9-5h3l3-1 5-2h3z" style="fill:#a59368" transform="translate(173 213)"/><path d="M0 0q18 3 32 14-5 5-12 3l-8-6Q6 6-2 4z" style="fill:#a69368" transform="translate(121 197)"/><path d="m0 0-2 6h-3q-18 2-30 14 0-7 5-12 14-9 30-8" style="fill:#a49368" transform="translate(217 193)"/><path d="M0 0v4l-22 2c-9 1-9 1-17 6l-4 1q2-5 6-9l17-3h3z" style="fill:#a59369" transform="translate(131 230)"/><path d="M0 0q6 5 8 12l1 2q5 9 5 17-8-6-10-16L0 7l-2-3z" style="fill:#a4916a" transform="translate(444 267)"/><path d="m0 0 3 3-6 3-4 1h-5l5-3 3-2z" style="fill:#1c1a11" transform="translate(173 362)"/><path d="m0 0 2 1Q1 6-4 7l-2 1-4 1V7l5-4 3-2z" style="fill:#1a170e" transform="translate(56 301)"/><path d="m0 0 1 2-11 2c6-6 6-6 10-4" style="fill:#1e1b11" transform="translate(184 339)"/><path d="m0 0 2 1v2l-9 2z" style="fill:#222115" transform="translate(155 391)"/></svg>