<svg xmlns="http://www.w3.org/2000/svg" style="display:block" viewBox="0 0 500 500"><path d="M0 0c8 6 17 15 19 26l-1 10 1 2h7l4-6q4-7 10-10 7-1 12 3 5 6 3 14l-1 9v5l3-2 1-1 5-3q4-3 9-2l7 6q3 9-2 16v2l2 2q5-1 9-5 6-5 14-5 6 3 8 7v11l-6 8q-2 3-2 7 1 4 5 7l7-2q7-3 14-1 6 3 7 8t-2 10l-6 7-3 3 2 6 1 2 2 7 7-1q6-3 14 0 5 4 5 9 1 6-1 10-6 6-14 9h-2l1 3q6-2 11-6 14-10 31-10 8 5 12 14c8 24 9 54-2 78q-3 6-9 10-12 1-23-5l-3-2-13-7-3-2q-3 2-1 4l6 2 6 4q4 3 4 7 1 6-2 11-5 4-11 3h-4l-5-1h-2l-2 4v3l-1 2-1 2 2 6 3 2c6 5 6 5 7 8q1 6-2 11-3 6-10 5-4 1-8-2l-7-1q-4 2-5 6l3 6q7 12 4 26-7 17-20 30l-3 3c-8 8-21 16-33 16a32 32 0 0 1-28-15l-4-4-8 1q-2 2-2 6v7q2 4-1 9c-4 6-4 6-8 6q-7 1-12-3l-4-7-1-2-2-7q-7-2-13 1l-2 14q-1 6-5 10-7 4-14 1-6-4-6-9l-2-10-2-6q-4-2-9-1l-3 6c-3 7-3 7-7 9q-5 2-10-1-4-3-6-8l1-7-1-6-7-3q-5 2-7 6l-1 3-6 6q-6 2-13-1l-5-6 1-16 1-5q-1-4-6-3l-5 4q-4 4-8 3-5 1-8-2l-2-3-1-1v-7l2-7-1-5-10 4c-9 6-9 6-16 5q-5-2-8-7-1-9 3-16l6-7 2-4q-3-6-7-9l-6 1q-5 3-11 1-5-2-7-6-2-7 1-12l5-6 3-3-2-6-1-3q0-4-3-7l-11 1q-8 0-13-4-2-5-2-11 0-4 3-7l5-3 9-5q1-6-1-13v-3l-1-3-8-2q-8 0-14-7-3-4-1-9 0-6 5-9 10-4 19-4 5-10 2-20-6-5-14-8-4-2-4-5-1-6 1-12 4-4 10-5l6 1h10q6-6 7-14-2-5-8-8-4-4-4-9 0-7 4-11 4-3 8-3l15 4 4-2 2-2 2-2v-9l-6-10q-3-4-3-10 3-7 8-10h10l11 8 6 3 5-3 7-4-2-5q-3-7-2-14l7-7q8-2 14 4l3 3q3 4 5 3l3-1h2l7-3v-6q-3-8 1-16 4-6 10-6 7 0 12 5l3 7c1 5 1 5 5 8q4 0 7-3l5-12q6-14 19-23 22-7 40 6" style="fill:#f0db6d" transform="translate(280 44)"/><path d="M0 0c8 6 17 15 19 26l-1 10 1 2h7l4-6q4-7 10-10 7-1 12 3 5 6 3 14l-1 9v5l3-2 1-1 5-3q4-3 9-2l7 6q3 9-2 16v2l2 2q5-1 9-5 6-5 14-5 6 3 8 7v11l-6 8q-2 3-2 7 1 4 5 7l7-2q7-3 14-1 6 3 7 8t-2 10l-6 7-3 3 2 6 1 2 2 7 7-1q6-3 14 0 5 4 5 9 1 6-1 10-6 6-14 9h-2l1 3q6-2 11-6 14-10 31-10 8 5 12 14c8 24 9 54-2 78q-3 6-9 10-12 1-23-5l-3-2-13-7-3-2q-3 2-1 4l6 2 6 4q4 3 4 7 1 6-2 11-5 4-11 3h-4l-5-1h-2l-2 4v3l-1 2-1 2 2 6 3 2c6 5 6 5 7 8q1 6-2 11-3 6-10 5-4 1-8-2l-7-1q-4 2-5 6l3 6q7 12 4 26-7 17-20 30l-3 3c-8 8-21 16-33 16a32 32 0 0 1-28-15l-4-4-8 1q-2 2-2 6v7q2 4-1 9c-4 6-4 6-8 6q-7 1-12-3l-4-7-1-2-2-7q-7-2-13 1l-2 14q-1 6-5 10-7 4-14 1-6-4-6-9l-2-10-2-6q-4-2-9-1l-3 6c-3 7-3 7-7 9q-5 2-10-1-4-3-6-8l1-7-1-6-7-3q-5 2-7 6l-1 3-6 6q-6 2-13-1l-5-6 1-16 1-5q-1-4-6-3l-5 4q-4 4-8 3-5 1-8-2l-2-3-1-1v-7l2-7-1-5-10 4c-9 6-9 6-16 5q-5-2-8-7-1-9 3-16l6-7 2-4q-3-6-7-9l-6 1q-5 3-11 1-5-2-7-6-2-7 1-12l5-6 3-3-2-6-1-3q0-4-3-7l-11 1q-8 0-13-4-2-5-2-11 0-4 3-7l5-3 9-5q1-6-1-13v-3l-1-3-8-2q-8 0-14-7-3-4-1-9 0-6 5-9 10-4 19-4 5-10 2-20-6-5-14-8-4-2-4-5-1-6 1-12 4-4 10-5l6 1h10q6-6 7-14-2-5-8-8-4-4-4-9 0-7 4-11 4-3 8-3l15 4 4-2 2-2 2-2v-9l-6-10q-3-4-3-10 3-7 8-10h10l11 8 6 3 5-3 7-4-2-5q-3-7-2-14l7-7q8-2 14 4l3 3q3 4 5 3l3-1h2l7-3v-6q-3-8 1-16 4-6 10-6 7 0 12 5l3 7c1 5 1 5 5 8q4 0 7-3l5-12q6-14 19-23 22-7 40 6m-95 20q-2 4-1 7l1 31v3l-4-1-1-10-1-2q-9 1-16 6l-3 1c-19 11-45 28-56 48l3 4 5 2 2 1v3q-6 1-12-2l-3-1-10-4-3-1h-9l-2 5c3 8 12 13 18 18l5 5v4q-4 0-7-4l-5-2-5 11q-8 20-11 41l-1 2v27c-1 13-1 13 2 26l5-2 7-2-1 5-6 3-2 1-16 9-5 3q-1 4 1 8 4 2 10 1h3l19-2h5v4l-9 1-2 1c0 23 26 50 41 65l2 2 19 16 3 2 3 2 2 2 4 1 3-3v-5l1-2h4l-1 8-3 15c-2 8-2 8 0 16q4 2 7 1l7-11 2-3 4-7 2-4 1-3 4-3h2q0 5-3 10l-1 4 4 4 5 1 2 1c21 6 49 11 71 5l-3-8-1-6h4l4 7 1 2 12 24 7-1c3-6 0-16 0-23l-1-6-1-3v-7l5-1 1 6c-1 5-1 5 2 9l4-1 2-1 3-1 3-1q24-10 45-28l2-2 2-2 3-1 1-4h-4q-8-1-15-6l-3-2-2-1-3-2-1-1 1-4 8 3 2 1 4 3q4 3 9 3l5-3v-7l-5-7c-7-9-7-9-7-13q4 0 7 3l1 2 2 2 1 2 2 3c5 8 5 8 5 14l-1 3v2c10-10 10-10 18-21v-3l-5-2-3-1-4-1v-5l5 1 4 1 9 4 2 1 5 2q6 3 13 2l3-5c-2-9-15-16-22-22l-4-3v-4l7 2 3 4 2 1c8-8 11-27 13-38l2-6c2-7 2-7 1-15q-7-1-12 1h-4v-4l7-2h3l19-3 7-3v-6q-4-4-11-4h-2l-18-3-5-1-1-4 6 1h11q2-6-1-12v-3l-2-6q-5 1-9 4h-4v-4l5-3 4-2 10-6 3-1 7-6q1-3-1-7-7-3-16 0l-11 2h-10v-3l9-2 3-1q-1-8-6-15l-1-3-17-25-2-2q-6 4-9 10l-2 2h-4q1-5 4-9l2-2 2-3 12-15 2-3 1-5q0-3-4-4c-6-1-10 4-14 7l-2 2-10 8-3 2-2 2-7 2 1-5 8-6 4-3-5-5-2-2c-8-7-8-7-18-11l-2 9-1 2h-2l-2-1 2-11 2-12c2-8 2-8 1-16l-6-2q-6 3-9 10l-2 2-8 15-1 2-2 2-4-1 3-7 2-2 1-2v-2l-7-3-2-1q-36-10-74-6h-3l-7 2 1 5 1 3 3 6v2h-5l-3-7-1-2-8-19q-1-4-5-7z" style="fill:#070806" transform="translate(280 44)"/><path d="M0 0q12 8 17 20 3 16-4 31Q4 63-9 67q-18 3-33-8-10-10-12-24-1-17 10-29 20-18 44-6" style="fill:#fcfcfc" transform="translate(138 188)"/><path d="M0 0q13 9 15 23 2 18-8 31-8 10-23 12h-6q-14-1-24-11-11-12-10-28 2-13 11-24 21-16 45-3" style="fill:#fcfcfc" transform="translate(270 190)"/><path d="M0 0q6 5 8 13v10L6 39l-1 4Q0 60-16 71q-10 3-21-4l-13-11-3-1-4-5q-2-2 1-5l3-2q4-2 5-8l1-2q3-5 2-11l1-7 1-4-3-1 1-5 6-2 2-1 7-2 3-1q14-5 27 1" style="fill:#19b2a7" transform="translate(374 255)"/><path d="m0 0 7 11 1 2q4 15 3 31v4c0 13-1 29-11 40q-4 2-9 0l-8-3-2-2c-16-8-16-8-21-13q-1-6 1-10l12 3 11 4 11 3-1-3-6-2-3-1-4-2-11-3-2-1v-2l4-1 7-3q3-6 1-12-3-4-9-6h-3l-2-1q3-4 7-4l15-6 6-2 1-3-24 9-11 2q-2-4-1-8c2-7 10-10 16-13l2-1C-7-2-7-2 0 0" style="fill:#19b1a9" transform="translate(460 206)"/><path d="M0 0h2q7 12 5 26-2 6-6 11l-2 3q-10 15-25 24l-2 2q-10 5-22 3l-6-4-3-2c-8-7-8-7-8-11l7-4 2-1 8-3 6 14 3 1-5-12-1-6 6-4 2-1 5-3q5 2 9 9l5 5h2l-10-14v-4l5-6 2-1 6-4 4 3q5 5 10 5-3-6-9-8l-2-2q1-6 7-10z" style="fill:#19b0a8" transform="translate(380 366)"/><path d="m0 0 13 11 1 2q10 11 9 27c-3 19-8 38-24 52q-8 6-17 6h-2l1-3 5-2q13-5 21-16l1-3-2 2Q-9 90-28 91q-13 0-24-7v-3q6 0 11 3 16 5 31-2l11-7-7 1q-16 6-32-2-13-7-19-21l-1-2q-6-17 2-32C-45 0-21-10 0 0m-47 15q-10 12-7 29 4 16 19 26 13 6 28 2 14-5 21-19 6-13 2-27Q11 13-2 5c-16-6-34-5-45 10" style="fill:#100e0b" transform="translate(139 182)"/><path d="M0 0q14 10 17 26 2 20-10 36-13 13-31 14-10 0-18-5 13 12 31 12l12-4 9-2-1 4q-15 9-31 6-17-4-29-18a45 45 0 0 0 29 23v3q-15-1-25-11a77 77 0 0 1-17-57q2-15 14-25C-36-9-15-11 0 0m-52 11q-9 13-7 29 3 16 17 25 14 7 30 4Q2 63 8 50t3-27Q5 8-8 1q-26-9-44 10" style="fill:#0f0d0a" transform="translate(273 186)"/><path d="M0 0c9 5 20 12 23 23q2 6 1 12-5 1-11-1l-3-1-7-2q1-6 4-11l1-4-3 1-2 6-4 6h-13l-5-1q0-9 5-16l2-6-4 3-1 2-2 3-3 9-2 5-7 1h-13c0-7 7-18 11-24Q-18-8 0 0" style="fill:#1cafa6" transform="translate(268 45)"/><path d="m0 0 7-1h159l3 1 1 4q-4 3-9 2H4Q1 6-1 4z" style="fill:#14110a" transform="translate(110 294)"/><path d="M0 0q6 5 8 13v10L6 39l-1 4Q0 60-16 71q-10 3-21-4l-13-11-3-1-4-5q-2-3 1-5l4-1 3 4c7 7 16 16 26 17q7 0 11-5Q2 40 1 16 0 10-4 5q-13-3-27 3l-6 2-3 1-6-1q-2-2 1-5l6-2 2-1 7-2 3-1q14-5 27 1" style="fill:#0b0e0a" transform="translate(374 255)"/><path d="M0 0h1q5 20-3 36l-1 2q-1 4-6 5l-3 2q-6 6-13 7l-2 1 2 2q-20 1-35-11l-2-3 2 1q19 8 38 0 15-7 20-24L0 3z" style="fill:#9f9351" transform="translate(290 214)"/><path d="m0 0 7 7q1 11-6 20l-4 9-2 4-5 3h-2v-8l1-2 2-4 2-3 2-3 5-9V8l-7-1-5 5-3 2-11 12q-2 2-5 2l-2-1 2-7 2-2 2-2 3-2 2-2C-9-2-9-2 0 0" style="fill:#100c08" transform="translate(320 132)"/><path d="M0 0h1v7a34 34 0 0 0 6 19q9 14 24 18 14 3 26-2l6-1a52 52 0 0 1-38 13l2-2-4-1Q8 45 1 31q-3-10-2-21V7z" style="fill:#a19453" transform="translate(79 215)"/><path d="m0 0 4 3 2 2 10 10 2 2 2 2 2 2 1 5-1 2-5-1-9-10-3-3C1 9 1 9-5 7l-3 1q0 6 2 11l8 15v8l-5-1-3-5-2-4-1-3-2-3q-5-8-5-18 5-10 16-8" style="fill:#100d08" transform="translate(153 117)"/><path d="m0 0 7 6q3 7 0 13L-3 29l-6 5-2 2-3 2q-2 3-5 2l-2-1 1-5 7-7 5-4 3-2 6-6V9l-2-2q-11 1-21 7l-3 1-3 1h-6l1-5 5-2 3-2 3-1 4-2C-7-1-7-1 0 0" style="fill:#100c08" transform="translate(380 170)"/><path d="m0 0 6 4 3 12 1 4 2 18-5 1-3-9v-4l-1-6-1-3v-3l-3-7h-6q-3 9-4 20v3l-1 3-2 7-4-1V24l1-4q-1-10 6-18 6-3 11-2" style="fill:#0f0b07" transform="translate(229 115)"/><path d="M0 0q5 2 7 6v11c0 22 0 22-2 24H0V8l-4-2-4 1-1 4-6 15-1 3-1 2-1 2-3 3h-2l-1-4q0-8 5-15l1-3C-14 4-11-1 0 0" style="fill:#0f0c07" transform="translate(277 90)"/><path d="m0 0 5 1v6l1 4v17h6l2-5 1-3 1-4 2-7 1-3 4-3h2q2 9-3 17l-1 3c-3 10-3 10-8 13q-5 1-10-2l-4-4V4z" style="fill:#13100a" transform="translate(198 385)"/><path d="m0 0 4 1 1 4-3 5-2 2-2 3-3 5-2 2-1 5 1 2h5l7-6 4-3 1-2c5-4 5-4 8-4l2 1v5l-4 4-9 6q-5 7-12 7-5 0-8-4-2-4-2-10l5-8 1-2 5-8z" style="fill:#100c08" transform="translate(138 340)"/><path d="m0 0 5 1 1 6v11C5 28 5 28 2 33l-8 4q-5-1-9-6l-4-12-2-3-2-10 1-2h5l2 5 1 3 1 3 1 3c3 7 3 7 3 11h7l1-14V4z" style="fill:#0f0b07" transform="translate(251 362)"/><path d="m0 0 2 5 2 4 1 3 1 3q5 9 2 17-3 6-9 5-9-1-13-9l-2-2-1-2-6-7-1-4 1-2 5 1 7 8 6 8q2 3 5 2l2-1q-1-9-5-18l-1-2-1-2 1-6z" style="fill:#0f0c07" transform="translate(306 371)"/><path d="M0 0q4 0 6 3l5 8 2 3q6 6 5 16-3 6-10 6-7-1-12-6l-2-1-6-5-3-2-2-2 1-4q4-1 8 2l3 2c6 6 6 6 14 9q3-1 2-3-1-5-5-11l-3-4-2-1-3-5z" style="fill:#100c08" transform="translate(304 326)"/><path d="m0 0 10 5 1 1 4 3-1 6-2 2-3 2-2 1-2 2H3l-4-6-1-2Q-5 9-5 2q2-2 5-2" style="fill:#edd878" transform="translate(107 107)"/><path d="m0 0 8-1h2l6 1q1 9-3 18l-5 3-5-3L0 6l-1-3z" style="fill:#e4d074" transform="translate(232 433)"/><path d="m0 0 8 6 2 2 1 5-6 4-3 2q-4 3-9 2-2-2-2-5 1-6 4-10l1-2z" style="fill:#e9d577" transform="translate(105 370)"/><path d="M0 0v16h-7l-2-1-4-1q-3 0-5-4l1-6q4-3 9-3l3-1z" style="fill:#e7d373" transform="translate(62 242)"/><path d="M0 0h9l2 1-1 6-1 3-1 3-1 3q-8-2-15-8l1-6z" style="fill:#e6d276" transform="translate(61 192)"/><path d="m0 0 2 4q0 5-4 7l-2 2-4 2-3-5-2-3V2q7-5 13-2" style="fill:#e5d06c" transform="translate(406 149)"/><path d="M0 0q6 2 11 6l1 5q-2 4-5 4l-10-1q0-6 2-10V2z" style="fill:#ead56e" transform="translate(416 295)"/><path d="M0 0h7l1 4-4 1H-6l-9 1h-9l-2-1 1-4h5l2-1z" style="fill:#041511" transform="translate(356 272)"/><path d="m0 0 5 2 3 1 8 5 3 1 3 2 3 1 2 2v4q-10-1-17-7L6 9 4 7 1 6l-2-2z" style="fill:#061714" transform="translate(327 289)"/><path d="M0 0q5 2 9 6l1 2q-1 4-6 6l-5 2-3-9q-1-7 4-7" style="fill:#e8d26e" transform="translate(148 85)"/><path d="m0 0 4 4 2 3 1 5q-5 3-11 2l-3-3q0-5 4-9z" style="fill:#e7d26d" transform="translate(82 336)"/><path d="M0 0h1c2 14 3 27-5 39h-3l3-7v-6l2-8L0 5z" style="fill:#5d5332" transform="translate(290 214)"/><path d="M0 0q6-1 11 2l-1 4v3l-3 4-5-1Q-1 7-1 2z" style="fill:#e4d06e" transform="translate(196 428)"/><path d="M0 0h1v7l4 17H3l2 5 3 9-4-1q-8-12-5-27V7z" style="fill:#5a502f" transform="translate(79 215)"/><path d="m0 0 3 2-1 7v2l-1 2q-6-1-10-6-1-2 3-5 2-2 6-2" style="fill:#e5d37f" transform="translate(350 96)"/><path d="m0 0 8 4 2 3q-4 5-9 5l-3-1 1-10z" style="fill:#e2d17d" transform="translate(131 395)"/></svg>