<svg xmlns="http://www.w3.org/2000/svg" style="display:block" viewBox="0 0 500 500"><path d="M0 0q4 3 5 8l1 7q1 13 8 25l1 13-11 3 3 1 24 15q4 3 9 3l7-2q7-3 13-1 7 2 9 7 2 7 0 15c10 1 10 1 19-1q11-8 18-17 14-18 36-23c11-1 11-1 14 1q0 6-3 10l-4 18q-2 18-13 34l-1 2 4 10q7 15 7 31l5 17 1 7q-6 2-14 0-23-7-39-27-6-8-16-13-8-1-17 3l3 1 4 4-1 5-2 2q-5 9-8 19l-5 10q-7 4-15 2l-17-7q-3-3-7 0l-6 3-3 2-3 1 3 2c7 6 8 20 10 29v5l-2 2q-16-1-30-12l-2 4-3 5h-6q-12-7-18-19l-1-3-8 1 1 9 1 4 1 10q2 6-1 13l-9 1q-21-8-34-26l-1-2q-1-4-5-7l-15-2h-10l-5-1c-29-1-69-6-91-26l-8-3c-5 0-5 0-8-2l-3-6 1-6q4-5 10-7l8-1-2-6-4-2-6 3q-7 3-14 1-4-2-7-8-1-8 2-17l-4-9q-5-11-4-23 4-11 14-20 10-4 22-3 7 1 12 5l2 2q6-1 11-6 19-12 41-18 11-4 21-13 17-17 40-22l4-1q13-2 26 2 9 0 17-5C-36 4-14-6 0 0" style="fill:#a43242" transform="translate(301 131)"/><path d="M0 0q4 3 5 8l1 7q1 13 8 25l1 13-11 3 3 1 24 15q4 3 9 3l7-2q7-3 13-1 7 2 9 7 2 7 0 15c10 1 10 1 19-1q11-8 18-17 14-18 36-23c11-1 11-1 14 1q0 6-3 10l-4 18q-2 18-13 34l-1 2 4 10q7 15 7 31l5 17 1 7q-6 2-14 0-23-7-39-27-6-8-16-13-8-1-17 3l3 1 4 4-1 5-2 2q-5 9-8 19l-5 10q-7 4-15 2l-17-7q-3-3-7 0l-6 3-3 2-3 1 3 2c7 6 8 20 10 29v5l-2 2q-16-1-30-12l-2 4-3 5h-6q-12-7-18-19l-1-3-8 1 1 9 1 4 1 10q2 6-1 13l-9 1q-21-8-34-26l-1-2q-1-4-5-7l-15-2h-10l-5-1c-29-1-69-6-91-26l-8-3c-5 0-5 0-8-2l-3-6 1-6q4-5 10-7l8-1-2-6-4-2-6 3q-7 3-14 1-4-2-7-8-1-8 2-17l-4-9q-5-11-4-23 4-11 14-20 10-4 22-3 7 1 12 5l2 2q6-1 11-6 19-12 41-18 11-4 21-13 17-17 40-22l4-1q13-2 26 2 9 0 17-5C-36 4-14-6 0 0m-130 39-5 5q-10 8-24 12-25 9-47 24l2 4q3 10 1 20-4 9-12 14-5 3-11 2h-4l-9-2h-3q-5 8-5 18l5 5q10-1 18-6 12-5 26-2l16 6q22 11 33 32l1 5-3-2c-19-9-38-19-60-18h-3l-15 2-3 3v4l10 1 3-1a42 42 0 0 1 28 2v1l-2-1q-12-3-24 1c8 11 26 15 39 19q24 9 46 0 11-4 18-12l-8-1 3-1q13-4 20-15 10-19 7-42-6-17-20-30 14 8 21 22 7 18 2 36-6 17-18 30l-1 2q-12 11-27 17l-3 1v1q19 3 37 2 0-7-4-13l-1-6h3l4 9q4 11 11 21l2 2q12 16 29 23h3l-2-25v-2q-1-9-7-17l-17-10-3-1-3-2-4-5q10 2 17 7l4 2q9 4 13 12l1 4 24-3v-5h3l3 5q13 18 33 26h4l-2-13-1-4-4-8-9-4-3-1-3-1q-3 0-4-4l-1-2 4 1q6 3 10 1l11-5 3-1q14-8 25-20c10-8 21-18 34-20l13-1q9 1 16-5 4-5 4-12t-4-13l-7-5-8-1q-32-3-59-25L-1 60q-15-8-26-19a82 82 0 0 0-50-22q-30-1-53 20" style="fill:#0c0505" transform="translate(301 131)"/><path d="M0 0q22 11 34 31l-7-2 3 3q14 13 17 31 3 16-4 31l-1 3q-5 12-16 17l-9 3h8q-11 14-29 18-12 1-24-2h-3c-36-9-36-9-45-19l-2-3a42 42 0 0 1 27 0q-8-4-17-4h-5l-10 2c-7 1-7 1-10-1l1-5c8-6 19-4 29-4 19 1 37 12 54 20q-4-16-19-27-12-8-25-14l-2-1-16-1q-9 0-18 4-5 4-12 4-4 0-7-5 1-10 5-18l8 2c11 1 11 1 20-2q9-6 11-16 2-11-3-22l41-22 3-1q11-4 23 0" style="fill:#7e8556" transform="translate(162 188)"/><path d="m0 0-1 5-5 23q-3 15-13 28l-1 6 4 7q8 16 8 35l4 12v3c-15-2-24-10-35-20l-2-2-11-12-3-3 5-2q5 1 8 5 8 9 20 14l-2-1c-16-13-16-13-21-20l2-5 10 4 6 2-3-1-3-2-3-2-4-3V58l-1-8 5-4 2-1 9-5-12 5-3 2-4-1-1-3q12-15 29-25-17 8-29 21l-2 2-6-2v-3l7-7 11-12Q-24 5-8 0z" style="fill:#8e313d" transform="translate(449 190)"/><path d="M0 0q9 5 14 15 2 10-3 21-4 6-12 10-9 3-19 0-8-4-13-12l-2-17q4-10 11-15 12-7 24-2" style="fill:#fbfbfb" transform="translate(154 204)"/><path d="M0 0q8 4 12 10 4 11 1 21-5 8-14 12-8 3-17 0-9-4-13-12-3-8-1-17 3-8 10-12 10-5 22-2" style="fill:#fcfcfc" transform="translate(81 204)"/><path d="m0 0 4 6v7q1 12 7 21 3 5 2 10l-14 3-6-2-3-3q4-4 10-6-5 0-11 3l-8-4-2-2-2-2 1-3 7-2 4-1 3-1-16 2c-4 1-4 1-8-1l-3-3v-2l24-10q-14 2-26 9-5 0-11-4C-38 4-15-2 0 0" style="fill:#8f313c" transform="translate(297 136)"/><path d="M0 0q10 5 16 15 5 16 0 33l-5 10-4 2 1-3 2-3 1-3 1-5-1 2Q4 55-7 58q-10 0-20-4 10 7 21 9v1q-10 1-18-3l-4-3q5 8 14 12 8 3 18 0l7-3q-2 5-8 8-9 2-19 0-13-7-20-20l-3-10v-3q-4-12 0-25 6-12 18-18 10-2 21 1m-29 10q-6 7-7 16 0 10 5 18 7 6 16 8 9 1 18-4 7-5 10-13 2-10-2-19Q6 8-2 5q-14-5-27 5" style="fill:#0c0c0a" transform="translate(155 200)"/><path d="m0 0 5 2 5 2-1 2Q2 16-1 28l-3 6q-14 0-26-7v-2l4-3 5 1 4 1 3 1-8-5 4-5 5 1h3l-4-2 4-6 8 1-4-2q2-4 6-7" style="fill:#8b323d" transform="translate(357 280)"/><path d="m0 0 7 5v3h3l6 3q3 5 3 10l-4 7-3 1v3q1 4-2 7l-3 2 1-2 1-10q-1-4-6-7l-2-1 3-6Q5 9 2 2z" style="fill:#29080b" transform="translate(214 203)"/><path d="M0 0c1 5 1 5-1 10l-1 2q-4 6-10 8-8 2-16 0l4-2-4-2-12-7 2-1 5 2q8 4 17 1Q-6 9 0 0" style="fill:#554c3c" transform="translate(167 244)"/><path d="m0 0 5 3 1 7 5 2 3 5-1 9-5 5-2-1 2-2q3-5 2-12l-3-4-3 4-3 4h-2l2 3c4 5 4 5 4 9l-4 9-3 2-3-1 2-2q4-3 4-8 1-4-2-7l-3-2v2q-2 6-7 8l-3-1 3-2 4-6v-7l-3-4 1-2 5 5v3q5-2 6-5z" style="fill:#2b090c" transform="translate(248 254)"/><path d="M0 0q4 2 7 6v5h3l6 3q3 5 2 10l-2 4-2-1 1-4v-5l-5-5-4-1v8L5 30l-2 2-2-1 2-4v-6q-3-5-9-6v3l-3 6 2 1q5 3 6 7l-1 7h-1l-1-4c-1-5-1-5-5-8l-3-1-2-1v-2l4-4 1-8-5-6q5 1 8 5v3h3l7 2Q5 9 2 2z" style="fill:#2b080a" transform="translate(248 172)"/><path d="M0 0q5 4 8 9L6 19q-7-2-12-9c-5-7-5-7-5-10z" style="fill:#832f38" transform="translate(274 329)"/><path d="m0 0 2 1q6 16 3 34Q1 48-9 55l-5 2-3-1 2-1q11-7 15-19Q5 18 0 0" style="fill:#0e0f0a" transform="translate(187 245)"/><path d="m0 0 5 4c1 7 1 7-1 10Q-7 11-17 4q8-6 17-4" style="fill:#89323c" transform="translate(360 209)"/><path d="M0 0q4 2 7 6v9l-5 6-2 2v4l-3 8-7 3 3-3q4-3 4-9 0-4-4-7l-1 2-5 5-3-1 2-2 4-5v-7l-3-4V5q5 2 7 7l1 3 5 4h2q3-6 2-12L2 2H0z" style="fill:#300a0d" transform="translate(307 263)"/><path d="M0 0q5 1 8 6v8l-3 4-9-6 1-2z" style="fill:#9e3343" transform="translate(222 212)"/><path d="M0 0h3l3 6q8 15 21 27l5 5c-9-3-18-13-24-21C0 4 0 4 0 0" style="fill:#26090c" transform="translate(206 315)"/><path d="m0 0 3 5-1 11-5 4q-7 1-14-2l-3-3q5-1 9 1h6l4-4 1-6z" style="fill:#10110c" transform="translate(159 296)"/></svg>