<svg xmlns="http://www.w3.org/2000/svg" style="display:block" viewBox="0 0 500 500"><path d="m0 0 5 1 5 26v3l3 38 4-12 5-18v-2l5-12 5-1q3 6 2 13v2l-1 36 1-3 20-46 1-3 9-12 4 1q1 9-1 18v3L54 85q5-1 6-6l2-3 1-3 4-7 1-2c21-39 21-39 27-41l4 1q0 10-4 19l-1 4-18 46 1 1 14-16 13-14 2-2c4-5 4-5 8-5h2v8l-2 4-1 2-17 31 19-17 23-18 2-2q4-4 12-4v6q-5 11-14 18l-6 8-11 12-8 11 2-1c35-21 35-21 41-21l1 3q0 5-5 8l-1 2-5 4-10 13 2-1 25-12c16-8 16-8 22-7l1 5q-20 19-44 32l2-1 11-3 4-1c12-4 12-4 18-4l2 2q0 4-3 7l-2 1-3 2-16 9-3 2-8 5 4-1 51-8h7l1 5q-6 6-13 8l-3 1-41 16h3l39 2v5l-30 9-10 3h4l20 2c34 3 34 3 38 7l-1 5-15 3-3 1-42 4 3 1 36 11v5c-4 4-21 2-26 2h-16l2 1 40 15 3 1 12 7v5q-3 2-6 1l-20-2-4-1-30-5 32 21-1 5q-11 0-21-4l-4-1-9-3-1 1 2 2 41 29-1 5q-8 0-17-5l-3-1-30-15 9 9 2 3 5 5 3 3 2 2q3 3 2 7-6 2-11-2l-2-1-27-16 7 9c29 31 29 31 29 40l-1 3q-5 1-9-2l-3-2-36-27 2 3 14 27-2 4c-14-2-30-26-39-36l-3 1 4 14 1 3 3 8c14 36 14 36 14 45l-1 2h-5l-3-4-2-2-8-12-1-3-21-36-1-4-5 1 1 3 12 48 1 3 1 18-5 1-11-19-2-3-16-39v3l1 17-1 26-2 2-4-1q-6-11-8-24l-2-7-1-4-3-8v2l-2 24-4 32v2q-1 6-3 7l-5-1q-3-6-3-14l-1-3-4-50-2 8-1 3-5 18-1 3q-2 7-6 13l-5-2q-2-22 0-45l-1 3-19 43-1 2c-6 10-6 10-9 12l-4-2 2-22 1-3 12-46-5-1-1 3-6 12-2 4-6 9-4 7-1 4q-7 12-16 22l-5-1q-2-7 1-14l1-3 17-45 1-2v-2l1-5-3-1-17 19c-14 15-14 15-18 17l-5-1q-1-7 4-14l1-2 15-25-1 1-13 11-2 1-22 19-2 2q-5 5-13 5v-7l22-28 14-17-27 16-3 2-3 1h-7l-1-4 3-4 2-2 2-2 2-3 8-7 6-7-3 1-14 8c-25 12-25 12-32 12l-2-4q6-8 15-14l3-1 28-19-3 1-20 6-3 1-12 1-1-5a144 144 0 0 1 29-19l4-3-4 1-27 5-3 1-19 2h-3l-5-1 1-6 8-5 3-1 45-17h-4l-28-1h-3l-7-1v-5l29-9 10-3h-2l-35-4h-4c-15-2-15-2-20-5l1-5 8-3h5l3-1 45-4-3-1-37-11v-5l14-2h29l-2-1-35-13-3-1c-14-6-14-6-18-10l1-5q19 0 38 4l12 3 12 2-2-1-9-5-4-2-15-10-3-2q-3-2-2-5v-2q7-2 12 1l4 1 4 1 7 2 3 1 5 1-15-10c-21-14-21-14-27-21l1-5q10 1 19 6l3 1 34 17-10-10-10-10-3-2-2-2-2-2-1-7 1-1 14 4 2 1 23 15 4 1-2-2-22-26c-15-17-15-17-15-26q7-1 12 4l2 2q16 11 29 25l13 10-13-23c-8-15-8-15-8-20l1-2 7 1 2 2 2 2 2 3 2 2 13 14 2 2 4 6 2 1 4 5-3-10-1-2-1-3-6-16c-13-32-13-32-12-40h6l3 4 6 9 17 30 11 18h2l-1-3-12-53-1-3V11l5-1 11 20 1 3q10 20 18 41v-2c-2-41-2-41 0-48l5-1q4 4 5 10l1 4 1 4 1 4 7 24v-2l2-25 4-32V8q0-4 3-8" style="fill:#443759" transform="translate(248 39)"/><path d="m0 0 5 1 5 26v3l3 38 4-12 5-18v-2l5-12 5-1q3 6 2 13v2l-1 36 1-3 20-46 1-3 9-12 4 1q1 9-1 18v3L54 85q5-1 6-6l2-3 1-3 4-7 1-2c21-39 21-39 27-41l4 1q0 10-4 19l-1 4-18 46 1 1 14-16 13-14 2-2c4-5 4-5 8-5h2v8l-2 4-1 2-17 31 19-17 23-18 2-2q4-4 12-4v6q-5 11-14 18l-6 8-11 12-8 11 2-1c35-21 35-21 41-21l1 3q0 5-5 8l-1 2-5 4-10 13 2-1 25-12c16-8 16-8 22-7l1 5q-20 19-44 32l2-1 11-3 4-1c12-4 12-4 18-4l2 2q0 4-3 7l-2 1-3 2-16 9-3 2-8 5 4-1 51-8h7l1 5q-6 6-13 8l-3 1-41 16h3l39 2v5l-30 9-10 3h4l20 2c34 3 34 3 38 7l-1 5-15 3-3 1-42 4 3 1 36 11v5c-4 4-21 2-26 2h-16l2 1 40 15 3 1 12 7v5q-3 2-6 1l-20-2-4-1-30-5 32 21-1 5q-11 0-21-4l-4-1-9-3-1 1 2 2 41 29-1 5q-8 0-17-5l-3-1-30-15 9 9 2 3 5 5 3 3 2 2q3 3 2 7-6 2-11-2l-2-1-27-16 7 9c29 31 29 31 29 40l-1 3q-5 1-9-2l-3-2-36-27 2 3 14 27-2 4c-14-2-30-26-39-36l-3 1 4 14 1 3 3 8c14 36 14 36 14 45l-1 2h-5l-3-4-2-2-8-12-1-3-21-36-1-4-5 1 1 3 12 48 1 3 1 18-5 1-11-19-2-3-16-39v3l1 17-1 26-2 2-4-1q-6-11-8-24l-2-7-1-4-3-8v2l-2 24-4 32v2q-1 6-3 7l-5-1q-3-6-3-14l-1-3-4-50-2 8-1 3-5 18-1 3q-2 7-6 13l-5-2q-2-22 0-45l-1 3-19 43-1 2c-6 10-6 10-9 12l-4-2 2-22 1-3 12-46-5-1-1 3-6 12-2 4-6 9-4 7-1 4q-7 12-16 22l-5-1q-2-7 1-14l1-3 17-45 1-2v-2l1-5-3-1-17 19c-14 15-14 15-18 17l-5-1q-1-7 4-14l1-2 15-25-1 1-13 11-2 1-22 19-2 2q-5 5-13 5v-7l22-28 14-17-27 16-3 2-3 1h-7l-1-4 3-4 2-2 2-2 2-3 8-7 6-7-3 1-14 8c-25 12-25 12-32 12l-2-4q6-8 15-14l3-1 28-19-3 1-20 6-3 1-12 1-1-5a144 144 0 0 1 29-19l4-3-4 1-27 5-3 1-19 2h-3l-5-1 1-6 8-5 3-1 45-17h-4l-28-1h-3l-7-1v-5l29-9 10-3h-2l-35-4h-4c-15-2-15-2-20-5l1-5 8-3h5l3-1 45-4-3-1-37-11v-5l14-2h29l-2-1-35-13-3-1c-14-6-14-6-18-10l1-5q19 0 38 4l12 3 12 2-2-1-9-5-4-2-15-10-3-2q-3-2-2-5v-2q7-2 12 1l4 1 4 1 7 2 3 1 5 1-15-10c-21-14-21-14-27-21l1-5q10 1 19 6l3 1 34 17-10-10-10-10-3-2-2-2-2-2-1-7 1-1 14 4 2 1 23 15 4 1-2-2-22-26c-15-17-15-17-15-26q7-1 12 4l2 2q16 11 29 25l13 10-13-23c-8-15-8-15-8-20l1-2 7 1 2 2 2 2 2 3 2 2 13 14 2 2 4 6 2 1 4 5-3-10-1-2-1-3-6-16c-13-32-13-32-12-40h6l3 4 6 9 17 30 11 18h2l-1-3-12-53-1-3V11l5-1 11 20 1 3q10 20 18 41v-2c-2-41-2-41 0-48l5-1q4 4 5 10l1 4 1 4 1 4 7 24v-2l2-25 4-32V8q0-4 3-8m1 19-4 45-2 17-2 26-3-1v-2l1-23-11 1-6 1q2 8 6 15l2 10h-3l-1-2-35-82v8l1 4 1 3 9 39c4 16 4 16 11 31q10 16 18 33l6 10 1 5-3 1-1-2-4-8-1-3-2-4-2-3-14-25q-1 6 1 11v2l10 39h-4v-2l-5-20-3-12q-3-17-13-32l-7-13-4-6-1-3-21-35v4l1 3 1 4 1 1 24 59 1 2v2l1 5h-3l-1-2-3-8-1-3-1-3-1-2-3-3q-5 1-9 5l-2 1-4 4 1 3 2 2 26 25q-7-2-12-8l-8-7-27-24-2-2-12-10q-10-10-22-18l5 7 1 2 2 2 3 4 2 2 33 38 12 14 1 1 10 14q-4 0-7-3l-2-3-20-23q-4 2-7 6l-2 2-1 4 8 4 2 1 12 5v4l-28-13-30-14-2-1-9-5-3-2-3-1-2-1-2 1 2 1 46 31 13 9 9 6v2q-6-1-11-5l-12-7-2 4-1 2-1 6 28 6v3l-33-6h-2l-28-6-3-1-10-2-9-2h-3l-2-1-6 1 25 10 2 1 63 23v3l-16-4-5-2-2-1-6-2c-2 4-2 4-1 14h27v2l-44 4-47 4 1 2 7 1h2l22 2 59 4v4l-27-1c-1 9-1 9 1 13l17-5 13-4v4h-2l-36 13-22 8-2 1-13 5-2 1-6 2-2 1q-4 1-6 4l57-11 23-5 4-1h3l10-2-1 3-7 2-2 1-20 4 1 4 1 3 4 5 2-1 7-5 2-2 3-1 2-2 6-1q-2 5-7 7l-7 4-13 9-22 16-3 1-14 10 2 1 11-5 2-2 16-7 3-2 28-14 3-2 3-1 7-2v4l-2 1q-7 2-13 6l-2 1-6 3 3 5 1 2 2 2 4-1 2-2 1-2 2-2 2-2 11-14q2-3 6-3-2 6-7 11l-3 3-1 2-8 9-1 1-34 40-1 2-9 12 9-6 10-9 30-27 4-3 1-1 10-8 1-2 4-3q4-5 9-5l-8 10-2 1-12 11-3 5c8 8 8 8 17 12l1-2 3-10 2-3 1-4 1-3 4-3-4 15-1 3-25 69 5-6 1-3 2-2 1-3 24-41q15-27 20-58l4-13 3-1-8 32v3l-2 5v3l-1 2 1 6 19-34 1-2 3-8 3 1-4 10-1 3-2 4-2 3-8 15a142 142 0 0 0-18 50l-2 8-4 13c-3 12-3 12-3 23l33-76 3-3h2l-1 2-3 9-2 4-1 3-1 3-1 5 16 2-1-29 3 1 6 64v3l2 19h2l2-12v-3l3-36v-7l2-27H9v2l-2 11v4l-1 4-1 3-1 6H0l-5-29-1-6-1-6v-3l-1-4v-3l-1-9 4 1 6 45h2l6-45 4-1v2l-2 13v3l-1 3v8h4l-1 28 16-2-3-10-1-2-1-2-3-11h3l6 13v2l11 24 1 3 17 38v-9l-2-5v-2l-4-18-7-26-2-7q-6-18-16-35l-9-16-1-3-2-3-1-2-1-5h3l1 2 22 41v-9l-1-3-1-6-1-3-4-18-1-3-2-9 4 2 3 9v2l6 24v3l1 4q1 7 5 12l1 3 2 3 2 3 5 10 2 3 28 49c1-4 1-4-1-8l-1-3-1-3-1-3-20-53-1-3-4-14 3-1 1 4 8 21c5 0 5-1 9-4l3-2 2-2 2-2 2-1v-2l-5-4-16-14-2-2-2-2-1-3q7 1 10 6l13 12 32 28 12 10 8 7 2-1-34-41-21-24-1-2-7-11q5 1 9 7l2 3 2 1 8 10 1 2 4 4 8-10-9-5-3-1-2-2-3-1-6-2v-4q9 2 16 7l35 17 2 1 10 5 3 1 9 5 2-1-23-16-29-19-1-1-12-8q-3-2-3-5l14 8 2 1 6 4q4-2 5-8v-2l1-2-10-2-3-1-15-3-1-3 30 5 29 6c17 5 17 5 35 6q-5-4-11-6l-2-1-65-24-3-1-2-1h-2l-4-1 1-4 9 3 3 1 8 3 3 1 6 1 1-8v-5l-27 1 1-4h3l21-1 4-1 17-1 32-3q6 1 12-2v-1a824 824 0 0 0-86-7h-4v-4h3l24 1v-7l-1-7-21 7-8 2v-3l68-25 3-1 9-4 3-1q4 0 7-4l-39 7h-2l-36 8-3 1-16 2v-3l28-6c-1-7-1-7-4-12l-18 11-5 2q1-5 7-8l2-1 4-3 3-1 13-9 2-2 39-26-2-1-4 2-3 1-3 2-3 1-22 12-3 1-23 11-3 2-13 5v-4l2-1 12-5 3-1 5-3-5-9-2-2-1-1-7 5-2 2-1 2-2 2-8 9-2 3-2 3q-3 3-7 3l8-11 4-4 1-2 8-9 38-45 2-2 3-3 4-8-3 2-3 3-2 2-36 31-7 7-31 24c6-12 19-20 29-28q-2-5-7-8l-1-1-7-3-3 3-1 2-1 3-1 3-2 6-1 2-4 3q2-11 8-23l4-11 1-2 15-38 1-3 1-2v-4l-34 60-2 2-1 2-1 2-3 5q-4 8-5 15l-1 7-1 4-7 28h-4l4-19 7-24v-2l1-2-1-5-19 34-1 2-4 9-3-1 4-11 2-3 1-3 2-4 14-23 5-8 2-7 1-3 1-3 1-3 3-14 3-11 7-27 1-3v-3l1-2-1-5-36 84h-3q1-7 5-14l3-11-17-2 1 25h-3L5 38v-2L3 18z" style="fill:#040406" transform="translate(248 39)"/><path d="M0 0q13 9 16 25 2 18-8 32-12 13-28 13-17 2-31-11-11-13-11-30 2-17 17-29 22-14 45 0" style="fill:#fcfcfc" transform="translate(324 218)"/><path d="M0 0q14 11 16 27 2 17-9 30-10 13-27 13-18 2-31-11-11-13-11-31 3-18 17-28 23-14 45 0" style="fill:#fcfcfc" transform="translate(222 218)"/><path d="M0 0q16 12 20 30 2 21-11 37-11 13-29 15-20 1-36-14-13-15-12-34 2-18 15-30 26-20 53-4m-55 14q-10 13-8 28 5 20 21 30 15 8 31 3 16-6 23-22 7-15 1-30-3-7-9-13L3 9Q-9-2-26-2q-17 2-29 16" style="fill:#0c0b0d" transform="translate(223 213)"/><path d="M0 0q14 10 18 26 3 21-9 36-7 11-19 15l-2 1-14 1h-3q-9 0-17-4l-2-2q-15-10-21-27-4-18 7-35C-47-9-22-14 0 0m-56 11q-9 12-9 27 2 18 16 29 15 10 33 7Q0 70 8 56q8-15 5-30Q7 9-7 1q-28-12-49 10" style="fill:#0b0b0d" transform="translate(327 214)"/><path d="M0 0q0 4-3 7l-9 10-18 22-18 20-18 21q-2 4-5 4l-8-4q-3-5-3-10l5-3 5-4 10-9 16-15 14-12 2-1 8-8 2-1 6-5 2-2z" style="fill:#50627f" transform="translate(388 111)"/><path d="m0 0 37 31 26 23 10 10 6 4q4 2 4 5-1 6-6 9l-8 1-4-4-10-13-1-1-13-15-16-18-6-7-5-7-8-9-2-2z" style="fill:#516480" transform="translate(111 111)"/><path d="M0 0q3 2 3 7v5l-1 4-7 1-29 6-52 11h-10q18-9 38-15l48-19z" style="fill:#50627f" transform="translate(155 269)"/><path d="m0 0 23 4h2l75 17-1 10-5 5-4-1-2-1-2-1h-3l-3-2-3-1-10-3-3-1L8 5 6 4Q0 2 0 0" style="fill:#506380" transform="translate(59 196)"/><path d="M0 0v2l2 1 19 6 3 1 9 4 4 1 39 15 3 1 3 1 3 1 4 3-18-2-6-2h-4l-15-3-31-7-4-1H8l-13-2-3-3q-2-7 1-12 3-3 7-4" style="fill:#4f627f" transform="translate(350 267)"/><path d="m0 0-24 10-4 1-25 9-3 2-22 7-3 1-3 1-2 1-5 3q-4 0-6-3-4-4-3-10l2-4 6-1 5-1 2-1 15-3 38-8C-4-1-4-1 0 0" style="fill:#506380" transform="translate(441 197)"/><path d="M0 0q6 0 11 5l1 8h-2v2l-3 3-20 17q-8 6-15 14l-14 12-11 10-10 8-2-1 37-43 9-11z" style="fill:#51637f" transform="translate(175 307)"/><path d="m0 0 4 4 9 12 2 2 3 3 5 7 13 15 1 2 27 32q-5 0-7-4l-11-9-30-27-23-20-2-2-3-2q0-5 2-9 4-4 10-4" style="fill:#50627f" transform="translate(325 307)"/><path d="m0 0 4 1 21 1 46 4h3l14 2-1 2-13 1-11 1-13 1-34 3-20 1q-4-3-3-8V6q1-6 7-6" style="fill:#506380" transform="translate(356 241)"/><path d="M0 0q3 3 2 8v3l-2 5h-11l-40-4h-2l-32-2h-2l-5-1-1-2 59-5h3z" style="fill:#516480" transform="translate(148 242)"/><path d="m0 0 1 3 27 73 1 3 1 3v5L-8 20l-2-3-2-3-1-9q5-5 13-5" style="fill:#51617e" transform="translate(307 336)"/><path d="m0 0 5 8 1 3 2 3 1 3 17 40 2 5 1 3 8 17v5q-2 4-6 5l-4-1Q17 80 15 65l-1-4-2-10-3-9-6-26-1-4-1-3V6z" style="fill:#51627e" transform="translate(190 63)"/><path d="M0 0v9l-1 2-15 61q-2 11-10 19l-5 1-6-5 5-12 1-2 19-46 1-2z" style="fill:#51637f" transform="translate(309 63)"/><path d="M0 0c7 0 7 0 11 3l1 8-2 5-2 3-2 3-1 3-36 62v-4l1-4 1-3 3-8z" style="fill:#51627e" transform="translate(194 336)"/><path d="M0 0q6 0 11 5L8 16l-1 2-10 23-1 2-19 43V76l1-3 1-3 1-4 5-20 3-11 1-4 1-7Q-7 11 0 0" style="fill:#52637f" transform="translate(217 347)"/><path d="M0 0q7 10 9 23l13 53 1 3 1 3-1 5-31-71-2-3-1-3V3q5-5 11-3" style="fill:#52637f" transform="translate(284 348)"/><path d="M0 0v4l-1 4-1 3-7 16-8 21-5 11-9 23c-8-1-8-1-11-4q1-10 7-18l4-6 2-4 10-17z" style="fill:#5a4f6f" transform="translate(337 79)"/><path d="m0 0 7 9 2 3 1 3 22 38 2 3 4 7 1 2q4 6 3 11c-6 4-6 4-11 4l-1-2-9-23L8 22l-1-2-4-10-1-3-1-3z" style="fill:#5b5070" transform="translate(163 81)"/><path d="m0 0 2 1-20 14-3 2-49 33c-6-4-6-4-7-8v-5l2-1 19-8 3-2 21-10 3-2L-6 3l2-1 2-1z" style="fill:#584d6d" transform="translate(414 155)"/><path d="m0 0 16 7 3 1 46 23 3 2 2 1 3 1 6 2c0 7 0 7-2 10l-5 3-3-2-16-12-9-5L6 5 4 4 2 2 0 1z" style="fill:#584e6d" transform="translate(84 155)"/><path d="m0 0 3 3 8 6 29 19 30 20-2 1-11-5-2-2-14-6-23-12-25-12 2-9z" style="fill:#574c6c" transform="translate(344 295)"/><path d="M0 0q5 2 8 7v5l-2 1-33 16-3 2-21 10-3 2-13 5q6-7 15-12l3-1L-3 4z" style="fill:#594e6e" transform="translate(155 295)"/><path d="m0 0 4 2 2 7v2l6 50H8L4 36l-1-4v-4l-1-3v-8H0v3l-1 12v2l-5 27h-4l3-28v-4l2-9v-3l1-5c1-9 1-9 4-12" style="fill:#050508" transform="translate(249 115)"/><path d="m0 0 2 17 2 39v8H2l-2-5-3 1-5 29h-1l2-36 1-11C-3 0-3 0 0 0" style="fill:#4d5c76" transform="translate(251 57)"/><path d="M0 0h1L0 23l-1 11v2l-2 21v3l-1 12-1 4v3l-1 6h-2a493 493 0 0 1-5-68l3 9 1 2v2h4z" style="fill:#50617c" transform="translate(257 355)"/><path d="M0 0q1 6-1 11v2l-11 38q-7 1-12-5l4-11 1-1z" style="fill:#50627f" transform="translate(289 152)"/><path d="M0 0q4 3 5 7l9 16 1 2 5 10 2 3 2 3 1 4-7 6h-5L9 41l-1-5v-2L5 24l-1-4-2-8-1-3V6z" style="fill:#4f617d" transform="translate(210 152)"/><path d="M0 0a245 245 0 0 1 12 50L3 35-12 5l6-4z" style="fill:#50627e" transform="translate(277 297)"/><path d="M0 0q5 0 8 3 0 7-4 13l-1 4-2 3-2 4-13 22v-8l1-3 1-3 6-24V8l1-3 1-2q1-4 4-3" style="fill:#51617d" transform="translate(226 298)"/><path d="M0 0h2l2 13v4l3 23v5l-4 1H0l-5-1q0-14 3-29z" style="fill:#59506f" transform="translate(249 132)"/><path d="m0 0 3 2v10l-5 36h-2l-4-30v-2L-9 2q4-2 9-2" style="fill:#584d6d" transform="translate(253 323)"/><path d="m0 0 1 9-40 1 10-4h2l16-4 2-1z" style="fill:#524867" transform="translate(114 264)"/><path d="m0 0 24 5 14 4v1L0 9z" style="fill:#514766" transform="translate(386 264)"/><path d="m0 0 1 2-1 1-14 12-1 2-9 8q-3 4-5 3l-4-7Q-20 11-5 3z" style="fill:#544968" transform="translate(390 144)"/><path d="m0 0 9 4 3 1 3 2 6 4 3 1 12 7q-5 1-11-2h-2L-2 8z" style="fill:#514866" transform="translate(377 300)"/><path d="m0 0-10 4h-2l-11 3-14 3V1z" style="fill:#514765" transform="translate(423 226)"/><path d="m0 0-2 1-28 16-5 2-3-8 27-9 2-1c6-2 6-2 9-1" style="fill:#544a6a" transform="translate(412 181)"/><path d="m0 0 39 1-1 9Q19 7 0 1z" style="fill:#524866" transform="translate(76 226)"/><path d="m0 0 13 7 2 1 3 2 15 10-4 7h-2v-2l-2-1-8-7L3 4z" style="fill:#544a69" transform="translate(110 145)"/><path d="M0 0q4 3 5 8L3 9l-18 11-3 2-9 6-2-1 2-2z" style="fill:#564b6a" transform="translate(136 327)"/><path d="M0 0q4 6 5 15l1 3 3 19-8 1z" style="fill:#514664" transform="translate(224 79)"/><path d="M0 0q14 3 27 8l11 4-3 8-10-5-2-1-3-2-6-3-2-1L0 1z" style="fill:#544a69" transform="translate(88 180)"/><path d="m0 0 15 13 2 2 10 11-10-5-3-2-4-2-3-2-11-7z" style="fill:#544969" transform="translate(363 327)"/><path d="m0 0 2 8-27 9-2 1-6 2-2-1 11-7 4-2 14-8 2-1z" style="fill:#554a69" transform="translate(123 300)"/><path d="m0 0 14 14 12 14-7 6-1-2L8 14l-2-3-4-6z" style="fill:#554a68" transform="translate(146 110)"/><path d="m0 0 1 2-3 6-1 1-15 24-6-5 15-18z" style="fill:#554a68" transform="translate(352 111)"/><path d="M0 0h1L0 37h-8l6-28z" style="fill:#554969" transform="translate(275 79)"/><path d="m0 0 7 4-7 10-2 1-14 15-2 2 5-10 2-3 1-3 2-3z" style="fill:#574b6a" transform="translate(161 355)"/><path d="m0 0 7 1q0 12-5 24l-1 3-2 9h-1z" style="fill:#524766" transform="translate(226 385)"/><path d="m0 0 9 15 3 6 2 2 3 5 1 2-1 2-2-2L-7 6q1-6 7-6" style="fill:#574b6a" transform="translate(339 355)"/><path d="m0 0 1 36q-4-6-5-14l-1-2-3-19z" style="fill:#554a69" transform="translate(275 385)"/><path d="M0 0h2l-3 14-5-1q2-7 6-13" style="fill:#3f3251" transform="translate(204 359)"/><path d="M0 0h1L0 21v3l-1 7-3-1z" style="fill:#3f495b" transform="translate(257 355)"/><path d="M0 0h2l3 5 2 3 1 5-5 1z" style="fill:#3e3150" transform="translate(294 359)"/><path d="m0 0 9 1h3v1h-22q5-4 10-2" style="fill:#3b3549" transform="translate(85 272)"/><path d="M0 0h1v19H0v-4l-2-6z" style="fill:#443b52" transform="translate(275 79)"/><path d="m0 0 3 1-5 11V4l1-2z" style="fill:#3a3048" transform="translate(299 129)"/><path d="m0 0 3 1 2 10-6-8z" style="fill:#372f45" transform="translate(199 129)"/><path d="M0 0v8l-1 3v2l-3-2 1-4 1-3z" style="fill:#474e62" transform="translate(309 63)"/><path d="M0 0q-2 3-5 3l-6 1q4-6 11-4" style="fill:#475165" transform="translate(70 300)"/><path d="M0 0q1 6-1 11l-3-2z" style="fill:#424b5f" transform="translate(289 152)"/><path d="m0 0-10 5 1-4q5-3 9-1" style="fill:#443c55" transform="translate(412 181)"/><path d="m0 0 2 1-5 8V4z" style="fill:#454d64" transform="translate(166 414)"/><path d="M0 0q4 4 4 10H2z" style="fill:#495165" transform="translate(190 63)"/></svg>