<svg xmlns="http://www.w3.org/2000/svg" style="display:block" viewBox="0 0 500 500"><path d="M0 0h3q6 2 8 6l4 6q9 14 25 18 7 2 11 5 5 3 10 3 9 0 14 4l2 3q4 4 9 4 9 0 16 4l2 2q9 7 12 18v6q1 15-9 26l-1 3-2 5-4 9-4 4 12 6 4 1q6 1 10-2 8-2 16 1 6 4 8 11l-1 11v3q-5 14-16 23-8 4-17 2l-4-2v-2l-3-1-1-4c-5-10-17-14-27-19l-2-1-2-1-8 8c-8 7-22 16-34 16l1 2 2 2 2 2 1 4 2 1 8 6 1 2 4 3v2l2 1 7 8 1 2 6 16 1 2q6 32-10 58-4 8-12 12l-3 3q-15 12-35 15c-14 3-14 3-26 10l-1 2q-7 9-6 19 0 11 8 18 9 7 19 5c6-1 6-1 9-6h2q3-6 2-14-3-4-7-5l-5 1q-4 3-8 1l-5-3v-10q6-9 17-11 14-1 24 6 5 3 6 7v2h2q6 16 2 32-5 18-21 26-24 12-48 2-22-10-33-33a81 81 0 0 1 7-73l5-9 10-23-9 4c-7 2-7 2-11 0q-5-3-5-10v-3c0-4 0-4-3-8l-3-2q-3-3-5-9 1-6 5-13h2v-3l-1-7q0-6 4-13l7-1q9 1 16 4l-12-7-4-5v-10q1-5-2-11l-4-3-3-1-2-2-4-4v-9h-6l-4-1q-4-7-3-14l-1-3-4-2q-5-4-5-11l5-9q2-4 1-9c-1-7-1-7 1-11h5l3-1q2-9-2-18-2-6 1-11 4-5 10-8 8-2 13-11l1-2 1-2v-3l6-12 7-1h2l6 1q11 0 20-7l6-8q3-5 9-5" style="fill:#836a8d" transform="translate(232 56)"/><path d="M0 0h3q6 2 8 6l4 6q9 14 25 18 7 2 11 5 5 3 10 3 9 0 14 4l2 3q4 4 9 4 9 0 16 4l2 2q9 7 12 18v6q1 15-9 26l-1 3-2 5-4 9-4 4 12 6 4 1q6 1 10-2 8-2 16 1 6 4 8 11l-1 11v3q-5 14-16 23-8 4-17 2l-4-2v-2l-3-1-1-4c-5-10-17-14-27-19l-2-1-2-1-8 8c-8 7-22 16-34 16l1 2 2 2 2 2 1 4 2 1 8 6 1 2 4 3v2l2 1 7 8 1 2 6 16 1 2q6 32-10 58-4 8-12 12l-3 3q-15 12-35 15c-14 3-14 3-26 10l-1 2q-7 9-6 19 0 11 8 18 9 7 19 5c6-1 6-1 9-6h2q3-6 2-14-3-4-7-5l-5 1q-4 3-8 1l-5-3v-10q6-9 17-11 14-1 24 6 5 3 6 7v2h2q6 16 2 32-5 18-21 26-24 12-48 2-22-10-33-33a81 81 0 0 1 7-73l5-9 10-23-9 4c-7 2-7 2-11 0q-5-3-5-10v-3c0-4 0-4-3-8l-3-2q-3-3-5-9 1-6 5-13h2v-3l-1-7q0-6 4-13l7-1q9 1 16 4l-12-7-4-5v-10q1-5-2-11l-4-3-3-1-2-2-4-4v-9h-6l-4-1q-4-7-3-14l-1-3-4-2q-5-4-5-11l5-9q2-4 1-9c-1-7-1-7 1-11h5l3-1q2-9-2-18-2-6 1-11 4-5 10-8 8-2 13-11l1-2 1-2v-3l6-12 7-1h2l6 1q11 0 20-7l6-8q3-5 9-5m-5 8-2 4q-6 8-16 12h-14l-10 2q-4 6-5 12-2 9-9 14l-6 3-10 5 1 10q3 8 2 15v3q3 4 6 2 2 1 3-3l1-4q6-18 20-32l6-3-1 2a76 76 0 0 0-23 39l1 5 6 4q5 1 7 6h-2l-8-4-3-1c-10-5-10-5-22-7l-1 1v8q2 7-4 14l-1 4 5 7q5 5 5 13 0 4 2 4 7-1 13-5l4-3 6-4 2-1 2-2 6-2q-4 7-12 11l-2 1q1 7 5 13l1 2 7 11q11 18 16 39 2 8 9 11l1 3-3-1-37-15-2 1v10q1 8-5 15l-1 1v6l5 7q5 4 5 11l1 7c12 2 24-8 33-14l6-4-7 9q-7 4-9 13a204 204 0 0 1-20 44l-2 3c-6 14-6 35-1 50q9 25 32 34 20 8 39 0 14-7 21-22 5-15-1-28-4-9-14-14-8-2-16 0l-9 7 1 5q4 1 8-2 7 0 13 4 4 4 5 11-1 9-6 15-8 7-18 8-12-1-21-9-9-12-8-27 1-7 4-13l2-3c8-10 19-12 31-14q29-5 48-29c9-13 12-32 9-48a68 68 0 0 0-21-36l-9-9-6-8-3-5H11q-22-2-39-16l-4-6 3 2q11 8 23 12l3 1q20 7 39-1l3-1q18-5 28-20l-8-1-2 1q-4 2-9-1l-1-2-6-3q-3 1-5 4-5 3-11 1c-5 0-5 0-9 2l-4 4v2l-4-1q1-6 7-9t14-1l7-3q3-4 7-3l6 4 2 2 7-1q11 0 21 5l3 2 19 11 2 1 3-5v3q1 10 7 16 8 2 14-2 12-9 13-25 1-7-4-12l-12-1-10 7-2 1 2-5-3-1c-20-6-40-15-51-33l-3-6-1-2q-4-8-3-17v-2q0-12 8-20 5-4 10-5l2-2-4-5q-5-3-12-2l-10 5 5-7Q33 31 10 31l1-2h7l2-1-2-2-6-8-2-2-2-4Q6 7 1 5q-3-1-6 3" style="fill:#060607" transform="translate(232 56)"/><path d="m0 0 2 1a58 58 0 0 0 33 10l6-1 6 2 3 3 1 1 7 7q17 18 17 43 0 27-19 46l-2 2a73 73 0 0 1-40 18q-12 1-21 7l-2 1q-8 7-11 18-1 15 6 28l9 8-2 1q-13-5-18-18-9-22 2-42 5-10 13-19a97 97 0 0 0 20-35c8-25-1-51-9-74z" style="fill:#bca8cd" transform="translate(222 236)"/><path d="M0 0q9 5 14 15 4 12-2 23Q7 48-4 51t-21-2l-7-7-2-2q-6-10-4-24 4-10 15-16 12-4 23 0" style="fill:#fcfcfc" transform="translate(327 112)"/><path d="M0 0q10 6 14 17 2 12-4 22-6 9-16 11-13 3-23-4-9-7-10-18-1-14 7-23Q-17-9 0 0" style="fill:#fcfcfc" transform="translate(255 117)"/><path d="M0 0q6 3 9 9l2 4 2 2 6 8h-2l-2 1h-3l-3 1-6 1c-20 3-43 13-56 29q-9 12-13 27l-3 3-6-2v-7l-3-14v-7l12-7q9-3 12-11l3-10q1-5 5-8h14q11 2 19-6l2-3 2-2 4-6q2-2 5-2" style="fill:#544b7d" transform="translate(233 61)"/><path d="m0 0 3 1-2 7-5 4h-2v2l4 1q11 2 18 13 8 17 2 36-4 17-19 25-5 3-11 2l8-4q13-7 17-21l-2 2Q5 78-6 81l-2-1 9-6-3 1q-12 4-25-2-12-6-16-20-2-13 4-25l4-5-10-1 1-4 5-1 3-1h4c12-3 22-5 31-15zm-34 30q-6 10-4 22 3 11 15 18 12 4 23-1t14-16q4-11-2-23Q5 20-6 18q-17-3-28 12" style="fill:#0c0a0d" transform="translate(254 96)"/><path d="M0 0h1v6q1 12 10 23a38 38 0 0 0 36 4l-9 7q11-4 18-14l2-2q-2 14-14 21-4 4-9 5v2q-13 2-25-5-8-7-9-18l-1-2Q-2 14 0 0" style="fill:#613c6f" transform="translate(210 136)"/><path d="M0 0c20 3 20 3 26 9l2 9v4l-3 5-11 6-2 1c-5 2-5 2-8 1l2-1 2-2 3-2 5-4 4-2v-3h-5l-3-1H-3v-2l9-2 2-1 11-1q-1-5-5-5l-2-2-3-1-5-3-2-1-2-1z" style="fill:#5a4b7f" transform="translate(179 268)"/><path d="m0 0 3 7 11 18q8 13 12 28l-6-3-2-1-7-5V33q0-8-5-13l-5-3-2-2-2-1q-2-3-1-6V5q0-5 4-5" style="fill:#554c7c" transform="translate(170 198)"/><path d="m0 0-2 1 1 2q2 9-4 17l-5 4h-6l-1 2q-2-3-1-6 0-9 6-16 5-6 12-4" style="fill:#46305c" transform="translate(367 200)"/><path d="m0 0 3 1q3 7 2 14v4q1 4-2 7l-8 1q-4-3-4-8t3-9l1-3z" style="fill:#131115" transform="translate(188 119)"/><path d="m0 0 4 1 4 5 2 3q3 5 2 11l-3 3q-4 1-8-1-2-5-2-11V7z" style="fill:#131116" transform="translate(200 176)"/><path d="m0 0 2 1Q0 5-6 8l-11 1h14l-6 7q-5-1-11-6l-2-2-7-7 3 1q14 4 26-2" style="fill:#5b3a69" transform="translate(330 164)"/><path d="M0 0q4 3 3 8L0 7q-18-4-37 3h-5Q-23-2-2 1l2 1z" style="fill:#796395" transform="translate(291 277)"/><path d="m0 0 2 1h2l2 1 3 1 2 1q10 3 20 2h10c-7 7-7 7-11 7Q15 13 2 3z" style="fill:#7b6597" transform="translate(235 343)"/><path d="m0 0 4 2c0 7 0 7-2 11q-3 3-8 3l-3-6q0-4 3-8z" style="fill:#5b4c80" transform="translate(211 313)"/><path d="m0 0 2 1q3 8 0 16l-1 2h-5l-2-4q0-9 6-15" style="fill:#bfd1da" transform="translate(188 124)"/><path d="m0 0-7 1q-11-1-21 3h-6q10-7 21-9l3-1q7 1 10 6" style="fill:#7b6796" transform="translate(277 256)"/><path d="m0 0-2 2q-10 7-12 18l-2 6-2-1q-2-10 4-19 6-7 14-6" style="fill:#0b090e" transform="translate(367 200)"/><path d="m0 0 5 1q3 4 2 9l-2 3q-4 0-7-3V4z" style="fill:#5b4b7d" transform="translate(204 234)"/><path d="M0 0h2l3 4 1 3 1 7-4 2q-3-3-3-7z" style="fill:#c1d2d9" transform="translate(202 181)"/><path d="M0 0v2l2 8 11 1-4 3q-5 1-9-1-4-6-2-12z" style="fill:#0d0a0f" transform="translate(234 205)"/><path d="m0 0 2 1v6l-4 3-3-1-1-5q2-4 6-4" style="fill:#5b4b7e" transform="translate(203 333)"/><path d="m0 0 12 6v7q-5-2-8-6L2 4z" style="fill:#5d4776" transform="translate(209 221)"/><path d="m0 0 1 1 17 10v1q-7 1-12-4-4-1-6-6z" style="fill:#130a18" transform="translate(212 167)"/><path d="m0 0 4 1 1 3-2 3-4-1V1z" style="fill:#5b497d" transform="translate(215 245)"/><path d="m0 0 4 1-1 5-5-1z" style="fill:#625082" transform="translate(212 331)"/></svg>