<svg xmlns="http://www.w3.org/2000/svg" style="display:block" viewBox="0 0 500 500"><path d="M0 0h3q13 0 26 7l8 3q19 5 20 25c0 15 13 29 29 30l18-1c60-1 110 24 138 78l1 2 7 19c5 14 5 14 17 21l3 2 13 4c19 6 56 19 52 44q-11 12-26 9h-2l1 2c3 40 3 40-13 43-31 3-52-33-62-57-7-18-25-13-39-10l-25 5h-3l-33 3h-29l-18-3h-2v6c2 8 2 20-7 24-25 7-52-27-60-46q-5-13-17-22l-5-5-2-2c-29-27-49-71-50-110v-2l1-14V39q-1-8 3-17l1-2q7-10 20-11l12-5q9-4 20-4" style="fill:#919697" transform="translate(124 110)"/><path d="M0 0h3q13 0 26 7l8 3q19 5 20 25c0 15 13 29 29 30l18-1c60-1 110 24 138 78l1 2 7 19c5 14 5 14 17 21l3 2 13 4c19 6 56 19 52 44q-11 12-26 9h-2l1 2c3 40 3 40-13 43-31 3-52-33-62-57-7-18-25-13-39-10l-25 5h-3l-33 3h-29l-18-3h-2v6c2 8 2 20-7 24-25 7-52-27-60-46q-5-13-17-22l-5-5-2-2c-29-27-49-71-50-110v-2l1-14V39q-1-8 3-17l1-2q7-10 20-11l12-5q9-4 20-4m-19 14 3 3q15 15 3 32-13 14-30 5l-3-1c-17 35 20 95 43 119l5 7a139 139 0 0 0 107 41c30 0 30 0 61-4h2c17-2 17-2 33-7 18-1 18-1 26 4l2 1q9 10 14 23c7 17 24 44 46 42q5-1 4-8l-4-3-2-1-2-2-5-3-2-2-6-5-4-2 1-5 7 4 15 11q1 3 4 2 3-11-8-17l-3-2-8-6c-6-4-6-4-4-8q6 2 10 6l13 9c-1-17-19-27-32-35-12-8-16-17-20-30q-10-42-40-73l-2-2a121 121 0 0 0-75-33l-19-1H93q-9 0-8 8l1 15v3q0 5-4 3l-1-8v-7q2-10-6-15-4 3-3 9c-1 9-6 31-17 31l4-9q6-10 8-24v-2c1-8-1-10-7-15q-4-3-8-10-2-2-5 0l-4 2-2 1c-13 7-25-1-31-12q-5-16 7-26 3-3 1-5c-8-4-33-7-37 2" style="fill:#040404" transform="translate(124 110)"/><path d="M0 0h2q5 0 9 2 0 4-3 7-5 7 0 13 12 8 23 1l5-9q1-2 4-2 4 3 1 9-3 9-11 11-5 0-4 5C22 50 10 61-4 58q-14-5-20-20-2-5-9-9-9-5-8-16 6-3 6 1l2 3q6 13 20 8 9-2 9-11l-3-6c-7-7 1-8 7-8" style="fill:#060505" transform="translate(124 161)"/><path d="m0 0 2 3q5 6 13 9c23 9 35 31 32 56-6 12-23 8-33 4q-32-13-49-44l-1-2q-3-4-1-10 8 0 9 9c11 22 38 47 65 43q5-2 3-8l-11-3-6-2-2-1q-3-2-1-6l10 2c6 3 6 3 11 1-1-9-7-9-15-10q-8 0-8-8 6-2 11 2l5 1C30 25 19 21 9 17 2 14-6 9-5 0q3-2 5 0" style="fill:#080808" transform="translate(236 238)"/><path d="m0 0 7 3 19 7c12 3 44 14 42 31l-12 3h-3q-9 3-13-6-3-7-11-12l-1-1-18-12Q1 10 0 0" style="fill:#7d8384" transform="translate(382 300)"/><path d="M0 0q3 16-12 23-16 3-22-13C-37-12-10-20 0 0" style="fill:#fafafa" transform="translate(110 138)"/><path d="M0 0q5 15-8 24-15 5-24-8C-39-6-13-19 0 0" style="fill:#fbfbfb" transform="translate(172 136)"/><path d="m0 0 9 4q18 9 37 12c7 2 4 17 4 23-8 8-24-6-30-11l-7-7C0 7 0 7 0 0" style="fill:#7d8384" transform="translate(150 316)"/><path d="M0 0c-1 8-10 9-16 8q-9 0-11-8c7-6 20-6 27 0" style="fill:#e48284" transform="translate(138 204)"/><path d="M0 0q11 4 22-2h6q1 6-4 8Q8 13-7 4l-2-1q-1-9 9-3" style="fill:#080908" transform="translate(115 224)"/></svg>