<svg xmlns="http://www.w3.org/2000/svg" style="display:block" viewBox="0 0 500 500"><path d="M0 0c12 3 20 24 23 35l2 13-1-3q-1-12 8-19c5-3 5-3 8-1 3 9 2 23-4 31l-11 9q-6 3-7 10 2 10 12 13c5 1 5 1 9-1l3-3q9-8 20-5 5 1 5 7h-9q-10-1-15 6 3 4 7 3 14 1 21 14 4 12-2 24l-5 5c0 7 7 10 13 14 8 4 8 4 18 3q8-2 15 4 2 6 0 12c-6 8-6 8-10 8l-1 3q-2 7-10 10-7 1-12-4l-3-5q-6-10-17-14v3q-2 19-17 31h-6q-4-6-3-12l-2 1c-15 9-15 9-20 9q-2-4-1-9v-4l2-8-7-3q1-9 9-13l12-2 9-2q-7-4-16-2H3c-13 2-27 3-36-6l-3-1-1 6 1 1c33 26 46 52 44 94l-1 5c-8 1-16-5-20-10l-2-7v-5l-3 2-5-1v-2l-10 12q-3 4-7 4l-2-4-1-2q-6-16 1-31l-6 7q-7 0-9-7-6-14 3-26l1-2q3-2 1-6l-7 5-9 7-3 2-2 2 1 2c18 41 20 75-3 115q-2 3-6 2-13-11-15-28l8-15-2 1-12 8-3 2-3 1q-3 3-7 2c-5-16 3-30 14-41l-2 1-3 1-3 2-7 1q-6-16 4-30l13-10c-1-5-1-5-5-8l-3-1q-10-3-17-8-6-4-13-5h-4l1 2c20 31 27 62 12 98q-2 4-5 3-3 0-5-3l-2-2-1-1-1 1-15 31c-9-1-14-10-17-17l-1-4-1-3q1-9 7-16l-2 1-3 1-3 1-7 1q-3-6-1-13 7-16 21-24l-3 1-4 1-2 1q-5 2-11 1-4-15 6-26 7-6 17-9l-3-11c-19 4-29 27-34 45q-9 42 20 74l3 3 1 1c17 17 42 21 64 16q21-7 34-23 4-7 13-6 3 1 3 5v8l1-1h8l1 2 2-1q10 0 17 7c-4 9-17 16-27 18h-16q-11 0-19 8l2-1q10-7 21-3 3 2 2 5h2q14 5 20 19 1 3-2 5-34 4-61-16-3-2-7-1l-18 2h-2l2 4h3l5-1h3q11 0 19 9v4l-2 1 2 2q6 9 5 21-4 2-10 0l-9-4-2-1-17-12a67 67 0 0 1-16-22l-1-3q0-3-4-1l2 3 3 11-9 3 3 1q11 6 12 18v2l-5 2 1 2q2 13-6 24c-13-2-24-25-28-35q-5-13-6-27v-2l-1-8q1-17-14-25h-3l1 1c8 11 11 18 7 31l-3 4q-8-1-12-7l1 1q6 14 1 29-5 1-9-2l-1 1q-6 13-18 16h-6c-10-19 5-53 15-69l15-20-1-2q-8-15-13-32l-6 2 1 2c4 12 6 22-2 33q-2 4-7 4-5-4-8-11v3q0 17-10 29-6-1-8-7l-1 1c-7 10-14 10-25 10l-5-1q1-10 4-18l1-3a110 110 0 0 1 21-32q13-14 29-23l3-1 4-3q5-1 5-6v-6l-2 1c-7 5-7 5-11 3l-2-6-1 2q-3 10-14 13-2 1-4-4l-2 1q-11 3-21-2-2-5 1-8l2-3 2-2c14-16 34-29 57-29v-2q2-11 7-20l-3 1q-14 2-26-4-3-4 0-6 13-13 31-15l-3-1c-10-5-10-5-14-10q1-5 7-7l2-1 14-2h3l3-2q-2-2-1-6 14-7 29 0l4-6 1-2 6-8-4-4-2-2-7-4-1 2q-9 20-31 21h-3l-6-1-1-11v-3l1-2-2 1c-14 10-29 11-46 11q-2-5 1-8l6-7 1-2 12-14-3 1q-13 6-25-1c-9-8-18-17-19-29 22-4 50-5 72 2v-3q3-5 8-6l2-1 5-2 10-5-6-2q-14-3-19-16-5-14-4-28 7-2 13 2l3 1 12 6q52 23 78 73l2 3q4 7 6 15l6 1-2-2-2-3-2-3q-3-7-4-15v-3l4-6q18 5 25 23l4 18 6 1-2-2-1-2-2-2q-2-4-2-10v-2l1-3q13-1 20 10 4-5 5-11l-4-4q-4-8 0-17l2-3-7-6-3 4q-6 8-19 6c-8-1-8-1-10-5-1-7 9-15 14-19l4-1-3-3-2 1q-10 12-25 9l-2-1-7-1q-8 1-14-5-2-4 0-8 6-5 13-5h5l1-3 4-5h-3q-12-1-18-11-5-12 1-23 5-4 11 0l5 3 2 2q16 10 30 22l2 2 15 16c7 9 7 9 15 16l6-2q5-2 10 0l3 2q8 6 17 0l11-7v-3h-2l-3-1h-2l-5-2-11 1q-4 1-7-2 0-10 8-15 6-3 14-2-3-7-10-8l-6 3q-13 2-21-9l-2-8c15-5 33-3 46 8l2 2 1-7h3l-1-2C-7 12-8-1 0 0m-2 35v1l7 25h2q4-9 4-19L1 36zm-160 47-2 1q-15 9-31 10l11 8q4 2 7-1l3-4q6-8 17-8-2-4-5-6m-48 26-1 3 4-2zm60 2-10 5q3 5 7 6l4-2 10-2-4-9zm-12 130-1 2 3-1zm-94 69 1 3Zm78 46 1 2 3-1z" style="fill:#060605" transform="translate(346 35)"/><path d="M0 0q7 2 12 6l2 1q25 16 44 39 9 12 21 20l1-2q3-4 7-4 5-1 7 3 3 4 7 3l4-1 4-1q9-2 17-9 7-4 15-1 5 5 6 13 4 11 15 14 4 1 3 5l8-1 1 2-2 1q-10 6-12 19 2 15 15 21l9 1q8-1 11 6 15 16 37 13h2q3 0 5 3 1 9-8 12l-5 8q-2 4-8 4-4 0-5-5-8-13-22-18l-2-2-12-5-1 2q-5 26-30 36-2-7 3-12l4-3 2-1 6-4-3 1q-9 1-16-2c6-6 9-6 17-7q9 1 13-8l1-4q-11-2-23-2h-4l-17 1q-19 3-30-11-4-6-4-13h-4l1 6 1 3 2 6-2 4-1 2-1 2-3 5-1 2-2 6 5 5 4 5c23 25 23 25 19 38q-5 17-18 29-5-16 2-30 4-9 1-20l-2-3-1 2q-2 12-10 20h-4q-6-15 6-28l2-2q-2-7-8-11-4 2-7 6-12 15-31 19l1 2c17 47 17 47 11 57q-8 9-17 14l-2 1c-11 8-11 8-13 8-1-14 5-22 14-32q9-9 7-22l-1-1-1 2q-7 11-19 18l-3-1q-1-18 15-27l4-3v-4l-1-3-2-6v-3h-3q-14-2-25-11-10-6-22-1l-7 5 5 19 7 28q4 40-17 73-4 0-5-5l-2-2q-7-8-3-17l14-17q3-4 3-8l-3 2c-18 12-18 12-24 12-2-13 11-21 20-28l1-2 8-4-2-13q-3 0-5 4-9 9-22 11-2-11 7-19c12-8 12-8 17-8l-7-21-2 1-2 1-2 1-6 2c-16 6-25 33-29 48l-1 2c-7 26 5 56 23 76q9 9 22 15l2 1q13 7 28 6h3q11 0 21-3l3-1q20-8 32-25 2-2 5-2c-2 17-20 31-34 38q-20 9-41 7h-3c-35-4-64-30-78-60q-10-27-9-56v-3c2-31 20-63 45-82q7-6 11-14a57 57 0 0 1 25-22c17-7 36 0 51 7q12 7 23 3 15-11 18-29l-2-1q-5-2-5-8l2-8q3-3 1-5l-6-8-2-1-6-5-1 3q-2 7-8 11h-9l-5-1q5-13 18-17h2L43 40l-2 3q-7 9-19 10h-3l-4-2H4l-6-2q1-4 4-6h6q8 1 11-8 4-5 11-8-2-4-8-4l-7 1Q5 25 0 18-4 8 0 0" style="fill:#577f72" transform="translate(213 47)"/><path d="m0 0 2 1q32 11 56 33-4 6-7 6l-2-2q-8-8-18-14l-2 3-2 4-1 1q-5 9-13 15l-2 1q-5 3-10 2h-5q-2-14 8-23l16-6v-2L3 12l-1 2c-5 11-14 23-26 27l-2 1-24 3 17-22 7-9 2-2 5-7q-7 0-12 4-12 10-27 8-12-7-19-20v-3q39-5 77 6" style="fill:#98b08b" transform="translate(130 125)"/><path d="m0 0 15 5 3 1q21 10 40 24l2 1c15 12 43 42 43 62h-9l-8-16-9 4q-7 4-15 4h-3q-4 0-7-3 3-9 12-14h16l-8-12-2-2q-3-3-7-1l-6 3Q32 70 7 55l12-7 2-1 16-8 2-1 8-3-1-3-4 1H24q-11 1-18-9l-3-6-1-3Q0 8 0 0" style="fill:#b9a552" transform="translate(119 60)"/><path d="M0 0q5 3 5 8l1 3 2 4 1 3 6 25v2q4 40-17 73-4 0-5-5l-2-2q-7-8-3-17L2 77q3-4 3-8l-3 2c-18 12-18 12-24 12-2-13 11-21 20-28l1-2 8-4-2-13q-3 0-5 4-9 9-22 11-2-11 7-19c12-8 12-8 17-8l-1-6-1-3-2-6V2z" style="fill:#99af8c" transform="translate(189 226)"/><path d="M0 0q7 2 12 6l2 1q25 16 44 39l12 13q5 4 4 6l-1 2c-5 0-5-1-9-4q-1-4-6-6l-1 3q-2 7-8 11h-9l-5-1q5-13 18-17h2L43 40l-2 3q-7 9-19 10h-3l-4-2H4l-6-2q1-4 4-6h6q8 1 11-8 4-5 11-8-2-4-8-4l-7 1Q5 25 0 18-4 8 0 0" style="fill:#97af8b" transform="translate(213 47)"/><path d="M0 0q4 4 1 7l-5 3-3 2-2 1 3 12q5 11-2 21l-3 2q-8-12-7-28l-4 3-2 2q-4 3-3 9c2 25 2 25-3 33h-3l-5-12v-2l-2-5-1 4v4l-1 3q0 9-9 14l-8 1h-4c7-36 34-56 63-74" style="fill:#98ae8a" transform="translate(112 306)"/><path d="m0 0 8 25 1 2c8 23 8 23 0 32L-6 71l-2 1c-11 8-11 8-13 8-1-14 5-22 14-32q9-9 7-22l-1-1-1 2q-7 11-19 18l-3-1q-1-18 15-27l4-3-2-14z" style="fill:#99af8b" transform="translate(257 233)"/><path d="m0 0 2 4 2 3 1 3 1 2 9 24 1 2v17a84 84 0 0 1-6 34L0 109q-9-5-12-15-1-8 5-15c4-6 4-6 3-13l3-4c9-9 7-20 4-30L-5 6l-2-5q4-3 7-1" style="fill:#baa553" transform="translate(268 233)"/><path d="M0 0q10 9 7 22Q3 33-8 36q-13 2-20-8-7-9-3-20 12-19 31-8" style="fill:#f9f9f8" transform="translate(350 139)"/><path d="m0 0 2 4-5 7 6 9c5 6 5 6 5 11v3l-2 6Q-5 33-9 20c-5 6-5 6-4 13l3 6q7 10 5 23l-2 2-13-15 1 2c4 17 4 17-1 23-8 5-8 5-11 5 0-15 7-79 31-79" style="fill:#b8a453" transform="translate(134 357)"/><path d="M0 0c12 5 28 28 32 40 0 12-11 29-20 37q-5-16 2-30 3-9 1-20l-2-3-1 2Q10 38 2 46h-4q-6-15 6-28l2-2Q4 9-2 5z" style="fill:#98ad8a" transform="translate(296 201)"/><path d="M0 0q9 8 7 20-4 9-14 13-13 2-21-10-3-10 2-19Q-14-9 0 0" style="fill:#f9f9f9" transform="translate(407 139)"/><path d="M0 0q8 4 14 10l3 2a82 82 0 0 1 28 70v8q-7-2-12-8l1-12 1-14-1 2q-4 7-11 12-2-6 1-12l3-12 1-3q1-5-2-11l-2 4c-6-7-6-7-6-12 1-6-7-11-12-14L3 8l-5-4z" style="fill:#b4a053" transform="translate(304 196)"/><path d="m0 0 4 2 1 6v6h2q11-1 18 5l3 7q-12 2-22-5l1 3 1 8 4 1q13 3 22 14v2H18l5 4c6 4 9 6 8 14l-3 8-10-10-1-2Q6 47 2 27l-1-3z" style="fill:#b8a453" transform="translate(159 383)"/><path d="M0 0q23 24 23 56v3q1 15-5 28v2l-2 5q-5 0-8-5l1-9 1-19v-4L9 40l2-6q1-6-2-13H7l-2 4-4-10-1-3-1-2V7q-2-3 1-7" style="fill:#b8a454" transform="translate(198 224)"/><path d="m0 0 1 4-4 1v10q0 9-7 13h-2V18l2-11q-6 1-10 6l-2 9q-2 9-10 14l-1-14-3 5c-5 8-5 8-10 8l-8-1c5-17 28-28 44-32z" style="fill:#b7a355" transform="translate(113 263)"/><path d="M0 0q12 10 10 25Q6 37-6 43q-17 5-29-9-6-12-2-25c7-12 24-19 37-9m-33 12q-4 13 5 23 9 8 20 4T5 23-5 2c-11-6-22 0-28 10" style="fill:#0a0c0b" transform="translate(352 135)"/><path d="M0 0c11 5 18 21 20 32v12l-1 7 5-3 3-1q4-2 5-6l-1-6q-1-7 4-11h2c1 13 0 21-11 28l-4 2q-4 2-6 7l-4-2q0-5 3-11c2-8 2-8 1-16l-9-6q-7-2-9-9H8l-3-3Q0 11 0 4z" style="fill:#92a585" transform="translate(345 42)"/><path d="m0 0-6 9 2-1q11-3 20 3c6 6 6 6 6 9Q-8 23-32 4q4-3 9-1l2 2h6l4-3q6-3 11-2" style="fill:#b5a152" transform="translate(271 392)"/><path d="M0 0q6 0 8 5l2 3 1 4h12q7-1 14 3v2l-12 5 6 1q6 0 11 5l1 10C24 35 8 19 0 2z" style="fill:#97ac89" transform="translate(198 399)"/><path d="M0 0c18-1 33 2 43 18q7 11 7 24h-4l-1-8h-2c-9 2-9 2-13-3l-7 1-7 1q1-7 8-9 10-1 18 3c-6-14-6-14-19-21q-5 0-9 3-8 1-13-5z" style="fill:#ae9c53" transform="translate(296 54)"/><path d="M0 0h3a43 43 0 0 1-30 38q-2-7 3-12l4-3 2-1 6-4-3 1q-9 1-16-2c6-6 9-6 17-7q10 1 13-8z" style="fill:#97ab89" transform="translate(386 192)"/><path d="M0 0q12 3 17 14 4 10 4 20l-4-1h-3l-5-3v-3q1-7-5-12-5-7-4-15" style="fill:#96ad89" transform="translate(230 130)"/><path d="M0 0q-5 13-18 14h-8l-8-2c0-4 6-6 9-8q12-5 25-4" style="fill:#97ac89" transform="translate(133 218)"/><path d="m0 0 2 2q-7 10-21 8-8-2-14-8 16-8 33-2" style="fill:#b49f50" transform="translate(147 198)"/><path d="m0 0 6 5 8 5 1-4h3c1 5 1 5-1 8q-4 2-9 0L1 7Q-9-2-22 0l-7 4-5 1q0-6 4-7 16-9 30 2" style="fill:#080d0b" transform="translate(347 121)"/><path d="M0 0v7l3-2q4-4 10-3l4 2-10 8-4 2a42 42 0 0 1-20 2h-5q2-4 7-3 6 1 8-5l1-3q2-5 6-5" style="fill:#b19e53" transform="translate(291 363)"/><path d="m0 0 3 1q1 19-14 32h-2c0-16 0-16 5-22l3-1q4-4 5-10" style="fill:#b19c50" transform="translate(396 199)"/><path d="M0 0c13-1 13-1 18 3q-1 4-5 6Q5 9-1 2z" style="fill:#a09d64" transform="translate(142 185)"/><path d="m0 0 1 4-2 1-2 1-2 1q-5 3-6 9h-4q1-10 7-15z" style="fill:#0b0f0e" transform="translate(446 200)"/><path d="M0 0q7 1 11 7l2 2v5l-4 1Q0 10 0 0" style="fill:#b19d55" transform="translate(261 149)"/><path d="m0 0 5 5-1 1-1 7H2L1 5l-3-1z" style="fill:#253a34" transform="translate(356 99)"/></svg>