<svg xmlns="http://www.w3.org/2000/svg" style="display:block" viewBox="0 0 500 500"><path d="m0 0 2 2-1 6Q-9 20-23 25q-25 10-52 14l-3 1h-14q-37-1-72 12-15 9-25 22-6 10-7 23-1 12 3 23 4 8 10 12l7 3-3-2-3-3v-2l-4-2q-6-5-7-14-3-13 0-26 5-14 15-23a98 98 0 0 1 56-21h2q18-2 36-1 25 1 49-4l2-1q18-4 31-14l8-1 1 1v6l-5 5-2 2a96 96 0 0 1-41 18q-23 4-47 4c-23 0-47 1-68 11q-11 7-18 17-3 6-3 14 0 7 3 14l13 10q8 3 15 2l6-4 3-3 8-7-3-8q-4-7-2-16 0-7 3-12 6-7 13-11l17-2q8 3 15 9l5 7 12-7 24-13 3-1q10-4 20-3 7 0 13-4 15-5 29-3 16 1 31 7l5 4 1 2 6 2q17 5 30 19l4 3q9 10 13 23l4 16q9 18 7 38c-1 8-1 8-4 12l-4 10q-4 16-14 28l-11 8h-4l-2 4q-13 13-30 20l-10 2h-4l-2 4q-14 13-32 18l-11 1h-3l-9-3-8-1-13-4-7-9v-8l4-5-4-8-1-7 2-6 12-7q23-3 46 1l8 1 4-5q6-9 15-13l4-1v-5l-3-1-2 4-5 5-2 2h-7l-3-3-1-3-1-3-6-4v-2H7l-4-4q-4-12-2-25l3-9-1-1-1 3q-6 17-16 32l2 1 19 9 2 3v5l-5 4q-10 1-20-3h-3q-10-3-17-8l-1-6 1-9-3 3-3 3h-2l3 3 3 5 2 2q5 6 6 13l-3 5h-7q-13-7-22-20-2-3-2-8l1-7-5 4 2 3 2 5 2 4 2 8v4l-3 3h-7q-10-9-16-21l-3-10 1-4 5-5 2-3h-5l-15-3c-9-3-9-3-19-4l-6 2-18 2q-7 1-13-2h-7q-14-1-26-8-10-7-16-16-8-14-8-32 0-17 8-34 10-15 25-25c21-13 44-16 68-17l13-1A188 188 0 0 0-8 1z" style="fill:#0e0706" transform="translate(287 105)"/><path d="M0 0q6 2 11 7l4 8v17l2-1V19l-1-8 8 1 18 12 2 2q11 9 18 22l1 12q-4 12-13 20 7-4 11-11l2-3 1-2h2q8 16 7 33v3l-1 13-6 6q-8 4-18 4v2l6-1h4l9-3q-1 14-9 24-6 8-13 12H30l8 3q-11 14-28 20l-2 1-10 1h-3l-7-2v-4l-1-4-5-3 2-9q7-11 17-17l3-1 4 1 2 3 9 6-2-2-3-3-3-3-3-8 3-9 4-6 7 3q9 2 17 1l-8-1-10-3q-7-6-10-13l-1-10h2q10-1 19-6h2v-2l-3 1q-10 5-21 4-8-1-15-7l-4-6 2-1q7-5 13-14v-3l-2 4q-6 8-16 13-9 3-20 1l-4-2 1-4 1-2 2-5q3-10 2-21l-1-3v3q0 15-6 29-6 10-17 16-21 10-45 9-27 1-52-8l-6-1-6 2-26 1 9-7 11-8 1-3-3 1q-11 5-24 3l11-7q13-8 23-20l3 1q7 4 16 3l8-2-8 7-12 1v2q10 0 19-4l8-10q5-8 5-18l1-4 11-8h2l-1 4q-2 11 2 21 4 9 11 15l8 4h8l-2-1q-9-2-16-8l1-2 3 2q7 2 16 1l7-3 3-1 7-10q3-6 2-13-1-8-6-15-4-4-12-7l-6-1 1-2 15-4 11 2q10 6 15 15-1-7-6-11l-7-5 5-4 3-1h3q22-5 44 1" style="fill:#f9ad95" transform="translate(328 161)"/><path d="m0 0 2 1q-24 18-53 24l-45 4c-26 2-48 4-71 17q-12 7-19 19-7 16-7 31 0 12 5 22 6 9 15 14 10 4 21 3l16-2h7l-6 4-4 3q-5 4-12 3-13 1-25-4-11-6-17-15-8-14-8-31 0-15 7-28 9-16 25-26 12-7 24-10l3-1q20-5 42-5l13-1h3c24-1 24-1 48-6l4-1q18-5 32-15" style="fill:#e6a38f" transform="translate(280 112)"/><path d="m0 0 11 4q6 4 8 10 2 8 1 14-2 7-6 11-6 5-13 6-6 2-13-1-7-5-12-13-2-7-1-14 2-6 6-10 8-7 19-7" style="fill:#fbfbfb" transform="translate(245 173)"/><path d="M0 0q7 0 14 3l9 12q1 9-2 18l-9 9q-7 4-14 3l-8-3q-6-4-11-12V17q2-6 6-10 5-6 15-7" style="fill:#fbfbfb" transform="translate(179 173)"/><path d="M0 0v3q-14 10-29 15l-3 1c-21 7-42 6-63 7a177 177 0 0 0-43 4q-18 3-33 16-7 7-11 16-3 10 0 20 2 8 8 14a47 47 0 0 0 23 10l-7 5-9-2q-11-6-17-13-5-8-6-18-2-12 4-22l7-11 2-2q11-11 28-17a131 131 0 0 1 50-6h13c21-1 41-1 60-8l3-1C-10 7-10 7 0 0" style="fill:#cc7460" transform="translate(287 131)"/><path d="M0 0h3l10 2v7Q4 20-10 25l-2 1q-12 6-24 7l-11-3-6-5-1-7q6-7 15-9 19-9 39-9" style="fill:#f5553d" transform="translate(300 331)"/><path d="m0 0 8 1 18 12 2 2q10 8 16 18 1 8-2 16l-6 6-5-1-2-6A39 39 0 0 0 9 24l-7-6L1 4z" style="fill:#f6553d" transform="translate(344 172)"/><path d="M0 0h2q8 16 7 33v3L8 49l-5 5-9-2-4-5-1-17V17l1-4 5-5 3-4z" style="fill:#f6543d" transform="translate(392 225)"/><path d="M0 0h3q17 0 33 5v4h-5q-21 1-43 9l-6 2q-4-1-7-6l-1-6 4-5q10-3 22-3" style="fill:#ed563f" transform="translate(271 320)"/><path d="m0 0 1 4q-3 12-11 23l-2 2h-6l-4-5 2-14 4-6q7-3 14-3z" style="fill:#f2553e" transform="translate(394 282)"/><path d="m0 0 5 1 3 3Q-6 18-24 23l-15 1-1-3 3-1q19-5 34-17z" style="fill:#e75a43" transform="translate(313 343)"/><path d="m0 0 1 2q-7 20-22 36l-2 2h-3q0-6 3-10l2-4 9-14 5-8z" style="fill:#e75b44" transform="translate(282 250)"/><path d="M0 0h1q1 7-1 13l-6 9-3 2-3 2-6 1-17-7-2-2v-3l3 2q7 2 16 1l7-3 3-1 7-10z" style="fill:#8d5c53" transform="translate(267 202)"/><path d="M0 0h8q-9 13-22 22l-7 1 4-7 2-2 2-2 2-2z" style="fill:#e55b46" transform="translate(250 263)"/><path d="m0 0 7 1 6 1 4-2h6l6 4 2 5-3 1-1-2-3-3h-8l-2 1H7L4 4l-8 4-10-1-2 4-1-3 3-4h9z" style="fill:#231412" transform="translate(202 241)"/><path d="M0 0q13 2 25 8l2 3Q17 11 8 8L5 7l-8-2V2z" style="fill:#db5946" transform="translate(263 289)"/><path d="m0 0 7 1Q2 6-5 9l-3 3-11 3 1-4q8-8 18-11" style="fill:#e15c48" transform="translate(224 265)"/><path d="m0 0 3 1q9 4 17 3l8-2-8 7-12 1-1 2-9-9z" style="fill:#895b53" transform="translate(165 216)"/><path d="m0 0 5 5-4 4-3 2-6 4-5-1 1-4 4-4 3-2z" style="fill:#e55d45" transform="translate(320 250)"/><path d="m0 0-10 13-2 1h-5l2-7 5-6z" style="fill:#e25d46" transform="translate(312 245)"/><path d="m0 0 4 1 13 16v3q-5-1-8-5l-4-3-3-4-5-7z" style="fill:#d95b49" transform="translate(233 288)"/><path d="m0 0 2 1-2 4q-14 10-29 13h-3l-1 2v-3l-4-1 3-1q18-4 34-15" style="fill:#2f0a08" transform="translate(305 346)"/><path d="M0 0h5l5 9 1 2 4 7v4l-7-5-2-4-3-4Q0 5 0 0" style="fill:#d65b48" transform="translate(206 282)"/><path d="M0 0v7q-7 3-14 2l-2-4q7-5 16-5" style="fill:#de5c45" transform="translate(336 264)"/><path d="m0 0 3 5q2 13-4 26l-3 4-3 1 1-2Q0 18 0 0" style="fill:#261714" transform="translate(295 204)"/><path d="m0 0-1 4-7 6-4 3-9 4 1-4 6-4 3-2 2-1h-4l-1-3 5-1 3-1z" style="fill:#1f1210" transform="translate(159 239)"/><path d="m0 0 1 2-3 1q-16 3-31 9l1-4q15-9 32-8" style="fill:#300907" transform="translate(289 330)"/><path d="M0 0h5v14l-1 6-3-1z" style="fill:#e05c48" transform="translate(294 262)"/><path d="m0 0 5 1-3 18h-3V9z" style="fill:#d15847" transform="translate(305 266)"/></svg>