<svg xmlns="http://www.w3.org/2000/svg" style="display:block" viewBox="0 0 500 500"><path d="m0 0 14 13c23 22 38 54 39 86 1 33 1 33-3 47v2a142 142 0 0 1-33 62l2 2q3 4 2 9-1 4 3 7 13 9 28 11 11 2 17 11 3 7 0 15-11 10-25 11l-31-1q-19-2-36 9-17 8-36 3-8-2-17 3-20 8-42 1-11-1-22 3-13 3-27 4h-3l-16-2q-8-1-14 1-35 8-66-9c-16-13-29-34-37-52v-3l-1-1q-12 0-19-8-6-12-4-24 5-12 12-19l3-3 1-1-1-3q-4-10-1-21l5-7q5-7 4-14l-2-1q-21-8-30-29-6-13-6-27 1-12-6-22-11-19-5-42 8-24 30-37 24-11 47-5l9 4q19 9 28 30l1 5 14-12 29-18q25-13 53-16l4-1C-90-45-37-31 0 0" style="fill:#060604" transform="translate(392 120)"/><path d="M0 0h2q36-1 68 10l2 1c37 13 69 39 86 75q6 11 8 21l1 4c8 35 1 73-18 103l-8 10-2 3a58 58 0 0 1-42 19q-29 1-51-20a81 81 0 0 1-22-58q0-32 20-57l2-2q13-14 34-16 19-2 34 11 16 17 17 40 1 22-12 37-9 9-21 10-10-1-18-8-8-10-8-24 0-10 8-17 7-4 14-2 7 3 9 9v10l5 1q3-8 0-16-4-8-13-11-10-2-19 4-9 9-11 21-1 17 11 30 10 10 25 9 14-1 24-12 11-13 12-29v-2q3-29-15-52a49 49 0 0 0-37-16q-25 1-45 19a88 88 0 0 0-23 55v4q-2 37 22 66a75 75 0 0 0 87 15h9l3 6-2 5q-21 11-43 8h-4a126 126 0 0 1-84-28l-13-14q-7-9-17-17l-9-11q-9-11-22-19l1-5 1-3 1-6q27 12 47 35-11-18-30-31l-4-4h2q20-1 35-15 18-24 15-54l2-21A51 51 0 0 0 3 27l-2-2Q-12 11-33 6q4-3 10-3l3-1z" style="fill:#b69d3d" transform="translate(265 92)"/><path d="m0 0 2 1 11 8-1 4v2l-2 6-1 13v3q-1 7 3 12l2 1V38q8 3 13 9l2 2a81 81 0 0 1 18 30l5 14-1-21 11 11 1 1q7 9 6 21v3l-2 15-1 5 2-3 1-1q5-8 5-18v-2l1-6 9 5q24 15 51 20h2q35 7 69-5 6-2 11 1l6 4q12 6 23 9l12 5-1 5q-8 6-17 5h-50v-4l-1-3-2-6v7q-1 7-6 10l-7 4-2 1a45 45 0 0 1-37 1v-2l1-7v-3l-1-7-1 3-1 5-1 2q-1 9-9 13l-3 1-3 1-3 1-3 1q-14 4-26-2l-3-2 1-2q10-11 9-25l-2 3c-9 21-9 21-19 25l-7 2-3 1q-21 5-41 4v-2l2-1q13-6 21-16l-2 2-31 13-2 1a103 103 0 0 1-37 5q-22 0-38-16c-10-10-28-33-28-48l6-5 1-2-2 1h-2l-3 1q-7 4-16 1-4-3-6-8-2-11 5-20 10-10 22-16l-4-2q7-13 19-20l3-3q2-13-3-27l4-2 3-2 6-1 1 3 1 3 1 4 3 7q-1 6-6 10l3-2c11-5 28-6 40-3q-1 6-6 10 10-1 15-9Q-3 13 0 0" style="fill:#d1c694" transform="translate(193 238)"/><path d="M0 0q13 10 17 25l1 4q4 21-8 39-11 15-30 20-22 3-40-10a53 53 0 0 1-19-36q-1-20 12-35c19-20 45-22 67-7" style="fill:#fbfbfb" transform="translate(254 115)"/><path d="M0 0q21 10 29 31 5 21-6 41-12 18-33 22-15 3-29-4l-3-1q-18-10-24-30-5-19 4-37C-50 1-24-10 0 0" style="fill:#fcfcfc" transform="translate(116 102)"/><path d="m0 0-1 2v2l-1 2-3 21v3q0 11 4 20l1 5q0 23 11 43l1 7v3l-1 3H4q-17-2-34 1h-6l-1-8 4-5q13-16 13-38V50l-1-18q-2-10 3-18L-7 4z" style="fill:#b29b3d" transform="translate(174 127)"/><path d="M0 0h1q1 13-3 26l-1 3q-7 21-26 32-14 7-29 3-19-9-25-28-3-7-3-15l2 2q11 14 27 15l11-2h-3c-14-1-21-5-30-15l-2-2 1-2 3 1q20 13 43 6 12-4 23-12-9 22-30 33l-7 2q15 0 25-10Q-7 22 0 0" style="fill:#9a8f62" transform="translate(147 177)"/><path d="m0 0 1 2q-7 16-24 23 14-2 24-14l1-3 4-4Q6 24-7 39q-10 11-25 13-19 2-34-13-11-12-15-29l1-4 1 2q10 17 27 26l3 2 12 1h2l10-1h-3q-18 0-32-13l-2-2-10-13 10 5A54 54 0 0 0 0 0" style="fill:#9a8f62" transform="translate(264 193)"/><path d="M0 0c13 11 13 11 15 19l-1 5-4 1-7-9a75 75 0 0 0-50-28 81 81 0 0 0-68 25l-5-1V6c12-15 33-25 51-27q39-4 69 21" style="fill:#090907" transform="translate(206 317)"/><path d="M0 0h3l17 1 1 5-2 2-1 3-1 2h-3l-20-1h-14c-3-6-3-6-3-10z" style="fill:#b39b3e" transform="translate(163 242)"/><path d="M0 0v11l-10 10q-7 5-11 13l-4-2V20C-20 13-9 0 0 0" style="fill:#b09940" transform="translate(114 257)"/><path d="M0 0c7 6 7 6 7 12 0 12 0 12-5 17q-5 6-15 5-6 0-12-5l-2-4h2q10 4 19 1 5-2 7-8V8z" style="fill:#0c0c08" transform="translate(229 325)"/><path d="m0 0 11 9q-4 3-9-1-22-8-44-1 4-6 10-8 17-5 32 1" style="fill:#0c0c09" transform="translate(165 319)"/></svg>