<svg version="1.2" xmlns="http://www.w3.org/2000/svg" viewBox="0 0 1080 1080">
	
	<path id="shell" d="m183 635c0 0-22-29.86-15-49 7-19.14 29-52.86 49-73 20-20.14 52-168.86 120-234 68-65.14 190-89 190-89 0 0 92-10.86 156 8 64 18.86 135 64.14 167 94 32 29.86 75 108.14 80 159 5 50.86 6 102.14-20 183-26 80.86-58 77-58 77l22 34c0 0-45 19.14-53 19-8-0.14-93 18.14-151-6-58-24.14-100-51.86-112-67-12-15.14-170-147.86-375-56z" style="fill:#b69d3d;stroke:#000000;stroke-linecap:round;stroke-linejoin:round;stroke-width:15"/>
	<path id="Layer 1" fill-rule="evenodd" d="m168 598c0 0 73.52-78.98 180.75-81.79 67-1.75 124 50.62 140.92 70.41" style="fill:none;stroke:#000000;stroke-linecap:round;stroke-linejoin:round;stroke-width:10"/>
	<path id="body" d="m568 698.96c0 0 92 58.18 107 61.04 15 2.86 75.57 15.62 127 6.46 57.75-10.28 77.75-20.25 77.75-20.25 12 5.86 23.5 33.65 65.5 33.5 42-0.14 49.5 13.5 31.25 36.75-16.12 20.55-114 30-114 30-25.5-1.75-62.75 2.75-55-19.75 10.22-29.68 7-2.85-14 17-21 19.86-104.5 4.29-104.5 4.29l9.25-23.79c0 0-6.25 37.93-50.25 48.79-44 10.86-76.25-12.04-76.25-12.04l28-42.75c0 0-29.5 67.9-91.5 67.75-62-0.14-82-7.25-82-7.25 0 0 66.25-41.75 68.75-44.71 2.64-3.13-60.75 42.25-81.5 48.71-20.75 6.47-78.75 21.04-125.75-5.25-47-26.28-111.71-121.07-96.5-127 14.75-5.75 22.25-22 22.25-22 0 0-15.5 35.29-51.5 14.75-36-20.53-25-52.21-20.5-59.25 4.5-7.03 66.75-99.92 154.5-126.96 87.75-27.04 145 25.54 150 31 5 5.46 122 110.96 122 110.96z" style="fill:#d1c694;stroke:#000000;stroke-linecap:round;stroke-linejoin:round;stroke-width:15"/>
	<path id="mouth" fill-rule="evenodd" d="m179.75 700.09c0 0 76.7-69.88 155.65-49.89 85.1 21.54 114.91 67.41 125.1 76.73" style="fill:none;stroke:#000000;stroke-linecap:round;stroke-linejoin:round;stroke-width:15"/>
	<path id="mouth-dt1" fill-rule="evenodd" d="m430.5 751.43c0 0 76.5 32.57 54-39.5" style="fill:none;stroke:#000000;stroke-linecap:round;stroke-linejoin:round;stroke-width:10"/>
	<path id="gill" fill-rule="evenodd" d="m550 767c0 0 18.5-25.93 9-70" style="fill:none;stroke:#000000;stroke-linecap:round;stroke-linejoin:round;stroke-width:10"/>
	<path id="gill-dt2" fill-rule="evenodd" d="m515.5 701.43c0 0-8-56.36-22.5-70.43" style="fill:none;stroke:#000000;stroke-linecap:round;stroke-linejoin:round;stroke-width:10"/>
	<path id="chin" fill-rule="evenodd" d="m267 697.09c0 0 68.66-24.84 94.5 10.34" style="fill:none;stroke:#000000;stroke-linecap:round;stroke-linejoin:round;stroke-width:10"/>
	<path id="swirl" fill-rule="evenodd" d="m852.5 708.43c0 0-49.5 34.64-128.5 15.57-79-19.07-99-71-99-71 0 0-21-34.43-23-88-2-53.57 30-103 30-103 0 0 28.65-54.65 92-69 58-13.14 94.2 9.32 103 15.86 27.52 20.45 40 54.05 40 100 0 40-19 86-57 102-23.49 9.89-55.42 12.13-87-13-49-39-23.04-91.13 4-106 26.5-14.57 74-11 62 34" style="fill:none;stroke:#000000;stroke-linecap:round;stroke-linejoin:round;stroke-width:10"/>
	<path id="stem1" d="m360 577.43c0 0 47-25 42-100-4.63-69.44 39-71.43 39-71.43 0 0 44.12 35.13 15 94-28.9 58.43-20.26 68.43-23 68.43 0 0-1 18 1 41.5" style="fill:#d1c694;stroke:#000000;stroke-linecap:round;stroke-linejoin:round;stroke-width:15"/>
	<path id="stem2" d="m305 567c0 0-28.5-52.5-30.5-76.57-2-24.07-24-56.36-46.5-30.43-22.5 25.93 3 47 3 47 0 0 22 44 16.5 79.43" style="fill:#d1c694;stroke:#000000;stroke-linecap:round;stroke-linejoin:round;stroke-width:15"/>
	<path id="eyebag" d="m146.83 344.33c0 0-49.38 46.48-24.69 111.35 24.69 64.88 75.53 69.24 75.53 69.24 0 0 31.95 14.59 86.66-33.41 54.71-48 31.96-109.42 31.96-109.42l-22.76-86.66z" style="fill:#9a8f62;stroke:#000000;stroke-linecap:round;stroke-linejoin:round;stroke-width:15"/>
	<path id="eyebag2" d="m423.69 333.94l-40.07 33.68c0 0-22.07 25.87-7.91 74.23 14.15 48.35 40.92 61.54 53.27 72.72 12.36 11.18 72.33 21.97 109.23-8.97 36.9-30.93 35.7-95.04 35.7-95.04l-4.06-66.43z" style="fill:#9a8f62;stroke:#000000;stroke-linecap:round;stroke-linejoin:round;stroke-width:15"/>
	<path id="eyebag-dt1" fill-rule="evenodd" d="m116.5 419.43c0 0 28 50.57 75.5 42.5" style="fill:none;stroke:#000000;stroke-linecap:round;stroke-linejoin:round;stroke-width:10"/>
	<path id="eyebag-dt2" fill-rule="evenodd" d="m244 470.86c0 0 56.64-6.42 71.5-86.43" style="fill:none;stroke:#000000;stroke-linecap:round;stroke-linejoin:round;stroke-width:10"/>
	<path id="eyebag-dt3" fill-rule="evenodd" d="m371.09 409.95c0 0 24.91 69.67 86.83 72.78" style="fill:none;stroke:#000000;stroke-linecap:round;stroke-linejoin:round;stroke-width:10"/>
	<path id="eyebag-dt4" fill-rule="evenodd" d="m509 468.79c0 0 51.34 2.8 64.45-58.83" style="fill:none;stroke:#000000;stroke-linecap:round;stroke-linejoin:round;stroke-width:10"/>
	<path id="eye1 copy 2" fill-rule="evenodd" d="m475.01 433.22c-59.99 0-108.48-48.49-108.48-108.48 0-59.99 48.49-108.48 108.48-108.48 59.99 0 108.48 48.49 108.48 108.48 0 59.99-48.49 108.48-108.48 108.48z" style="fill:#ffffff;stroke:#000000;stroke-linecap:round;stroke-linejoin:round;stroke-width:15"/>
	<path id="eye2 copy 2" fill-rule="evenodd" d="m203.48 426.96c-59.99 0-108.48-48.49-108.48-108.48 0-59.99 48.49-108.48 108.48-108.48 59.99 0 108.48 48.49 108.48 108.48 0 59.99-48.49 108.48-108.48 108.48z" style="fill:#ffffff;stroke:#000000;stroke-linecap:round;stroke-linejoin:round;stroke-width:15"/>
</svg>