<svg xmlns="http://www.w3.org/2000/svg" style="display:block" viewBox="0 0 500 500"><path d="M0 0q12 15 20 31l2 3 1 6 4 1q12 4 17 15l1 4q4 7 11 7l3 2q6 4 11 0 8-3 9-10l-11-8Q45 39 43 14q0-13 6-23c4-2 4-2 9-1 8 8 8 8 8 13l12 3q14 2 23 12l9-6q11-3 21-2c10-1 14-3 21-10 4-2 4-2 9-1q8 13 2 29c-7 21-23 29-43 36l-5 2-1 9q-2 26-14 50l-2 3q-11 20-26 36l-4 4-12 10-5 6q-8 8-20 9-14 2-25 10l1 3c5 12 5 12 3 17q-3 4-9 5-12-2-20-12-8-6-17-3l-12 2q-47 5-92-9v3l-1 4v4q-1 6-6 9-12 0-18-11-4-8-6-17c-2-9-6-11-13-16q-24-16-36-43-3-5-9-7-5-7-4-15h-3q-9 0-14-8c-18-29-19-77-7-109 12-29 38-44 67-52C-124-67-47-52 0 0" style="fill:#6b8595" transform="translate(309 167)"/><path d="M0 0c14 11 13 27 13 43q1 16 9 28l1 4q2 5 5 6 6 5 4 12 2 18 12 31l2 4-10 2-4 1c-56 7-115-5-155-47-17-19-17-19-17-27 10-2 16-1 26 2q21 5 41-2l1-2-3 1q-25 8-50-3h-14q-7 1-12-5-4-5-2-10c17-9 39-4 57-1s38 6 56-1q9 2 13 10t13 8q7-1 12-6 5-10 0-20l-8-8-2-2 4-6q5-5 8-12" style="fill:#c5cdd3" transform="translate(234 246)"/><path d="M0 0q12 15 20 31l2 3 1 6 4 1q12 4 17 15l1 4q4 7 11 7l3 2q6 4 11 0 8-3 9-10l-11-8Q45 39 43 14q0-13 6-23c4-2 4-2 9-1 8 8 8 8 8 13l12 3q14 2 23 12l9-6q11-3 21-2c10-1 14-3 21-10 4-2 4-2 9-1q8 13 2 29c-7 21-23 29-43 36l-5 2-1 9q-2 26-14 50l-2 3q-11 20-26 36l-4 4-12 10-5 6q-8 8-20 9-14 2-25 10l1 3c5 12 5 12 3 17q-3 4-9 5-12-2-20-12-8-6-17-3l-12 2q-47 5-92-9v3l-1 4v4q-1 6-6 9-12 0-18-11-4-8-6-17c-2-9-6-11-13-16q-24-16-36-43-3-5-9-7-5-7-4-15h-3q-9 0-14-8c-18-29-19-77-7-109 12-29 38-44 67-52C-124-67-47-52 0 0m-238-20-4 4c-23 30-20 72-10 107 4 12 4 12 13 21q9 1 19-1 27-4 55 3 42 9 75-18 8-9 11-19c-3-3-11-1-15 0h-2l3-4c11-1 17 0 26 7q10 20 7 43 0 11 5 21l2 1 3-6-1 5c0 7 0 7 3 12l4 2v-11q3 1 2 4l1 3v4l1 8q2 33 30 52 6 4 14 4 2-4 1-9l-2-5q-5-9-3-20-1-14-12-23-7-6-9-16l5 6 2 3h2q2-6-2-13l1-1q5 6 3 15-1 4 4 7 20 1 37-8l11-1 1 1c17 0 35-22 44-34 13-18 23-38 22-61V51l4 9q22-4 37-19l2-2q10-14 8-32l-2-4-8 6c-8 6-15 5-24 5q-17 0-26 13l-4 7-2 1 2-5c3-5 3-5 0-9Q85 11 70 9 60 5 55-6c-8 8-7 18-6 29 4 15 17 22 30 29l5 3q4-4 3-7h2q-3 18-17 26l-9 2 2 10h-2l-1-2q-3-9-11-14h-3v3l2 15h-2v-3q-3-24-20-39h-3l1 4 1 4 1 5 2 14h-2l-1-8A145 145 0 0 0-86-45c-48-13-115-13-152 25m163 99-1 2-11 17 3 2q9 6 9 16 1 9-5 14-7 4-15 2-8-6-13-15-6-3-13 0c-17 5-34 2-50-1-19-3-37-6-56 0q-2 3-1 8 4 6 10 8h9q10 0 19 4 22 6 43-2c-2 4-9 5-13 6q-21 2-40-6l-8 1-4 1h-3q7 19 22 32l3 4c41 37 104 46 157 36l4-1-6-11q-8-14-8-29c-1-6-2-6-7-9l-4-9-5-9-2-13v-12c-1-14-2-27-14-36" style="fill:#060708" transform="translate(309 167)"/><path d="M0 0q13 13 10 30Q7 45-6 52l-4 2-3 1q-17 4-29-6-14-13-11-32 4-18 22-24 17-5 31 7" style="fill:#fcfcfc" transform="translate(208 171)"/><path d="M0 0q15 12 13 29-1 16-15 25-14 8-28 3-15-7-20-23-3-17 8-30 20-18 42-4" style="fill:#fcfcfc" transform="translate(124 169)"/><path d="M0 0c2 5-2 9-4 14l-1 3q-14 28-39 47-6 5-11 12-6 4-14 4l3-4 5-8-2 2c-26 21-26 21-34 21V76q-1-7-5-12v-2l8-1q13-2 25-8 6-2 12 0c18 0 35-21 45-34q7-9 12-19" style="fill:#c2cad0" transform="translate(409 274)"/><path d="M0 0q34 15 55 44v2h-2v4c-1 4-1 4-5 8-7 0-8-1-13-5l-7-4q-7-2-9-8v-6q1-8-6-11l-5-3Q-1 16-2 7q0-4 2-7" style="fill:#5c7682" transform="translate(256 134)"/><path d="M0 0q15 12 14 32-2 19-19 29-16 9-33 1-18-10-21-30 0-18 14-31 23-16 45-1m-49 12q-9 14-3 29t23 20q19 2 31-11 11-15 6-33Q2 5-11-1l-2-1q-23-4-36 14" style="fill:#0c0d0f" transform="translate(128 166)"/><path d="M0 0q14 13 13 33-5 20-23 29-15 6-31-2-16-10-19-27-1-21 15-34c14-10 32-10 45 1m-51 11q-7 13-3 29 8 14 24 20 18 2 32-12 9-15 5-31Q0 1-17-4q-21-3-34 15" style="fill:#0c0d0e" transform="translate(210 167)"/><path d="M0 0c7 7 9 10 8 19q-3 8-11 9-10-3-15-14l-3-2v-2l7-4q6 2 9 7v2h2l-7-12c4-4 4-4 10-3" style="fill:#e28585" transform="translate(223 269)"/><path d="M0 0q4 5 6 11l2 4v12q-4 4-10 2l-7-11-4-6c-3-5-3-5-2-10h11z" style="fill:#5c7682" transform="translate(324 201)"/><path d="m0 0 13 6 9 4v11l-2 8q-5 0-9-4Q3 14 0 0" style="fill:#6b828f" transform="translate(141 359)"/><path d="M0 0q6 6 9 13l2 3q3 1 1 7l-7 1-6-4-4-2q-3-2-4-5l1-12c3-2 3-2 8-1" style="fill:#5d7784" transform="translate(296 202)"/><path d="M0 0v4h-2l-2 5c-11 19-28 41-49 49l-8-1q-11 1-22 6l-5 1-1-3 11-4 3-1q7-4 15-3l1 1c17 0 34-21 43-33L-6 5q2-3 6-5" style="fill:#121417" transform="translate(411 270)"/><path d="M0 0q3-1 6 4l13-1c13-1 19 4 29 11l9 6 4 1v3c-9 1-15-5-22-10q-9-8-22-5-8 1-16-2l-2-3z" style="fill:#07090b" transform="translate(164 134)"/><path d="M0 0c-1 5-1 5-5 8h-9q-13-2-22 7-5 4-12 3l-1-4 5-2q10-2 16-8 9-2 17-1c5 0 6-3 11-3" style="fill:#090b0d" transform="translate(126 137)"/><path d="M0 0q6 4 8 9v5l-8 1-5-4-3-2-2-6q3-6 10-3" style="fill:#5c7783" transform="translate(271 182)"/><path d="M0 0c10 2 13 10 17 18l1 4c-6 0-6-1-10-6l-3-1-1 3z" style="fill:#5c747f" transform="translate(334 213)"/><path d="m0 0 10 3q20 6 40-1h3q0 3-5 5c-16 4-35 4-49-5z" style="fill:#171819" transform="translate(109 299)"/><path d="m0 0 4 1C3 7 1 8-4 12c-5 2-5 2-10 1l1-6h2V2l4-1-1 2c5 1 5 1 8-3" style="fill:#5c7682" transform="translate(393 238)"/><path d="M0 0q6 1 11 6l-1 6c-5 0-5 0-9-3l-5-3-1-5z" style="fill:#5d7783" transform="translate(230 129)"/><path d="M0 0q8 6 12 13v4h-2L5 8q-7-7-18-6h-6V0Q-9-4 0 0" style="fill:#101419" transform="translate(242 227)"/><path d="M0 0h1v19q0 11 4 21l-3 1c-4-10-4-10-4-16h1z" style="fill:#1d2227" transform="translate(249 270)"/></svg>