<svg xmlns="http://www.w3.org/2000/svg" style="display:block" viewBox="0 0 500 500"><path d="M0 0c18 14 25 42 33 62l15 38 1 2c5 10 5 10 13 18q18 5 38 5l17 1 4 1c63 4 63 4 74 16q5 7 3 16-4 14-16 24l-3 4-14 12-11 9-16 13c-19 14-19 14-33 32q-1 13 2 24l1 4 6 22 13 54q4 18-3 35-5 5-11 6c-31 1-61-27-85-43-19-16-19-16-41-22-12 3-23 12-33 18l-36 24-3 2c-36 23-36 23-52 21q-6-1-10-7-6-17-2-36l1-3 9-40 5-17 1-6c6-19 6-19 4-39q-10-11-21-20l-23-19-33-29q-12-10-15-24c0-11 0-11 3-15 17-17 52-15 75-16l11-1 14-1c21 0 21 0 39-9q7-11 11-22l4-11 7-17 1-3 7-17C-32 4-32 4-17-3q9-1 17 3" style="fill:#cd6c62" transform="translate(261 53)"/><path d="M0 0c18 14 25 42 33 62l15 38 1 2c5 10 5 10 13 18q18 5 38 5l17 1 4 1c63 4 63 4 74 16q5 7 3 16-4 14-16 24l-3 4-14 12-11 9-16 13c-19 14-19 14-33 32q-1 13 2 24l1 4 6 22 13 54q4 18-3 35-5 5-11 6c-31 1-61-27-85-43-19-16-19-16-41-22-12 3-23 12-33 18l-36 24-3 2c-36 23-36 23-52 21q-6-1-10-7-6-17-2-36l1-3 9-40 5-17 1-6c6-19 6-19 4-39q-10-11-21-20l-23-19-33-29q-12-10-15-24c0-11 0-11 3-15 17-17 52-15 75-16l11-1 14-1c21 0 21 0 39-9q7-11 11-22l4-11 7-17 1-3 7-17C-32 4-32 4-17-3q9-1 17 3m-25 12c-15 20-22 45-31 68-16 40-16 40-24 45q-15 6-31 5l-3 1-46 3c-29 1-29 1-53 13q-3 8-1 14 5 10 13 16l1 2 30 26 31 26 1 2c16 13 16 13 17 22q1 13-4 26l-3 12-12 50-1 3c-5 21-5 21 0 42q3 4 8 5c18-1 36-15 51-25l9-6 25-16 7-5c23-15 23-15 32-14q14 4 26 13l3 2 30 20 41 25 2 1q9 5 20 4 7-3 9-10a110 110 0 0 0-4-36l-6-27-4-17-1-3-2-6-4-18q-6-14 0-27 8-11 20-20l22-19 33-28q14-10 17-27 0-6-5-10a49 49 0 0 0-20-6l-17-3h-3l-3-1h-4l-11-1-42-3h-3c-26-2-26-2-32-8-12-16-18-37-25-55C17 31 17 31-6 3c-9-3-15 3-19 9" style="fill:#080403" transform="translate(261 53)"/><path d="M0 0q15 10 17 26 3 18-8 33-11 14-29 15-19 0-32-13-12-15-11-34 4-16 17-27 23-13 46 0" style="fill:#fcfcfc" transform="translate(221 201)"/><path d="M0 0q15 12 16 30T5 61a40 40 0 0 1-68-18v-1q-4-17 6-32C-44-9-19-13 0 0" style="fill:#fcfcfc" transform="translate(326 202)"/><path d="M0 0q14 11 19 27v13Q18 64 3 80l-16 10-3 1q-7 3-15 2h-3l-6-2h3q24-2 41-19l-2 1q-17 12-37 8-10-3-19-10l-2-2q-13-11-14-29-1-13 6-24l1-3Q-53-1-35-7q19-3 35 7m-56 11q-12 15-9 32 4 18 19 29 14 8 30 5Q0 72 9 58t5-31Q10 12-3 3q-30-15-53 8" style="fill:#120b0b" transform="translate(223 197)"/><path d="M0 0q13 12 15 29v7q0 17-13 30-13 14-31 12h-3c-12 0-18-4-27-11q13 17 34 20l11 1q-10 5-21 1a53 53 0 0 1-35-32l-1-2-2-20-1-3q1-17 13-29c17-16 42-18 61-3m-61 10q-10 13-8 31 4 18 19 28 15 9 33 4A41 41 0 0 0 8 19Q2 4-14-3q-28-10-47 13" style="fill:#110b0a" transform="translate(331 200)"/><path d="m0 0 8 7-1 5-8-5a91 91 0 0 0-68-17q-24 3-42 20l-5 2-2-1q2-8 9-11C-76-23-32-23 0 0" style="fill:#0f0505" transform="translate(305 309)"/><path d="M0 0h1q2 18-9 33l-2 3q-8 9-20 11h-7l-2-1q-21-3-35-20l1-2 2 1q15 13 36 10 17-2 27-17 6-7 8-18" style="fill:#9b4d4b" transform="translate(345 242)"/><path d="M0 0h1l1 3q4 18 19 28 15 9 32 5 10-3 19-9l2 1Q62 44 42 47l-3 1q-12 2-22-6l-3-2A48 48 0 0 1 0 0" style="fill:#9f4f4c" transform="translate(154 241)"/><path d="M0 0h2q10 1 18 4v2h-2L1 4h-2l-16 1q7-6 17-5" style="fill:#110304" transform="translate(249 308)"/><path d="M0 0q-2 4-5 4h-13l-6-2h4l7-1h3l2-1z" style="fill:#220c0c" transform="translate(207 286)"/><path d="m0 0 8 1h2v1l-23 2q5-6 13-4" style="fill:#321414" transform="translate(245 309)"/><path d="m0 0 19 1Q14 4 8 3H1z" style="fill:#261010" transform="translate(298 287)"/><path d="m0 0 8 2v2l-9-2z" style="fill:#351615" transform="translate(261 310)"/></svg>