<svg xmlns="http://www.w3.org/2000/svg" style="display:block" viewBox="0 0 500 500"><path d="M0 0c19 19 19 53 19 78v4q1 16-6 31h3c24 4 43 13 55 36a146 146 0 0 1 12 37q4 24 4 48v3c0 38-6 81-38 106q-12 8-24 11l-4 1-3 1v1c13 26 10 71-2 96q-4 9-12 13c-14 1-25-7-33-16-15-17-23-36-33-55-5-12-5-12-15-20l-18-1q-58-2-112-19l-3-1a163 163 0 0 1-64-40c-24-22-35-56-33-87l-2-6q-5-11-6-22l-1-3q-2-20 12-35 7-8 19-10h3l2-4q8-8 20-10l8-6q11-9 23-15l1-2q34-18 73-23h3a219 219 0 0 1 54-2h2q12 0 19-9l9-15 19-36C-39 13-21-9 0 0" style="fill:#65787d" transform="translate(364 22)"/><path d="M0 0v2c2 17 2 17 8 33l1 3q11 18 30 23 10 2 18-2h-2q-18 4-31-8c-6-6-6-6-6-8l13 6q16 6 32-2c13-9 16-22 17-37q7 2 13 6l2 1 5 4-1 6v26l1 9q2 30-20 50l-20 14c21-10 35-22 43-45V69l-1-12-1-20v-4l1-10 13 5-7 7v3h2q5 0 7 4l2 2q3 4 2 10v5l-5 1 3 4 2 1h2l3 1 2 1c10 3 24 6 33 1q6-4 8-11c19 3 37 23 46 39l8 19q6 28-10 52c-8 9-18 10-29 12l-6 1-3 1-5 1-27 1c11-13 42-15 58-18q-30 0-56 14c-25 12-72 0-97-6l-3-1c-47-10-94-34-116-80q-11-22-10-47l2 1c13 6 22 6 36 1l7-5 2 1c-11 12-20 15-35 16q20 3 35-11 15-20 18-44l1-3z" style="fill:#e2dbc8" transform="translate(144 207)"/><path d="M0 0c19 19 19 53 19 78v4q1 16-6 31h3c24 4 43 13 55 36a146 146 0 0 1 12 37q4 24 4 48v3c0 38-6 81-38 106q-12 8-24 11l-4 1-3 1v1c13 26 10 71-2 96q-4 9-12 13c-14 1-25-7-33-16-15-17-23-36-33-55-5-12-5-12-15-20l-18-1q-58-2-112-19l-3-1a163 163 0 0 1-64-40c-24-22-35-56-33-87l-2-6q-5-11-6-22l-1-3q-2-20 12-35 7-8 19-10h3l2-4q8-8 20-10l8-6q11-9 23-15l1-2q34-18 73-23h3a219 219 0 0 1 54-2h2q12 0 19-9l9-15 19-36C-39 13-21-9 0 0m-19 9-2 1q-21 27-32 58l-15 28 16 7-22-6 1-2 2-2 1-2q9-10 14-22l1-3 6-13c11-22 11-22 18-31l2-3q5-7 11-12c-16 4-26 25-33 39l-11 20c-14 26-14 26-28 29 5 13 28 19 41 22l23 5q-27-1-50-12l-4-2q-7-2-11-9c-6-7-14-6-23-5h-5a215 215 0 0 0-43 4c-29 5-73 16-90 43l10 5-3-1-13-2q-8-1-14 5-2 0-2 3h2q21 5 32 24c6 18 0 37-10 53q-10 15-28 17h-11l3-1q18-1 32-15-5 0-7 2-17 9-34 3l-6-3c-2 29 11 57 31 78l2 2a160 160 0 0 0 66 39l41 11c46 10 46 10 89 1q10-5 22-7l3-1 26-3c-30 5-30 5-56 17v1c17 0 17 0 34-3h7l-17 5 1 3 10 25q4 15 13 30l1 1c5 10 14 27 26 30q4 1 8-2 7-9 9-20v-2q4-18 4-37v-4c0-21 0-21-9-39q-5-1-9 1h-2q13-7 28-10 31-11 42-41 12-28 12-58v-15q0-23-3-44l-1-3c-5-25-15-50-39-62l-18-5-29-6c9 1 9 1 17-2l3-7 1-4 1-11V78q0-21-3-40l-1-3Q8 17-4 5q-10-5-15 4" style="fill:#070707" transform="translate(364 22)"/><path d="M0 0q11 11 10 26-3 21-21 30-15 6-30-1-17-11-17-31a29 29 0 0 1 5-19c13-18 37-19 53-5" style="fill:#fcfcfc" transform="translate(208 187)"/><path d="M0 0q13 15 10 34-5 17-23 24-17 5-31-5-14-11-14-28t14-27q23-15 44 2" style="fill:#fcfcfc" transform="translate(112 186)"/><path d="M0 0q15 15 14 38v3q1 19-13 31-16 10-36 4l-12-7q10 15 29 16l15-2q-9 8-21 5-19-3-30-20l-8-17c-5-14-4-31 4-43 14-19 40-23 58-8m-56 14q-7 15 0 31 7 14 22 19 19 3 34-11 11-12 9-29Q3 5-15-3q-26-6-41 17" style="fill:#0e0e0d" transform="translate(209 181)"/><path d="M0 0q14 16 10 37Q7 51-3 58q-17 5-34-3l-3-1-7-3v-4h5c0-8 0-8-4-16l1-2q7 6 7 15l-1 2v2c18 7 18 7 36 2l3-3 1-2q7-17 1-35-3-5-9-6c-17-2-31 12-42 22l-5 1-2-1 4-6 2-2 2-1 2-2 19-13 3-1q11-6 24-1" style="fill:#0c0d0d" transform="translate(307 219)"/><path d="M0 0v-6h2l2 8 1 2 1 12H4l-2-4q0-4-4-6l-7-1h-3a226 226 0 0 0-43 0l-6 1q-2 2-2 5l-2-1q-1-7 6-12c18-11 42-7 59 2" style="fill:#0b0a09" transform="translate(165 282)"/><path d="M0 0c9 11 12 29 15 42l1 3q5 24 4 48v3a177 177 0 0 1-10 62l-9 25-1 2-5 6 7-21a191 191 0 0 0 12-47l1-3V89q0-27-5-52l-1-2Q7 20 1 6z" style="fill:#0e1113" transform="translate(392 162)"/><path d="m0 0-3 1 1 2 12 25q10 34 34 59c-7 0-14-9-18-14Q11 52 0 26C-6 12-6 12-17 3l-4-2z" style="fill:#647275" transform="translate(309 389)"/><path d="M0 0q1 4-1 9v18l2 19q2 15-3 29l-1 2q-13 26-40 36l-3-1 3-1c18-10 35-25 39-46V45l-1-16v-4q0-9 2-17l1-2z" style="fill:#181714" transform="translate(247 221)"/><path d="m0 0 1 3-3 3c-15 15-24 37-32 56q-6 15-15 28l3 1 7 3q6 2 6 4-11-2-23-7l4-6c10-10 15-25 20-37Q-20 21 0 0" style="fill:#0c1012" transform="translate(346 27)"/><path d="M0 0q-4 4-10 5h-2l-6 2 1 3 10 23q8 32 31 56l2 4q-6-3-10-9l-2-2Q-5 56-16 23l-7-15-1-4 8-2 2-1z" style="fill:#0f1314" transform="translate(330 386)"/><path d="M0 0q2 8-5 15c-7 10-16 11-27 11q-12-1-22-9h5l3 2q19 5 35-6z" style="fill:#9a9283" transform="translate(218 229)"/><path d="M0 0q8 9 12 20l-1 3-2-3Q-1-1-24-7q-16-2-30 3l-9 3c15-19 47-13 63 1" style="fill:#0b0f11" transform="translate(222 167)"/><path d="m0 0 3 3a43 43 0 0 0 45 7q-4 5-9 6l-3 1q-12 5-25-1Q3 10 0 0" style="fill:#989082" transform="translate(58 236)"/><path d="m0 0 1 3-3 3q-12 12-18 27l-3 5h-3l7-15q8-13 19-23" style="fill:#111519" transform="translate(346 27)"/><path d="M0 0h2q7 0 13 3v2l-27-1V2q5-2 12-2" style="fill:#1c1a17" transform="translate(132 293)"/><path d="M0 0h5Q0 3-5 3l-3 1-4 1h-3l-19 4 1-4 4-1 3-1h3l3-1 8-1 3-1z" style="fill:#2e2a26" transform="translate(344 371)"/></svg>