<svg xmlns="http://www.w3.org/2000/svg" style="display:block" viewBox="0 0 500 500"><path d="M0 0q20 23 29 51c2 9 2 9 8 14l2 1q6 2 7 9v7h2l4-1 3-1q6-2 11 2 3 6-1 12-9 14-24 20l-3 2c-8 4-8 4-12 4l3 1q18 7 28 22l7 8q5 5 4 11 0 6-6 8c-17 7-40 4-56-5l-3-1q-12-7-20-20l-2-1 3 8 1 3 1 2 1 2 2 3c1 9 1 9-2 13-9 6-20 2-29-1q-11-4-20-13c-5-5-13-3-20-2l1 2 8 14q3 7 9 11 9 9 8 19-1 5-5 7c-23 8-53-5-71-18l-10-9q-14-12-19-31l-17-5 1 4 3 11 5 13c2 6 5 12 1 18q-4 6-12 5a72 72 0 0 1-54-39l-1-2q-3-5-3-14l-3 1c-27 4-55-4-75-24l-8 1c-10-8-11-23-12-36l-3-10-4-10-2-6q-4-12 1-24l3-5 2-2q9-10 23-9 6 0 11-6c19-14 48-15 69-9l13 4 2-2C-165-60-59-70 0 0" style="fill:#080906" transform="translate(389 168)"/><path d="M0 0q15 19 18 42l1-15q6 3 7 8l2 4 2 6-1-9q8 8 12 17 7 12 17 23l-2 10-1 3-1 1h-9l-4-2-2 2-13 7q-5 3-12 2l1-1 2-6-2 3C1 108 1 108-8 106l1-1 5-6 2-2 5-9-2 3q-23 26-58 21a74 74 0 0 1-45-23l-2-4c10-8 10-8 17-6q2-1 5 3 5 3 10 0l4-2q17-6 33 4l10 7 3 1c-5-10-16-13-26-17h-10l-6-1-1-4v3q-2 6-9 7-3 2-5-1l-3-5-1-2-1 3h-2q-15 1-23 13l-4 1a95 95 0 0 1-7-34l2 1q12 4 22-2l9-10q2 5-2 9-4 7-10 11l-6 8 2-2q2-4 7-7 12-10 13-27l1-2q5-15-4-29l-1-3-4-2-5-3v-2c28-18 69-21 94 5" style="fill:#d0cf7f" transform="translate(177 195)"/><path d="M0 0c62 3 62 3 66 8 13 21 31 51 30 77l-4 2-3 1c-26 10-62 13-89 4l-2-1a75 75 0 0 1-27-15l5-18 1-3 11-29 1-2z" style="fill:#7c8a5e" transform="translate(286 179)"/><path d="m0 0 3 1q25 12 47 29-1 9-6 17L32 76l-1 4-9 24-7-5-2-2-1-2-2-3-9-12-15-17q-15-15-36-17-7-2-12-9c3-15 25-30 37-38l2-1c8-5 15-1 23 2" style="fill:#7d8a5c" transform="translate(233 147)"/><path d="M0 0q1 3-2 5l-3 2-3 2-6 6c-8 9-16 8-27 6l-14-2-4-1h-10c-15 0-23-3-34-12l-10-7-1-1-34-16-4-3C-100-45-44-37 0 0" style="fill:#7c8a5c" transform="translate(373 160)"/><path d="M0 0c15-1 28 10 38 20l2 2 12 14c16 22 32 38 60 44l3 1c37 6 84-1 112-28l9-11q6 0 8 3 4 7 0 14c-19 30-62 40-95 42-38 1-77-4-101-36l-9-13C28 34 28 34 12 21q-4-3-6-9l-1-2z" style="fill:#7b895c" transform="translate(183 195)"/><path d="m0 0 1 1 14 9 2 1 10 5q5 4 5 9 6 13 18 18 14 9 21 25 4 8 10 14 7 6 7 15c-13 8-34 0-47-5C21 83 3 69-4 47l-1-3-1-15v-3Q-7 12 0 0" style="fill:#d2d17f" transform="translate(239 275)"/><path d="M0 0c20 15 33 41 40 64l1 3q2 7-4 13l-7 7-2 2q-8 7-17 11l-3-8Q-2 54-23 20L-4 4z" style="fill:#7c895c" transform="translate(375 163)"/><path d="m0 0 3 3q8 6 17 8 14 4 22 19l8 8q3 4 2 7c-12 9-31 6-44 2q-27-10-36-36V8l2-1 8-2 3-1 2-1 3-1 4-2z" style="fill:#d1d07e" transform="translate(399 285)"/><path d="m0 0 4 2h2l6 2q9 5 11 17v2q2 10 7 19l2 12q-9 5-18 0-32-13-43-45l1-6 11-2z" style="fill:#b3b36b" transform="translate(185 304)"/><path d="M0 0q10 10 7 23Q4 35-6 39l-2 2q-10 3-21-2-11-8-12-20 0-13 10-21 16-9 31 2" style="fill:#fafbfa" transform="translate(164 199)"/><path d="M0 0q11 9 10 22T-2 41t-23 1-13-19c-1-11 2-16 10-23q13-8 28 0" style="fill:#fafafa" transform="translate(86 196)"/><path d="M0 0q30 12 55 29l2 2 4 2q7 6 15 5l39 3h2l5 1c7 0 9-1 14-5l11-8q0 5-5 7l-9 9 2 3c13 20 30 50 30 75h-2l-1 2v-2q-8-40-31-74l-1-4h-4l-13-1-26-2h-3l-18-1-20 49-1 2-5 14-1 3-1 7q26 20 60 20h12v1H93v2c-35-3-57-16-78-45a93 93 0 0 0-46-37l1-3Q1 65 19 93l16 19v-2l5-14 1-3 21-55A252 252 0 0 0-1 3z" style="fill:#10120c" transform="translate(220 139)"/><path d="M0 0q11 11 9 27Q6 40-7 46l-4 2-2 1q-11 1-19-4l-3-1q9 12 25 11 7 0 12-5l2-1Q1 56-6 59q-12 3-22-3l-11-10 3 7q4 7 11 11 9 5 14 15l-1 3-1-2q-6-9-15-15c-15-9-17-28-18-44q0-13 11-22 18-11 35 1m-40 9q-6 13 1 25l10 9 2 1q11 4 21-2Q5 35 6 22 6 9-4 1c-12-8-28-5-36 8" style="fill:#151510" transform="translate(165 195)"/><path d="M0 0h12l15 2h10q-3 13-14 20-13 3-22-7l-4-3-3-2z" style="fill:#dad78b" transform="translate(287 298)"/><path d="m0 0 1 2 1 4 1 3 3 6q2 4 1 9-6 3-14 1c-9-2-24-7-28-16l2-1 10-2 3-1 14-5z" style="fill:#b0b06a" transform="translate(365 313)"/><path d="M0 0v25l-15-3-4-2-4-3 2-1 3-1 3-1 3-2-2 1c-8 2-19 5-26 0q-4-2-3-4h3q11-1 20-6 9-7 20-3" style="fill:#d8d78d" transform="translate(229 289)"/><path d="M0 0q-2 11-11 17l-8 2-3 1-20 2 1-1 10-18h2l8-1h5l3-1 5-1z" style="fill:#dddb8e" transform="translate(357 297)"/><path d="M0 0c-1 9-11 17-19 22q-12 8-28 9l-2-3 3-2q14-7 23-19 5-5 12-5z" style="fill:#cdcb7f" transform="translate(450 253)"/><path d="M0 0h1c1 17 1 17-5 23l-6 4-2 1q-10 4-21-1l-11-10 1-2 3 2q11 8 24 2Q-3 14 0 0" style="fill:#888856" transform="translate(173 222)"/><path d="m0 0 2 1 2 1 2 2c8 5 21 3 29-1q-6 11-20 12-8-1-13-7z" style="fill:#818154" transform="translate(53 236)"/><path d="m0 0 2 9-7 3-2 1c-5 2-5 2-8 1l4-9q3-8 11-5" style="fill:#d5d38c" transform="translate(368 296)"/><path d="m0 0 3 5q6 8 14 13t11 13l-1 3-1-2q-6-8-15-14Q3 12-1 3z" style="fill:#252418" transform="translate(126 243)"/><path d="m0 0 1 2-3-1-13-1h-2l-15 2c8-9 22-8 32-2" style="fill:#2a2a1c" transform="translate(125 287)"/><path d="m0 0 11 2c1 4 1 4-3 9q-3 0-5-3-3-3-3-8" style="fill:#cfcd88" transform="translate(273 294)"/><path d="M0 0h3Q2 14-10 21q-7 5-9 12-2-3 1-7l8-8Q0 11 0 0" style="fill:#212116" transform="translate(92 238)"/><path d="M0 0q5 5 3 12 0 4-4 5-8 1-15-4h15l1-8z" style="fill:#2b2b1c" transform="translate(162 278)"/><path d="M0 0q-1 3-6 3h-23V1z" style="fill:#060805" transform="translate(342 275)"/><path d="m0 0 1 3-4 5-3 2-6 7-3-1 1-2 2-2 2-2 7-8z" style="fill:#10130d" transform="translate(416 238)"/></svg>