<svg xmlns="http://www.w3.org/2000/svg" style="display:block" viewBox="0 0 500 500"><path d="M0 0q7 3 11 11l1-2h5l4 3v8l4 1 1 7 4 1 2 6v3l3 1v11h2q4 1 4 4l1 7 4 1 1 6v5l1-3 1-4 3-1v-7q0-5 5-7l1-5q1-4 4-6l5 1 4-1q4-1 7 1l1 12 4-1q4 0 7 2 1 5-3 9-6 7-4 17l1 2-2 8 1 7-1 2v10l-2 7 3 3q0 7-6 11l-3 1q-4 2-3 4-3 5-9 7l-2 1h2q11 3 17 14 3 10-2 20l-10 8-2 6q-3 13-15 20-19 8-39 6-9-1-17 4l-7 11-5 7q-4 4-6 10-4 10-15 16l-16 14-2 2c-16 15-28 24-49 22-21-3-31-13-41-30l-5-9q-5-12-16-16-11-1-18 6l-2 3h-2l-2 4-6 6-1 2q-12 14-29 13-11-1-21-6l-11-4q-13-7-16-22-2-6-7-10c-6-4-6-4-7-9q0-5 5-8 8-3 18 1 11 8 18 18 8 9 20 8c13-2 19-13 25-23 7-12 17-24 32-26h11q10 0 19 4l2 1q14 9 22 22 6 9 17 8 10-2 17-11l3-3q7-9 12-19l10-14 2-3q11-13 25-21l13-10q-3-4-7-3l-7 3-7 1-3-2-3 3h-5l-3-5-3 2q-6 3-11 2l-3-3-2 2-6 2-2-1-1-3v-2l-6-1-1-3-2 1c-10 4-10 4-14 2l-1-4h-6q-2-1-2-6h-3l-4-2v-3l-6-1q-2-1-2-6l-3-1q-3-2-4-5 1-4 6-6l-2-2-2-3-2-3q-6-7-3-15l5-1 5 5 1 1 1-2q2-2 5-2l6 3c3 2 3 2 8 2l1-6h-3l-8-4-1-6 3-3-2-1-2-2-2-2q-3-2-4-7l1-3 6-2-2-3q-2-5-1-12l4-3q5 1 9 7l1 2 1-2 2-4q4-1 7 2l5 6h4l-2-2-3-7-3-2-3-5q1-3 4-4l3-1-2-4q-3-4-2-9 2-3 7-2l2 1v-6l-1-3q1-4 4-7l6 1 3 9 1 2 2 6-1-3v-6l2-6 7 1 5 9 4-2q6 0 7 5l2 9 2-1q5 0 6 2l3 7 1 3 7-1q5 9 4 20 0 6 2 11V61l3-5q4-2 7 2l3-4-5-6c-2-5-2-5 0-8h2l-2-3-1-3-2-3v-7l5-2-1-2q-3-5-1-10l4-2q4 0 7 4l-1-2V2zm23 120 1 2Zm-51 3q1 5 4 6v-5zm50 0-1 8q3-3 2-8zm-46 6q2 7 9 10l2 1 7 3-6-11h-6z" style="fill:#3c100f" transform="translate(344 91)"/><path d="M0 0q7 3 11 11l1-2h5l4 3v8l4 1 1 7 4 1 2 6v3l3 1v11h2q4 1 4 4l1 7 4 1 1 6v5l1-3 1-4 3-1v-7q0-5 5-7l1-5q1-4 4-6l5 1 4-1q4-1 7 1l1 12 4-1q4 0 7 2 1 5-3 9-6 7-4 17l1 2-2 8 1 7-1 2v10l-2 7 3 3q0 7-6 11l-3 1q-4 2-3 4-3 5-9 7l-2 1h2q11 3 17 14 3 10-2 20l-10 8-2 6q-3 13-15 20-19 8-39 6-9-1-17 4l-7 11-5 7q-4 4-6 10-4 10-15 16l-16 14-2 2c-16 15-28 24-49 22-21-3-31-13-41-30l-5-9q-5-12-16-16-11-1-18 6l-2 3h-2l-2 4-6 6-1 2q-12 14-29 13-11-1-21-6l-11-4q-13-7-16-22-2-6-7-10c-6-4-6-4-7-9q0-5 5-8 8-3 18 1 11 8 18 18 8 9 20 8c13-2 19-13 25-23 7-12 17-24 32-26h11q10 0 19 4l2 1q14 9 22 22 6 9 17 8 10-2 17-11l3-3q7-9 12-19l10-14 2-3q11-13 25-21l13-10q-3-4-7-3l-7 3-7 1-3-2-3 3h-5l-3-5-3 2q-6 3-11 2l-3-3-2 2-6 2-2-1-1-3v-2l-6-1-1-3-2 1c-10 4-10 4-14 2l-1-4h-6q-2-1-2-6h-3l-4-2v-3l-6-1q-2-1-2-6l-3-1q-3-2-4-5 1-4 6-6l-2-2-2-3-2-3q-6-7-3-15l5-1 5 5 1 1 1-2q2-2 5-2l6 3c3 2 3 2 8 2l1-6h-3l-8-4-1-6 3-3-2-1-2-2-2-2q-3-2-4-7l1-3 6-2-2-3q-2-5-1-12l4-3q5 1 9 7l1 2 1-2 2-4q4-1 7 2l5 6h4l-2-2-3-7-3-2-3-5q1-3 4-4l3-1-2-4q-3-4-2-9 2-3 7-2l2 1v-6l-1-3q1-4 4-7l6 1 3 9 1 2 2 6-1-3v-6l2-6 7 1 5 9 4-2q6 0 7 5l2 9 2-1q5 0 6 2l3 7 1 3 7-1q5 9 4 20 0 6 2 11V61l3-5q4-2 7 2l3-4-5-6c-2-5-2-5 0-8h2l-2-3-1-3-2-3v-7l5-2-1-2q-3-5-1-10l4-2q4 0 7 4l-1-2V2zm0 5v3l6 23H4v-2H2l-2-4-3-4-2-2-4-5c0 10 8 17 14 24l2 4q-11-7-19-15l-1 2q7 12 18 19l6 7-21-11q5 10 16 15 8 4 12 12l-4-2-4-2-2-2c-7-4-7-4-14-4l1 1 10 6q10 7 15 18l-2-1-8-5-2-2-3-1-2-2-4-1q2 5 8 8l7 5 2 2q6 3 8 8l-3-2-3-2q-5 4-5 9l-5 13q-2 4-1 8l-2-3q-10-20-29-34 13 7 22 19V87l-3-18-2-1-1 24h-2v-3c-1-15-1-15-7-28v12l-2 10-2 1-1-2-3-7q-3-5-4-12V50l-2-5q-4 15-3 29-4-7-6-15V49l-2-14h-1l-1 4-3 24q-4-10-4-20 1-12-3-22h-1l-2 32c-3-6-4-8-4-14q0-14-7-26v10l1 14-1 1q-10-12-14-28h-1q-2 13 4 26l-5-3-2-2-6-6q2 7 9 13l3 4 3 3-3-1-4-2-4-1-6-1v2l5 3 3 1 4 2 5 3 3 1 2 1-15-3v2q8 6 18 7l2 1v3h-2l-3-1-3-1h-7q2 3 7 5h2l3 1 2 1 7 2-16-2q4 4 9 5l3 2 4 1 7 3 3 1 5 2h-11l-13-1q4 8 13 8l27 3v3h-27q7 5 15 4l21 4-10 3h-5l6-2q-5-4-11-4-9 1-16-3l-2-4 12 1q-3-4-8-3l-18-7-3-1q-14-6-26-15h-3c3 13 16 20 27 25l29 11v1l-13 2-3 1h-2l-4 3-3-1 4 9 3 3-1 1-11-10q-1-2-3-2l5 13q-6-4-9-9l-8-8-2 1 1 2 10 15-11-1q5 4 11 5l3 1 22 4q22 5 43 15l6 3q-3 6-8 9l-3 3-6 4q-5 5-4 12l5 16q-6-11-6-23-3 0-5 2-3 11 2 21-5-9-4-18-14 8-20 21l-2 2q-3 5-2 12l5 12q-5-4-5-9l-2-4v-2l-8 10q-7 11-18 18-4 2-3 6h-2v-2c-7-1-7-1-12 3l-3 5q1-4 4-7v-2l-4-1-7-6h-4l1-4-5-7-2-1q-13-15-33-17l-6 2v-2q-17 3-27 17l-1 3v2l-3 1-4 6-8 11-3 6-4 1-13 4-1 3-1-3q-8-4-14-2-3 5-1 10l3 2q-16-5-25-20-1 8 5 15 8 9 21 12l3 1q15 6 28 0 10-6 16-16 11-15 29-16c12 3 19 15 24 26 8 16 16 26 34 29q15 4 29-3l2-1 17-14 7-7q4-2 3-4l4-2 6-5 5-4q11-9 12-22l2 2 13-19h-3l5-4-9-4 1-2 1 1q7 5 16 4l4-2-3-1-3-2-3-1q-4-2-6-6l1 1q24 16 50 7 14-4 20-17v-7l-8-2q-8-2-12-10-3-10 2-20l1-3-3-1-4-1-4-2-3-1 1-7q15-37-6-71L13 43c-3 8 4 19 8 26l7 20v2q3 9 2 18l-1-2q-1-21-10-40a83 83 0 0 1-9-36q5 21 18 39l8 16 5-10 1-3v-7l-6 12v-3l1-20q-4 3-4 8v6h-2q-3-13 0-26-3 1-4 5l-1 3v5h-2v-3l3-20q-3 3-4 8l-2 6V25q-4 6-4 14h-2v-3l2-23q-3 1-4 7l-1 3v2l-4-8c-3-7-3-7-8-12" style="fill:#0d0a09" transform="translate(344 91)"/><path d="M0 0q9 9 11 20l4-8 1-4h1l-2 26h2l1-8 2-6h1v22l2-7 3-7h1q0 12-3 23h2l1-7 3-6h1v4c-2 11-2 11 0 22h2l1-8 2-6h1l-1 23 2-4 4-8q2 5-1 10l-1 3-4 7-1-3-12-21q-9-16-13-33 0 21 10 40 9 19 10 40 1-10-2-20l-1-2q-3-13-8-23c-8-16-8-16-6-21l1 3q5 12 12 22a74 74 0 0 1 4 74v4H18l3 2q10 5 12 15 1 13-8 21-10 6-21 4-11-4-14-15-2-14 8-24l-9 5v-2l-5-2-7-4q-20-9-41-12l-20-5-3-1c-7-2-7-2-9-4l11 1-11-18q9 4 15 13l4 4-1-3-4-10q6 3 8 7l7 6-5-9-2-3 1-2h3l12-4h3l8-1-22-8q-23-7-36-27v-2l11 5 24 12 3 1q8 5 18 6l2 1v1l-12-1q3 7 10 7l12 1q4-1 7 3l-6 2h5l3-1 7-2q-11-3-23-4-7 0-13-3v-1h27v-3h-4c-11 0-26-1-35-8v-3h2l12 1h9l-4-2-13-5-6-2-3-1-2-1-3-3h2l14 2-4-1-5-2-2-1h-3l-2-1-5-4 15 2v-3l-4-1-16-7v-2l3 1 3 1h3l6 1-3-1-19-10v-2l11 3 4 1 2 1-1-1-8-9-2-2-2-2-2-6 3 3 10 8-1-2q-4-11-3-24l4 9q3 10 11 19 2-3 1-8l-1-4-1-13q4 3 5 8l1 3 3 18c0 5 0 5 3 11l2-32c6 6 4 17 4 25q1 9 4 17l4-28q4 5 3 11v9q0 11 6 19v-4l3-25q3 6 2 13 0 12 7 22l1 4q6-7 4-15v-8c7 7 7 21 7 31h2l1-24c6 6 5 15 6 24v13l-7-7-16-13 9 8q12 11 19 25l2 3h1v-2l3-10 5-13 1-3 9 4-11-10-4-3-3-2-8-6v-2l13 7 3 2 5 3Q13 66-2 59l-4-4 12 4 4 2 8 5q-5-9-13-14-9-4-15-11l1-2 3 2 3 2 3 2 11 5Q7 43 1 39c-12-10-12-10-14-17l3 3c8 7 8 7 18 12L-2 24l-7-11 1-4L2 24h2v2h2L4 15l-1-3-1-3V6zm23 115 1 2Zm-51 3q1 5 4 6v-5zm50 0-1 8q3-3 2-8zm-46 6q2 7 9 10l2 1 7 3q-1-6-6-11h-6z" style="fill:#171311" transform="translate(344 96)"/><path d="M0 0q15 0 29 5l-1 2-1 3-1 3q-3 11 3 20 6 6 13 6l4 1q1 7-2 12Q30 68 6 68q-15-1-28-10l-3-1 15 9q-7 4-15 1l-7-4v2l3 1 6 4-5 2-2 2-3 1-2 1q-7 2-11-4-10-8-14-20 3 15 17 24l4 3-2 3-3 3-2 2-5 6q-8-1-15-7l-1 2 4 2 10 5c-10 16-26 35-44 40l-5-1q-13-15-9-34 3-7 11-12 11-10 18-23 4 4 4 10l4 5-1-2c-6-13-6-13-3-19q8-15 21-26h2v2q0 9 4 16l-1-3q-2-9-1-18l5-2v3q1 12 6 20l-1-2q-5-11-3-23l10-8 8-7q4-5 11-8l2 1-2 2q-9 7-7 19 1 10 10 16 10 4 21-1 10-6 10-18T6 3L0 1z" style="fill:#de695b" transform="translate(359 236)"/><path d="m0 0 4 9q3 10 11 19 2-3 1-8l-1-4-1-13q4 3 5 8l1 3 3 18c0 5 0 5 3 11l2-32c6 6 4 17 4 25q1 9 4 17l4-28q4 5 3 11v9q0 11 6 19v-4l3-25q3 6 2 13 0 12 7 22l1 4q6-7 4-15v-8c7 7 7 21 7 31h2l1-24c6 6 5 15 6 24v13l-8-8Q63 77 49 69 29 55 14 35l-5-6c6 19 22 32 37 44 23 19 23 19 27 29l-3-1-16-1h-9l-5-2h2l20-4c-5-5-15-4-22-4l-14-4v-1h27v-3h-4c-11 0-26-1-35-8v-3h2l12 1h9l-4-2-13-5-6-2-3-1-2-1-3-3h2l14 2-4-1-5-2-2-1H8l-2-1-5-4 15 2v-3l-4-1-16-7v-2l3 1 3 1h3l6 1-3-1-19-10v-2l11 3 4 1 2 1-1-1-8-9-2-2-2-2-2-6 3 3 10 8-1-2Q-1 13 0 0" style="fill:#9ba994" transform="translate(261 101)"/><path d="m0 0 6 5 4 1-4 6v3l2-3q3-6 6-5h7v2q-4 20 9 35l2 1v2q-12 4-24 1-5-8-4-18H2q1 9 5 17-14-4-23-17-3-14 7-27c4-4 4-4 9-3" style="fill:#dd6a5c" transform="translate(226 326)"/><path d="M0 0q9 9 11 20l4-8 1-4h1l-2 26h2l1-8 2-6h1v22l2-7 3-7h1q0 12-3 23h2l1-7 3-6h1v4c-2 11-2 11 0 22h2l1-8 2-6h1l-1 23 2-4 4-8q2 5-1 10l-1 3-4 7-1-3-12-21q-9-16-13-33 0 21 10 40 10 21 9 44l-2 1-2-4-5-8-4-9 9 4-11-10-4-3-3-2-8-6v-2l13 7 3 2 5 3Q13 66-2 59l-4-4 12 4 4 2 8 5q-5-9-13-14-9-4-15-11l1-2 3 2 3 2 3 2 11 5Q7 43 1 39c-12-10-12-10-14-17l3 3c8 7 8 7 18 12L-2 24l-7-11 1-4 4 5 2 3 4 7h2v2h2L4 15l-1-3-1-3V6z" style="fill:#9aa491" transform="translate(344 96)"/><path d="m0 0 6 9 8 16a74 74 0 0 1 4 74v4h-8l-3 1-6-1-1-7-3-6q-4-13 2-25l3-8 1-4h3l3 6 7 11q5-12 0-24l-1-2q-3-13-8-23C0 7 0 7 0 0m11 77 1 2Zm-1 3-1 8q3-3 2-8z" style="fill:#1a1714" transform="translate(356 134)"/><path d="M0 0c10 5 16 16 22 25 11 15 21 21 39 24l-4 5h-2v2l7-5q3-4 9-4-2 6-7 11 5-3 7-8 5-7 14-9l16-12 3-2q3 5-1 10l-3 3-2 2C84 54 72 62 53 61q-22-3-34-23l-6-13Q7 10-8 6c3-7 3-7 8-6" style="fill:#d67063" transform="translate(185 328)"/><path d="M0 0q9 4 15 13l4 4-1-3-4-10q6 3 8 7l7 6-5-9-2-3 1-2q13 6 23 17L41 8l-1-2 1-2q12 9 19 22l8 3c19 7 19 7 21 14l-6 2-7-4Q56 29 32 27l-20-5-3-1c-7-2-7-2-9-4l11 1z" style="fill:#272821" transform="translate(248 198)"/><path d="m0 0 15 14q11 11 24 18l16 13 2 2c9 9 22 29 22 43l-9 1v-2h-2l1 3-4 1-3-5-2-2v-7h-4l-10-4v-1h3l3-1v-3l-6-1c-7-2-7-2-10-5l23 1q-8-21-29-34Q14 18 0 2z" style="fill:#9daa96" transform="translate(279 144)"/><path d="M0 0q8 6 7 17-1 7-8 12-8 4-17 0-8-7-8-18 2-7 9-12 8-3 17 1" style="fill:#fbfbfa" transform="translate(365 244)"/><path d="M0 0h1L0 10l-1 6 2-1 2-1 3-1h6l-2 2-3 3-4 3-2 5 2 1-2 2-2 6 5-4q-1 6-6 10l1 1 7-5q-1 5-5 9-3 3-4 7l3-2 5-2q-3 7-8 12l5-2q-2 5-8 9h-1l1-28v-2l2-15v-6q-6 14-7 29-2 14-8 28l-2 1-3-26 4 6-2-13q6 6 5 7h2l-1-4-2-4v-3q-3-5-1-10l2 5 1 3 1 5h2l-1-3c-5-18-5-18-1-26v2l1 3v3l2 7V12l1-3V6l2-5 1 16h2l1-6z" style="fill:#99a290" transform="translate(417 136)"/><path d="m0 0 5 5 2 2 2 3 2 2 1 5-5 3q-8 10-9 24l-11-13-5-6q-3-4-2-9 3-9 12-16z" style="fill:#dc685b" transform="translate(210 307)"/><path d="M0 0q7 4 7 13T1 27q-7 4-15 1-7-3-9-10-2-10 4-15 9-7 19-3" style="fill:#f8f8f7" transform="translate(411 243)"/><path d="m0 0 2 2 3 3 2 2q7 7 17 10L15 5l-2-2 1-2q10 7 16 16l4 3q-1-7-6-13 5 2 8 7l2 2 6 9-14-4-7-1q15 9 32 13l7 2-8 5-7 3-3 2-4 2h-6l3-2 4-2 2-2 9-6q-9 2-16 6c-6 2-6 2-9 1l6-3 4-2 6-3v-2l-11 4-12 2c3-3 3-3 12-7l-20 1q6-5 13-4v-2h-2q-9 1-18-2v-1l7-1 3-1h3l-2-1Q6 13 0 3z" style="fill:#97a190" transform="translate(209 189)"/><path d="m0 0 8 2 4 2 7 3v2l-4 2Q7 16 4 26l-3 6-3-1-8-2-3-1q-4-13 3-25 4-4 10-3" style="fill:#dd6a5c" transform="translate(186 296)"/><path d="m0 0-2 4q-4 4-9 4-16 6-27 21-9 13-25 13-8 0-17-4l-3-1c-10-4-17-7-22-17l-2-9 11 12q7 7 15 9l3 1q10 3 22 2l-3 5 2-2 10-8 15-13q7-9 16-15l1 3 2-2q6-4 13-3" style="fill:#c5756c" transform="translate(180 326)"/><path d="m0 0 6 9 8 16q20 34 6 70l-3 5h-6l2-10c8-26 4-47-8-72Q1 9 0 0" style="fill:#9dac96" transform="translate(356 134)"/><path d="m0 0 11 5 24 12 3 1q8 5 18 6l2 1v1l-12-1q3 7 10 7l12 1q4-1 7 3c-3 3-11 2-15 2l-9-3-10-4C25 25 9 18 0 2z" style="fill:#9dac96" transform="translate(239 159)"/><path d="m0 0-3 6q-5 10-2 19v4l-7 2-5 3-3 2q-6-2-7-8-2-9 3-15C-18 7-9 0 0 0" style="fill:#da6a5e" transform="translate(176 296)"/><path d="M0 0h2l23 4 3 1 19 2q24 2 41 16l1 3-6 2-7-4Q56 12 32 10L12 5 9 4C2 2 2 2 0 0" style="fill:#9aa590" transform="translate(248 215)"/><path d="M0 0h1v22q1 20-11 37l-2 3-13 11-5-1 7-9C-7 48-4 28-1 7z" style="fill:#9ba995" transform="translate(409 165)"/><path d="M0 0q1 4-1 6-3 7-3 14-3 10-13 15l-10 8h-2v2h-2q0-9 8-16l8-11z" style="fill:#d56f62" transform="translate(321 316)"/><path d="M0 0h1l1 5 5 10q-3 7-8 11l-2 2-5 5q-4 0-6-5-1-9 6-15z" style="fill:#d9695e" transform="translate(146 318)"/><path d="M0 0c22-2 22-2 27 3l6 18 1 4h-2l1 3-4 1-3-5-2-2v-7h-4l-10-4v-1h3l3-1V6l-6-1C3 3 3 3 0 0" style="fill:#272a22" transform="translate(315 208)"/><path d="M0 0q7 3 13 9l2 2 2 4-2 2-4 8-5-5-3-2q-3-4-2-9l2-3q-3 2-4 6l-4-3-3-1-3-6q5-3 11-2" style="fill:#d37066" transform="translate(70 318)"/><path d="M0 0v2l-3 2q-10 6-11 18 0 6 5 8L2 45v-2q2-14 12-24l2 1-1 2Q5 34 5 48c2 8 10 13 16 17l-1 3Q6 58-3 43c-8-12-8-12-20-19l-4 3h-2l2-4h2v-3l7 2 1-2c3-8 7-20 17-20" style="fill:#431111" transform="translate(205 305)"/><path d="M0 0q14 6 24 17v2L5 18l-3-1-4-2-1-3-2-3-2-3-1-5q6 3 8 7l7 6-5-9z" style="fill:#9ba792" transform="translate(270 201)"/><path d="m0 0 3 3v3q6 20 17 36l8 17h-3l-2-5-11-20-8-16q3 12 9 23 11 22 9 47h-1l-1-6Q18 57 6 31-1 16 0 0" style="fill:#282a24" transform="translate(353 119)"/><path d="m0 0 2 7 3 4q-8 6-17 6h-5V5l5-2z" style="fill:#d66c60" transform="translate(130 342)"/><path d="M0 0q5 5 6 11 4 8 11 12l3 2q5 2 8-1l5-2 3 2c-8 14-8 14-14 18-2-4-2-4-1-8l2-3-8 9-2-2 8-9-3-2C9 20 3 15 0 4z" style="fill:#350f0e" transform="translate(298 286)"/><path d="M0 0c5 7 2 16-1 23l-3 8q6-5 8-11h1Q4 30-1 40l-5-8-1-4q-2-7 2-15z" style="fill:#97a18d" transform="translate(359 187)"/><path d="M0 0h3q4 2 3 5v9c-11-1-11-1-15-4V1q4-3 9-1" style="fill:#d36d63" transform="translate(105 345)"/><path d="M0 0h1L0 10l-2 21v15h-2V17l-1 10c-3 20-3 20-7 29l-2-2 2-6 5-27q1-11 7-21" style="fill:#1b1c18" transform="translate(413 152)"/><path d="m0 0 10 7-2 2q-2 4-2 10c-9-4-9-4-11-8q-2-5 1-9z" style="fill:#d37067" transform="translate(88 335)"/><path d="m0 0 13 3 3 1 3 1v3l5 2h3l3 1 6 2h3l4 2v2l4 1c-10 9-10 9-15 11l-3-1 2-1 2-2 2-1q5-3 5-7l-8-2Q15 11 0 1z" style="fill:#1b1c18" transform="translate(231 208)"/><path d="M0 0q-2 6-8 11l-6 7 15-7q-5 9-16 11l-4-1C-9 0-9 0 0 0" style="fill:#9da794" transform="translate(421 201)"/><path d="M0 0c1 21 1 21-4 30l-2-1q-5-15 4-27z" style="fill:#9ca894" transform="translate(389 170)"/><path d="m0 0 5 11 6 14q10 21 8 45h-1l-1-6Q15 38 3 13C-2 4-2 4 0 0" style="fill:#2e312b" transform="translate(356 137)"/><path d="M0 0q11 8 18 20L8 19l-4-9-4-8z" style="fill:#9ba893" transform="translate(288 202)"/><path d="m0 0 3 4q1 13-3 26-3-3-4-7l1-6Q0 9 0 0" style="fill:#939d8b" transform="translate(348 174)"/><path d="M0 0h15l8 1 2 6-7-1h-3Q8 5 0 1z" style="fill:#9da993" transform="translate(315 208)"/><path d="M0 0h19q4 0 6 3v2C8 6 8 6 0 1z" style="fill:#919c8b" transform="translate(230 176)"/><path d="m0 0 8 6 2 3c5 6 5 6 5 9q-5 1-8-4l-2-4-2-4z" style="fill:#97a290" transform="translate(302 207)"/><path d="M0 0q11 6 18 18h-7Q7 14 5 8L2 3z" style="fill:#949d8d" transform="translate(248 198)"/><path d="m0 0 12 5 3 1q6 2 8 7Q9 12 0 0" style="fill:#96a18f" transform="translate(223 160)"/><path d="M0 0c-8 14-8 14-14 18q2-10 9-18z" style="fill:#c2746b" transform="translate(334 310)"/><path d="M0 0q-1 7-6 12l-2 3-5 4Q-14 9-4 1z" style="fill:#959f8d" transform="translate(393 203)"/><path d="M0 0q5 2 6 6l5 9 1 7Q2 13 0 0" style="fill:#969f8e" transform="translate(226 141)"/><path d="M0 0v3q-10 4-20 3V4l5-1C-2-1-2-1 0 0" style="fill:#9aa895" transform="translate(262 183)"/><path d="M0 0q2 0 3 2 6 8 7 18-6-3-8-10L1 6z" style="fill:#959f8f" transform="translate(241 143)"/><path d="M0 0h2q0 19-7 36l-2-2 2-6z" style="fill:#282a24" transform="translate(406 172)"/><path d="M0 0q5 5 6 11 5 8 13 13l2 1-1 3C10 21 3 16 0 4z" style="fill:#4c100f" transform="translate(298 286)"/><path d="m0 0 17 1 2 7L0 1z" style="fill:#9aa692" transform="translate(325 218)"/><path d="M0 0c10 0 10 0 13 3v6l-1-1-5-1H2l2-2-2-1z" style="fill:#10100d" transform="translate(325 201)"/><path d="M0 0q9-2 15 3l2 2Q7 6-1 2z" style="fill:#95a08d" transform="translate(313 202)"/><path d="m0 0 7 2q-9 8-21 6l7-5z" style="fill:#939c8e" transform="translate(266 186)"/><path d="M0 0q4 1 3 7l4 10v6l-3-6-2 3z" style="fill:#1d1e1a" transform="translate(353 119)"/><path d="M0 0q1 3-2 5-8 7-17 5l4-7 3 1-2 3z" style="fill:#8f9687" transform="translate(421 212)"/><path d="m0 0 3 1-1 5q0 11 4 21H3Q-3 14 0 0" style="fill:#521514" transform="translate(246 335)"/><path d="m0 0 6 1-7 6-11 9 7-10 2-3z" style="fill:#949b8c" transform="translate(280 226)"/><path d="m0 0 2 1-1 3q-2 5-2 11v7h-3Q-7 12-2 1z" style="fill:#531b19" transform="translate(174 300)"/><path d="M0 0h3q-6 9-15 12l-3-1 1-1q5-2 9-8 2-2 5-2" style="fill:#949d8c" transform="translate(275 225)"/><path d="m0 0 3 1-9 5-3 1-7-1C-6-1-6-1 0 0" style="fill:#919a8b" transform="translate(281 191)"/><path d="m0 0 3 1-3 3-8 5q-4 4-9 4l3-2 9-10z" style="fill:#929588" transform="translate(297 229)"/><path d="m0 0 1 3h6L5 4v2Q-5 6-13 3l1-2 9 2h2z" style="fill:#491c19" transform="translate(112 356)"/><path d="m0 0 2 5C-5 5-5 5-8 3l-2-2q5-3 10-1" style="fill:#99a28e" transform="translate(297 197)"/><path d="m0 0-1 5h-4l-3-1-4-2q5-2 12-2" style="fill:#909a87" transform="translate(286 199)"/><path d="m0 0 4 7 1 3-1 5q-5-2-5-8z" style="fill:#949c8d" transform="translate(254 153)"/><path d="M0 0q8 2 9 10l-4 1-3-4-1-3z" style="fill:#999e8e" transform="translate(339 226)"/><path d="M0 0h2l2 6 1 3 1 3H3L1 8l-6-2 1-3 5 2z" style="fill:#262822" transform="translate(343 221)"/><path d="m0 0 1 3 6 1h5l1 3-22-3z" style="fill:#32352d" transform="translate(295 218)"/><path d="m0 0 4 3-7 3h-5c5-6 5-6 8-6" style="fill:#919889" transform="translate(315 235)"/><path d="m0 0 7 1 4 1 5 2v2L-2 2z" style="fill:#2b2c26" transform="translate(258 219)"/><path d="M0 0h1v6l1 4 1 6v5Q-3 11 0 0" style="fill:#591d1b" transform="translate(305 267)"/><path d="m0 0 2 1-3 7-2 4-2 3h-2l5-10 1-3z" style="fill:#22251f" transform="translate(408 207)"/><path d="M0 0q-2 4-5 4l-3 1-6-1q6-5 14-4" style="fill:#919787" transform="translate(410 225)"/><path d="M0 0q0 5-3 6l-2 2-3 1V3l7-2z" style="fill:#888c7f" transform="translate(418 195)"/><path d="m0 0 5 1Q2 5-2 6l-4 4-2-1 3-4 2-2z" style="fill:#94988b" transform="translate(304 232)"/><path d="m0 0 2 1 3 2 3 2 5 3-1 3-4-3-3-1-5-5z" style="fill:#45100f" transform="translate(332 290)"/><path d="M0 0h2v9q0 3-5 5l1-7 1-4z" style="fill:#252821" transform="translate(380 211)"/><path d="M0 0q4 4 4 8l1 3 1 3H3L1 9 0 6z" style="fill:#282924" transform="translate(352 214)"/><path d="m0 0 4 8v2l1 2-4-3-1-2-1-3z" style="fill:#531514" transform="translate(280 304)"/><path d="m0 0 5 3 3 1 2 2-1 3-9-6z" style="fill:#4d1312" transform="translate(292 321)"/><path d="M0 0q4 4 3 10l-4-1V4l1-2z" style="fill:#969f90" transform="translate(264 161)"/><path d="m0 0 5 13Q0 9-1 2z" style="fill:#501211" transform="translate(313 275)"/><path d="m0 0 11 5-2 2C1 4 1 4 0 0" style="fill:#4b1010" transform="translate(326 298)"/><path d="M0 0h1L0 10l-3-1 1-4 1-3z" style="fill:#878b7d" transform="translate(374 134)"/><path d="m0 0 7 4-1 2Q2 5 0 0" style="fill:#909283" transform="translate(352 180)"/><path d="M0 0q0 5-5 9l-1-2q3-7 6-7" style="fill:#4e1818" transform="translate(87 332)"/><path d="m0 0 2 2-6 4q2-6 4-6" style="fill:#4d1514" transform="translate(283 357)"/><path d="m0 0 5 1 1 3H0z" style="fill:#47473f" transform="translate(331 213)"/><path d="m0 0 4 8H1l-2-7z" style="fill:#363931" transform="translate(366 162)"/><path d="M0 0q5 5 4 6L0 7z" style="fill:#83897c" transform="translate(271 165)"/></svg>